<svg viewBox="0 0 33 33" fill="none" xmlns="http://www.w3.org/2000/svg">
<path d="M28.6585 23.5743C28.201 24.6311 27.6595 25.6039 27.0322 26.4984C26.177 27.7176 25.4768 28.5616 24.9371 29.0303C24.1006 29.7996 23.2044 30.1936 22.2446 30.216C21.5556 30.216 20.7247 30.0199 19.7575 29.6222C18.7871 29.2264 17.8953 29.0303 17.0799 29.0303C16.2247 29.0303 15.3075 29.2264 14.3265 29.6222C13.3439 30.0199 12.5524 30.2272 11.9472 30.2477C11.0269 30.287 10.1095 29.8818 9.19382 29.0303C8.60938 28.5206 7.87837 27.6467 7.00264 26.4087C6.06305 25.0867 5.29058 23.5537 4.68541 21.806C4.0373 19.9182 3.7124 18.0902 3.7124 16.3205C3.7124 14.2932 4.15045 12.5447 5.02786 11.0795C5.71743 9.90262 6.63479 8.97423 7.78295 8.2927C8.93111 7.61116 10.1717 7.26385 11.5077 7.24163C12.2387 7.24163 13.1973 7.46776 14.3886 7.91216C15.5766 8.35805 16.3393 8.58417 16.6737 8.58417C16.9238 8.58417 17.7711 8.31977 19.2076 7.79265C20.566 7.30381 21.7124 7.10141 22.6517 7.18114C25.1967 7.38653 27.1087 8.38979 28.3803 10.1973C26.1042 11.5764 24.9782 13.508 25.0006 15.986C25.0212 17.9162 25.7214 19.5224 27.0975 20.7977C27.7212 21.3896 28.4176 21.8471 29.1925 22.172C29.0245 22.6593 28.8471 23.1261 28.6585 23.5743ZM22.8216 0.605508C22.8216 2.11835 22.2689 3.53089 21.1672 4.83832C19.8377 6.39261 18.2297 7.29074 16.4859 7.14902C16.4637 6.96752 16.4508 6.77651 16.4508 6.57578C16.4508 5.12345 17.083 3.56917 18.2058 2.29834C18.7663 1.65489 19.4792 1.11987 20.3438 0.69308C21.2064 0.272655 22.0224 0.040151 22.7898 0.000335693C22.8122 0.202579 22.8216 0.404836 22.8216 0.605488V0.605508Z" fill="black"/>
</svg>
