<svg width="13" height="12" viewBox="0 0 13 12" fill="none" xmlns="http://www.w3.org/2000/svg">
<path d="M9.89777 5.66233L3.86027 0.9467C3.84449 0.93428 3.82553 0.926562 3.80557 0.924431C3.7856 0.9223 3.76544 0.925844 3.7474 0.934655C3.72936 0.943466 3.71417 0.957188 3.70357 0.974243C3.69298 0.991299 3.68741 1.011 3.6875 1.03108V2.06634C3.6875 2.13197 3.7183 2.19491 3.7692 2.23509L8.59063 5.99983L3.7692 9.76456C3.71697 9.80474 3.6875 9.86768 3.6875 9.93331V10.9686C3.6875 11.0583 3.79063 11.1079 3.86027 11.053L9.89777 6.33733C9.94908 6.2973 9.9906 6.2461 10.0191 6.18761C10.0477 6.12913 10.0625 6.06491 10.0625 5.99983C10.0625 5.93475 10.0477 5.87052 10.0191 5.81204C9.9906 5.75356 9.94908 5.70235 9.89777 5.66233Z" fill="currentColor"/>
</svg>
