<svg width="25" height="24" viewBox="0 0 25 24" fill="none" xmlns="http://www.w3.org/2000/svg">
<path fill-rule="evenodd" clip-rule="evenodd" d="M19.4241 5.61728C19.3757 5.5002 19.304 5.39046 19.2092 5.29508C19.2078 5.29366 19.2064 5.29225 19.205 5.29084C19.0242 5.11112 18.7751 5.00006 18.5 5.00006H18.4999H8.75C8.19772 5.00006 7.75 5.44778 7.75 6.00006C7.75 6.55235 8.19772 7.00006 8.75 7.00006H16.0858L5.79289 17.293C5.40237 17.6835 5.40237 18.3166 5.79289 18.7072C6.18342 19.0977 6.81658 19.0977 7.20711 18.7072L17.5 8.41427V15.7501C17.5 16.3023 17.9477 16.7501 18.5 16.7501C19.0523 16.7501 19.5 16.3023 19.5 15.7501V6.00075V6.00006C19.5 5.99906 19.5 5.99806 19.5 5.99706C19.4996 5.86256 19.4727 5.73431 19.4241 5.61728Z" fill="black" fill-opacity="0.85"/>
</svg>
