<svg width="135" height="259" viewBox="0 0 135 259" fill="none" xmlns="http://www.w3.org/2000/svg">
<path d="M134.011 1.86821L98.368 37.5111L1.86213 37.1775C1.71996 37.1775 1.64887 37.0025 1.7473 36.9041L36.8597 1.79712L134.016 1.86821H134.011Z" fill="#5479F7"/>
<path d="M98.3682 38.3313L1.86228 37.9977C1.46308 37.9977 1.10764 37.7571 0.959997 37.3907C0.806883 37.0243 0.894385 36.6033 1.17327 36.3244L36.2802 1.21742C36.4333 1.0643 36.6411 0.976807 36.8599 0.976807L134.016 1.0479C134.35 1.0479 134.645 1.25023 134.771 1.55645C134.897 1.86268 134.826 2.21266 134.591 2.4478L98.9478 38.0907C98.7947 38.2438 98.5869 38.3313 98.3682 38.3313ZM3.45357 36.3627L98.0346 36.6908L132.037 2.68841L37.1989 2.61732L3.45357 36.3627Z" fill="black"/>
<path d="M134.012 1.90088V248.967L98.9101 284.091C98.7734 284.228 98.5437 284.129 98.5437 283.938V37.5109C98.5437 37.5109 133.509 1.92822 134.012 1.90088Z" fill="#1838E0"/>
<path d="M98.7621 284.971C98.6309 284.971 98.4942 284.944 98.363 284.889C97.9747 284.731 97.7231 284.353 97.7231 283.932V37.511C97.7231 37.2978 97.8052 37.09 97.9583 36.9368C98.0458 36.8494 106.801 27.9359 115.506 19.1373C133.339 1.11353 133.508 1.10259 133.973 1.08072C134.192 1.07525 134.416 1.15181 134.58 1.30492C134.744 1.45804 134.837 1.67677 134.837 1.90097V248.968C134.837 249.186 134.75 249.394 134.596 249.547L99.4949 284.671C99.2981 284.867 99.0356 284.977 98.7621 284.977V284.971ZM99.3637 37.8446V282.472L133.191 248.623V3.75475C128.379 8.40834 111.252 25.7486 99.3637 37.8446Z" fill="black"/>
<path d="M99.0312 284.157L2.11523 283.829C2.32303 284.036 2.1918 37.2542 2.1918 37.2542L99.0312 37.5112C99.0312 37.5112 99.0312 284.277 99.0312 284.157Z" fill="white"/>
<path d="M98.5434 284.977L1.62743 284.649C1.23371 284.649 0.894672 284.364 0.823583 283.971C0.807178 283.883 0.807178 283.801 0.823583 283.719C1.02044 279.629 0.889201 39.6874 0.889201 37.254C0.889201 37.0352 0.976696 36.8274 1.12981 36.6743C1.28293 36.5212 1.49072 36.4337 1.70946 36.4337L98.5489 36.6907C99.0028 36.6907 99.3691 37.0571 99.3691 37.511V284.157C99.3691 284.375 99.2817 284.583 99.1285 284.736C98.9754 284.889 98.7676 284.977 98.5489 284.977H98.5434ZM2.4641 283.008L97.7232 283.331V38.3312L2.52426 38.0797C2.52426 45.5768 2.55707 103.039 2.56254 160.511C2.56254 191.325 2.56252 222.145 2.54612 245.265C2.54065 256.826 2.52426 266.461 2.50785 273.209C2.50238 276.583 2.49144 279.235 2.4805 281.05C2.4805 281.904 2.46958 282.538 2.45864 283.014L2.4641 283.008Z" fill="black"/>
<path d="M55.1555 95H45.2755L47.7955 76.92H47.3555L40.4355 81.52L41.7155 72.2L50.4755 66.2H59.1955L55.1555 95Z" fill="#302CF8"/>
<path d="M42.8643 269.305C42.6565 269.305 42.4433 269.223 42.2847 269.064C41.9621 268.742 41.9621 268.222 42.2847 267.905L70.3484 239.841C70.671 239.519 71.1905 239.519 71.5077 239.841C71.8248 240.164 71.8303 240.683 71.5077 241.001L43.444 269.064C43.2854 269.223 43.0721 269.305 42.8643 269.305Z" fill="#CADDFF"/>
<path d="M41.8746 248.175C41.6668 248.175 41.4535 248.093 41.295 247.934C40.9723 247.612 40.9723 247.092 41.295 246.775L50.2084 237.862C50.531 237.539 51.0505 237.539 51.3677 237.862C51.6903 238.184 51.6903 238.704 51.3677 239.021L42.4542 247.934C42.2957 248.093 42.0824 248.175 41.8746 248.175Z" fill="#CADDFF"/>
</svg>
