<svg width="137" height="145" viewBox="0 0 137 145" fill="none" xmlns="http://www.w3.org/2000/svg">
<path d="M135.038 1.77978L99.7286 37.0891L1.92675 36.7555C1.82285 36.7555 1.77363 36.6297 1.84472 36.5586L37.0282 1.37512L134.901 1.44621C135.076 1.44621 135.158 1.65401 135.038 1.77431V1.77978Z" fill="#5479F7"/>
<path d="M99.7283 37.915L1.92647 37.5814C1.54369 37.5814 1.21011 37.3518 1.06247 37.0018C0.920291 36.6518 0.996845 36.2526 1.2648 35.9847L36.4483 0.801148C36.6014 0.648034 36.8092 0.560547 37.028 0.560547L134.901 0.63163C135.311 0.63163 135.677 0.877707 135.836 1.25502C135.995 1.63234 135.907 2.06981 135.617 2.35964L100.308 37.6689C100.155 37.822 99.9471 37.9095 99.7283 37.9095V37.915ZM3.62167 35.9409L99.3893 36.269L133.392 2.26668L37.367 2.19559L3.62167 35.9409Z" fill="black"/>
<path d="M135.196 1.479V134.563L99.9962 169.785C99.8978 169.883 99.7283 169.812 99.7283 169.675V37.0945C99.7283 37.0945 134.693 1.51181 135.196 1.48447V1.479Z" fill="#1838E0"/>
<path d="M99.8868 170.654C99.761 170.654 99.6353 170.632 99.5095 170.577C99.1431 170.424 98.908 170.069 98.908 169.675V37.0944C98.908 36.8811 98.99 36.6733 99.1431 36.5202C99.2306 36.4327 107.985 27.5193 116.691 18.7207C134.523 0.696905 134.693 0.685965 135.158 0.664092C135.382 0.658624 135.601 0.735183 135.765 0.888297C135.929 1.04141 136.022 1.26014 136.022 1.48435V134.568C136.022 134.787 135.934 134.995 135.781 135.148L100.581 170.37C100.395 170.556 100.144 170.654 99.8923 170.654H99.8868ZM100.548 37.428V168.073L134.376 134.224V3.33266C129.564 7.98625 112.437 25.3265 100.548 37.4225V37.428Z" fill="black"/>
<path d="M99.7284 170.014L1.80078 169.686C2.00858 169.894 1.87734 36.832 1.87734 36.832L99.7339 37.089C99.7339 37.089 99.7339 170.135 99.7339 170.014H99.7284Z" fill="white"/>
<path d="M99.7284 170.835L1.80077 170.507C1.40158 170.507 1.06254 170.222 0.996923 169.828C0.980518 169.735 0.980518 169.643 0.996923 169.555C1.15004 166.897 1.10629 81.7165 1.06254 36.8376C1.06254 36.6189 1.15004 36.4111 1.30315 36.2579C1.45627 36.1048 1.66406 36.0173 1.8828 36.0173L99.7394 36.2743C100.193 36.2743 100.56 36.6407 100.56 37.0946V170.02C100.56 170.239 100.472 170.446 100.319 170.599C100.166 170.753 99.9581 170.84 99.7394 170.84L99.7284 170.835ZM2.6429 168.866L98.9027 169.189V37.9039L2.69211 37.6469C2.69211 42.9512 2.72493 73.082 2.7304 103.218C2.7304 119.82 2.7304 136.422 2.71399 148.885C2.70852 155.113 2.69211 160.308 2.67571 163.95C2.67024 165.771 2.65931 167.204 2.64837 168.182C2.64837 168.439 2.64837 168.664 2.63744 168.861L2.6429 168.866Z" fill="black"/>
<path d="M69.308 64.7918C69.1002 64.7918 68.8869 64.7098 68.7283 64.5512C68.4057 64.2286 68.4057 63.7091 68.7283 63.3919L77.6418 54.4785C77.9644 54.1559 78.4839 54.1559 78.8011 54.4785C79.1182 54.8011 79.1237 55.3206 78.8011 55.6378L69.8876 64.5512C69.729 64.7098 69.5157 64.7918 69.308 64.7918Z" fill="#CADDFF"/>
</svg>
