<svg width="126" height="64" viewBox="0 0 126 64" fill="none" xmlns="http://www.w3.org/2000/svg">
<path d="M124.116 1.96531L88.7743 37.3074C88.7469 37.3348 88.7087 37.3512 88.6704 37.3512L1.14357 37.0176C1.01233 37.0176 0.94671 36.859 1.03967 36.7606L36.1193 1.68096C36.1466 1.65362 36.1849 1.63721 36.2232 1.63721L124.007 1.7083C124.138 1.7083 124.204 1.86688 124.111 1.96531H124.116Z" fill="#5479F7"/>
<mask id="mask0_3312_13052" style="mask-type:alpha" maskUnits="userSpaceOnUse" x="0" y="1" width="125" height="37">
<path d="M124.116 1.96531L88.7743 37.3074C88.7469 37.3348 88.7087 37.3512 88.6704 37.3512L1.14357 37.0176C1.01233 37.0176 0.94671 36.859 1.03967 36.7606L36.1193 1.68096C36.1466 1.65362 36.1849 1.63721 36.2232 1.63721L124.007 1.7083C124.138 1.7083 124.204 1.86688 124.111 1.96531H124.116Z" fill="#5479F7"/>
</mask>
<g mask="url(#mask0_3312_13052)">
<ellipse opacity="0.4" cx="20.6157" cy="20.5" rx="31.5" ry="7.5" fill="black"/>
</g>
<path d="M88.6702 38.1767L1.14335 37.8431C0.749625 37.8431 0.399649 37.608 0.252003 37.2416C0.104357 36.8807 0.186382 36.4651 0.46527 36.1862L35.5449 1.10662C35.7308 0.92069 35.9769 0.822266 36.2284 0.822266L124.018 0.893357C124.411 0.893357 124.761 1.1285 124.915 1.48941C125.068 1.85579 124.98 2.26591 124.707 2.5448L89.3646 37.8869C89.1842 38.0674 88.9326 38.1713 88.6811 38.1713L88.6702 38.1767ZM2.76199 36.2081L88.3967 36.5362L122.399 2.53387L36.5128 2.46278L2.76746 36.2081H2.76199Z" fill="black"/>
<path d="M124.198 1.74646V73.8256L89.0909 78.9544C88.9597 109.086 88.73 78.9927 88.73 78.8068V37.3565C88.73 37.3565 123.695 1.7738 124.198 1.74646Z" fill="#1838E0"/>
<path d="M88.9432 99.8348C88.8119 99.8348 88.6752 99.8075 88.5495 99.7583C88.1612 99.5997 87.9097 99.2224 87.9097 98.8013V37.3565C87.9097 37.1432 87.9917 36.9354 88.1448 36.7823C88.2323 36.6948 96.9872 27.7814 105.693 18.9828C123.525 0.959007 123.7 0.948075 124.16 0.926201C124.384 0.915265 124.602 0.997292 124.767 1.15041C124.931 1.30352 125.024 1.52225 125.024 1.74646V63.8311C125.024 64.0498 124.936 64.2576 124.783 64.4107L89.676 99.5341C89.4791 99.7309 89.2166 99.8348 88.9487 99.8348H88.9432ZM89.5502 37.6901V97.3358L123.378 63.4865V3.60023C118.565 8.25381 101.438 25.5886 89.5502 37.6901Z" fill="black"/>
<path d="M88.7301 79.0146L0.935303 78.6865L1.01186 37.0995L88.7301 37.3565C88.7301 37.3565 88.7301 79.1349 88.7301 79.0146Z" fill="white"/>
<path d="M88.73 79.835L0.935209 79.5069C0.481334 79.5069 0.114953 79.1351 0.120422 78.6867L0.196979 37.0997C0.196979 36.8809 0.284473 36.6731 0.437587 36.52C0.590702 36.3669 0.7985 36.2794 1.01724 36.2794L88.7354 36.5364C89.1893 36.5364 89.5557 36.9028 89.5557 37.3567V79.0148C89.5557 79.2335 89.4682 79.4413 89.3151 79.5944C89.1619 79.7475 88.9542 79.835 88.7354 79.835H88.73ZM1.75547 77.8664L87.9097 78.189V38.1715L1.82655 37.9199L1.75547 77.8664Z" fill="black"/>
</svg>
