<svg viewBox="0 0 20 20" fill="none" xmlns="http://www.w3.org/2000/svg">
<g filter="url(#filter0_d_3312_12831)">
<mask id="path-1-inside-1_3312_12831" fill="white">
<path d="M1.5 2.9C1.5 1.85066 2.35066 1 3.4 1L16.6 1C17.6493 1 18.5 1.85066 18.5 2.9V10.9C18.5 15.3735 14.5333 19 10 19C5.46667 19 1.5 15.3735 1.5 10.9V2.9Z"/>
</mask>
<path d="M1.5 2.9C1.5 1.85066 2.35066 1 3.4 1L16.6 1C17.6493 1 18.5 1.85066 18.5 2.9V10.9C18.5 15.3735 14.5333 19 10 19C5.46667 19 1.5 15.3735 1.5 10.9V2.9Z" fill="url(#paint0_linear_3312_12831)"/>
<path d="M16.5 2.9V10.9H20.5V2.9H16.5ZM3.5 10.9V2.9H-0.5V10.9H3.5ZM10 17C6.45415 17 3.5 14.1554 3.5 10.9H-0.5C-0.5 16.5916 4.47919 21 10 21V17ZM16.5 10.9C16.5 14.1554 13.5459 17 10 17V21C15.5208 21 20.5 16.5916 20.5 10.9H16.5ZM3.4 3L16.6 3L16.6 -1L3.4 -1L3.4 3ZM3.5 2.9C3.5 2.95523 3.45523 3 3.4 3L3.4 -1C1.24609 -1 -0.5 0.746093 -0.5 2.9H3.5ZM20.5 2.9C20.5 0.746091 18.7539 -0.999999 16.6 -1L16.6 3C16.5448 3 16.5 2.95523 16.5 2.9H20.5Z" fill="black" fill-opacity="0.24" mask="url(#path-1-inside-1_3312_12831)"/>
</g>
<mask id="path-3-outside-2_3312_12831" maskUnits="userSpaceOnUse" x="6" y="4" width="8" height="11" fill="black">
<rect fill="white" x="6" y="4" width="8" height="11"/>
<path d="M7.4845 8.022C7.50983 7.34433 7.7315 6.82183 8.1495 6.4545C8.5675 6.08717 9.13433 5.9035 9.85 5.9035C10.325 5.9035 10.7303 5.98583 11.066 6.1505C11.408 6.31517 11.6645 6.54 11.8355 6.825C12.0128 7.11 12.1015 7.42983 12.1015 7.7845C12.1015 8.2025 11.997 8.5445 11.788 8.8105C11.579 9.07017 11.3352 9.2475 11.0565 9.3425V9.3805C11.4175 9.50083 11.7025 9.70033 11.9115 9.979C12.1205 10.2577 12.225 10.6155 12.225 11.0525C12.225 11.4452 12.1332 11.7935 11.9495 12.0975C11.7722 12.3952 11.5093 12.6295 11.161 12.8005C10.819 12.9715 10.4105 13.057 9.9355 13.057C9.1755 13.057 8.5675 12.8702 8.1115 12.4965C7.66183 12.1228 7.42433 11.5592 7.399 10.8055H8.976C8.98233 11.0842 9.0615 11.3058 9.2135 11.4705C9.3655 11.6288 9.58717 11.708 9.8785 11.708C10.1255 11.708 10.3155 11.6383 10.4485 11.499C10.5878 11.3533 10.6575 11.1633 10.6575 10.929C10.6575 10.625 10.5593 10.4065 10.363 10.2735C10.173 10.1342 9.86583 10.0645 9.4415 10.0645H9.1375V8.744H9.4415C9.7645 8.744 10.0242 8.69017 10.2205 8.5825C10.4232 8.4685 10.5245 8.269 10.5245 7.984C10.5245 7.756 10.4612 7.57867 10.3345 7.452C10.2078 7.32533 10.0337 7.262 9.812 7.262C9.57133 7.262 9.39083 7.33483 9.2705 7.4805C9.1565 7.62617 9.09 7.80667 9.071 8.022H7.4845Z"/>
</mask>
<path d="M7.4845 8.022C7.50983 7.34433 7.7315 6.82183 8.1495 6.4545C8.5675 6.08717 9.13433 5.9035 9.85 5.9035C10.325 5.9035 10.7303 5.98583 11.066 6.1505C11.408 6.31517 11.6645 6.54 11.8355 6.825C12.0128 7.11 12.1015 7.42983 12.1015 7.7845C12.1015 8.2025 11.997 8.5445 11.788 8.8105C11.579 9.07017 11.3352 9.2475 11.0565 9.3425V9.3805C11.4175 9.50083 11.7025 9.70033 11.9115 9.979C12.1205 10.2577 12.225 10.6155 12.225 11.0525C12.225 11.4452 12.1332 11.7935 11.9495 12.0975C11.7722 12.3952 11.5093 12.6295 11.161 12.8005C10.819 12.9715 10.4105 13.057 9.9355 13.057C9.1755 13.057 8.5675 12.8702 8.1115 12.4965C7.66183 12.1228 7.42433 11.5592 7.399 10.8055H8.976C8.98233 11.0842 9.0615 11.3058 9.2135 11.4705C9.3655 11.6288 9.58717 11.708 9.8785 11.708C10.1255 11.708 10.3155 11.6383 10.4485 11.499C10.5878 11.3533 10.6575 11.1633 10.6575 10.929C10.6575 10.625 10.5593 10.4065 10.363 10.2735C10.173 10.1342 9.86583 10.0645 9.4415 10.0645H9.1375V8.744H9.4415C9.7645 8.744 10.0242 8.69017 10.2205 8.5825C10.4232 8.4685 10.5245 8.269 10.5245 7.984C10.5245 7.756 10.4612 7.57867 10.3345 7.452C10.2078 7.32533 10.0337 7.262 9.812 7.262C9.57133 7.262 9.39083 7.33483 9.2705 7.4805C9.1565 7.62617 9.09 7.80667 9.071 8.022H7.4845Z" fill="url(#paint1_angular_3312_12831)"/>
<path d="M7.4845 8.022C7.50983 7.34433 7.7315 6.82183 8.1495 6.4545C8.5675 6.08717 9.13433 5.9035 9.85 5.9035C10.325 5.9035 10.7303 5.98583 11.066 6.1505C11.408 6.31517 11.6645 6.54 11.8355 6.825C12.0128 7.11 12.1015 7.42983 12.1015 7.7845C12.1015 8.2025 11.997 8.5445 11.788 8.8105C11.579 9.07017 11.3352 9.2475 11.0565 9.3425V9.3805C11.4175 9.50083 11.7025 9.70033 11.9115 9.979C12.1205 10.2577 12.225 10.6155 12.225 11.0525C12.225 11.4452 12.1332 11.7935 11.9495 12.0975C11.7722 12.3952 11.5093 12.6295 11.161 12.8005C10.819 12.9715 10.4105 13.057 9.9355 13.057C9.1755 13.057 8.5675 12.8702 8.1115 12.4965C7.66183 12.1228 7.42433 11.5592 7.399 10.8055H8.976C8.98233 11.0842 9.0615 11.3058 9.2135 11.4705C9.3655 11.6288 9.58717 11.708 9.8785 11.708C10.1255 11.708 10.3155 11.6383 10.4485 11.499C10.5878 11.3533 10.6575 11.1633 10.6575 10.929C10.6575 10.625 10.5593 10.4065 10.363 10.2735C10.173 10.1342 9.86583 10.0645 9.4415 10.0645H9.1375V8.744H9.4415C9.7645 8.744 10.0242 8.69017 10.2205 8.5825C10.4232 8.4685 10.5245 8.269 10.5245 7.984C10.5245 7.756 10.4612 7.57867 10.3345 7.452C10.2078 7.32533 10.0337 7.262 9.812 7.262C9.57133 7.262 9.39083 7.33483 9.2705 7.4805C9.1565 7.62617 9.09 7.80667 9.071 8.022H7.4845Z" fill="url(#paint2_angular_3312_12831)" fill-opacity="0.5"/>
<path d="M7.4845 8.022L6.4852 7.98464L6.44642 9.022H7.4845V8.022ZM8.1495 6.4545L8.80961 7.20567L8.80961 7.20566L8.1495 6.4545ZM11.066 6.1505L10.6256 7.04831L10.6322 7.0515L11.066 6.1505ZM11.8355 6.825L10.978 7.3395L10.9822 7.34643L10.9864 7.3533L11.8355 6.825ZM11.788 8.8105L12.5671 9.43755L12.5743 9.42832L11.788 8.8105ZM11.0565 9.3425L10.7338 8.39599L10.0565 8.6269V9.3425H11.0565ZM11.0565 9.3805H10.0565V10.1013L10.7403 10.3292L11.0565 9.3805ZM11.9115 9.979L12.7115 9.379L11.9115 9.979ZM11.9495 12.0975L11.0936 11.5804L11.0904 11.5857L11.9495 12.0975ZM11.161 12.8005L10.7203 11.9028L10.7138 11.9061L11.161 12.8005ZM8.1115 12.4965L7.47237 13.2656L7.47768 13.27L8.1115 12.4965ZM7.399 10.8055V9.8055H6.36482L6.39956 10.8391L7.399 10.8055ZM8.976 10.8055L9.97574 10.7828L9.95353 9.8055H8.976V10.8055ZM9.2135 11.4705L8.4787 12.1488L8.48533 12.156L8.49211 12.163L9.2135 11.4705ZM10.4485 11.499L9.72586 10.8078L9.72514 10.8085L10.4485 11.499ZM10.363 10.2735L9.77164 11.0799L9.78669 11.0909L9.80215 11.1014L10.363 10.2735ZM9.1375 10.0645H8.1375V11.0645H9.1375V10.0645ZM9.1375 8.744V7.744H8.1375V8.744H9.1375ZM10.2205 8.5825L10.7014 9.45936L10.7108 9.45408L10.2205 8.5825ZM10.3345 7.452L11.0416 6.74489L11.0416 6.74489L10.3345 7.452ZM9.2705 7.4805L8.49954 6.84362L8.49113 6.8538L8.48299 6.86419L9.2705 7.4805ZM9.071 8.022V9.022H9.98665L10.0671 8.10989L9.071 8.022ZM8.4838 8.05936C8.50129 7.59165 8.64179 7.35314 8.80961 7.20567L7.48939 5.70333C6.82121 6.29052 6.51838 7.09702 6.4852 7.98464L8.4838 8.05936ZM8.80961 7.20566C8.99783 7.04026 9.30595 6.9035 9.85 6.9035V4.9035C8.96272 4.9035 8.13717 5.13407 7.48939 5.70334L8.80961 7.20566ZM9.85 6.9035C10.2124 6.9035 10.4589 6.96654 10.6256 7.04829L11.5064 5.25271C11.0017 5.00513 10.4376 4.9035 9.85 4.9035V6.9035ZM10.6322 7.0515C10.824 7.14384 10.9212 7.24483 10.978 7.3395L12.693 6.3105C12.4078 5.83517 11.992 5.48649 11.4998 5.2495L10.6322 7.0515ZM10.9864 7.3533C11.0594 7.47062 11.1015 7.60552 11.1015 7.7845H13.1015C13.1015 7.25415 12.9662 6.74938 12.6846 6.2967L10.9864 7.3533ZM11.1015 7.7845C11.1015 8.03254 11.0422 8.14115 11.0017 8.19268L12.5743 9.42832C12.9518 8.94785 13.1015 8.37246 13.1015 7.7845H11.1015ZM11.009 8.18349C10.9026 8.31562 10.8103 8.36992 10.7338 8.39599L11.3792 10.289C11.86 10.1251 12.2554 9.82471 12.567 9.43751L11.009 8.18349ZM10.0565 9.3425V9.3805H12.0565V9.3425H10.0565ZM10.7403 10.3292C10.927 10.3914 11.0359 10.4781 11.1115 10.579L12.7115 9.379C12.3691 8.92253 11.908 8.61024 11.3727 8.43182L10.7403 10.3292ZM11.1115 10.579C11.1608 10.6447 11.225 10.776 11.225 11.0525H13.225C13.225 10.455 13.0802 9.87066 12.7115 9.379L11.1115 10.579ZM11.225 11.0525C11.225 11.2827 11.1732 11.4485 11.0936 11.5804L12.8054 12.6146C13.0931 12.1385 13.225 11.6076 13.225 11.0525H11.225ZM11.0904 11.5857C11.0238 11.6974 10.9163 11.8066 10.7203 11.9028L11.6017 13.6982C12.1024 13.4524 12.5205 13.0929 12.8086 12.6093L11.0904 11.5857ZM10.7138 11.9061C10.5402 11.9929 10.2921 12.057 9.9355 12.057V14.057C10.5289 14.057 11.0978 13.9501 11.6082 13.6949L10.7138 11.9061ZM9.9355 12.057C9.33872 12.057 8.9763 11.9123 8.74532 11.723L7.47768 13.27C8.1587 13.828 9.01228 14.057 9.9355 14.057V12.057ZM8.75062 11.7274C8.58028 11.5858 8.41714 11.3283 8.39844 10.7719L6.39956 10.8391C6.43153 11.79 6.74339 12.6598 7.47238 13.2656L8.75062 11.7274ZM7.399 11.8055H8.976V9.8055H7.399V11.8055ZM7.97626 10.8282C7.98672 11.2887 8.12398 11.7645 8.4787 12.1488L9.9483 10.7922C9.95718 10.8018 9.965 10.8124 9.97127 10.8229C9.97747 10.8332 9.98065 10.841 9.98187 10.8444C9.9842 10.8509 9.97691 10.8343 9.97574 10.7828L7.97626 10.8282ZM8.49211 12.163C8.88853 12.576 9.4077 12.708 9.8785 12.708V10.708C9.82124 10.708 9.81078 10.7 9.83009 10.7069C9.84039 10.7106 9.85701 10.7178 9.87698 10.7305C9.89717 10.7433 9.91703 10.7594 9.93489 10.778L8.49211 12.163ZM9.8785 12.708C10.3174 12.708 10.8005 12.5785 11.1719 12.1895L9.72514 10.8085C9.7697 10.7619 9.82075 10.732 9.862 10.7169C9.89857 10.7035 9.90961 10.708 9.8785 10.708V12.708ZM11.1711 12.1902C11.5173 11.8283 11.6575 11.3759 11.6575 10.929H9.6575C9.6575 10.947 9.65494 10.9342 9.66637 10.903C9.67876 10.8692 9.69994 10.8349 9.72586 10.8078L11.1711 12.1902ZM11.6575 10.929C11.6575 10.3981 11.4715 9.81657 10.9238 9.44558L9.80215 11.1014C9.77704 11.0844 9.75014 11.0611 9.72532 11.0315C9.70055 11.0019 9.68312 10.9723 9.67171 10.9469C9.64954 10.8976 9.6575 10.8816 9.6575 10.929H11.6575ZM10.9544 9.4671C10.5024 9.13568 9.9291 9.0645 9.4415 9.0645V11.0645C9.60311 11.0645 9.708 11.0782 9.76894 11.092C9.83148 11.1062 9.81766 11.1137 9.77164 11.0799L10.9544 9.4671ZM9.4415 9.0645H9.1375V11.0645H9.4415V9.0645ZM10.1375 10.0645V8.744H8.1375V10.0645H10.1375ZM9.1375 9.744H9.4415V7.744H9.1375V9.744ZM9.4415 9.744C9.86299 9.744 10.3067 9.67571 10.7013 9.45931L9.73967 7.70569C9.7416 7.70463 9.66601 7.744 9.4415 7.744V9.744ZM10.7108 9.45408C11.304 9.1204 11.5245 8.53421 11.5245 7.984H9.5245C9.5245 8.01099 9.51951 7.96817 9.55692 7.89451C9.59937 7.81095 9.66651 7.74677 9.73024 7.71092L10.7108 9.45408ZM11.5245 7.984C11.5245 7.56674 11.4034 7.10673 11.0416 6.74489L9.62739 8.15911C9.58068 8.11239 9.55078 8.05979 9.53526 8.01634C9.52122 7.97702 9.5245 7.96121 9.5245 7.984H11.5245ZM11.0416 6.74489C10.685 6.38825 10.2321 6.262 9.812 6.262V8.262C9.82853 8.262 9.8087 8.26441 9.76713 8.24929C9.72177 8.2328 9.67099 8.20271 9.62739 8.15911L11.0416 6.74489ZM9.812 6.262C9.36151 6.262 8.85979 6.40753 8.49954 6.84362L10.0415 8.11738C9.99233 8.17685 9.9296 8.22006 9.87032 8.24398C9.81717 8.26542 9.79055 8.262 9.812 8.262V6.262ZM8.48299 6.86419C8.23086 7.18637 8.10794 7.55932 8.07487 7.93411L10.0671 8.10989C10.0698 8.07963 10.0743 8.06856 10.0735 8.07083C10.0731 8.07189 10.0717 8.07537 10.0689 8.08048C10.066 8.08563 10.0624 8.09125 10.058 8.09681L8.48299 6.86419ZM9.071 7.022H7.4845V9.022H9.071V7.022Z" fill="black" fill-opacity="0.16" mask="url(#path-3-outside-2_3312_12831)"/>
<path fill-rule="evenodd" clip-rule="evenodd" d="M2.04492 13.7125L14.7574 1H16.6002C17.6495 1 18.5002 1.85066 18.5002 2.9V5.74252L6.15281 18.0899C4.29662 17.1668 2.80362 15.6065 2.04492 13.7125Z" fill="white" fill-opacity="0.32"/>
<defs>
<filter id="filter0_d_3312_12831" x="1.5" y="1" width="17" height="18.95" filterUnits="userSpaceOnUse" color-interpolation-filters="sRGB">
<feFlood flood-opacity="0" result="BackgroundImageFix"/>
<feColorMatrix in="SourceAlpha" type="matrix" values="0 0 0 0 0 0 0 0 0 0 0 0 0 0 0 0 0 0 127 0" result="hardAlpha"/>
<feOffset dy="0.95"/>
<feComposite in2="hardAlpha" operator="out"/>
<feColorMatrix type="matrix" values="0 0 0 0 0.24 0 0 0 0 0.118652 0 0 0 0 0 0 0 0 1 0"/>
<feBlend mode="normal" in2="BackgroundImageFix" result="effect1_dropShadow_3312_12831"/>
<feBlend mode="normal" in="SourceGraphic" in2="effect1_dropShadow_3312_12831" result="shape"/>
</filter>
<linearGradient id="paint0_linear_3312_12831" x1="9.9999" y1="22.6306" x2="9.9999" y2="1.22501" gradientUnits="userSpaceOnUse">
<stop stop-color="#8C4500"/>
<stop offset="1" stop-color="#D1A66E"/>
</linearGradient>
<radialGradient id="paint1_angular_3312_12831" cx="0" cy="0" r="1" gradientUnits="userSpaceOnUse" gradientTransform="translate(10 10) rotate(90) scale(7 3)">
<stop stop-color="white"/>
<stop offset="1" stop-color="#E0E0E0"/>
</radialGradient>
<radialGradient id="paint2_angular_3312_12831" cx="0" cy="0" r="1" gradientUnits="userSpaceOnUse" gradientTransform="translate(10 10) rotate(-180) scale(3 7)">
<stop stop-color="white"/>
<stop offset="1" stop-color="#E0E0E0"/>
</radialGradient>
</defs>
</svg>
