<svg width="19" height="17" viewBox="0 0 19 17" fill="none" xmlns="http://www.w3.org/2000/svg">
<path d="M17.1703 3.19578H14.2514L13.556 1.24695C13.5079 1.11359 13.4199 0.998322 13.3039 0.916883C13.1878 0.835444 13.0495 0.791806 12.9078 0.791931H6.32295C6.0332 0.791931 5.7735 0.974366 5.67692 1.24695L4.97937 3.19578H2.06042C1.11176 3.19578 0.343384 3.96415 0.343384 4.91281V14.6999C0.343384 15.6486 1.11176 16.4169 2.06042 16.4169H17.1703C18.119 16.4169 18.8873 15.6486 18.8873 14.6999V4.91281C18.8873 3.96415 18.119 3.19578 17.1703 3.19578ZM9.61536 12.9829C7.71804 12.9829 6.1813 11.4461 6.1813 9.5488C6.1813 7.65148 7.71804 6.11473 9.61536 6.11473C11.5127 6.11473 13.0494 7.65148 13.0494 9.5488C13.0494 11.4461 11.5127 12.9829 9.61536 12.9829ZM7.55492 9.5488C7.55492 10.0953 7.772 10.6193 8.15841 11.0058C8.54482 11.3922 9.0689 11.6092 9.61536 11.6092C10.1618 11.6092 10.6859 11.3922 11.0723 11.0058C11.4587 10.6193 11.6758 10.0953 11.6758 9.5488C11.6758 9.00234 11.4587 8.47826 11.0723 8.09185C10.6859 7.70544 10.1618 7.48836 9.61536 7.48836C9.0689 7.48836 8.54482 7.70544 8.15841 8.09185C7.772 8.47826 7.55492 9.00234 7.55492 9.5488Z" fill="black" fill-opacity="0.45"/>
</svg>
