<svg width="24" height="24" viewBox="0 0 24 24" fill="none" xmlns="http://www.w3.org/2000/svg">
<path d="M21.6632 7.93129C21.1374 6.67627 20.3724 5.53554 19.4109 4.57269C18.4523 3.60817 17.3135 2.84131 16.0593 2.31566C14.7745 1.77456 13.3941 1.4972 12 1.50004H11.9531C10.5351 1.50707 9.16403 1.78832 7.87262 2.34144C6.62919 2.87248 5.50114 3.6407 4.55153 4.60316C3.59933 5.56385 2.8431 6.70059 2.32496 7.95004C1.78711 9.24932 1.51457 10.6431 1.5234 12.0493C1.53043 13.6758 1.91949 15.2907 2.64606 16.7344V20.2969C2.64606 20.8922 3.12887 21.375 3.72184 21.375H7.27965C8.73014 22.107 10.3308 22.4921 11.9554 22.5H12.0047C13.4062 22.5 14.7632 22.2282 16.0429 21.6961C17.2908 21.1768 18.4253 20.4188 19.3828 19.4649C20.3484 18.5063 21.1078 17.386 21.6398 16.1368C22.1906 14.843 22.4718 13.4672 22.4789 12.0469C22.4836 10.6196 22.207 9.23441 21.6632 7.93129ZM7.32184 13.125C6.70309 13.125 6.19918 12.6211 6.19918 12C6.19918 11.3789 6.70309 10.875 7.32184 10.875C7.94059 10.875 8.44449 11.3789 8.44449 12C8.44449 12.6211 7.94293 13.125 7.32184 13.125ZM12 13.125C11.3812 13.125 10.8773 12.6211 10.8773 12C10.8773 11.3789 11.3812 10.875 12 10.875C12.6187 10.875 13.1226 11.3789 13.1226 12C13.1226 12.6211 12.6187 13.125 12 13.125ZM16.6781 13.125C16.0593 13.125 15.5554 12.6211 15.5554 12C15.5554 11.3789 16.0593 10.875 16.6781 10.875C17.2968 10.875 17.8007 11.3789 17.8007 12C17.8007 12.6211 17.2968 13.125 16.6781 13.125Z" fill="#8C8C8C"/>
</svg>
