<svg width="30" height="30" viewBox="0 0 30 30" fill="none" xmlns="http://www.w3.org/2000/svg">
<path d="M15 1.875C7.75195 1.875 1.875 7.75195 1.875 15C1.875 22.248 7.75195 28.125 15 28.125C22.248 28.125 28.125 22.248 28.125 15C28.125 7.75195 22.248 1.875 15 1.875ZM19.8457 19.9863L17.9121 19.9775L15 16.5059L12.0908 19.9746L10.1543 19.9834C10.0254 19.9834 9.91992 19.8809 9.91992 19.749C9.91992 19.6934 9.94043 19.6406 9.97559 19.5967L13.7871 15.0557L9.97559 10.5176C9.94018 10.4746 9.92054 10.4209 9.91992 10.3652C9.91992 10.2363 10.0254 10.1309 10.1543 10.1309L12.0908 10.1396L15 13.6113L17.9092 10.1426L19.8428 10.1338C19.9717 10.1338 20.0771 10.2363 20.0771 10.3682C20.0771 10.4238 20.0566 10.4766 20.0215 10.5205L16.2158 15.0586L20.0244 19.5996C20.0596 19.6436 20.0801 19.6963 20.0801 19.752C20.0801 19.8809 19.9746 19.9863 19.8457 19.9863Z" fill="black" fill-opacity="0.85"/>
</svg>
