<svg width="105" height="108" viewBox="0 0 105 108" fill="none" xmlns="http://www.w3.org/2000/svg">
<g clip-path="url(#clip0_3312_13093)">
<path d="M13.3472 72.1938L16.572 78.4833C21.3619 87.9684 42.7276 86.8693 64.3018 76.026C85.8718 65.1798 99.4777 48.7008 94.6909 39.2117L91.4661 32.9221L13.3472 72.1938Z" fill="#00FF00"/>
<mask id="mask0_3312_13093" style="mask-type:luminance" maskUnits="userSpaceOnUse" x="13" y="32" width="83" height="53">
<path d="M13.3472 72.1938L16.572 78.4833C21.3619 87.9684 42.7276 86.8693 64.3018 76.026C85.8718 65.1798 99.4777 48.7008 94.6909 39.2117L91.4661 32.9221L13.3472 72.1938Z" fill="white"/>
</mask>
<g mask="url(#mask0_3312_13093)">
<path d="M13.3464 68.3597L30.0154 101.373" stroke="black" stroke-width="1.3" stroke-linejoin="round"/>
<path d="M16.1241 66.963L32.79 99.9806" stroke="black" stroke-width="1.3" stroke-linejoin="round"/>
<path d="M18.8988 65.5704L35.5605 98.585" stroke="black" stroke-width="1.3" stroke-linejoin="round"/>
<path d="M21.6694 64.1746L38.3384 97.1881" stroke="black" stroke-width="1.3" stroke-linejoin="round"/>
<path d="M24.4441 62.7819L41.113 95.7954" stroke="black" stroke-width="1.3" stroke-linejoin="round"/>
<path d="M27.2215 61.3852L43.8874 94.4027" stroke="black" stroke-width="1.3" stroke-linejoin="round"/>
<path d="M29.9925 59.9893L46.6584 93.0068" stroke="black" stroke-width="1.3" stroke-linejoin="round"/>
<path d="M32.7668 58.5968L49.4358 91.6102" stroke="black" stroke-width="1.3" stroke-linejoin="round"/>
<path d="M35.5417 57.2038L52.2107 90.2173" stroke="black" stroke-width="1.3" stroke-linejoin="round"/>
<path d="M38.3153 55.8042L54.9812 88.8217" stroke="black" stroke-width="1.3" stroke-linejoin="round"/>
<path d="M41.0899 54.4115L57.7558 87.429" stroke="black" stroke-width="1.3" stroke-linejoin="round"/>
<path d="M43.8647 53.0187L60.5337 86.0322" stroke="black" stroke-width="1.3" stroke-linejoin="round"/>
<path d="M46.635 51.623L63.3039 84.6365" stroke="black" stroke-width="1.3" stroke-linejoin="round"/>
<path d="M49.4127 50.2262L66.0786 83.2438" stroke="black" stroke-width="1.3" stroke-linejoin="round"/>
<path d="M52.1876 48.8336L68.8535 81.8512" stroke="black" stroke-width="1.3" stroke-linejoin="round"/>
<path d="M54.9622 47.4408L71.6269 80.4513" stroke="black" stroke-width="1.3" stroke-linejoin="round"/>
<path d="M57.7329 46.0452L74.4018 79.0587" stroke="black" stroke-width="1.3" stroke-linejoin="round"/>
<path d="M60.5104 44.6484L77.1763 77.666" stroke="black" stroke-width="1.3" stroke-linejoin="round"/>
<path d="M63.285 43.2556L79.9467 76.2702" stroke="black" stroke-width="1.3" stroke-linejoin="round"/>
<path d="M66.0557 41.8599L82.7246 74.8734" stroke="black" stroke-width="1.3" stroke-linejoin="round"/>
<path d="M68.8303 40.4674L85.4992 73.4808" stroke="black" stroke-width="1.3" stroke-linejoin="round"/>
<path d="M71.6083 39.0703L88.2742 72.0879" stroke="black" stroke-width="1.3" stroke-linejoin="round"/>
<path d="M74.3783 37.6746L91.0442 70.6922" stroke="black" stroke-width="1.3" stroke-linejoin="round"/>
<path d="M77.1531 36.2821L93.822 69.2956" stroke="black" stroke-width="1.3" stroke-linejoin="round"/>
<path d="M79.931 34.8851L96.5969 67.9027" stroke="black" stroke-width="1.3" stroke-linejoin="round"/>
<path d="M82.7015 33.4895L99.3674 66.5071" stroke="black" stroke-width="1.3" stroke-linejoin="round"/>
<path d="M85.4763 32.0968L102.145 65.1102" stroke="black" stroke-width="1.3" stroke-linejoin="round"/>
<path d="M88.2507 30.7041L104.92 63.7175" stroke="black" stroke-width="1.3" stroke-linejoin="round"/>
</g>
<path d="M13.3472 72.1938L16.572 78.4833C21.3619 87.9684 42.7276 86.8693 64.3018 76.026C85.8718 65.1798 99.4777 48.7008 94.6909 39.2117L91.4661 32.9221L13.3472 72.1938Z" stroke="black" stroke-width="1.3" stroke-linejoin="round"/>
<path d="M91.4663 32.922C96.2562 42.4071 82.6473 58.8901 61.0773 69.7363C39.5073 80.5826 18.1373 81.6787 13.3474 72.1937C8.55748 62.7086 22.1664 46.2256 43.7364 35.3794C65.3064 24.5331 86.6794 23.4329 91.4663 32.922Z" fill="#00FF00" stroke="black" stroke-width="1.3" stroke-linejoin="round"/>
<path d="M87.542 34.7874C83.3915 26.8886 64.2972 28.4417 44.8935 38.2563C25.4899 48.0709 13.1247 62.4305 17.2752 70.3293C21.4257 78.2282 40.5201 76.6751 59.9237 66.8604C79.3274 57.0458 91.6925 42.6862 87.542 34.7874Z" fill="#302CF8" stroke="#151597" stroke-width="1.78907" stroke-linejoin="round"/>
<mask id="path-34-outside-1_3312_13093" maskUnits="userSpaceOnUse" x="36.753" y="34.2433" width="33.6126" height="32.5236" fill="black">
<rect fill="white" x="36.753" y="34.2433" width="33.6126" height="32.5236"/>
<path d="M49.0206 65.109L41.6453 44.7931L51.0806 39.9498C53.5178 38.6987 55.6981 38.2713 57.6214 38.6676C59.5533 39.0372 61.0098 40.1419 61.9908 41.9815C62.1683 42.3144 62.3376 42.6961 62.4988 43.1267C63.0584 44.6471 63.1931 46.1624 62.9028 47.6727C62.6304 49.1738 61.9452 50.5856 60.8471 51.908C59.7576 53.2038 58.3168 54.3116 56.5248 55.2315L54.1054 56.4734L55.9291 61.5627L49.0206 65.109ZM53.814 50.5975C54.6921 50.1468 55.2824 49.5202 55.585 48.7177C55.8781 47.8977 55.8098 47.0847 55.3801 46.2788C55.0624 45.6831 54.5951 45.3204 53.9781 45.1908C53.3697 45.0345 52.7071 45.1403 51.9903 45.5082L50.4043 46.3224L52.2549 51.3979L53.814 50.5975Z"/>
</mask>
<path d="M49.0206 65.109L41.6453 44.7931L51.0806 39.9498C53.5178 38.6987 55.6981 38.2713 57.6214 38.6676C59.5533 39.0372 61.0098 40.1419 61.9908 41.9815C62.1683 42.3144 62.3376 42.6961 62.4988 43.1267C63.0584 44.6471 63.1931 46.1624 62.9028 47.6727C62.6304 49.1738 61.9452 50.5856 60.8471 51.908C59.7576 53.2038 58.3168 54.3116 56.5248 55.2315L54.1054 56.4734L55.9291 61.5627L49.0206 65.109ZM53.814 50.5975C54.6921 50.1468 55.2824 49.5202 55.585 48.7177C55.8781 47.8977 55.8098 47.0847 55.3801 46.2788C55.0624 45.6831 54.5951 45.3204 53.9781 45.1908C53.3697 45.0345 52.7071 45.1403 51.9903 45.5082L50.4043 46.3224L52.2549 51.3979L53.814 50.5975Z" fill="#00FF00"/>
<path d="M49.0206 65.109L48.202 65.3959L48.5363 66.3168L49.4222 65.8621L49.0206 65.109ZM41.6453 44.7931L41.2437 44.04L40.5739 44.3839L40.8266 45.0801L41.6453 44.7931ZM57.6214 38.6676L57.4401 39.5001L57.4524 39.5024L57.6214 38.6676ZM62.4988 43.1267L63.3161 42.8362L63.3145 42.832L62.4988 43.1267ZM62.9028 47.6727L62.0491 47.5177L62.0475 47.5263L62.9028 47.6727ZM60.8471 51.908L61.5171 52.4476L61.5205 52.4435L60.8471 51.908ZM54.1054 56.4734L53.7038 55.7203L53.0368 56.0627L53.2856 56.7571L54.1054 56.4734ZM55.9291 61.5627L56.3307 62.3158L56.9977 61.9734L56.7489 61.279L55.9291 61.5627ZM55.585 48.7177L56.3998 49.0102L56.4023 49.0035L56.4048 48.9967L55.585 48.7177ZM53.9781 45.1908L53.7553 46.0136L53.7743 46.0184L53.7935 46.0225L53.9781 45.1908ZM50.4043 46.3224L50.0027 45.5693L49.332 45.9136L49.5861 46.6104L50.4043 46.3224ZM52.2549 51.3979L51.4367 51.6859L51.7718 52.6051L52.6565 52.151L52.2549 51.3979ZM49.8393 64.822L42.4639 44.5062L40.8266 45.0801L48.202 65.3959L49.8393 64.822ZM42.0469 45.5462L51.4822 40.7029L50.679 39.1967L41.2437 44.04L42.0469 45.5462ZM51.4822 40.7029C53.8107 39.5076 55.7802 39.1579 57.4402 39.5L57.8027 37.8352C55.616 37.3846 53.225 37.8897 50.679 39.1967L51.4822 40.7029ZM57.4524 39.5024C59.1039 39.8184 60.3504 40.7454 61.2205 42.3769L62.7611 41.5861C61.6691 39.5384 60.0028 38.2561 57.7904 37.8328L57.4524 39.5024ZM61.2205 42.3769C61.3773 42.6711 61.5321 43.0181 61.683 43.4214L63.3145 42.832C63.1432 42.3742 62.9593 41.9577 62.7611 41.5861L61.2205 42.3769ZM61.6814 43.4172C62.1915 44.8029 62.3092 46.1646 62.0491 47.5178L63.7565 47.8277C64.077 46.1602 63.9253 44.4912 63.3161 42.8362L61.6814 43.4172ZM62.0475 47.5263C61.8039 48.8687 61.1895 50.1493 60.1737 51.3726L61.5205 52.4435C62.7009 51.0219 63.4569 49.479 63.7581 47.8191L62.0475 47.5263ZM60.1771 51.3685C59.1738 52.5618 57.8305 53.602 56.1232 54.4784L56.9263 55.9846C58.8032 55.0212 60.3415 53.8457 61.5171 52.4475L60.1771 51.3685ZM56.1232 54.4784L53.7038 55.7203L54.507 57.2265L56.9263 55.9846L56.1232 54.4784ZM53.2856 56.7571L55.1093 61.8464L56.7489 61.279L54.9252 56.1897L53.2856 56.7571ZM55.5275 60.8096L48.6191 64.3559L49.4222 65.8621L56.3307 62.3158L55.5275 60.8096ZM54.2156 51.3506C55.2573 50.8159 56.0124 50.0378 56.3998 49.0102L54.7701 48.4252C54.5525 49.0025 54.1269 49.4777 53.4124 49.8444L54.2156 51.3506ZM56.4048 48.9967C56.7816 47.9427 56.6851 46.8861 56.1504 45.8834L54.6098 46.6742C54.9346 47.2834 54.9747 47.8527 54.7651 48.4387L56.4048 48.9967ZM56.1504 45.8834C55.7255 45.0866 55.0559 44.5468 54.1628 44.3591L53.7935 46.0225C54.1343 46.0941 54.3993 46.2796 54.6098 46.6742L56.1504 45.8834ZM54.2009 44.368C53.3288 44.1439 52.4413 44.3175 51.5887 44.7551L52.3919 46.2613C52.973 45.9631 53.4107 45.925 53.7553 46.0136L54.2009 44.368ZM51.5887 44.7551L50.0027 45.5693L50.8059 47.0755L52.3919 46.2613L51.5887 44.7551ZM49.5861 46.6104L51.4367 51.6859L53.0731 51.1098L51.2225 46.0343L49.5861 46.6104ZM52.6565 52.151L54.2156 51.3506L53.4124 49.8444L51.8533 50.6448L52.6565 52.151Z" fill="black" mask="url(#path-34-outside-1_3312_13093)"/>
</g>
<defs>
<clipPath id="clip0_3312_13093">
<rect width="85.9467" height="65.7769" fill="white" transform="matrix(0.596337 -0.802734 0.813415 0.581684 0.128174 68.9929)"/>
</clipPath>
</defs>
</svg>
