<svg width="82" height="61" viewBox="0 0 82 61" fill="none" xmlns="http://www.w3.org/2000/svg">
<g clip-path="url(#clip0_3312_13133)">
<path d="M4.82552 11.6129L1.75095 17.4928C-2.92606 26.3055 9.7149 41.6057 29.9916 51.6713C50.2683 61.7322 70.4967 62.7477 75.1786 53.935L78.2531 48.0551L4.82552 11.6129Z" fill="#00FF00"/>
<mask id="mask0_3312_13133" style="mask-type:luminance" maskUnits="userSpaceOnUse" x="0" y="11" width="79" height="49">
<path d="M4.82552 11.6129L1.75095 17.4928C-2.92606 26.3055 9.7149 41.6057 29.9916 51.6713C50.2683 61.7322 70.4967 62.7477 75.1786 53.935L78.2531 48.0551L4.82552 11.6129Z" fill="white"/>
</mask>
<g mask="url(#mask0_3312_13133)">
<path d="M7.78415 9.49152L-8.49609 40.163" stroke="black" stroke-width="1.3" stroke-linejoin="round"/>
<path d="M10.3952 10.7871L-5.88989 41.4586" stroke="black" stroke-width="1.3" stroke-linejoin="round"/>
<path d="M13.0016 12.0828L-3.28345 42.7495" stroke="black" stroke-width="1.3" stroke-linejoin="round"/>
<path d="M15.6079 13.3736L-0.672363 44.045" stroke="black" stroke-width="1.3" stroke-linejoin="round"/>
<path d="M18.2143 14.6693L1.93408 45.3407" stroke="black" stroke-width="1.3" stroke-linejoin="round"/>
<path d="M20.8256 15.9647L4.54053 46.6361" stroke="black" stroke-width="1.3" stroke-linejoin="round"/>
<path d="M23.4323 17.2556L7.14722 47.9271" stroke="black" stroke-width="1.3" stroke-linejoin="round"/>
<path d="M26.0383 18.5511L9.75806 49.2225" stroke="black" stroke-width="1.3" stroke-linejoin="round"/>
<path d="M28.645 19.8466L12.3647 50.5181" stroke="black" stroke-width="1.3" stroke-linejoin="round"/>
<path d="M31.256 21.1375L14.9709 51.809" stroke="black" stroke-width="1.3" stroke-linejoin="round"/>
<path d="M33.8625 22.4332L17.5774 53.1046" stroke="black" stroke-width="1.3" stroke-linejoin="round"/>
<path d="M36.469 23.7288L20.1887 54.4002" stroke="black" stroke-width="1.3" stroke-linejoin="round"/>
<path d="M39.0752 25.0194L22.7949 55.6909" stroke="black" stroke-width="1.3" stroke-linejoin="round"/>
<path d="M41.6864 26.3151L25.4014 56.9865" stroke="black" stroke-width="1.3" stroke-linejoin="round"/>
<path d="M44.2926 27.6107L28.0076 58.2822" stroke="black" stroke-width="1.3" stroke-linejoin="round"/>
<path d="M46.8991 28.9063L30.6189 59.573" stroke="black" stroke-width="1.3" stroke-linejoin="round"/>
<path d="M49.5056 30.1972L33.2253 60.8687" stroke="black" stroke-width="1.3" stroke-linejoin="round"/>
<path d="M52.1166 31.4926L35.8315 62.1641" stroke="black" stroke-width="1.3" stroke-linejoin="round"/>
<path d="M54.7231 32.7881L38.438 63.4548" stroke="black" stroke-width="1.3" stroke-linejoin="round"/>
<path d="M57.3296 34.079L41.0493 64.7505" stroke="black" stroke-width="1.3" stroke-linejoin="round"/>
<path d="M59.9358 35.3748L43.6555 66.0462" stroke="black" stroke-width="1.3" stroke-linejoin="round"/>
<path d="M62.5473 36.6703L46.2622 67.3417" stroke="black" stroke-width="1.3" stroke-linejoin="round"/>
<path d="M65.1535 37.9609L48.8684 68.6324" stroke="black" stroke-width="1.3" stroke-linejoin="round"/>
<path d="M67.7597 39.2567L51.4795 69.9281" stroke="black" stroke-width="1.3" stroke-linejoin="round"/>
<path d="M70.3712 40.5521L54.0862 71.2236" stroke="black" stroke-width="1.3" stroke-linejoin="round"/>
<path d="M72.9775 41.8431L56.6924 72.5145" stroke="black" stroke-width="1.3" stroke-linejoin="round"/>
<path d="M75.584 43.1387L59.3037 73.8101" stroke="black" stroke-width="1.3" stroke-linejoin="round"/>
<path d="M78.1902 44.4341L61.9099 75.1055" stroke="black" stroke-width="1.3" stroke-linejoin="round"/>
</g>
<path d="M4.82552 11.6129L1.75095 17.4928C-2.92606 26.3055 9.7149 41.6057 29.9916 51.6713C50.2683 61.7322 70.4967 62.7477 75.1786 53.935L78.2531 48.0551L4.82552 11.6129Z" stroke="black" stroke-width="1.3" stroke-linejoin="round"/>
<path d="M78.2533 48.0551C73.5763 56.8679 53.343 55.8523 33.0663 45.7914C12.7896 35.7305 0.148647 20.4256 4.82566 11.6129C9.50267 2.80013 29.7359 3.81571 50.0126 13.8766C70.2893 23.9375 82.9351 39.2423 78.2533 48.0551Z" fill="#00FF00" stroke="black" stroke-width="1.3" stroke-linejoin="round"/>
<path d="M74.6478 46.1651C78.4535 38.7058 66.7158 25.348 48.431 16.3295C30.1463 7.31096 12.2384 6.04696 8.43275 13.5062C4.62709 20.9655 16.3647 34.3234 34.6495 43.3419C52.9343 52.3604 70.8422 53.6244 74.6478 46.1651Z" fill="#302CF8" stroke="#151597" stroke-width="1.78907" stroke-linejoin="round"/>
<mask id="path-34-outside-1_3312_13133" maskUnits="userSpaceOnUse" x="27.5481" y="13.834" width="33.2634" height="32.3691" fill="black">
<rect fill="white" x="27.5481" y="13.834" width="33.2634" height="32.3691"/>
<path d="M29.5263 35.1277L41.9507 17.1518L51.4221 21.7533C53.8686 22.9419 55.4881 24.4179 56.2805 26.1814C57.0999 27.9357 57.0381 29.751 56.0951 31.6274C55.9245 31.967 55.7089 32.3291 55.4484 32.7139C54.5231 34.0653 53.3548 35.0763 51.9435 35.7468C50.5502 36.4262 48.9903 36.7244 47.2638 36.6416C45.5642 36.5496 43.815 36.0666 42.0161 35.1926L39.5875 34.0128L36.4611 38.4969L29.5263 35.1277ZM44.2519 30.2759C45.1334 30.7041 45.9922 30.799 46.8283 30.5604C47.6734 30.3039 48.3025 29.7647 48.7156 28.9427C49.0209 28.3351 49.0475 27.7477 48.7954 27.1805C48.5702 26.6043 48.0978 26.1413 47.3783 25.7917L45.7862 25.0183L42.6868 29.5155L44.2519 30.2759Z"/>
</mask>
<path d="M29.5263 35.1277L41.9507 17.1518L51.4221 21.7533C53.8686 22.9419 55.4881 24.4179 56.2805 26.1814C57.0999 27.9357 57.0381 29.751 56.0951 31.6274C55.9245 31.967 55.7089 32.3291 55.4484 32.7139C54.5231 34.0653 53.3548 35.0763 51.9435 35.7468C50.5502 36.4262 48.9903 36.7244 47.2638 36.6416C45.5642 36.5496 43.815 36.0666 42.0161 35.1926L39.5875 34.0128L36.4611 38.4969L29.5263 35.1277ZM44.2519 30.2759C45.1334 30.7041 45.9922 30.799 46.8283 30.5604C47.6734 30.3039 48.3025 29.7647 48.7156 28.9427C49.0209 28.3351 49.0475 27.7477 48.7954 27.1805C48.5702 26.6043 48.0978 26.1413 47.3783 25.7917L45.7862 25.0183L42.6868 29.5155L44.2519 30.2759Z" fill="#00FF00"/>
<path d="M29.5263 35.1277L28.8141 34.649L28.2509 35.4638L29.1402 35.8959L29.5263 35.1277ZM41.9507 17.1518L42.3367 16.3837L41.6643 16.0571L41.2385 16.6731L41.9507 17.1518ZM56.2805 26.1814L55.4902 26.5341L55.4954 26.5453L56.2805 26.1814ZM55.4484 32.7139L56.1627 33.1895L56.1652 33.1858L55.4484 32.7139ZM51.9435 35.7468L51.5745 34.9766L51.5666 34.9804L51.9435 35.7468ZM47.2638 36.6416L47.2095 37.4954L47.2149 37.4956L47.2638 36.6416ZM39.5875 34.0128L39.9735 33.2446L39.3039 32.9193L38.8774 33.5311L39.5875 34.0128ZM36.4611 38.4969L36.0751 39.265L36.7447 39.5903L37.1713 38.9785L36.4611 38.4969ZM46.8283 30.5604L47.0615 31.3818L47.0685 31.3798L47.0755 31.3777L46.8283 30.5604ZM48.7954 27.1805L47.9889 27.4945L47.996 27.5125L48.0038 27.5301L48.7954 27.1805ZM45.7862 25.0183L46.1722 24.2501L45.4989 23.923L45.0734 24.5405L45.7862 25.0183ZM42.6868 29.5155L41.9741 29.0377L41.4128 29.8522L42.3008 30.2836L42.6868 29.5155ZM30.2384 35.6065L42.6628 17.6306L41.2385 16.6731L28.8141 34.649L30.2384 35.6065ZM41.5646 17.92L51.036 22.5214L51.8081 20.9852L42.3367 16.3837L41.5646 17.92ZM51.036 22.5214C53.3734 23.657 54.8064 25.0121 55.4903 26.5341L57.0707 25.8287C56.1698 23.8238 54.3638 22.2268 51.8081 20.9852L51.036 22.5214ZM55.4954 26.5453C56.1959 28.0449 56.1582 29.5876 55.3219 31.2518L56.8684 32.0031C57.918 29.9145 58.0039 27.8265 57.0656 25.8175L55.4954 26.5453ZM55.3219 31.2518C55.1711 31.5518 54.9756 31.8816 54.7316 32.2421L56.1652 33.1858C56.4422 32.7766 56.6779 32.3821 56.8684 32.0031L55.3219 31.2518ZM54.7341 32.2383C53.8908 33.47 52.839 34.3758 51.5745 34.9766L52.3124 36.5171C53.8706 35.7767 55.1554 34.6606 56.1627 33.1895L54.7341 32.2383ZM51.5666 34.9804C50.3205 35.5879 48.9098 35.8641 47.3126 35.7875L47.2149 37.4956C49.0707 37.5847 50.7798 37.2644 52.3204 36.5132L51.5666 34.9804ZM47.318 35.7878C45.7528 35.7031 44.1159 35.2571 42.4021 34.4245L41.63 35.9608C43.5141 36.8761 45.3756 37.3961 47.2095 37.4954L47.318 35.7878ZM42.4021 34.4245L39.9735 33.2446L39.2015 34.7809L41.63 35.9608L42.4021 34.4245ZM38.8774 33.5311L35.751 38.0153L37.1713 38.9785L40.2976 34.4944L38.8774 33.5311ZM36.8472 37.7288L29.9123 34.3596L29.1402 35.8959L36.0751 39.265L36.8472 37.7288ZM43.8659 31.044C44.9116 31.552 45.9908 31.6873 47.0615 31.3818L46.5951 29.7389C45.9936 29.9106 45.3552 29.8562 44.6379 29.5077L43.8659 31.044ZM47.0755 31.3777C48.1617 31.0481 48.9748 30.3411 49.4888 29.3183L47.9423 28.567C47.6301 29.1884 47.185 29.5598 46.581 29.7431L47.0755 31.3777ZM49.4888 29.3183C49.8972 28.5057 49.9519 27.652 49.5869 26.8309L48.0038 27.5301C48.1431 27.8434 48.1446 28.1645 47.9423 28.567L49.4888 29.3183ZM49.6018 26.8666C49.279 26.0404 48.6202 25.4394 47.7643 25.0236L46.9922 26.5599C47.5755 26.8432 47.8614 27.1681 47.9889 27.4945L49.6018 26.8666ZM47.7643 25.0236L46.1722 24.2501L45.4002 25.7864L46.9922 26.5599L47.7643 25.0236ZM45.0734 24.5405L41.9741 29.0377L43.3996 29.9933L46.499 25.496L45.0734 24.5405ZM42.3008 30.2836L43.8659 31.044L44.6379 29.5077L43.0729 28.7474L42.3008 30.2836Z" fill="black" mask="url(#path-34-outside-1_3312_13133)"/>
</g>
<defs>
<clipPath id="clip0_3312_13133">
<rect width="81.5385" height="61" fill="white"/>
</clipPath>
</defs>
</svg>
