<svg width="48" height="48" viewBox="0 0 48 48" fill="none" xmlns="http://www.w3.org/2000/svg">
<path d="M12.2196 13.8937L7.71367 22.0221C7.02711 23.2606 7.04654 24.7698 7.76478 25.9902L15.2343 38.6822C16.1794 40.2882 18.1082 41.0288 19.8852 40.468L33.2298 36.2572C34.2331 35.9406 35.0713 35.2415 35.5628 34.3113L39.9672 25.9755C40.6099 24.759 40.5824 23.2976 39.8943 22.1063L32.5533 9.396C31.6042 7.7527 29.631 7.00247 27.8299 7.60007L14.4584 12.0365C13.5055 12.3527 12.7064 13.0156 12.2196 13.8937Z" fill="#00FF00" stroke="#1838E0" stroke-width="2"/>
<path d="M22 31.9999L17.7649 40.0938" stroke="#1838E0" stroke-width="2" stroke-linecap="round" stroke-linejoin="round"/>
<path d="M15.2666 16.4839L22.82 28.3001C23.322 29.0855 24.2999 29.4199 25.1777 29.1064L36.9688 24.8958" stroke="#1838E0" stroke-width="2" stroke-linecap="round" stroke-linejoin="round"/>
<ellipse cx="20.9257" cy="15.3595" rx="1.54067" ry="1.5823" fill="#1838E0"/>
<ellipse cx="25.5726" cy="23.2588" rx="1.54067" ry="1.5823" fill="#1838E0"/>
<ellipse cx="12.7267" cy="24.9785" rx="1.54067" ry="1.5823" fill="#1838E0"/>
<ellipse cx="16.2245" cy="30.0585" rx="1.54067" ry="1.5823" fill="#1838E0"/>
<ellipse cx="29.0578" cy="33.7144" rx="1.54067" ry="1.5823" fill="#1838E0"/>
<ellipse cx="29.216" cy="12.8031" rx="1.54067" ry="1.5823" fill="#1838E0"/>
<ellipse cx="33.7047" cy="20.0066" rx="1.54067" ry="1.5823" fill="#1838E0"/>
<ellipse cx="27.8959" cy="17.6831" rx="1.54067" ry="1.5823" fill="#1838E0"/>
</svg>
