<svg viewBox="0 0 33 33" fill="none" xmlns="http://www.w3.org/2000/svg">
<rect width="33" height="33" rx="16.5" fill="#5865F2"/>
<mask id="mask0_3312_12708" style="mask-type:luminance" maskUnits="userSpaceOnUse" x="0" y="0" width="33" height="33">
<path d="M33 0H0V33H33V0Z" fill="white"/>
</mask>
<g mask="url(#mask0_3312_12708)">
<path d="M22.3912 11.0953C21.3077 10.5981 20.1458 10.2318 18.9309 10.022C18.9088 10.018 18.8867 10.0281 18.8753 10.0483C18.7259 10.3141 18.5604 10.6608 18.4444 10.9333C17.1378 10.7377 15.8378 10.7377 14.558 10.9333C14.442 10.6548 14.2705 10.3141 14.1204 10.0483C14.109 10.0288 14.0869 10.0186 14.0648 10.022C12.8506 10.2311 11.6887 10.5974 10.6045 11.0953C10.5951 11.0993 10.5871 11.1061 10.5817 11.1148C8.37782 14.4074 7.77408 17.6191 8.07025 20.7909C8.07159 20.8064 8.0803 20.8213 8.09237 20.8307C9.54644 21.8985 10.955 22.5468 12.3373 22.9765C12.3594 22.9833 12.3829 22.9752 12.397 22.9569C12.724 22.5104 13.0155 22.0395 13.2654 21.5444C13.2801 21.5154 13.266 21.481 13.2359 21.4695C12.7736 21.2941 12.3333 21.0803 11.9098 20.8375C11.8763 20.8179 11.8736 20.77 11.9044 20.747C11.9936 20.6803 12.0827 20.6108 12.1678 20.5406C12.1832 20.5278 12.2047 20.5251 12.2228 20.5332C15.0049 21.8034 18.0169 21.8034 20.7663 20.5332C20.7844 20.5244 20.8058 20.5271 20.8219 20.54C20.907 20.6101 20.9961 20.6803 21.0859 20.747C21.1167 20.77 21.1147 20.8179 21.0812 20.8375C20.6577 21.085 20.2175 21.2941 19.7544 21.4688C19.7243 21.4803 19.7109 21.5154 19.7256 21.5444C19.9809 22.0389 20.2724 22.5097 20.5934 22.9563C20.6068 22.9752 20.6309 22.9833 20.653 22.9765C22.0421 22.5468 23.4506 21.8985 24.9047 20.8307C24.9174 20.8213 24.9255 20.8071 24.9268 20.7916C25.2813 17.1246 24.3331 13.9393 22.4133 11.1155C22.4086 11.1061 22.4006 11.0993 22.3912 11.0953ZM13.6808 18.8596C12.8432 18.8596 12.1531 18.0906 12.1531 17.1462C12.1531 16.2018 12.8298 15.4328 13.6808 15.4328C14.5385 15.4328 15.222 16.2085 15.2086 17.1462C15.2086 18.0906 14.5318 18.8596 13.6808 18.8596ZM19.3296 18.8596C18.492 18.8596 17.8018 18.0906 17.8018 17.1462C17.8018 16.2018 18.4786 15.4328 19.3296 15.4328C20.1873 15.4328 20.8708 16.2085 20.8574 17.1462C20.8574 18.0906 20.1873 18.8596 19.3296 18.8596Z" fill="white"/>
</g>
</svg>
