<svg width="18" height="18" viewBox="0 0 18 18" fill="none" xmlns="http://www.w3.org/2000/svg">
<path d="M3.3234 14.3551C3.36804 14.3551 3.41269 14.3506 3.45733 14.3439L7.21179 13.6854C7.25643 13.6765 7.29885 13.6564 7.3301 13.6229L16.7921 4.16085C16.8128 4.1402 16.8293 4.11568 16.8405 4.08867C16.8517 4.06167 16.8574 4.03272 16.8574 4.00349C16.8574 3.97425 16.8517 3.94531 16.8405 3.9183C16.8293 3.8913 16.8128 3.86677 16.7921 3.84612L13.0823 0.134068C13.0399 0.0916574 12.9841 0.0693359 12.9238 0.0693359C12.8636 0.0693359 12.8078 0.0916574 12.7654 0.134068L3.30331 9.59612C3.26983 9.6296 3.24974 9.66978 3.24081 9.71442L2.58233 13.4689C2.56061 13.5885 2.56837 13.7115 2.60493 13.8274C2.64149 13.9433 2.70575 14.0486 2.79215 14.1341C2.93947 14.2769 3.12474 14.3551 3.3234 14.3551V14.3551ZM4.82786 10.4622L12.9238 2.36844L14.56 4.0046L6.46402 12.0984L4.47965 12.4488L4.82786 10.4622V10.4622ZM17.214 16.2301H0.785453C0.390363 16.2301 0.071167 16.5492 0.071167 16.9443V17.7479C0.071167 17.8461 0.151524 17.9265 0.249738 17.9265H17.7497C17.848 17.9265 17.9283 17.8461 17.9283 17.7479V16.9443C17.9283 16.5492 17.6091 16.2301 17.214 16.2301Z" fill="black"/>
</svg>
