<svg viewBox="0 0 33 33" fill="none" xmlns="http://www.w3.org/2000/svg">
<g clip-path="url(#clip0_3312_12734)">
<path d="M33 16.5C33 7.3873 25.6127 7.62939e-06 16.5 7.62939e-06C7.38729 7.62939e-06 0 7.3873 0 16.5C0 24.7356 6.03381 31.5617 13.9219 32.7996V21.2695H9.73242V16.5H13.9219V12.8649C13.9219 8.72954 16.3852 6.44532 20.1542 6.44532C21.9594 6.44532 23.8477 6.76759 23.8477 6.76759V10.8281H21.767C19.7173 10.8281 19.0781 12.1 19.0781 13.4049V16.5H23.6543L22.9228 21.2695H19.0781V32.7996C26.9662 31.5617 33 24.7356 33 16.5Z" fill="#1877F2"/>
<path d="M22.9228 21.2695L23.6543 16.5H19.0781V13.4049C19.0781 12.1 19.7173 10.8281 21.767 10.8281H23.8477V6.76758C23.8477 6.76758 21.9594 6.44531 20.1542 6.44531C16.3852 6.44531 13.9219 8.72953 13.9219 12.8648V16.5H9.73242V21.2695H13.9219V32.7996C14.7619 32.9314 15.6229 33 16.5 33C17.3771 33 18.2381 32.9314 19.0781 32.7996V21.2695H22.9228Z" fill="white"/>
</g>
<defs>
<clipPath id="clip0_3312_12734">
<rect width="33" height="33" fill="white"/>
</clipPath>
</defs>
</svg>
