<svg viewBox="0 0 48 48" fill="none" xmlns="http://www.w3.org/2000/svg">
<path d="M25.9088 1.59C25.5038 1.95 22.3538 8.20125 22.3538 8.20125L20.01 17.655L29.13 16.8188C29.13 16.8188 36.7163 2.71125 36.87 2.385C37.1438 1.7925 37.29 1.54875 36.2438 1.54875C35.1975 1.545 26.2875 1.2525 25.9088 1.59Z" fill="#1838E0"/>
<path d="M9.56632 1.395C9.33007 1.6125 18.3638 17.7 18.3638 17.7C18.3638 17.7 19.8788 17.895 23.2613 17.925C26.6438 17.955 28.3201 17.73 28.3201 17.73C28.3201 17.73 21.2963 1.55625 20.8763 1.395C20.6701 1.3125 17.8876 1.2825 15.1688 1.2525C12.4463 1.21875 9.79132 1.185 9.56632 1.395Z" fill="#00FF00"/>
<g filter="url(#filter0_d_3312_12753)">
<path d="M27.1281 44.2014C25.2628 45.5995 22.7371 45.5995 20.8719 44.2014L11.9441 37.5096C10.0789 36.1116 9.29838 33.6334 10.0108 31.3713L13.421 20.5437C14.1334 18.2816 16.1767 16.75 18.4823 16.75H29.5177C31.8233 16.75 33.8666 18.2816 34.579 20.5437L37.9892 31.3713C38.7016 33.6334 37.9211 36.1116 36.0559 37.5096L27.1281 44.2014Z" fill="url(#paint0_linear_3312_12753)"/>
<path d="M21.7716 43.0012L12.8437 36.3094C11.4999 35.3021 10.9158 33.4912 11.4415 31.8219L14.8517 20.9943C15.3752 19.3321 16.8571 18.25 18.4823 18.25H29.5177C31.1429 18.25 32.6248 19.3321 33.1483 20.9943L36.5584 31.8219C37.0842 33.4912 36.5001 35.3021 35.1563 36.3094L26.2284 43.0012C24.8964 43.9996 23.1036 43.9996 21.7716 43.0012Z" stroke="white" stroke-opacity="0.4" stroke-width="3"/>
</g>
<path d="M21.3847 27.3632V25.0975H25.332V35.5H22.7955V27.3632H21.3847Z" fill="#1838E0"/>
<path fill-rule="evenodd" clip-rule="evenodd" d="M12.241 37.7317L32.3687 17.6039C33.3906 18.2727 34.1871 19.2973 34.5797 20.5437L36.3945 26.306L19.516 43.1846L12.241 37.7317Z" fill="white" fill-opacity="0.32"/>
<defs>
<filter id="filter0_d_3312_12753" x="9.75" y="16.75" width="28.5" height="29.7" filterUnits="userSpaceOnUse" color-interpolation-filters="sRGB">
<feFlood flood-opacity="0" result="BackgroundImageFix"/>
<feColorMatrix in="SourceAlpha" type="matrix" values="0 0 0 0 0 0 0 0 0 0 0 0 0 0 0 0 0 0 127 0" result="hardAlpha"/>
<feOffset dy="1.2"/>
<feComposite in2="hardAlpha" operator="out"/>
<feColorMatrix type="matrix" values="0 0 0 0 0.300741 0 0 0 0 0.171852 0 0 0 0 0.0192593 0 0 0 1 0"/>
<feBlend mode="normal" in2="BackgroundImageFix" result="effect1_dropShadow_3312_12753"/>
<feBlend mode="normal" in="SourceGraphic" in2="effect1_dropShadow_3312_12753" result="shape"/>
</filter>
<linearGradient id="paint0_linear_3312_12753" x1="24.0004" y1="46.546" x2="24.0004" y2="13.6043" gradientUnits="userSpaceOnUse">
<stop stop-color="#FFB800"/>
<stop offset="1" stop-color="#FFEC00"/>
</linearGradient>
</defs>
</svg>
