<svg viewBox="0 0 33 33" fill="none" xmlns="http://www.w3.org/2000/svg">
<g clip-path="url(#clip0_3312_12720)">
<path d="M32.6784 16.8801C32.6784 15.7585 32.5874 14.6308 32.3934 13.5274H16.8301V19.8812H25.7425C25.3726 21.9304 24.1843 23.7432 22.4443 24.8952V29.0179H27.7614C30.8838 26.1441 32.6784 21.9001 32.6784 16.8801Z" fill="#4285F4"/>
<path d="M16.83 33.0011C21.2801 33.0011 25.033 31.54 27.7674 29.0179L22.4503 24.8951C20.9709 25.9016 19.0611 26.4715 16.8361 26.4715C12.5315 26.4715 8.88164 23.5674 7.57207 19.6629H2.08521V23.9129C4.88623 29.4847 10.5914 33.0011 16.83 33.0011Z" fill="#34A853"/>
<path d="M7.56607 19.6629C6.87491 17.6136 6.87491 15.3946 7.56607 13.3454V9.09536H2.08527C-0.254985 13.7577 -0.254985 19.2506 2.08527 23.9129L7.56607 19.6629Z" fill="#FBBC04"/>
<path d="M16.83 6.53078C19.1824 6.49441 21.456 7.37958 23.1596 9.00442L27.8704 4.2936C24.8875 1.49257 20.9285 -0.0473908 16.83 0.00111192C10.5914 0.00111192 4.88623 3.51755 2.08521 9.09536L7.56601 13.3454C8.86951 9.43488 12.5254 6.53078 16.83 6.53078Z" fill="#EA4335"/>
</g>
<defs>
<clipPath id="clip0_3312_12720">
<rect width="33" height="33" fill="white"/>
</clipPath>
</defs>
</svg>
