
<svg width="33" height="34" viewBox="0 0 33 34" fill="none" xmlns="http://www.w3.org/2000/svg">
<path d="M32.6782 17.3801C32.6782 16.2585 32.5873 15.1308 32.3933 14.0273H16.83V20.3812H25.7423C25.3725 22.4304 24.1842 24.2432 22.4442 25.3952V29.5179H27.7613C30.8836 26.6441 32.6782 22.4001 32.6782 17.3801Z" fill="#4285F4"/>
<path d="M16.83 33.5011C21.2801 33.5011 25.033 32.0399 27.7674 29.5178L22.4503 25.3951C20.9709 26.4015 19.0611 26.9714 16.8361 26.9714C12.5315 26.9714 8.88164 24.0673 7.57207 20.1628H2.08521V24.4129C4.88623 29.9846 10.5914 33.5011 16.83 33.5011Z" fill="#34A853"/>
<path d="M7.56595 20.163C6.87478 18.1137 6.87478 15.8947 7.56595 13.8455V9.59546H2.08515C-0.255107 14.2578 -0.255107 19.7507 2.08515 24.413L7.56595 20.163Z" fill="#FBBC04"/>
<path d="M16.83 7.03078C19.1824 6.99441 21.456 7.87958 23.1596 9.50442L27.8704 4.7936C24.8875 1.99257 20.9285 0.452609 16.83 0.501112C10.5914 0.501112 4.88623 4.01755 2.08521 9.59536L7.56601 13.8454C8.86951 9.93488 12.5254 7.03078 16.83 7.03078Z" fill="#EA4335"/>
</svg>

