<svg width="24" height="24" viewBox="0 0 24 24" fill="none" xmlns="http://www.w3.org/2000/svg">
<path d="M12.6449 5.59661H11.3565C11.2386 5.59661 11.1422 5.69303 11.1422 5.81089V13.185C11.1422 13.2546 11.1743 13.3189 11.2306 13.3591L15.6583 16.5921C15.7547 16.6618 15.8886 16.643 15.9583 16.5466L16.7243 15.502C16.7967 15.4029 16.7752 15.2689 16.6788 15.202L12.8592 12.4404V5.81089C12.8592 5.69303 12.7627 5.59661 12.6449 5.59661ZM18.5324 7.61089L22.7324 8.63678C22.8663 8.66893 22.9976 8.56714 22.9976 8.43053L23.019 4.10464C23.019 3.92518 22.8127 3.82339 22.6735 3.93589L18.452 7.23321C18.4201 7.25789 18.3958 7.29108 18.3819 7.32895C18.3681 7.36682 18.3651 7.40784 18.3735 7.4473C18.3819 7.48675 18.4013 7.52303 18.4294 7.55197C18.4575 7.58091 18.4932 7.60134 18.5324 7.61089V7.61089ZM23.0243 15.6761L21.5056 15.1537C21.4526 15.1356 21.3947 15.1389 21.3441 15.1629C21.2936 15.1869 21.2544 15.2298 21.2351 15.2823C21.1842 15.4189 21.1306 15.5529 21.0743 15.6868C20.5976 16.8145 19.9145 17.8296 19.0413 18.7002C18.1778 19.5664 17.1544 20.2568 16.0279 20.7332C14.8609 21.2266 13.6065 21.4799 12.3395 21.4779C11.0592 21.4779 9.81898 21.2287 8.65113 20.7332C7.52463 20.2568 6.50125 19.5664 5.63773 18.7002C4.7672 17.8296 4.08416 16.8145 3.6047 15.6868C3.11403 14.5192 2.86264 13.2649 2.86541 11.9984C2.86541 10.718 3.11452 9.47518 3.61005 8.30732C4.08684 7.17964 4.76988 6.16446 5.64309 5.29393C6.50661 4.42773 7.52998 3.73729 8.65648 3.26089C9.81898 2.76535 11.0618 2.51625 12.3422 2.51625C13.6226 2.51625 14.8627 2.76535 16.0306 3.26089C17.1571 3.73729 18.1805 4.42773 19.044 5.29393C19.3172 5.56982 19.5743 5.85643 19.8101 6.15911L21.4118 4.90553C19.3038 2.21089 16.0226 0.477854 12.3368 0.480533C5.91898 0.483211 0.765411 5.69571 0.829697 12.1162C0.893982 18.4243 6.02345 23.5163 12.3422 23.5163C17.3109 23.5163 21.5431 20.3663 23.1556 15.9546C23.1958 15.8421 23.1368 15.7162 23.0243 15.6761V15.6761Z" fill="#8C8C8C"/>
</svg>
