<svg width="20" height="20" viewBox="0 0 20 20" fill="none" xmlns="http://www.w3.org/2000/svg">
<path fill-rule="evenodd" clip-rule="evenodd" d="M0 3C0 1.34315 1.34315 0 3 0H15C16.6569 0 18 1.34315 18 3V8.76923H16V3C16 2.44772 15.5523 2 15 2H3C2.44772 2 2 2.44772 2 3V15C2 15.5523 2.44772 16 3 16H9.23077V18H3C1.34315 18 0 16.6569 0 15V3Z" fill="#BFBFBF"/>
<path fill-rule="evenodd" clip-rule="evenodd" d="M16 13.8462C14.8105 13.8462 13.8462 14.8105 13.8462 16C13.8462 17.1895 14.8105 18.1538 16 18.1538C17.1895 18.1538 18.1538 17.1895 18.1538 16C18.1538 14.8105 17.1895 13.8462 16 13.8462ZM12 16C12 13.7909 13.7909 12 16 12C18.2091 12 20 13.7909 20 16C20 18.2091 18.2091 20 16 20C13.7909 20 12 18.2091 12 16Z" fill="#BFBFBF"/>
</svg>
