<svg width="33" height="33" viewBox="0 0 33 33" fill="none" xmlns="http://www.w3.org/2000/svg">
<g clip-path="url(#clip0_3312_12730)">
<path d="M27.2546 7.68325C27.2546 6.58788 26.3668 5.70339 25.2755 5.70339C24.1842 5.70339 23.2957 6.58788 23.2957 7.68325C23.2957 8.7746 24.1842 9.65905 25.2755 9.65905C26.3668 9.65905 27.2546 8.7746 27.2546 7.68325Z" fill="url(#paint0_linear_3312_12730)"/>
<path d="M29.8916 23.1376C29.8183 24.7446 29.5496 25.6176 29.3265 26.1974C29.0267 26.9663 28.6692 27.516 28.0894 28.0926C27.516 28.6692 26.9663 29.0259 26.1974 29.3224C25.6176 29.5488 24.7413 29.8184 23.1344 29.8949C21.3973 29.9715 20.8826 29.9878 16.4774 29.9878C12.0763 29.9878 11.5574 29.9715 9.82028 29.8949C8.21348 29.8184 7.3412 29.5488 6.76129 29.3224C5.98843 29.0259 5.44279 28.6692 4.86618 28.0926C4.28548 27.516 3.92797 26.9663 3.63234 26.1974C3.40914 25.6176 3.13635 24.7446 3.06708 23.1376C2.98243 21.4005 2.96692 20.8776 2.96692 16.4814C2.96692 12.0762 2.98243 11.5574 3.06708 9.82023C3.13635 8.21343 3.40914 7.34122 3.63234 6.75642C3.92797 5.98843 4.28548 5.44193 4.86618 4.86532C5.44279 4.28957 5.98843 3.93199 6.76129 3.63233C7.3412 3.40511 8.21348 3.13959 9.82028 3.06305C11.5574 2.98645 12.0763 2.96691 16.4774 2.96691C20.8826 2.96691 21.3973 2.98645 23.1344 3.06305C24.7413 3.13959 25.6176 3.40511 26.1974 3.63233C26.9663 3.93199 27.516 4.28957 28.0894 4.86532C28.6692 5.44193 29.0267 5.98843 29.3265 6.75642C29.5496 7.34122 29.8183 8.21343 29.8916 9.82023C29.9723 11.5574 29.9918 12.0762 29.9918 16.4814C29.9918 20.8776 29.9723 21.4005 29.8916 23.1376ZM32.8586 9.68508C32.778 7.92916 32.501 6.72954 32.0898 5.68467C31.6712 4.60065 31.11 3.68199 30.1914 2.76332C29.2768 1.84875 28.3581 1.2876 27.2741 0.864114C26.2252 0.456884 25.0296 0.176702 23.2728 0.100167C21.5161 0.0154469 20.9551 -7.62939e-06 16.4774 -7.62939e-06C12.0037 -7.62939e-06 11.4386 0.0154469 9.68185 0.100167C7.92921 0.176702 6.73441 0.456884 5.68059 0.864114C4.60066 1.2876 3.682 1.84875 2.76742 2.76332C1.84875 3.68199 1.2876 4.60065 0.864915 5.68467C0.457684 6.72954 0.180801 7.92916 0.0960813 9.68508C0.0195461 11.4418 0 12.0037 0 16.4814C0 20.9551 0.0195461 21.5161 0.0960813 23.2729C0.180801 25.0255 0.457684 26.2243 0.864915 27.2741C1.2876 28.3541 1.84875 29.2768 2.76742 30.1914C3.682 31.106 4.60066 31.6712 5.68059 32.0939C6.73441 32.5011 7.92921 32.778 9.68185 32.8586C11.4386 32.9393 12.0037 32.9588 16.4774 32.9588C20.9551 32.9588 21.5161 32.9393 23.2728 32.8586C25.0296 32.778 26.2252 32.5011 27.2741 32.0939C28.3581 31.6712 29.2768 31.106 30.1914 30.1914C31.11 29.2768 31.6712 28.3541 32.0898 27.2741C32.501 26.2243 32.778 25.0255 32.8586 23.2729C32.9393 21.5161 32.9588 20.9551 32.9588 16.4814C32.9588 12.0037 32.9393 11.4418 32.8586 9.68508Z" fill="url(#paint1_linear_3312_12730)"/>
<path d="M16.4774 21.9698C13.4453 21.9698 10.985 19.5135 10.985 16.4814C10.985 13.4444 13.4453 10.9849 16.4774 10.9849C19.5104 10.9849 21.974 13.4444 21.974 16.4814C21.974 19.5135 19.5104 21.9698 16.4774 21.9698ZM16.4774 8.01393C11.8035 8.01393 8.01807 11.8074 8.01807 16.4814C8.01807 21.1513 11.8035 24.9408 16.4774 24.9408C21.1514 24.9408 24.9409 21.1513 24.9409 16.4814C24.9409 11.8074 21.1514 8.01393 16.4774 8.01393Z" fill="url(#paint2_linear_3312_12730)"/>
</g>
<defs>
<linearGradient id="paint0_linear_3312_12730" x1="0.297266" y1="32.618" x2="30.2137" y2="2.70173" gradientUnits="userSpaceOnUse">
<stop stop-color="#FFD521"/>
<stop offset="0.05" stop-color="#FFD521"/>
<stop offset="0.501119" stop-color="#F50000"/>
<stop offset="0.95" stop-color="#B900B4"/>
<stop offset="0.950079" stop-color="#B900B4"/>
<stop offset="1" stop-color="#B900B4"/>
</linearGradient>
<linearGradient id="paint1_linear_3312_12730" x1="0.297284" y1="32.6591" x2="30.2383" y2="2.71813" gradientUnits="userSpaceOnUse">
<stop stop-color="#FFD521"/>
<stop offset="0.05" stop-color="#FFD521"/>
<stop offset="0.501119" stop-color="#F50000"/>
<stop offset="0.95" stop-color="#B900B4"/>
<stop offset="0.950079" stop-color="#B900B4"/>
<stop offset="1" stop-color="#B900B4"/>
</linearGradient>
<linearGradient id="paint2_linear_3312_12730" x1="0.305129" y1="32.6599" x2="30.2389" y2="2.72613" gradientUnits="userSpaceOnUse">
<stop stop-color="#FFD521"/>
<stop offset="0.05" stop-color="#FFD521"/>
<stop offset="0.501119" stop-color="#F50000"/>
<stop offset="0.95" stop-color="#B900B4"/>
<stop offset="0.950079" stop-color="#B900B4"/>
<stop offset="1" stop-color="#B900B4"/>
</linearGradient>
<clipPath id="clip0_3312_12730">
<rect width="33" height="33" fill="white"/>
</clipPath>
</defs>
</svg>
