<svg width="22" height="24" viewBox="0 0 22 24" fill="none" xmlns="http://www.w3.org/2000/svg">
<path d="M19.919 4.46001L12.925 0.634009C11.718 -0.0259907 10.279 -0.0239907 9.075 0.639009L2.07 4.49601C0.793 5.19901 0 6.54101 0 8.00001V16.199C0 17.666 0.801 19.013 2.09 19.714L9.086 23.515C9.684 23.84 10.34 24.002 10.995 24.002C11.654 24.002 12.313 23.838 12.914 23.509L19.92 19.678C21.203 18.975 22 17.631 22 16.168V7.96901C22 6.50601 21.203 5.16101 19.919 4.46001ZM8.5 14.196C8.5 14.64 8.14 15 7.696 15C7.378 15 7.09 14.813 6.961 14.522L5.731 11.75V14.385C5.731 14.725 5.455 15 5.116 15C4.776 15 4.501 14.724 4.501 14.385V9.80601C4.501 9.36101 4.862 9.00001 5.307 9.00001C5.624 9.00001 5.912 9.18601 6.042 9.47601L7.289 12.25V9.60601C7.289 9.27101 7.56 9.00001 7.895 9.00001C8.23 9.00001 8.501 9.27101 8.501 9.60601V14.196H8.5ZM12.375 11.72C12.72 11.72 13 12 13 12.345C13 12.69 12.72 12.97 12.375 12.97H11.25V14.375C11.25 14.72 10.97 15 10.625 15C10.28 15 10 14.72 10 14.375V9.62501C10 9.28001 10.28 9.00001 10.625 9.00001H12.375C12.72 9.00001 13 9.28001 13 9.62501C13 9.97001 12.72 10.25 12.375 10.25H11.25V11.72H12.375ZM17.125 10.25H16.5V14.375C16.5 14.72 16.22 15 15.875 15C15.53 15 15.25 14.72 15.25 14.375V10.25H14.625C14.28 10.25 14 9.97001 14 9.62501C14 9.28001 14.28 9.00001 14.625 9.00001H17.125C17.47 9.00001 17.75 9.28001 17.75 9.62501C17.75 9.97001 17.47 10.25 17.125 10.25Z" fill="black"/>
</svg>