<svg viewBox="0 0 32 32" fill="none" xmlns="http://www.w3.org/2000/svg">
<g clip-path="url(#clip0_3312_12698)">
<path d="M27.8922 5.94667L18.5668 0.845334C16.9575 -0.0346663 15.0388 -0.0319996 13.4335 0.852L4.0935 5.99467C2.39083 6.932 1.3335 8.72133 1.3335 10.6667V21.5987C1.3335 23.5547 2.4015 25.3507 4.12016 26.2853L13.4482 31.3533C14.2455 31.7867 15.1202 32.0027 15.9935 32.0027C16.8722 32.0027 17.7508 31.784 18.5522 31.3453L27.8935 26.2373C29.6042 25.3 30.6668 23.508 30.6668 21.5573V10.6253C30.6668 8.67467 29.6042 6.88133 27.8922 5.94667ZM12.6668 18.928C12.6668 19.52 12.1868 20 11.5948 20C11.1708 20 10.7868 19.7507 10.6148 19.3627L8.97483 15.6667V19.18C8.97483 19.6333 8.60683 20 8.15483 20C7.7015 20 7.33483 19.632 7.33483 19.18V13.0747C7.33483 12.4813 7.81616 12 8.4095 12C8.83216 12 9.21616 12.248 9.3895 12.6347L11.0522 16.3333V12.808C11.0522 12.3613 11.4135 12 11.8602 12C12.3068 12 12.6682 12.3613 12.6682 12.808V18.928H12.6668ZM17.8335 15.6267C18.2935 15.6267 18.6668 16 18.6668 16.46C18.6668 16.92 18.2935 17.2933 17.8335 17.2933H16.3335V19.1667C16.3335 19.6267 15.9602 20 15.5002 20C15.0402 20 14.6668 19.6267 14.6668 19.1667V12.8333C14.6668 12.3733 15.0402 12 15.5002 12H17.8335C18.2935 12 18.6668 12.3733 18.6668 12.8333C18.6668 13.2933 18.2935 13.6667 17.8335 13.6667H16.3335V15.6267H17.8335ZM24.1668 13.6667H23.3335V19.1667C23.3335 19.6267 22.9602 20 22.5002 20C22.0402 20 21.6668 19.6267 21.6668 19.1667V13.6667H20.8335C20.3735 13.6667 20.0002 13.2933 20.0002 12.8333C20.0002 12.3733 20.3735 12 20.8335 12H24.1668C24.6268 12 25.0002 12.3733 25.0002 12.8333C25.0002 13.2933 24.6268 13.6667 24.1668 13.6667Z" fill="black"/>
</g>
<defs>
<clipPath id="clip0_3312_12698">
<rect width="32" height="32" fill="white"/>
</clipPath>
</defs>
</svg>
