<svg width="123" height="101" viewBox="0 0 123 101" fill="none" xmlns="http://www.w3.org/2000/svg">
<path d="M61.2155 100.559C86.098 100.559 106.269 96.7899 106.269 92.1406C106.269 87.4912 86.098 83.7222 61.2155 83.7222C36.3329 83.7222 16.1616 87.4912 16.1616 92.1406C16.1616 96.7899 36.3329 100.559 61.2155 100.559Z" fill="#F5F5F7" fill-opacity="0.8"/>
<path fill-rule="evenodd" clip-rule="evenodd" d="M97.2582 67.409L81.3591 47.8416C80.5962 46.9206 79.4811 46.363 78.3068 46.363H44.1229C42.9493 46.363 41.8342 46.9206 41.0713 47.8416L25.1729 67.409V77.6316H97.2588V67.409H97.2582Z" fill="#AEB8C2"/>
<path fill-rule="evenodd" clip-rule="evenodd" d="M38.643 21.1079H83.7872C84.4922 21.1079 85.1683 21.388 85.6668 21.8865C86.1653 22.385 86.4454 23.0611 86.4454 23.7661V85.7969C86.4454 86.5019 86.1653 87.178 85.6668 87.6765C85.1683 88.175 84.4922 88.4551 83.7872 88.4551H38.643C37.938 88.4551 37.2619 88.175 36.7634 87.6765C36.2649 87.178 35.9849 86.5019 35.9849 85.7969V23.7661C35.9849 23.0611 36.2649 22.385 36.7634 21.8865C37.2619 21.388 37.938 21.1079 38.643 21.1079V21.1079Z" fill="#F5F5F7"/>
<path fill-rule="evenodd" clip-rule="evenodd" d="M44.5229 27.7222H77.9074C78.2599 27.7222 78.5979 27.8622 78.8472 28.1114C79.0964 28.3607 79.2365 28.6988 79.2365 29.0512V45.6362C79.2365 45.9887 79.0964 46.3267 78.8472 46.576C78.5979 46.8252 78.2599 46.9653 77.9074 46.9653H44.5229C44.1704 46.9653 43.8323 46.8252 43.5831 46.576C43.3338 46.3267 43.1938 45.9887 43.1938 45.6362V29.0512C43.1938 28.6988 43.3338 28.3607 43.5831 28.1114C43.8323 27.8622 44.1704 27.7222 44.5229 27.7222ZM44.697 54.1802H77.7333C78.1319 54.1802 78.5143 54.3385 78.7962 54.6204C79.0781 54.9023 79.2365 55.2847 79.2365 55.6834C79.2365 56.082 79.0781 56.4644 78.7962 56.7463C78.5143 57.0282 78.1319 57.1866 77.7333 57.1866H44.697C44.2983 57.1866 43.916 57.0282 43.6341 56.7463C43.3522 56.4644 43.1938 56.082 43.1938 55.6834C43.1938 55.2847 43.3522 54.9023 43.6341 54.6204C43.916 54.3385 44.2983 54.1802 44.697 54.1802ZM44.697 61.9972H77.7333C78.132 61.9972 78.5145 62.1556 78.7964 62.4375C79.0784 62.7195 79.2368 63.1019 79.2368 63.5007C79.2368 63.8994 79.0784 64.2819 78.7964 64.5638C78.5145 64.8458 78.132 65.0042 77.7333 65.0042H44.697C44.2982 65.0042 43.9158 64.8458 43.6338 64.5638C43.3519 64.2819 43.1935 63.8994 43.1935 63.5007C43.1935 63.1019 43.3519 62.7195 43.6338 62.4375C43.9158 62.1556 44.2982 61.9972 44.697 61.9972ZM97.1113 90.906C96.5962 92.9468 94.7874 94.4679 92.6356 94.4679H29.7947C27.6429 94.4679 25.834 92.9461 25.3196 90.906C25.2215 90.5171 25.172 90.1175 25.1721 89.7165V67.4098H42.6615C44.5933 67.4098 46.1503 69.0366 46.1503 71.0116V71.0382C46.1503 73.0126 47.7253 74.6068 49.6571 74.6068H72.7731C74.705 74.6068 76.2799 72.998 76.2799 71.0229V71.015C76.2799 69.04 77.8369 67.4092 79.7688 67.4092H97.2581V89.7171C97.2581 90.1271 97.207 90.5252 97.1113 90.906Z" fill="#DCE0E6"/>
<path fill-rule="evenodd" clip-rule="evenodd" d="M99.3095 22.1859L94.7707 23.9469C94.6541 23.9923 94.5271 24.0038 94.4042 23.9801C94.2814 23.9565 94.1677 23.8986 94.0763 23.8132C93.9849 23.7278 93.9194 23.6184 93.8874 23.4974C93.8554 23.3765 93.8582 23.249 93.8955 23.1295L95.1827 19.0047C93.4622 17.0483 92.4521 14.6626 92.4521 12.0882C92.4521 5.44612 99.176 0.0620117 107.471 0.0620117C115.764 0.0620117 122.488 5.44612 122.488 12.0882C122.488 18.7303 115.764 24.1144 107.47 24.1144C104.461 24.1144 101.659 23.406 99.3095 22.1859Z" fill="#DCE0E6"/>
<path d="M113.386 14.2599C114.432 14.2599 115.28 13.4224 115.28 12.3892C115.28 11.3561 114.432 10.5186 113.386 10.5186C112.341 10.5186 111.493 11.3561 111.493 12.3892C111.493 13.4224 112.341 14.2599 113.386 14.2599Z" fill="white"/>
<path fill-rule="evenodd" clip-rule="evenodd" d="M103.448 14.026H99.6611L101.587 10.7524L103.448 14.026ZM105.814 10.7524H109.127V14.026H105.814V10.7524Z" fill="white"/>
</svg>
