<svg width="26" height="27" viewBox="0 0 26 27" fill="none" xmlns="http://www.w3.org/2000/svg">
<path d="M1.00938 13.5C1.00938 11.2067 1.44938 9.4 2.32938 8.08C3.22271 6.76 4.65604 6.1 6.62938 6.1C8.60271 6.1 10.0294 6.76 10.9094 8.08C11.8027 9.4 12.2494 11.2067 12.2494 13.5C12.2494 15.82 11.8027 17.64 10.9094 18.96C10.0294 20.28 8.60271 20.94 6.62938 20.94C4.65604 20.94 3.22271 20.28 2.32938 18.96C1.44938 17.64 1.00938 15.82 1.00938 13.5ZM8.88938 13.5C8.88938 12.1533 8.74271 11.12 8.44938 10.4C8.15604 9.66667 7.54938 9.3 6.62938 9.3C5.70938 9.3 5.10271 9.66667 4.80938 10.4C4.51604 11.12 4.36938 12.1533 4.36938 13.5C4.36938 14.4067 4.42271 15.16 4.52938 15.76C4.63604 16.3467 4.84938 16.8267 5.16938 17.2C5.50271 17.56 5.98938 17.74 6.62938 17.74C7.26938 17.74 7.74938 17.56 8.06938 17.2C8.40271 16.8267 8.62271 16.3467 8.72938 15.76C8.83604 15.16 8.88938 14.4067 8.88938 13.5ZM21.2763 10.34C21.1696 9.84667 20.9829 9.48 20.7163 9.24C20.4496 8.98667 20.0696 8.86 19.5763 8.86C18.8163 8.86 18.2696 9.19333 17.9363 9.86C17.6029 10.5133 17.4296 11.5533 17.4163 12.98C17.7096 12.5133 18.1296 12.1467 18.6763 11.88C19.2363 11.6133 19.8496 11.48 20.5163 11.48C21.8229 11.48 22.8696 11.8933 23.6563 12.72C24.4563 13.5467 24.8563 14.7 24.8563 16.18C24.8563 17.1533 24.6563 18.0067 24.2563 18.74C23.8696 19.4733 23.2963 20.0467 22.5363 20.46C21.7896 20.8733 20.9029 21.08 19.8763 21.08C17.8229 21.08 16.3963 20.44 15.5963 19.16C14.7963 17.8667 14.3963 16.0133 14.3963 13.6C14.3963 11.0667 14.8163 9.18667 15.6562 7.96C16.5096 6.72 17.8696 6.1 19.7363 6.1C20.7363 6.1 21.5763 6.3 22.2563 6.7C22.9496 7.08667 23.4696 7.6 23.8163 8.24C24.1763 8.88 24.3896 9.58 24.4562 10.34H21.2763ZM19.6963 14.18C19.1229 14.18 18.6429 14.3533 18.2563 14.7C17.8829 15.0333 17.6963 15.5133 17.6963 16.14C17.6963 16.78 17.8696 17.28 18.2163 17.64C18.5763 18 19.0829 18.18 19.7363 18.18C20.3229 18.18 20.7829 18.0067 21.1163 17.66C21.4629 17.3 21.6363 16.8133 21.6363 16.2C21.6363 15.5733 21.4696 15.08 21.1363 14.72C20.8029 14.36 20.3229 14.18 19.6963 14.18Z" fill="black"/>
</svg>
