<?xml version="1.0" standalone="no"?>
<!DOCTYPE svg PUBLIC "-//W3C//DTD SVG 20010904//EN"
 "http://www.w3.org/TR/2001/REC-SVG-20010904/DTD/svg10.dtd">
<svg version="1.0" xmlns="http://www.w3.org/2000/svg"
 width="250.000000pt" height="250.000000pt" viewBox="0 0 250.000000 250.000000"
 preserveAspectRatio="xMidYMid meet">

<g transform="translate(0.000000,250.000000) scale(0.100000,-0.100000)"
fill=" #2F54EB" stroke="none">
<path d="M1135 2494 c-176 -27 -335 -73 -448 -130 -190 -97 -373 -264 -492
-450 -253 -394 -253 -934 0 -1328 94 -148 229 -284 375 -380 406 -268 954
-268 1360 0 146 96 281 232 375 380 257 401 252 945 -11 1344 -119 181 -295
339 -484 435 -80 41 -207 83 -315 106 -96 19 -297 32 -360 23z m1058 -831 c9
-3 17 -9 17 -14 0 -8 -57 -127 -64 -136 -4 -5 -146 62 -146 68 0 4 14 36 31
72 l30 66 57 -26 c31 -14 65 -27 75 -30z m-1208 -31 c123 -43 233 -149 273
-265 19 -55 28 -172 23 -295 -1 -10 -22 -12 -83 -10 l-83 3 -5 120 c-5 108 -8
125 -33 167 -112 190 -387 181 -495 -16 -14 -26 -18 -70 -22 -281 l-5 -250
-83 -3 -83 -3 3 273 3 273 30 59 c52 104 187 215 290 239 53 13 222 6 270 -11z
m553 -292 c103 -211 156 -310 167 -310 10 0 49 69 117 208 56 114 108 217 116
229 l13 21 67 -30 c37 -16 70 -33 75 -37 11 -10 -256 -551 -284 -577 -36 -33
-64 -44 -107 -44 -83 0 -89 8 -304 440 -108 217 -197 398 -197 403 -1 4 41 7
92 7 l93 0 152 -310z m-258 -455 l0 -75 -85 0 -85 0 0 75 0 75 85 0 85 0 0
-75z"/>
</g>
</svg>
