<?xml version="1.0" encoding="utf-8"?>
<!-- Generator: Adobe Illustrator 19.2.1, SVG Export Plug-In . SVG Version: 6.00 Build 0)  -->
<svg version="1.1" id="layer" xmlns="http://www.w3.org/2000/svg" xmlns:xlink="http://www.w3.org/1999/xlink" x="0px" y="0px"
	 viewBox="0 0 652 652" style="enable-background:new 0 0 652 652;" xml:space="preserve">
<style type="text/css">
	.st0{fill:#94C11F;}
	.st1{fill:#FBBA00;}
</style>
<path class="st0" d="M166,296.5h42.5l32.3,86.6h0.5l29.9-86.6h39.6L260.5,424h-41.7L166,296.5z M325.9,296.5h39.4V424h-39.4V296.5z
	 M322.7,256.3c0-6.3,2.2-11.7,6.7-16.1c4.5-4.5,9.8-6.7,16.1-6.7s11.7,2.2,16.1,6.7c4.5,4.5,6.7,9.8,6.7,16.1
	c0,6.3-2.2,11.7-6.7,16.1c-4.5,4.5-9.8,6.7-16.1,6.7s-11.7-2.2-16.1-6.7C325,268,322.7,262.6,322.7,256.3 M393.6,296.5H433v20.5h0.5
	c4.2-7.9,9.2-13.8,15-17.7c5.8-3.9,13-5.9,21.8-5.9c2.3,0,4.5,0.1,6.8,0.3c2.3,0.2,4.4,0.5,6.3,1.1v36c-2.8-0.9-5.6-1.5-8.3-2
	c-2.7-0.4-5.6-0.7-8.5-0.7c-7.5,0-13.5,1-17.8,3.1c-4.4,2.1-7.7,5-10.1,8.8c-2.4,3.8-3.9,8.3-4.6,13.5c-0.7,5.3-1,11-1,17.3V424
	h-39.4V296.5z M151.5,296.5h-39.4v72.6l-44.1-72H30v127h28v0h11.8v-71.7l43.9,71.7h36.6v-0.2l1.1,0.2V296.5z"/>
<path class="st1" d="M322.7,256.3c0-6.3,2.2-11.7,6.7-16.1c4.5-4.5,9.8-6.7,16.1-6.7c6.3,0,11.7,2.2,16.1,6.7
	c4.5,4.5,6.7,9.8,6.7,16.1c0,6.3-2.2,11.7-6.7,16.1c-4.5,4.5-9.8,6.7-16.1,6.7c-6.3,0-11.7-2.2-16.1-6.7
	C325,268,322.7,262.6,322.7,256.3"/>
<path class="st0" d="M561.4,290.3c-37.9,0-68.6,30.7-68.6,68.6c0,35.9,27.6,65.4,62.7,68.3v-30.8c-1.9,0.5-4,0.8-6.1,0.8
	c-10,0-18.7-6.4-21.7-15.7c-8.7-4-14.5-12.8-14.5-22.5c0-8.7,4.6-16.8,12-21.2c3.7-14.4,16.7-24.6,31.9-24.6
	c9.4,0,18.2,3.9,24.4,10.8c16.7,1.6,29.9,15.8,29.9,32.9c0,13.8-8.6,25.7-20.7,30.6l3.7,2.8c1.9,1.5,2.3,4.2,0.8,6.1
	c-1.5,1.9-4.2,2.3-6.1,0.8l-12.9-9.9l-0.1,0l0,0c0,0-0.1-0.1-0.1-0.1c-0.2-0.2-0.4-0.3-0.5-0.5c-0.1-0.1-0.1-0.2-0.2-0.2
	c-0.1-0.1-0.2-0.3-0.3-0.4c-0.1-0.1-0.1-0.2-0.2-0.4c-0.1-0.1-0.1-0.3-0.2-0.4c0-0.1-0.1-0.3-0.1-0.4c0-0.1-0.1-0.3-0.1-0.4
	c0-0.2,0-0.3,0-0.5c0-0.1,0-0.3,0-0.4c0-0.2,0-0.4,0.1-0.5c0-0.1,0-0.2,0-0.3c0.1-0.2,0.1-0.5,0.2-0.7c0,0,0-0.1,0-0.1l0,0l0-0.1
	l7.1-15.2c1-2.2,3.6-3.1,5.8-2.1c0,0,0,0,0,0c2.2,1,3.1,3.6,2.1,5.8l-2.8,6c7.5-3.3,12.7-10.8,12.7-19.5c0-11.7-9.5-21.2-21.2-21.3
	c-1.8,0-3.5-0.9-4.6-2.3c-4.1-5.3-10.3-8.4-17-8.4c-10.5,0-19.3,7.5-21,17.8c-0.3,1.9-1.6,3.6-3.4,4.4c-4.7,2.1-7.8,6.8-7.8,12
	c0,5.8,3.9,10.9,9.4,12.6c2.1,0.6,3.7,2.4,4.1,4.6c0.9,5.4,5.5,9.4,11,9.3c2.2,0,4.3-0.7,6.1-1.8v-11.5l-12.5-11.2
	c-2.1-1.9-2.3-5.1-0.4-7.2c0,0,0,0,0,0c1.9-2.1,5.1-2.3,7.2-0.4c0,0,0,0,0,0l5.7,5.1v-10.3c0-4,3.3-7.3,7.3-7.3c4,0,7.3,3.3,7.3,7.3
	v6l2.8-2.5c2.1-1.9,5.3-1.7,7.2,0.4c0,0,0,0,0,0c1.9,2.1,1.7,5.3-0.4,7.2c0,0,0,0,0,0l-9.6,8.7v8.3l0,0v12.3l0,0V427
	c33.8-4.3,59.9-33.1,59.9-68C630,321,599.3,290.3,561.4,290.3"/>
</svg>
