<svg width="625" height="331" viewBox="0 0 625 331" fill="none" xmlns="http://www.w3.org/2000/svg">
<g clip-path="url(#clip0_3951_2199)">
<rect y="0.5" width="625" height="330" rx="30" fill="#1838E0"/>
<rect x="31" y="31.5" width="128" height="38" rx="11" fill="#00FF00"/>
<rect x="31" y="31.5" width="128" height="38" rx="11" stroke="#0C0D0F" stroke-width="2"/>
<path d="M52.976 56.5L50.416 52.052H49.024V56.5H47.2V45.38H51.04C51.8933 45.38 52.6133 45.5293 53.2 45.828C53.7973 46.1267 54.24 46.5267 54.528 47.028C54.8267 47.5293 54.976 48.0893 54.976 48.708C54.976 49.4333 54.7627 50.0947 54.336 50.692C53.92 51.2787 53.2747 51.6787 52.4 51.892L55.152 56.5H52.976ZM49.024 50.596H51.04C51.7227 50.596 52.2347 50.4253 52.576 50.084C52.928 49.7427 53.104 49.284 53.104 48.708C53.104 48.132 52.9333 47.684 52.592 47.364C52.2507 47.0333 51.7333 46.868 51.04 46.868H49.024V50.596ZM56.7014 52.052C56.7014 51.1667 56.8827 50.3827 57.2454 49.7C57.6187 49.0173 58.12 48.4893 58.7494 48.116C59.3894 47.732 60.0934 47.54 60.8614 47.54C61.5547 47.54 62.1574 47.6787 62.6694 47.956C63.192 48.2227 63.608 48.5587 63.9174 48.964V47.684H65.7574V56.5H63.9174V55.188C63.608 55.604 63.1867 55.9507 62.6534 56.228C62.12 56.5053 61.512 56.644 60.8294 56.644C60.072 56.644 59.3787 56.452 58.7494 56.068C58.12 55.6733 57.6187 55.1293 57.2454 54.436C56.8827 53.732 56.7014 52.9373 56.7014 52.052ZM63.9174 52.084C63.9174 51.476 63.7894 50.948 63.5334 50.5C63.288 50.052 62.9627 49.7107 62.5574 49.476C62.152 49.2413 61.7147 49.124 61.2454 49.124C60.776 49.124 60.3387 49.2413 59.9334 49.476C59.528 49.7 59.1974 50.036 58.9414 50.484C58.696 50.9213 58.5734 51.444 58.5734 52.052C58.5734 52.66 58.696 53.1933 58.9414 53.652C59.1974 54.1107 59.528 54.4627 59.9334 54.708C60.3494 54.9427 60.7867 55.06 61.2454 55.06C61.7147 55.06 62.152 54.9427 62.5574 54.708C62.9627 54.4733 63.288 54.132 63.5334 53.684C63.7894 53.2253 63.9174 52.692 63.9174 52.084ZM71.8491 49.172H70.2171V56.5H68.3771V49.172H67.3371V47.684H68.3771V47.06C68.3771 46.0467 68.6438 45.3107 69.1771 44.852C69.7211 44.3827 70.5691 44.148 71.7211 44.148V45.668C71.1665 45.668 70.7771 45.7747 70.5531 45.988C70.3291 46.1907 70.2171 46.548 70.2171 47.06V47.684H71.8491V49.172ZM77.1616 49.172H75.5296V56.5H73.6896V49.172H72.6496V47.684H73.6896V47.06C73.6896 46.0467 73.9563 45.3107 74.4896 44.852C75.0336 44.3827 75.8816 44.148 77.0336 44.148V45.668C76.479 45.668 76.0896 45.7747 75.8656 45.988C75.6416 46.1907 75.5296 46.548 75.5296 47.06V47.684H77.1616V49.172ZM80.6021 44.66V56.5H78.7781V44.66H80.6021ZM91.0769 51.876C91.0769 52.2067 91.0555 52.5053 91.0129 52.772H84.2769C84.3302 53.476 84.5915 54.0413 85.0609 54.468C85.5302 54.8947 86.1062 55.108 86.7889 55.108C87.7702 55.108 88.4635 54.6973 88.8689 53.876H90.8369C90.5702 54.6867 90.0849 55.3533 89.3809 55.876C88.6875 56.388 87.8235 56.644 86.7889 56.644C85.9462 56.644 85.1889 56.4573 84.5169 56.084C83.8555 55.7 83.3329 55.1667 82.9489 54.484C82.5755 53.7907 82.3889 52.9907 82.3889 52.084C82.3889 51.1773 82.5702 50.3827 82.9329 49.7C83.3062 49.0067 83.8235 48.4733 84.4849 48.1C85.1569 47.7267 85.9249 47.54 86.7889 47.54C87.6209 47.54 88.3622 47.7213 89.0129 48.084C89.6635 48.4467 90.1702 48.9587 90.5329 49.62C90.8955 50.2707 91.0769 51.0227 91.0769 51.876ZM89.1729 51.3C89.1622 50.628 88.9222 50.0893 88.4529 49.684C87.9835 49.2787 87.4022 49.076 86.7089 49.076C86.0795 49.076 85.5409 49.2787 85.0929 49.684C84.6449 50.0787 84.3782 50.6173 84.2929 51.3H89.1729ZM105.636 58.516L103.684 56.404C103.204 56.5427 102.676 56.612 102.1 56.612C101.065 56.612 100.111 56.372 99.2361 55.892C98.3721 55.4013 97.6841 54.724 97.1721 53.86C96.6708 52.9853 96.4201 52.004 96.4201 50.916C96.4201 49.828 96.6708 48.852 97.1721 47.988C97.6841 47.124 98.3721 46.452 99.2361 45.972C100.111 45.4813 101.065 45.236 102.1 45.236C103.145 45.236 104.1 45.4813 104.964 45.972C105.839 46.452 106.527 47.124 107.028 47.988C107.529 48.852 107.78 49.828 107.78 50.916C107.78 51.94 107.556 52.868 107.108 53.7C106.671 54.5213 106.063 55.1827 105.284 55.684L107.956 58.516H105.636ZM98.2921 50.916C98.2921 51.7373 98.4521 52.4627 98.7721 53.092C99.1028 53.7107 99.5561 54.1907 100.132 54.532C100.708 54.8627 101.364 55.028 102.1 55.028C102.836 55.028 103.492 54.8627 104.068 54.532C104.644 54.1907 105.092 53.7107 105.412 53.092C105.743 52.4627 105.908 51.7373 105.908 50.916C105.908 50.0947 105.743 49.3747 105.412 48.756C105.092 48.1373 104.644 47.6627 104.068 47.332C103.492 47.0013 102.836 46.836 102.1 46.836C101.364 46.836 100.708 47.0013 100.132 47.332C99.5561 47.6627 99.1028 48.1373 98.7721 48.756C98.4521 49.3747 98.2921 50.0947 98.2921 50.916ZM117.606 47.684V56.5H115.782V55.46C115.494 55.8227 115.115 56.1107 114.646 56.324C114.187 56.5267 113.697 56.628 113.174 56.628C112.481 56.628 111.857 56.484 111.302 56.196C110.758 55.908 110.326 55.4813 110.006 54.916C109.697 54.3507 109.542 53.668 109.542 52.868V47.684H111.35V52.596C111.35 53.3853 111.547 53.9933 111.942 54.42C112.337 54.836 112.875 55.044 113.558 55.044C114.241 55.044 114.779 54.836 115.174 54.42C115.579 53.9933 115.782 53.3853 115.782 52.596V47.684H117.606ZM128.093 51.876C128.093 52.2067 128.071 52.5053 128.029 52.772H121.293C121.346 53.476 121.607 54.0413 122.077 54.468C122.546 54.8947 123.122 55.108 123.805 55.108C124.786 55.108 125.479 54.6973 125.885 53.876H127.852C127.586 54.6867 127.101 55.3533 126.397 55.876C125.703 56.388 124.839 56.644 123.805 56.644C122.962 56.644 122.205 56.4573 121.533 56.084C120.871 55.7 120.349 55.1667 119.965 54.484C119.591 53.7907 119.405 52.9907 119.405 52.084C119.405 51.1773 119.586 50.3827 119.949 49.7C120.322 49.0067 120.839 48.4733 121.501 48.1C122.173 47.7267 122.941 47.54 123.805 47.54C124.637 47.54 125.378 47.7213 126.029 48.084C126.679 48.4467 127.186 48.9587 127.549 49.62C127.911 50.2707 128.093 51.0227 128.093 51.876ZM126.189 51.3C126.178 50.628 125.938 50.0893 125.469 49.684C124.999 49.2787 124.418 49.076 123.725 49.076C123.095 49.076 122.557 49.2787 122.109 49.684C121.661 50.0787 121.394 50.6173 121.309 51.3H126.189ZM133.088 56.644C132.394 56.644 131.77 56.5213 131.216 56.276C130.672 56.02 130.24 55.6787 129.92 55.252C129.6 54.8147 129.429 54.3293 129.408 53.796H131.296C131.328 54.1693 131.504 54.484 131.824 54.74C132.154 54.9853 132.565 55.108 133.056 55.108C133.568 55.108 133.962 55.012 134.24 54.82C134.528 54.6173 134.672 54.3613 134.672 54.052C134.672 53.7213 134.512 53.476 134.192 53.316C133.882 53.156 133.386 52.98 132.704 52.788C132.042 52.6067 131.504 52.4307 131.088 52.26C130.672 52.0893 130.309 51.828 130 51.476C129.701 51.124 129.552 50.66 129.552 50.084C129.552 49.6147 129.69 49.188 129.968 48.804C130.245 48.4093 130.64 48.1 131.152 47.876C131.674 47.652 132.272 47.54 132.944 47.54C133.946 47.54 134.752 47.796 135.36 48.308C135.978 48.8093 136.309 49.4973 136.352 50.372H134.528C134.496 49.9773 134.336 49.6627 134.048 49.428C133.76 49.1933 133.37 49.076 132.88 49.076C132.4 49.076 132.032 49.1667 131.776 49.348C131.52 49.5293 131.392 49.7693 131.392 50.068C131.392 50.3027 131.477 50.5 131.648 50.66C131.818 50.82 132.026 50.948 132.272 51.044C132.517 51.1293 132.88 51.2413 133.36 51.38C134 51.5507 134.522 51.7267 134.928 51.908C135.344 52.0787 135.701 52.3347 136 52.676C136.298 53.0173 136.453 53.4707 136.464 54.036C136.464 54.5373 136.325 54.9853 136.048 55.38C135.77 55.7747 135.376 56.084 134.864 56.308C134.362 56.532 133.77 56.644 133.088 56.644ZM140.562 49.172V54.052C140.562 54.3827 140.637 54.6227 140.786 54.772C140.946 54.9107 141.213 54.98 141.586 54.98H142.706V56.5H141.266C140.445 56.5 139.816 56.308 139.378 55.924C138.941 55.54 138.722 54.916 138.722 54.052V49.172H137.682V47.684H138.722V45.492H140.562V47.684H142.706V49.172H140.562Z" fill="black"/>
<path d="M37.336 91.77V93.072H34.746V101.5H33.15V93.072H30.546V91.77H37.336ZM42.9423 93.66C43.5303 93.66 44.053 93.786 44.5103 94.038C44.977 94.29 45.341 94.6633 45.6023 95.158C45.873 95.6527 46.0083 96.25 46.0083 96.95V101.5H44.4263V97.188C44.4263 96.4973 44.2537 95.97 43.9083 95.606C43.563 95.2327 43.0917 95.046 42.4943 95.046C41.897 95.046 41.421 95.2327 41.0663 95.606C40.721 95.97 40.5483 96.4973 40.5483 97.188V101.5H38.9523V91.14H40.5483V94.682C40.819 94.3553 41.1597 94.1033 41.5703 93.926C41.9903 93.7487 42.4477 93.66 42.9423 93.66ZM55.1141 97.454C55.1141 97.7433 55.0955 98.0047 55.0581 98.238H49.1641C49.2108 98.854 49.4395 99.3487 49.8501 99.722C50.2608 100.095 50.7648 100.282 51.3621 100.282C52.2208 100.282 52.8275 99.9227 53.1821 99.204H54.9041C54.6708 99.9133 54.2461 100.497 53.6301 100.954C53.0235 101.402 52.2675 101.626 51.3621 101.626C50.6248 101.626 49.9621 101.463 49.3741 101.136C48.7955 100.8 48.3381 100.333 48.0021 99.736C47.6755 99.1293 47.5121 98.4293 47.5121 97.636C47.5121 96.8427 47.6708 96.1473 47.9881 95.55C48.3148 94.9433 48.7675 94.4767 49.3461 94.15C49.9341 93.8233 50.6061 93.66 51.3621 93.66C52.0901 93.66 52.7388 93.8187 53.3081 94.136C53.8775 94.4533 54.3208 94.9013 54.6381 95.48C54.9555 96.0493 55.1141 96.7073 55.1141 97.454ZM53.4481 96.95C53.4388 96.362 53.2288 95.8907 52.8181 95.536C52.4075 95.1813 51.8988 95.004 51.2921 95.004C50.7415 95.004 50.2701 95.1813 49.8781 95.536C49.4861 95.8813 49.2528 96.3527 49.1781 96.95H53.4481ZM69.6595 93.66C70.2662 93.66 70.8075 93.786 71.2835 94.038C71.7688 94.29 72.1468 94.6633 72.4175 95.158C72.6975 95.6527 72.8375 96.25 72.8375 96.95V101.5H71.2555V97.188C71.2555 96.4973 71.0828 95.97 70.7375 95.606C70.3922 95.2327 69.9208 95.046 69.3235 95.046C68.7262 95.046 68.2502 95.2327 67.8955 95.606C67.5502 95.97 67.3775 96.4973 67.3775 97.188V101.5H65.7955V97.188C65.7955 96.4973 65.6228 95.97 65.2775 95.606C64.9322 95.2327 64.4608 95.046 63.8635 95.046C63.2662 95.046 62.7902 95.2327 62.4355 95.606C62.0902 95.97 61.9175 96.4973 61.9175 97.188V101.5H60.3215V93.786H61.9175V94.668C62.1788 94.3507 62.5102 94.1033 62.9115 93.926C63.3128 93.7487 63.7422 93.66 64.1995 93.66C64.8155 93.66 65.3662 93.7907 65.8515 94.052C66.3368 94.3133 66.7102 94.6913 66.9715 95.186C67.2048 94.7193 67.5688 94.3507 68.0635 94.08C68.5582 93.8 69.0902 93.66 69.6595 93.66ZM78.2144 101.626C77.4864 101.626 76.8284 101.463 76.2404 101.136C75.6524 100.8 75.1904 100.333 74.8544 99.736C74.5184 99.1293 74.3504 98.4293 74.3504 97.636C74.3504 96.852 74.523 96.1567 74.8684 95.55C75.2137 94.9433 75.685 94.4767 76.2824 94.15C76.8797 93.8233 77.547 93.66 78.2844 93.66C79.0217 93.66 79.689 93.8233 80.2864 94.15C80.8837 94.4767 81.355 94.9433 81.7004 95.55C82.0457 96.1567 82.2184 96.852 82.2184 97.636C82.2184 98.42 82.041 99.1153 81.6864 99.722C81.3317 100.329 80.8464 100.8 80.2304 101.136C79.6237 101.463 78.9517 101.626 78.2144 101.626ZM78.2144 100.24C78.625 100.24 79.0077 100.142 79.3624 99.946C79.7264 99.75 80.0204 99.456 80.2444 99.064C80.4684 98.672 80.5804 98.196 80.5804 97.636C80.5804 97.076 80.473 96.6047 80.2584 96.222C80.0437 95.83 79.759 95.536 79.4044 95.34C79.0497 95.144 78.667 95.046 78.2564 95.046C77.8457 95.046 77.463 95.144 77.1084 95.34C76.763 95.536 76.4877 95.83 76.2824 96.222C76.077 96.6047 75.9744 97.076 75.9744 97.636C75.9744 98.4667 76.1844 99.1107 76.6044 99.568C77.0337 100.016 77.5704 100.24 78.2144 100.24ZM85.3921 94.906C85.6254 94.514 85.9334 94.2107 86.3161 93.996C86.7081 93.772 87.1701 93.66 87.7021 93.66V95.312H87.2961C86.6708 95.312 86.1948 95.4707 85.8681 95.788C85.5508 96.1053 85.3921 96.656 85.3921 97.44V101.5H83.7961V93.786H85.3921V94.906ZM96.2391 97.454C96.2391 97.7433 96.2205 98.0047 96.1831 98.238H90.2891C90.3358 98.854 90.5645 99.3487 90.9751 99.722C91.3858 100.095 91.8898 100.282 92.4871 100.282C93.3458 100.282 93.9525 99.9227 94.3071 99.204H96.0291C95.7958 99.9133 95.3711 100.497 94.7551 100.954C94.1485 101.402 93.3925 101.626 92.4871 101.626C91.7498 101.626 91.0871 101.463 90.4991 101.136C89.9205 100.8 89.4631 100.333 89.1271 99.736C88.8005 99.1293 88.6371 98.4293 88.6371 97.636C88.6371 96.8427 88.7958 96.1473 89.1131 95.55C89.4398 94.9433 89.8925 94.4767 90.4711 94.15C91.0591 93.8233 91.7311 93.66 92.4871 93.66C93.2151 93.66 93.8638 93.8187 94.4331 94.136C95.0025 94.4533 95.4458 94.9013 95.7631 95.48C96.0805 96.0493 96.2391 96.7073 96.2391 97.454ZM94.5731 96.95C94.5638 96.362 94.3538 95.8907 93.9431 95.536C93.5325 95.1813 93.0238 95.004 92.4171 95.004C91.8665 95.004 91.3951 95.1813 91.0031 95.536C90.6111 95.8813 90.3778 96.3527 90.3031 96.95H94.5731ZM100.914 97.608C100.914 96.8333 101.073 96.1473 101.39 95.55C101.717 94.9527 102.156 94.4907 102.706 94.164C103.266 93.828 103.887 93.66 104.568 93.66C105.166 93.66 105.693 93.7813 106.15 94.024C106.617 94.2667 106.976 94.5607 107.228 94.906V93.786H108.838V105.168H107.228V100.38C106.976 100.725 106.612 101.019 106.136 101.262C105.66 101.505 105.119 101.626 104.512 101.626C103.85 101.626 103.243 101.458 102.692 101.122C102.151 100.777 101.717 100.301 101.39 99.694C101.073 99.078 100.914 98.3827 100.914 97.608ZM107.228 97.636C107.228 97.104 107.116 96.642 106.892 96.25C106.678 95.858 106.393 95.5593 106.038 95.354C105.684 95.1487 105.301 95.046 104.89 95.046C104.48 95.046 104.097 95.1487 103.742 95.354C103.388 95.55 103.098 95.844 102.874 96.236C102.66 96.6187 102.552 97.076 102.552 97.608C102.552 98.14 102.66 98.6067 102.874 99.008C103.098 99.4093 103.388 99.7173 103.742 99.932C104.106 100.137 104.489 100.24 104.89 100.24C105.301 100.24 105.684 100.137 106.038 99.932C106.393 99.7267 106.678 99.428 106.892 99.036C107.116 98.6347 107.228 98.168 107.228 97.636ZM117.921 93.786V101.5H116.325V100.59C116.073 100.907 115.741 101.159 115.331 101.346C114.929 101.523 114.5 101.612 114.043 101.612C113.436 101.612 112.89 101.486 112.405 101.234C111.929 100.982 111.551 100.609 111.271 100.114C111 99.6193 110.865 99.022 110.865 98.322V93.786H112.447V98.084C112.447 98.7747 112.619 99.3067 112.965 99.68C113.31 100.044 113.781 100.226 114.379 100.226C114.976 100.226 115.447 100.044 115.793 99.68C116.147 99.3067 116.325 98.7747 116.325 98.084V93.786H117.921ZM127.097 97.454C127.097 97.7433 127.078 98.0047 127.041 98.238H121.147C121.193 98.854 121.422 99.3487 121.833 99.722C122.243 100.095 122.747 100.282 123.345 100.282C124.203 100.282 124.81 99.9227 125.165 99.204H126.887C126.653 99.9133 126.229 100.497 125.613 100.954C125.006 101.402 124.25 101.626 123.345 101.626C122.607 101.626 121.945 101.463 121.357 101.136C120.778 100.8 120.321 100.333 119.985 99.736C119.658 99.1293 119.495 98.4293 119.495 97.636C119.495 96.8427 119.653 96.1473 119.971 95.55C120.297 94.9433 120.75 94.4767 121.329 94.15C121.917 93.8233 122.589 93.66 123.345 93.66C124.073 93.66 124.721 93.8187 125.291 94.136C125.86 94.4533 126.303 94.9013 126.621 95.48C126.938 96.0493 127.097 96.7073 127.097 97.454ZM125.431 96.95C125.421 96.362 125.211 95.8907 124.801 95.536C124.39 95.1813 123.881 95.004 123.275 95.004C122.724 95.004 122.253 95.1813 121.861 95.536C121.469 95.8813 121.235 96.3527 121.161 96.95H125.431ZM131.467 101.626C130.861 101.626 130.315 101.519 129.829 101.304C129.353 101.08 128.975 100.781 128.695 100.408C128.415 100.025 128.266 99.6007 128.247 99.134H129.899C129.927 99.4607 130.081 99.736 130.361 99.96C130.651 100.175 131.01 100.282 131.439 100.282C131.887 100.282 132.233 100.198 132.475 100.03C132.727 99.8527 132.853 99.6287 132.853 99.358C132.853 99.0687 132.713 98.854 132.433 98.714C132.163 98.574 131.729 98.42 131.131 98.252C130.553 98.0933 130.081 97.9393 129.717 97.79C129.353 97.6407 129.036 97.412 128.765 97.104C128.504 96.796 128.373 96.39 128.373 95.886C128.373 95.4753 128.495 95.102 128.737 94.766C128.98 94.4207 129.325 94.15 129.773 93.954C130.231 93.758 130.753 93.66 131.341 93.66C132.219 93.66 132.923 93.884 133.455 94.332C133.997 94.7707 134.286 95.3727 134.323 96.138H132.727C132.699 95.7927 132.559 95.5173 132.307 95.312C132.055 95.1067 131.715 95.004 131.285 95.004C130.865 95.004 130.543 95.0833 130.319 95.242C130.095 95.4007 129.983 95.6107 129.983 95.872C129.983 96.0773 130.058 96.25 130.207 96.39C130.357 96.53 130.539 96.642 130.753 96.726C130.968 96.8007 131.285 96.8987 131.705 97.02C132.265 97.1693 132.723 97.3233 133.077 97.482C133.441 97.6313 133.754 97.8553 134.015 98.154C134.277 98.4527 134.412 98.8493 134.421 99.344C134.421 99.7827 134.3 100.175 134.057 100.52C133.815 100.865 133.469 101.136 133.021 101.332C132.583 101.528 132.065 101.626 131.467 101.626ZM138.008 95.088V99.358C138.008 99.6473 138.073 99.8573 138.204 99.988C138.344 100.109 138.577 100.17 138.904 100.17H139.884V101.5H138.624C137.905 101.5 137.354 101.332 136.972 100.996C136.589 100.66 136.398 100.114 136.398 99.358V95.088H135.488V93.786H136.398V91.868H138.008V93.786H139.884V95.088H138.008ZM144.155 101.626C143.548 101.626 143.002 101.519 142.517 101.304C142.041 101.08 141.663 100.781 141.383 100.408C141.103 100.025 140.953 99.6007 140.935 99.134H142.587C142.615 99.4607 142.769 99.736 143.049 99.96C143.338 100.175 143.697 100.282 144.127 100.282C144.575 100.282 144.92 100.198 145.163 100.03C145.415 99.8527 145.541 99.6287 145.541 99.358C145.541 99.0687 145.401 98.854 145.121 98.714C144.85 98.574 144.416 98.42 143.819 98.252C143.24 98.0933 142.769 97.9393 142.405 97.79C142.041 97.6407 141.723 97.412 141.453 97.104C141.191 96.796 141.061 96.39 141.061 95.886C141.061 95.4753 141.182 95.102 141.425 94.766C141.667 94.4207 142.013 94.15 142.461 93.954C142.918 93.758 143.441 93.66 144.029 93.66C144.906 93.66 145.611 93.884 146.143 94.332C146.684 94.7707 146.973 95.3727 147.011 96.138H145.415C145.387 95.7927 145.247 95.5173 144.995 95.312C144.743 95.1067 144.402 95.004 143.973 95.004C143.553 95.004 143.231 95.0833 143.007 95.242C142.783 95.4007 142.671 95.6107 142.671 95.872C142.671 96.0773 142.745 96.25 142.895 96.39C143.044 96.53 143.226 96.642 143.441 96.726C143.655 96.8007 143.973 96.8987 144.393 97.02C144.953 97.1693 145.41 97.3233 145.765 97.482C146.129 97.6313 146.441 97.8553 146.703 98.154C146.964 98.4527 147.099 98.8493 147.109 99.344C147.109 99.7827 146.987 100.175 146.745 100.52C146.502 100.865 146.157 101.136 145.709 101.332C145.27 101.528 144.752 101.626 144.155 101.626ZM159.414 93.786L154.682 105.126H153.03L154.598 101.374L151.56 93.786H153.338L155.508 99.666L157.762 93.786H159.414ZM163.964 101.626C163.236 101.626 162.578 101.463 161.99 101.136C161.402 100.8 160.94 100.333 160.604 99.736C160.268 99.1293 160.1 98.4293 160.1 97.636C160.1 96.852 160.273 96.1567 160.618 95.55C160.964 94.9433 161.435 94.4767 162.032 94.15C162.63 93.8233 163.297 93.66 164.034 93.66C164.772 93.66 165.439 93.8233 166.036 94.15C166.634 94.4767 167.105 94.9433 167.45 95.55C167.796 96.1567 167.968 96.852 167.968 97.636C167.968 98.42 167.791 99.1153 167.436 99.722C167.082 100.329 166.596 100.8 165.98 101.136C165.374 101.463 164.702 101.626 163.964 101.626ZM163.964 100.24C164.375 100.24 164.758 100.142 165.112 99.946C165.476 99.75 165.77 99.456 165.994 99.064C166.218 98.672 166.33 98.196 166.33 97.636C166.33 97.076 166.223 96.6047 166.008 96.222C165.794 95.83 165.509 95.536 165.154 95.34C164.8 95.144 164.417 95.046 164.006 95.046C163.596 95.046 163.213 95.144 162.858 95.34C162.513 95.536 162.238 95.83 162.032 96.222C161.827 96.6047 161.724 97.076 161.724 97.636C161.724 98.4667 161.934 99.1107 162.354 99.568C162.784 100.016 163.32 100.24 163.964 100.24ZM176.532 93.786V101.5H174.936V100.59C174.684 100.907 174.353 101.159 173.942 101.346C173.541 101.523 173.111 101.612 172.654 101.612C172.047 101.612 171.501 101.486 171.016 101.234C170.54 100.982 170.162 100.609 169.882 100.114C169.611 99.6193 169.476 99.022 169.476 98.322V93.786H171.058V98.084C171.058 98.7747 171.231 99.3067 171.576 99.68C171.921 100.044 172.393 100.226 172.99 100.226C173.587 100.226 174.059 100.044 174.404 99.68C174.759 99.3067 174.936 98.7747 174.936 98.084V93.786H176.532ZM181.743 97.636C181.743 96.8427 181.901 96.1473 182.219 95.55C182.545 94.9433 182.993 94.4767 183.563 94.15C184.132 93.8233 184.785 93.66 185.523 93.66C186.456 93.66 187.226 93.884 187.833 94.332C188.449 94.7707 188.864 95.4007 189.079 96.222H187.357C187.217 95.8393 186.993 95.5407 186.685 95.326C186.377 95.1113 185.989 95.004 185.523 95.004C184.869 95.004 184.347 95.2373 183.955 95.704C183.572 96.1613 183.381 96.8053 183.381 97.636C183.381 98.4667 183.572 99.1153 183.955 99.582C184.347 100.049 184.869 100.282 185.523 100.282C186.447 100.282 187.058 99.876 187.357 99.064H189.079C188.855 99.848 188.435 100.473 187.819 100.94C187.203 101.397 186.437 101.626 185.523 101.626C184.785 101.626 184.132 101.463 183.563 101.136C182.993 100.8 182.545 100.333 182.219 99.736C181.901 99.1293 181.743 98.4293 181.743 97.636ZM194.015 101.626C193.287 101.626 192.629 101.463 192.041 101.136C191.453 100.8 190.991 100.333 190.655 99.736C190.319 99.1293 190.151 98.4293 190.151 97.636C190.151 96.852 190.324 96.1567 190.669 95.55C191.014 94.9433 191.486 94.4767 192.083 94.15C192.68 93.8233 193.348 93.66 194.085 93.66C194.822 93.66 195.49 93.8233 196.087 94.15C196.684 94.4767 197.156 94.9433 197.501 95.55C197.846 96.1567 198.019 96.852 198.019 97.636C198.019 98.42 197.842 99.1153 197.487 99.722C197.132 100.329 196.647 100.8 196.031 101.136C195.424 101.463 194.752 101.626 194.015 101.626ZM194.015 100.24C194.426 100.24 194.808 100.142 195.163 99.946C195.527 99.75 195.821 99.456 196.045 99.064C196.269 98.672 196.381 98.196 196.381 97.636C196.381 97.076 196.274 96.6047 196.059 96.222C195.844 95.83 195.56 95.536 195.205 95.34C194.85 95.144 194.468 95.046 194.057 95.046C193.646 95.046 193.264 95.144 192.909 95.34C192.564 95.536 192.288 95.83 192.083 96.222C191.878 96.6047 191.775 97.076 191.775 97.636C191.775 98.4667 191.985 99.1107 192.405 99.568C192.834 100.016 193.371 100.24 194.015 100.24ZM208.935 93.66C209.542 93.66 210.083 93.786 210.559 94.038C211.044 94.29 211.422 94.6633 211.693 95.158C211.973 95.6527 212.113 96.25 212.113 96.95V101.5H210.531V97.188C210.531 96.4973 210.358 95.97 210.013 95.606C209.668 95.2327 209.196 95.046 208.599 95.046C208.002 95.046 207.526 95.2327 207.171 95.606C206.826 95.97 206.653 96.4973 206.653 97.188V101.5H205.071V97.188C205.071 96.4973 204.898 95.97 204.553 95.606C204.208 95.2327 203.736 95.046 203.139 95.046C202.542 95.046 202.066 95.2327 201.711 95.606C201.366 95.97 201.193 96.4973 201.193 97.188V101.5H199.597V93.786H201.193V94.668C201.454 94.3507 201.786 94.1033 202.187 93.926C202.588 93.7487 203.018 93.66 203.475 93.66C204.091 93.66 204.642 93.7907 205.127 94.052C205.612 94.3133 205.986 94.6913 206.247 95.186C206.48 94.7193 206.844 94.3507 207.339 94.08C207.834 93.8 208.366 93.66 208.935 93.66ZM215.74 94.92C216.01 94.5653 216.379 94.2667 216.846 94.024C217.312 93.7813 217.84 93.66 218.428 93.66C219.1 93.66 219.711 93.828 220.262 94.164C220.822 94.4907 221.26 94.9527 221.578 95.55C221.895 96.1473 222.054 96.8333 222.054 97.608C222.054 98.3827 221.895 99.078 221.578 99.694C221.26 100.301 220.822 100.777 220.262 101.122C219.711 101.458 219.1 101.626 218.428 101.626C217.84 101.626 217.317 101.509 216.86 101.276C216.402 101.033 216.029 100.735 215.74 100.38V105.168H214.144V93.786H215.74V94.92ZM220.43 97.608C220.43 97.076 220.318 96.6187 220.094 96.236C219.879 95.844 219.59 95.55 219.226 95.354C218.871 95.1487 218.488 95.046 218.078 95.046C217.676 95.046 217.294 95.1487 216.93 95.354C216.575 95.5593 216.286 95.858 216.062 96.25C215.847 96.642 215.74 97.104 215.74 97.636C215.74 98.168 215.847 98.6347 216.062 99.036C216.286 99.428 216.575 99.7267 216.93 99.932C217.294 100.137 217.676 100.24 218.078 100.24C218.488 100.24 218.871 100.137 219.226 99.932C219.59 99.7173 219.879 99.4093 220.094 99.008C220.318 98.6067 220.43 98.14 220.43 97.608ZM225.228 91.14V101.5H223.632V91.14H225.228ZM234.393 97.454C234.393 97.7433 234.375 98.0047 234.337 98.238H228.443C228.49 98.854 228.719 99.3487 229.129 99.722C229.54 100.095 230.044 100.282 230.641 100.282C231.5 100.282 232.107 99.9227 232.461 99.204H234.183C233.95 99.9133 233.525 100.497 232.909 100.954C232.303 101.402 231.547 101.626 230.641 101.626C229.904 101.626 229.241 101.463 228.653 101.136C228.075 100.8 227.617 100.333 227.281 99.736C226.955 99.1293 226.791 98.4293 226.791 97.636C226.791 96.8427 226.95 96.1473 227.267 95.55C227.594 94.9433 228.047 94.4767 228.625 94.15C229.213 93.8233 229.885 93.66 230.641 93.66C231.369 93.66 232.018 93.8187 232.587 94.136C233.157 94.4533 233.6 94.9013 233.917 95.48C234.235 96.0493 234.393 96.7073 234.393 97.454ZM232.727 96.95C232.718 96.362 232.508 95.8907 232.097 95.536C231.687 95.1813 231.178 95.004 230.571 95.004C230.021 95.004 229.549 95.1813 229.157 95.536C228.765 95.8813 228.532 96.3527 228.457 96.95H232.727ZM237.826 95.088V99.358C237.826 99.6473 237.891 99.8573 238.022 99.988C238.162 100.109 238.395 100.17 238.722 100.17H239.702V101.5H238.442C237.723 101.5 237.173 101.332 236.79 100.996C236.407 100.66 236.216 100.114 236.216 99.358V95.088H235.306V93.786H236.216V91.868H237.826V93.786H239.702V95.088H237.826ZM248.243 97.454C248.243 97.7433 248.224 98.0047 248.187 98.238H242.293C242.34 98.854 242.568 99.3487 242.979 99.722C243.39 100.095 243.894 100.282 244.491 100.282C245.35 100.282 245.956 99.9227 246.311 99.204H248.033C247.8 99.9133 247.375 100.497 246.759 100.954C246.152 101.402 245.396 101.626 244.491 101.626C243.754 101.626 243.091 101.463 242.503 101.136C241.924 100.8 241.467 100.333 241.131 99.736C240.804 99.1293 240.641 98.4293 240.641 97.636C240.641 96.8427 240.8 96.1473 241.117 95.55C241.444 94.9433 241.896 94.4767 242.475 94.15C243.063 93.8233 243.735 93.66 244.491 93.66C245.219 93.66 245.868 93.8187 246.437 94.136C247.006 94.4533 247.45 94.9013 247.767 95.48C248.084 96.0493 248.243 96.7073 248.243 97.454ZM246.577 96.95C246.568 96.362 246.358 95.8907 245.947 95.536C245.536 95.1813 245.028 95.004 244.421 95.004C243.87 95.004 243.399 95.1813 243.007 95.536C242.615 95.8813 242.382 96.3527 242.307 96.95H246.577ZM255.312 95.088V99.358C255.312 99.6473 255.378 99.8573 255.508 99.988C255.648 100.109 255.882 100.17 256.208 100.17H257.188V101.5H255.928C255.21 101.5 254.659 101.332 254.276 100.996C253.894 100.66 253.702 100.114 253.702 99.358V95.088H252.792V93.786H253.702V91.868H255.312V93.786H257.188V95.088H255.312ZM262.005 101.626C261.277 101.626 260.619 101.463 260.031 101.136C259.443 100.8 258.981 100.333 258.645 99.736C258.309 99.1293 258.141 98.4293 258.141 97.636C258.141 96.852 258.314 96.1567 258.659 95.55C259.005 94.9433 259.476 94.4767 260.073 94.15C260.671 93.8233 261.338 93.66 262.075 93.66C262.813 93.66 263.48 93.8233 264.077 94.15C264.675 94.4767 265.146 94.9433 265.491 95.55C265.837 96.1567 266.009 96.852 266.009 97.636C266.009 98.42 265.832 99.1153 265.477 99.722C265.123 100.329 264.637 100.8 264.021 101.136C263.415 101.463 262.743 101.626 262.005 101.626ZM262.005 100.24C262.416 100.24 262.799 100.142 263.153 99.946C263.517 99.75 263.811 99.456 264.035 99.064C264.259 98.672 264.371 98.196 264.371 97.636C264.371 97.076 264.264 96.6047 264.049 96.222C263.835 95.83 263.55 95.536 263.195 95.34C262.841 95.144 262.458 95.046 262.047 95.046C261.637 95.046 261.254 95.144 260.899 95.34C260.554 95.536 260.279 95.83 260.073 96.222C259.868 96.6047 259.765 97.076 259.765 97.636C259.765 98.4667 259.975 99.1107 260.395 99.568C260.825 100.016 261.361 100.24 262.005 100.24ZM32.912 116.088V120.358C32.912 120.647 32.9773 120.857 33.108 120.988C33.248 121.109 33.4813 121.17 33.808 121.17H34.788V122.5H33.528C32.8093 122.5 32.2587 122.332 31.876 121.996C31.4933 121.66 31.302 121.114 31.302 120.358V116.088H30.392V114.786H31.302V112.868H32.912V114.786H34.788V116.088H32.912ZM35.727 118.608C35.727 117.833 35.8857 117.147 36.203 116.55C36.5297 115.953 36.9683 115.491 37.519 115.164C38.079 114.828 38.695 114.66 39.367 114.66C39.9737 114.66 40.501 114.781 40.949 115.024C41.4063 115.257 41.7703 115.551 42.041 115.906V114.786H43.651V122.5H42.041V121.352C41.7703 121.716 41.4017 122.019 40.935 122.262C40.4683 122.505 39.9363 122.626 39.339 122.626C38.6763 122.626 38.0697 122.458 37.519 122.122C36.9683 121.777 36.5297 121.301 36.203 120.694C35.8857 120.078 35.727 119.383 35.727 118.608ZM42.041 118.636C42.041 118.104 41.929 117.642 41.705 117.25C41.4903 116.858 41.2057 116.559 40.851 116.354C40.4963 116.149 40.1137 116.046 39.703 116.046C39.2923 116.046 38.9097 116.149 38.555 116.354C38.2003 116.55 37.911 116.844 37.687 117.236C37.4723 117.619 37.365 118.076 37.365 118.608C37.365 119.14 37.4723 119.607 37.687 120.008C37.911 120.409 38.2003 120.717 38.555 120.932C38.919 121.137 39.3017 121.24 39.703 121.24C40.1137 121.24 40.4963 121.137 40.851 120.932C41.2057 120.727 41.4903 120.428 41.705 120.036C41.929 119.635 42.041 119.168 42.041 118.636ZM48.7993 118.65L52.3553 122.5H50.1993L47.3433 119.182V122.5H45.7473V112.14H47.3433V118.16L50.1433 114.786H52.3553L48.7993 118.65ZM60.5692 118.454C60.5692 118.743 60.5506 119.005 60.5132 119.238H54.6192C54.6659 119.854 54.8946 120.349 55.3052 120.722C55.7159 121.095 56.2199 121.282 56.8172 121.282C57.6759 121.282 58.2826 120.923 58.6372 120.204H60.3592C60.1259 120.913 59.7012 121.497 59.0852 121.954C58.4786 122.402 57.7226 122.626 56.8172 122.626C56.0799 122.626 55.4172 122.463 54.8292 122.136C54.2506 121.8 53.7932 121.333 53.4572 120.736C53.1306 120.129 52.9672 119.429 52.9672 118.636C52.9672 117.843 53.1259 117.147 53.4432 116.55C53.7699 115.943 54.2226 115.477 54.8012 115.15C55.3892 114.823 56.0612 114.66 56.8172 114.66C57.5452 114.66 58.1939 114.819 58.7632 115.136C59.3326 115.453 59.7759 115.901 60.0932 116.48C60.4106 117.049 60.5692 117.707 60.5692 118.454ZM58.9032 117.95C58.8939 117.362 58.6839 116.891 58.2732 116.536C57.8626 116.181 57.3539 116.004 56.7472 116.004C56.1966 116.004 55.7252 116.181 55.3332 116.536C54.9412 116.881 54.7079 117.353 54.6332 117.95H58.9032ZM69.0106 116.088H67.5826V122.5H65.9726V116.088H65.0626V114.786H65.9726V114.24C65.9726 113.353 66.2059 112.709 66.6726 112.308C67.1486 111.897 67.8906 111.692 68.8986 111.692V113.022C68.4132 113.022 68.0726 113.115 67.8766 113.302C67.6806 113.479 67.5826 113.792 67.5826 114.24V114.786H69.0106V116.088ZM71.237 113.764C70.9477 113.764 70.705 113.666 70.509 113.47C70.313 113.274 70.215 113.031 70.215 112.742C70.215 112.453 70.313 112.21 70.509 112.014C70.705 111.818 70.9477 111.72 71.237 111.72C71.517 111.72 71.755 111.818 71.951 112.014C72.147 112.21 72.245 112.453 72.245 112.742C72.245 113.031 72.147 113.274 71.951 113.47C71.755 113.666 71.517 113.764 71.237 113.764ZM72.021 114.786V122.5H70.425V114.786H72.021ZM75.7124 115.906C75.9457 115.514 76.2537 115.211 76.6364 114.996C77.0284 114.772 77.4904 114.66 78.0224 114.66V116.312H77.6164C76.9911 116.312 76.5151 116.471 76.1884 116.788C75.8711 117.105 75.7124 117.656 75.7124 118.44V122.5H74.1164V114.786H75.7124V115.906ZM82.2895 122.626C81.6828 122.626 81.1368 122.519 80.6515 122.304C80.1755 122.08 79.7975 121.781 79.5175 121.408C79.2375 121.025 79.0881 120.601 79.0695 120.134H80.7215C80.7495 120.461 80.9035 120.736 81.1835 120.96C81.4728 121.175 81.8321 121.282 82.2615 121.282C82.7095 121.282 83.0548 121.198 83.2975 121.03C83.5495 120.853 83.6755 120.629 83.6755 120.358C83.6755 120.069 83.5355 119.854 83.2555 119.714C82.9848 119.574 82.5508 119.42 81.9535 119.252C81.3748 119.093 80.9035 118.939 80.5395 118.79C80.1755 118.641 79.8581 118.412 79.5875 118.104C79.3261 117.796 79.1955 117.39 79.1955 116.886C79.1955 116.475 79.3168 116.102 79.5595 115.766C79.8021 115.421 80.1475 115.15 80.5955 114.954C81.0528 114.758 81.5755 114.66 82.1635 114.66C83.0408 114.66 83.7455 114.884 84.2775 115.332C84.8188 115.771 85.1081 116.373 85.1455 117.138H83.5495C83.5215 116.793 83.3815 116.517 83.1295 116.312C82.8775 116.107 82.5368 116.004 82.1075 116.004C81.6875 116.004 81.3655 116.083 81.1415 116.242C80.9175 116.401 80.8055 116.611 80.8055 116.872C80.8055 117.077 80.8801 117.25 81.0295 117.39C81.1788 117.53 81.3608 117.642 81.5755 117.726C81.7901 117.801 82.1075 117.899 82.5275 118.02C83.0875 118.169 83.5448 118.323 83.8995 118.482C84.2635 118.631 84.5761 118.855 84.8375 119.154C85.0988 119.453 85.2341 119.849 85.2435 120.344C85.2435 120.783 85.1221 121.175 84.8795 121.52C84.6368 121.865 84.2915 122.136 83.8435 122.332C83.4048 122.528 82.8868 122.626 82.2895 122.626ZM88.83 116.088V120.358C88.83 120.647 88.8953 120.857 89.026 120.988C89.166 121.109 89.3993 121.17 89.726 121.17H90.706V122.5H89.446C88.7273 122.5 88.1766 122.332 87.794 121.996C87.4113 121.66 87.22 121.114 87.22 120.358V116.088H86.31V114.786H87.22V112.868H88.83V114.786H90.706V116.088H88.83ZM97.4097 115.92C97.6803 115.565 98.049 115.267 98.5157 115.024C98.9823 114.781 99.5097 114.66 100.098 114.66C100.77 114.66 101.381 114.828 101.932 115.164C102.492 115.491 102.93 115.953 103.248 116.55C103.565 117.147 103.724 117.833 103.724 118.608C103.724 119.383 103.565 120.078 103.248 120.694C102.93 121.301 102.492 121.777 101.932 122.122C101.381 122.458 100.77 122.626 100.098 122.626C99.5097 122.626 98.987 122.509 98.5297 122.276C98.0723 122.033 97.699 121.735 97.4097 121.38V126.168H95.8137V114.786H97.4097V115.92ZM102.1 118.608C102.1 118.076 101.988 117.619 101.764 117.236C101.549 116.844 101.26 116.55 100.896 116.354C100.541 116.149 100.158 116.046 99.7477 116.046C99.3463 116.046 98.9637 116.149 98.5997 116.354C98.245 116.559 97.9557 116.858 97.7317 117.25C97.517 117.642 97.4097 118.104 97.4097 118.636C97.4097 119.168 97.517 119.635 97.7317 120.036C97.9557 120.428 98.245 120.727 98.5997 120.932C98.9637 121.137 99.3463 121.24 99.7477 121.24C100.158 121.24 100.541 121.137 100.896 120.932C101.26 120.717 101.549 120.409 101.764 120.008C101.988 119.607 102.1 119.14 102.1 118.608ZM106.898 112.14V122.5H105.302V112.14H106.898ZM108.461 118.608C108.461 117.833 108.62 117.147 108.937 116.55C109.264 115.953 109.703 115.491 110.253 115.164C110.813 114.828 111.429 114.66 112.101 114.66C112.708 114.66 113.235 114.781 113.683 115.024C114.141 115.257 114.505 115.551 114.775 115.906V114.786H116.385V122.5H114.775V121.352C114.505 121.716 114.136 122.019 113.669 122.262C113.203 122.505 112.671 122.626 112.073 122.626C111.411 122.626 110.804 122.458 110.253 122.122C109.703 121.777 109.264 121.301 108.937 120.694C108.62 120.078 108.461 119.383 108.461 118.608ZM114.775 118.636C114.775 118.104 114.663 117.642 114.439 117.25C114.225 116.858 113.94 116.559 113.585 116.354C113.231 116.149 112.848 116.046 112.437 116.046C112.027 116.046 111.644 116.149 111.289 116.354C110.935 116.55 110.645 116.844 110.421 117.236C110.207 117.619 110.099 118.076 110.099 118.608C110.099 119.14 110.207 119.607 110.421 120.008C110.645 120.409 110.935 120.717 111.289 120.932C111.653 121.137 112.036 121.24 112.437 121.24C112.848 121.24 113.231 121.137 113.585 120.932C113.94 120.727 114.225 120.428 114.439 120.036C114.663 119.635 114.775 119.168 114.775 118.636ZM117.95 118.636C117.95 117.843 118.108 117.147 118.426 116.55C118.752 115.943 119.2 115.477 119.77 115.15C120.339 114.823 120.992 114.66 121.73 114.66C122.663 114.66 123.433 114.884 124.04 115.332C124.656 115.771 125.071 116.401 125.286 117.222H123.564C123.424 116.839 123.2 116.541 122.892 116.326C122.584 116.111 122.196 116.004 121.73 116.004C121.076 116.004 120.554 116.237 120.162 116.704C119.779 117.161 119.588 117.805 119.588 118.636C119.588 119.467 119.779 120.115 120.162 120.582C120.554 121.049 121.076 121.282 121.73 121.282C122.654 121.282 123.265 120.876 123.564 120.064H125.286C125.062 120.848 124.642 121.473 124.026 121.94C123.41 122.397 122.644 122.626 121.73 122.626C120.992 122.626 120.339 122.463 119.77 122.136C119.2 121.8 118.752 121.333 118.426 120.736C118.108 120.129 117.95 119.429 117.95 118.636ZM133.946 118.454C133.946 118.743 133.928 119.005 133.89 119.238H127.996C128.043 119.854 128.272 120.349 128.682 120.722C129.093 121.095 129.597 121.282 130.194 121.282C131.053 121.282 131.66 120.923 132.014 120.204H133.736C133.503 120.913 133.078 121.497 132.462 121.954C131.856 122.402 131.1 122.626 130.194 122.626C129.457 122.626 128.794 122.463 128.206 122.136C127.628 121.8 127.17 121.333 126.834 120.736C126.508 120.129 126.344 119.429 126.344 118.636C126.344 117.843 126.503 117.147 126.82 116.55C127.147 115.943 127.6 115.477 128.178 115.15C128.766 114.823 129.438 114.66 130.194 114.66C130.922 114.66 131.571 114.819 132.14 115.136C132.71 115.453 133.153 115.901 133.47 116.48C133.788 117.049 133.946 117.707 133.946 118.454ZM132.28 117.95C132.271 117.362 132.061 116.891 131.65 116.536C131.24 116.181 130.731 116.004 130.124 116.004C129.574 116.004 129.102 116.181 128.71 116.536C128.318 116.881 128.085 117.353 128.01 117.95H132.28ZM137.267 120.582L135.573 124.446H134.537L135.531 120.582H137.267ZM144.16 116.088V120.358C144.16 120.647 144.225 120.857 144.356 120.988C144.496 121.109 144.729 121.17 145.056 121.17H146.036V122.5H144.776C144.057 122.5 143.507 122.332 143.124 121.996C142.741 121.66 142.55 121.114 142.55 120.358V116.088H141.64V114.786H142.55V112.868H144.16V114.786H146.036V116.088H144.16ZM151.497 114.66C152.085 114.66 152.608 114.786 153.065 115.038C153.532 115.29 153.896 115.663 154.157 116.158C154.428 116.653 154.563 117.25 154.563 117.95V122.5H152.981V118.188C152.981 117.497 152.808 116.97 152.463 116.606C152.118 116.233 151.646 116.046 151.049 116.046C150.452 116.046 149.976 116.233 149.621 116.606C149.276 116.97 149.103 117.497 149.103 118.188V122.5H147.507V112.14H149.103V115.682C149.374 115.355 149.714 115.103 150.125 114.926C150.545 114.749 151.002 114.66 151.497 114.66ZM163.669 118.454C163.669 118.743 163.65 119.005 163.613 119.238H157.719C157.765 119.854 157.994 120.349 158.405 120.722C158.815 121.095 159.319 121.282 159.917 121.282C160.775 121.282 161.382 120.923 161.737 120.204H163.459C163.225 120.913 162.801 121.497 162.185 121.954C161.578 122.402 160.822 122.626 159.917 122.626C159.179 122.626 158.517 122.463 157.929 122.136C157.35 121.8 156.893 121.333 156.557 120.736C156.23 120.129 156.067 119.429 156.067 118.636C156.067 117.843 156.225 117.147 156.543 116.55C156.869 115.943 157.322 115.477 157.901 115.15C158.489 114.823 159.161 114.66 159.917 114.66C160.645 114.66 161.293 114.819 161.863 115.136C162.432 115.453 162.875 115.901 163.193 116.48C163.51 117.049 163.669 117.707 163.669 118.454ZM162.003 117.95C161.993 117.362 161.783 116.891 161.373 116.536C160.962 116.181 160.453 116.004 159.847 116.004C159.296 116.004 158.825 116.181 158.433 116.536C158.041 116.881 157.807 117.353 157.733 117.95H162.003ZM178.214 114.66C178.821 114.66 179.362 114.786 179.838 115.038C180.324 115.29 180.702 115.663 180.972 116.158C181.252 116.653 181.392 117.25 181.392 117.95V122.5H179.81V118.188C179.81 117.497 179.638 116.97 179.292 116.606C178.947 116.233 178.476 116.046 177.878 116.046C177.281 116.046 176.805 116.233 176.45 116.606C176.105 116.97 175.932 117.497 175.932 118.188V122.5H174.35V118.188C174.35 117.497 174.178 116.97 173.832 116.606C173.487 116.233 173.016 116.046 172.418 116.046C171.821 116.046 171.345 116.233 170.99 116.606C170.645 116.97 170.472 117.497 170.472 118.188V122.5H168.876V114.786H170.472V115.668C170.734 115.351 171.065 115.103 171.466 114.926C171.868 114.749 172.297 114.66 172.754 114.66C173.37 114.66 173.921 114.791 174.406 115.052C174.892 115.313 175.265 115.691 175.526 116.186C175.76 115.719 176.124 115.351 176.618 115.08C177.113 114.8 177.645 114.66 178.214 114.66ZM186.769 122.626C186.041 122.626 185.383 122.463 184.795 122.136C184.207 121.8 183.745 121.333 183.409 120.736C183.073 120.129 182.905 119.429 182.905 118.636C182.905 117.852 183.078 117.157 183.423 116.55C183.768 115.943 184.24 115.477 184.837 115.15C185.434 114.823 186.102 114.66 186.839 114.66C187.576 114.66 188.244 114.823 188.841 115.15C189.438 115.477 189.91 115.943 190.255 116.55C190.6 117.157 190.773 117.852 190.773 118.636C190.773 119.42 190.596 120.115 190.241 120.722C189.886 121.329 189.401 121.8 188.785 122.136C188.178 122.463 187.506 122.626 186.769 122.626ZM186.769 121.24C187.18 121.24 187.562 121.142 187.917 120.946C188.281 120.75 188.575 120.456 188.799 120.064C189.023 119.672 189.135 119.196 189.135 118.636C189.135 118.076 189.028 117.605 188.813 117.222C188.598 116.83 188.314 116.536 187.959 116.34C187.604 116.144 187.222 116.046 186.811 116.046C186.4 116.046 186.018 116.144 185.663 116.34C185.318 116.536 185.042 116.83 184.837 117.222C184.632 117.605 184.529 118.076 184.529 118.636C184.529 119.467 184.739 120.111 185.159 120.568C185.588 121.016 186.125 121.24 186.769 121.24ZM193.947 115.906C194.18 115.514 194.488 115.211 194.871 114.996C195.263 114.772 195.725 114.66 196.257 114.66V116.312H195.851C195.225 116.312 194.749 116.471 194.423 116.788C194.105 117.105 193.947 117.656 193.947 118.44V122.5H192.351V114.786H193.947V115.906ZM204.794 118.454C204.794 118.743 204.775 119.005 204.738 119.238H198.844C198.89 119.854 199.119 120.349 199.53 120.722C199.94 121.095 200.444 121.282 201.042 121.282C201.9 121.282 202.507 120.923 202.862 120.204H204.584C204.35 120.913 203.926 121.497 203.31 121.954C202.703 122.402 201.947 122.626 201.042 122.626C200.304 122.626 199.642 122.463 199.054 122.136C198.475 121.8 198.018 121.333 197.682 120.736C197.355 120.129 197.192 119.429 197.192 118.636C197.192 117.843 197.35 117.147 197.668 116.55C197.994 115.943 198.447 115.477 199.026 115.15C199.614 114.823 200.286 114.66 201.042 114.66C201.77 114.66 202.418 114.819 202.988 115.136C203.557 115.453 204 115.901 204.318 116.48C204.635 117.049 204.794 117.707 204.794 118.454ZM203.128 117.95C203.118 117.362 202.908 116.891 202.498 116.536C202.087 116.181 201.578 116.004 200.972 116.004C200.421 116.004 199.95 116.181 199.558 116.536C199.166 116.881 198.932 117.353 198.858 117.95H203.128ZM211.597 115.906C211.831 115.514 212.139 115.211 212.521 114.996C212.913 114.772 213.375 114.66 213.907 114.66V116.312H213.501C212.876 116.312 212.4 116.471 212.073 116.788C211.756 117.105 211.597 117.656 211.597 118.44V122.5H210.001V114.786H211.597V115.906ZM222.444 118.454C222.444 118.743 222.426 119.005 222.388 119.238H216.494C216.541 119.854 216.77 120.349 217.18 120.722C217.591 121.095 218.095 121.282 218.692 121.282C219.551 121.282 220.158 120.923 220.512 120.204H222.234C222.001 120.913 221.576 121.497 220.96 121.954C220.354 122.402 219.598 122.626 218.692 122.626C217.955 122.626 217.292 122.463 216.704 122.136C216.126 121.8 215.668 121.333 215.332 120.736C215.006 120.129 214.842 119.429 214.842 118.636C214.842 117.843 215.001 117.147 215.318 116.55C215.645 115.943 216.098 115.477 216.676 115.15C217.264 114.823 217.936 114.66 218.692 114.66C219.42 114.66 220.069 114.819 220.638 115.136C221.208 115.453 221.651 115.901 221.968 116.48C222.286 117.049 222.444 117.707 222.444 118.454ZM220.778 117.95C220.769 117.362 220.559 116.891 220.148 116.536C219.738 116.181 219.229 116.004 218.622 116.004C218.072 116.004 217.6 116.181 217.208 116.536C216.816 116.881 216.583 117.353 216.508 117.95H220.778ZM234.375 114.786L231.981 122.5H230.301L228.747 116.802L227.193 122.5H225.513L223.105 114.786H224.729L226.339 120.988L227.977 114.786H229.643L231.211 120.96L232.807 114.786H234.375ZM235.036 118.608C235.036 117.833 235.194 117.147 235.512 116.55C235.838 115.953 236.277 115.491 236.828 115.164C237.388 114.828 238.004 114.66 238.676 114.66C239.282 114.66 239.81 114.781 240.258 115.024C240.715 115.257 241.079 115.551 241.35 115.906V114.786H242.96V122.5H241.35V121.352C241.079 121.716 240.71 122.019 240.244 122.262C239.777 122.505 239.245 122.626 238.648 122.626C237.985 122.626 237.378 122.458 236.828 122.122C236.277 121.777 235.838 121.301 235.512 120.694C235.194 120.078 235.036 119.383 235.036 118.608ZM241.35 118.636C241.35 118.104 241.238 117.642 241.014 117.25C240.799 116.858 240.514 116.559 240.16 116.354C239.805 116.149 239.422 116.046 239.012 116.046C238.601 116.046 238.218 116.149 237.864 116.354C237.509 116.55 237.22 116.844 236.996 117.236C236.781 117.619 236.674 118.076 236.674 118.608C236.674 119.14 236.781 119.607 236.996 120.008C237.22 120.409 237.509 120.717 237.864 120.932C238.228 121.137 238.61 121.24 239.012 121.24C239.422 121.24 239.805 121.137 240.16 120.932C240.514 120.727 240.799 120.428 241.014 120.036C241.238 119.635 241.35 119.168 241.35 118.636ZM246.652 115.906C246.885 115.514 247.193 115.211 247.576 114.996C247.968 114.772 248.43 114.66 248.962 114.66V116.312H248.556C247.931 116.312 247.455 116.471 247.128 116.788C246.811 117.105 246.652 117.656 246.652 118.44V122.5H245.056V114.786H246.652V115.906ZM249.897 118.608C249.897 117.833 250.056 117.147 250.373 116.55C250.7 115.953 251.138 115.491 251.689 115.164C252.249 114.828 252.87 114.66 253.551 114.66C254.055 114.66 254.55 114.772 255.035 114.996C255.53 115.211 255.922 115.5 256.211 115.864V112.14H257.821V122.5H256.211V121.338C255.95 121.711 255.586 122.019 255.119 122.262C254.662 122.505 254.134 122.626 253.537 122.626C252.865 122.626 252.249 122.458 251.689 122.122C251.138 121.777 250.7 121.301 250.373 120.694C250.056 120.078 249.897 119.383 249.897 118.608ZM256.211 118.636C256.211 118.104 256.099 117.642 255.875 117.25C255.66 116.858 255.376 116.559 255.021 116.354C254.666 116.149 254.284 116.046 253.873 116.046C253.462 116.046 253.08 116.149 252.725 116.354C252.37 116.55 252.081 116.844 251.857 117.236C251.642 117.619 251.535 118.076 251.535 118.608C251.535 119.14 251.642 119.607 251.857 120.008C252.081 120.409 252.37 120.717 252.725 120.932C253.089 121.137 253.472 121.24 253.873 121.24C254.284 121.24 254.666 121.137 255.021 120.932C255.376 120.727 255.66 120.428 255.875 120.036C256.099 119.635 256.211 119.168 256.211 118.636ZM262.717 122.626C262.111 122.626 261.565 122.519 261.079 122.304C260.603 122.08 260.225 121.781 259.945 121.408C259.665 121.025 259.516 120.601 259.497 120.134H261.149C261.177 120.461 261.331 120.736 261.611 120.96C261.901 121.175 262.26 121.282 262.689 121.282C263.137 121.282 263.483 121.198 263.725 121.03C263.977 120.853 264.103 120.629 264.103 120.358C264.103 120.069 263.963 119.854 263.683 119.714C263.413 119.574 262.979 119.42 262.381 119.252C261.803 119.093 261.331 118.939 260.967 118.79C260.603 118.641 260.286 118.412 260.015 118.104C259.754 117.796 259.623 117.39 259.623 116.886C259.623 116.475 259.745 116.102 259.987 115.766C260.23 115.421 260.575 115.15 261.023 114.954C261.481 114.758 262.003 114.66 262.591 114.66C263.469 114.66 264.173 114.884 264.705 115.332C265.247 115.771 265.536 116.373 265.573 117.138H263.977C263.949 116.793 263.809 116.517 263.557 116.312C263.305 116.107 262.965 116.004 262.535 116.004C262.115 116.004 261.793 116.083 261.569 116.242C261.345 116.401 261.233 116.611 261.233 116.872C261.233 117.077 261.308 117.25 261.457 117.39C261.607 117.53 261.789 117.642 262.003 117.726C262.218 117.801 262.535 117.899 262.955 118.02C263.515 118.169 263.973 118.323 264.327 118.482C264.691 118.631 265.004 118.855 265.265 119.154C265.527 119.453 265.662 119.849 265.671 120.344C265.671 120.783 265.55 121.175 265.307 121.52C265.065 121.865 264.719 122.136 264.271 122.332C263.833 122.528 263.315 122.626 262.717 122.626ZM277.976 114.786L273.244 126.126H271.592L273.16 122.374L270.122 114.786H271.9L274.07 120.666L276.324 114.786H277.976ZM282.527 122.626C281.799 122.626 281.141 122.463 280.553 122.136C279.965 121.8 279.503 121.333 279.167 120.736C278.831 120.129 278.663 119.429 278.663 118.636C278.663 117.852 278.836 117.157 279.181 116.55C279.526 115.943 279.998 115.477 280.595 115.15C281.192 114.823 281.86 114.66 282.597 114.66C283.334 114.66 284.002 114.823 284.599 115.15C285.196 115.477 285.668 115.943 286.013 116.55C286.358 117.157 286.531 117.852 286.531 118.636C286.531 119.42 286.354 120.115 285.999 120.722C285.644 121.329 285.159 121.8 284.543 122.136C283.936 122.463 283.264 122.626 282.527 122.626ZM282.527 121.24C282.938 121.24 283.32 121.142 283.675 120.946C284.039 120.75 284.333 120.456 284.557 120.064C284.781 119.672 284.893 119.196 284.893 118.636C284.893 118.076 284.786 117.605 284.571 117.222C284.356 116.83 284.072 116.536 283.717 116.34C283.362 116.144 282.98 116.046 282.569 116.046C282.158 116.046 281.776 116.144 281.421 116.34C281.076 116.536 280.8 116.83 280.595 117.222C280.39 117.605 280.287 118.076 280.287 118.636C280.287 119.467 280.497 120.111 280.917 120.568C281.346 121.016 281.883 121.24 282.527 121.24ZM295.095 114.786V122.5H293.499V121.59C293.247 121.907 292.915 122.159 292.505 122.346C292.103 122.523 291.674 122.612 291.217 122.612C290.61 122.612 290.064 122.486 289.579 122.234C289.103 121.982 288.725 121.609 288.445 121.114C288.174 120.619 288.039 120.022 288.039 119.322V114.786H289.621V119.084C289.621 119.775 289.793 120.307 290.139 120.68C290.484 121.044 290.955 121.226 291.553 121.226C292.15 121.226 292.621 121.044 292.967 120.68C293.321 120.307 293.499 119.775 293.499 119.084V114.786H295.095ZM41.41 135.786L39.016 143.5H37.336L35.782 137.802L34.228 143.5H32.548L30.14 135.786H31.764L33.374 141.988L35.012 135.786H36.678L38.246 141.96L39.842 135.786H41.41ZM43.4147 134.764C43.1254 134.764 42.8827 134.666 42.6867 134.47C42.4907 134.274 42.3927 134.031 42.3927 133.742C42.3927 133.453 42.4907 133.21 42.6867 133.014C42.8827 132.818 43.1254 132.72 43.4147 132.72C43.6947 132.72 43.9327 132.818 44.1287 133.014C44.3247 133.21 44.4227 133.453 44.4227 133.742C44.4227 134.031 44.3247 134.274 44.1287 134.47C43.9327 134.666 43.6947 134.764 43.4147 134.764ZM44.1987 135.786V143.5H42.6027V135.786H44.1987ZM47.8901 133.14V143.5H46.2941V133.14H47.8901ZM51.5815 133.14V143.5H49.9855V133.14H51.5815ZM58.9097 136.906C59.143 136.514 59.451 136.211 59.8337 135.996C60.2257 135.772 60.6877 135.66 61.2197 135.66V137.312H60.8137C60.1883 137.312 59.7123 137.471 59.3857 137.788C59.0683 138.105 58.9097 138.656 58.9097 139.44V143.5H57.3137V135.786H58.9097V136.906ZM69.7567 139.454C69.7567 139.743 69.7381 140.005 69.7007 140.238H63.8067C63.8534 140.854 64.0821 141.349 64.4927 141.722C64.9034 142.095 65.4074 142.282 66.0047 142.282C66.8634 142.282 67.4701 141.923 67.8247 141.204H69.5467C69.3134 141.913 68.8887 142.497 68.2727 142.954C67.6661 143.402 66.9101 143.626 66.0047 143.626C65.2674 143.626 64.6047 143.463 64.0167 143.136C63.4381 142.8 62.9807 142.333 62.6447 141.736C62.3181 141.129 62.1547 140.429 62.1547 139.636C62.1547 138.843 62.3134 138.147 62.6307 137.55C62.9574 136.943 63.4101 136.477 63.9887 136.15C64.5767 135.823 65.2487 135.66 66.0047 135.66C66.7327 135.66 67.3814 135.819 67.9507 136.136C68.5201 136.453 68.9634 136.901 69.2807 137.48C69.5981 138.049 69.7567 138.707 69.7567 139.454ZM68.0907 138.95C68.0814 138.362 67.8714 137.891 67.4607 137.536C67.0501 137.181 66.5414 137.004 65.9347 137.004C65.3841 137.004 64.9127 137.181 64.5207 137.536C64.1287 137.881 63.8954 138.353 63.8207 138.95H68.0907ZM70.7953 139.636C70.7953 138.843 70.954 138.147 71.2713 137.55C71.598 136.943 72.046 136.477 72.6153 136.15C73.1847 135.823 73.838 135.66 74.5753 135.66C75.5087 135.66 76.2787 135.884 76.8853 136.332C77.5013 136.771 77.9167 137.401 78.1313 138.222H76.4093C76.2693 137.839 76.0453 137.541 75.7373 137.326C75.4293 137.111 75.042 137.004 74.5753 137.004C73.922 137.004 73.3993 137.237 73.0073 137.704C72.6247 138.161 72.4333 138.805 72.4333 139.636C72.4333 140.467 72.6247 141.115 73.0073 141.582C73.3993 142.049 73.922 142.282 74.5753 142.282C75.4993 142.282 76.1107 141.876 76.4093 141.064H78.1313C77.9073 141.848 77.4873 142.473 76.8713 142.94C76.2553 143.397 75.49 143.626 74.5753 143.626C73.838 143.626 73.1847 143.463 72.6153 143.136C72.046 142.8 71.598 142.333 71.2713 141.736C70.954 141.129 70.7953 140.429 70.7953 139.636ZM86.7919 139.454C86.7919 139.743 86.7732 140.005 86.7359 140.238H80.8419C80.8885 140.854 81.1172 141.349 81.5279 141.722C81.9385 142.095 82.4425 142.282 83.0399 142.282C83.8985 142.282 84.5052 141.923 84.8599 141.204H86.5819C86.3485 141.913 85.9239 142.497 85.3079 142.954C84.7012 143.402 83.9452 143.626 83.0399 143.626C82.3025 143.626 81.6399 143.463 81.0519 143.136C80.4732 142.8 80.0159 142.333 79.6799 141.736C79.3532 141.129 79.1899 140.429 79.1899 139.636C79.1899 138.843 79.3485 138.147 79.6659 137.55C79.9925 136.943 80.4452 136.477 81.0239 136.15C81.6119 135.823 82.2839 135.66 83.0399 135.66C83.7679 135.66 84.4165 135.819 84.9859 136.136C85.5552 136.453 85.9985 136.901 86.3159 137.48C86.6332 138.049 86.7919 138.707 86.7919 139.454ZM85.1259 138.95C85.1165 138.362 84.9065 137.891 84.4959 137.536C84.0852 137.181 83.5765 137.004 82.9699 137.004C82.4192 137.004 81.9479 137.181 81.5559 137.536C81.1639 137.881 80.9305 138.353 80.8559 138.95H85.1259ZM89.1745 134.764C88.8852 134.764 88.6425 134.666 88.4465 134.47C88.2505 134.274 88.1525 134.031 88.1525 133.742C88.1525 133.453 88.2505 133.21 88.4465 133.014C88.6425 132.818 88.8852 132.72 89.1745 132.72C89.4545 132.72 89.6925 132.818 89.8885 133.014C90.0845 133.21 90.1825 133.453 90.1825 133.742C90.1825 134.031 90.0845 134.274 89.8885 134.47C89.6925 134.666 89.4545 134.764 89.1745 134.764ZM89.9585 135.786V143.5H88.3625V135.786H89.9585ZM95.0359 142.072L97.2199 135.786H98.9139L95.9739 143.5H94.0699L91.1439 135.786H92.8519L95.0359 142.072ZM107.19 139.454C107.19 139.743 107.172 140.005 107.134 140.238H101.24C101.287 140.854 101.516 141.349 101.926 141.722C102.337 142.095 102.841 142.282 103.438 142.282C104.297 142.282 104.904 141.923 105.258 141.204H106.98C106.747 141.913 106.322 142.497 105.706 142.954C105.1 143.402 104.344 143.626 103.438 143.626C102.701 143.626 102.038 143.463 101.45 143.136C100.872 142.8 100.414 142.333 100.078 141.736C99.7516 141.129 99.5883 140.429 99.5883 139.636C99.5883 138.843 99.747 138.147 100.064 137.55C100.391 136.943 100.844 136.477 101.422 136.15C102.01 135.823 102.682 135.66 103.438 135.66C104.166 135.66 104.815 135.819 105.384 136.136C105.954 136.453 106.397 136.901 106.714 137.48C107.032 138.049 107.19 138.707 107.19 139.454ZM105.524 138.95C105.515 138.362 105.305 137.891 104.894 137.536C104.484 137.181 103.975 137.004 103.368 137.004C102.818 137.004 102.346 137.181 101.954 137.536C101.562 137.881 101.329 138.353 101.254 138.95H105.524ZM109.405 143.598C109.116 143.598 108.873 143.5 108.677 143.304C108.481 143.108 108.383 142.865 108.383 142.576C108.383 142.287 108.481 142.044 108.677 141.848C108.873 141.652 109.116 141.554 109.405 141.554C109.685 141.554 109.923 141.652 110.119 141.848C110.315 142.044 110.413 142.287 110.413 142.576C110.413 142.865 110.315 143.108 110.119 143.304C109.923 143.5 109.685 143.598 109.405 143.598Z" fill="white"/>
<g clip-path="url(#clip1_3951_2199)">
<path d="M472.048 224.401L361.462 299L492.891 312.032L604.482 241.66L472.048 224.401Z" fill="#99B9FF" stroke="#302CF8" stroke-width="1.52706" stroke-linejoin="round"/>
<path d="M472.048 224.401L506.773 128.745L638.595 149.167L604.482 241.66L472.048 224.401Z" fill="#99B9FF" stroke="#302CF8" stroke-width="1.52706" stroke-linejoin="round"/>
<path d="M472.048 224.401L406.339 147.352L292.311 230.488L361.462 299L472.048 224.401Z" fill="#99B9FF" stroke="#302CF8" stroke-width="1.52706" stroke-linejoin="round"/>
<path d="M500.746 86.5265L495.951 80.4248C496.031 80.5287 496.115 80.6305 496.204 80.7302C500.204 85.4195 504.955 88.2879 508.933 91.7616L513.728 97.8633C509.75 94.3897 504.999 91.5212 500.999 86.832C500.915 86.7302 500.831 86.6284 500.746 86.5265Z" fill="#302CF8"/>
<path d="M536.188 78.4001C532.887 84.8082 528.348 90.2509 525.167 95.1241L520.371 89.0223C523.558 84.1471 528.096 78.7044 531.393 72.2983C533.808 67.6045 533.062 63.3458 530.732 60.3823L535.522 66.4861C537.848 69.4517 538.598 73.7083 536.184 78.4021L536.188 78.4001Z" fill="#302CF8"/>
<path d="M488.959 120.14C489.266 120.065 489.568 119.981 489.875 119.883C490.042 119.831 490.211 119.773 490.38 119.715C490.452 119.688 490.521 119.669 490.588 119.644C490.836 119.551 491.082 119.453 491.326 119.35C491.373 119.329 491.415 119.31 491.461 119.29C491.661 119.201 491.866 119.11 492.064 119.005C492.148 118.968 492.232 118.919 492.318 118.875C492.482 118.792 492.643 118.703 492.802 118.61C492.896 118.557 492.985 118.507 493.076 118.449C493.231 118.358 493.388 118.261 493.543 118.158C493.634 118.101 493.726 118.044 493.815 117.982C493.978 117.871 494.144 117.757 494.309 117.64C494.385 117.584 494.462 117.533 494.542 117.475C494.781 117.296 495.022 117.111 495.252 116.914C501.07 112.084 505.08 106.893 509.594 102.335L514.389 108.437C509.877 112.999 505.865 118.185 500.047 123.016C499.81 123.211 499.576 123.398 499.338 123.576C499.262 123.632 499.182 123.69 499.104 123.741C498.94 123.859 498.779 123.975 498.61 124.083C498.521 124.145 498.429 124.203 498.338 124.26C498.181 124.358 498.028 124.453 497.871 124.551C497.778 124.604 497.686 124.661 497.593 124.714C497.434 124.807 497.27 124.891 497.107 124.974C497.021 125.018 496.941 125.065 496.853 125.104C496.652 125.204 496.454 125.298 496.249 125.389C496.203 125.41 496.156 125.43 496.115 125.449C495.868 125.558 495.62 125.652 495.377 125.743C495.307 125.774 495.235 125.789 495.164 125.816C495.029 125.864 494.89 125.915 494.754 125.959C494.726 125.971 494.694 125.974 494.664 125.982C494.356 126.08 494.054 126.164 493.747 126.239C488.684 127.454 483.812 125.63 481.271 122.393L476.476 116.291C479.017 119.528 483.888 121.352 488.952 120.137L488.959 120.14Z" fill="#302CF8"/>
<path d="M510.558 134.91C510.796 134.855 511.027 134.786 511.262 134.715C511.295 134.7 511.332 134.695 511.366 134.685C511.595 134.611 511.82 134.528 512.047 134.438C512.089 134.419 512.127 134.403 512.168 134.384C512.394 134.29 512.617 134.19 512.838 134.087C512.875 134.07 512.913 134.054 512.948 134.032C513.174 133.915 513.405 133.796 513.628 133.658C513.647 133.649 513.658 133.639 513.675 133.626C513.9 133.492 514.118 133.345 514.337 133.198C514.36 133.187 514.379 133.168 514.401 133.153C514.617 133.001 514.832 132.833 515.04 132.662C515.078 132.634 515.109 132.604 515.147 132.576C515.355 132.405 515.553 132.223 515.753 132.034C515.788 132.001 515.822 131.964 515.858 131.931C516.056 131.738 516.256 131.537 516.45 131.323C516.477 131.294 516.503 131.266 516.527 131.233C516.732 131.003 516.929 130.77 517.125 130.522C519.26 131.979 521.672 132.244 524.038 131.677C524.301 131.616 524.557 131.541 524.816 131.459C524.983 131.407 525.15 131.344 525.317 131.281C525.393 131.253 525.472 131.229 525.553 131.199C525.794 131.103 526.038 131 526.285 130.89C526.294 130.886 526.308 130.88 526.322 130.874C526.554 130.77 526.781 130.653 527.005 130.531C527.087 130.489 527.164 130.438 527.241 130.398C527.398 130.312 527.554 130.225 527.712 130.128C527.803 130.07 527.897 130.006 527.993 129.947C528.132 129.857 528.272 129.773 528.404 129.681C528.503 129.615 528.6 129.544 528.696 129.473C528.828 129.381 528.955 129.291 529.085 129.194C529.184 129.117 529.279 129.041 529.378 128.964C529.501 128.865 529.621 128.772 529.744 128.673C529.841 128.591 529.937 128.504 530.034 128.422C530.15 128.32 530.266 128.218 530.383 128.116C530.478 128.029 530.571 127.938 530.668 127.844C530.778 127.74 530.892 127.634 531 127.525C531.093 127.433 531.182 127.332 531.275 127.241C531.382 127.132 531.488 127.018 531.588 126.906C531.677 126.806 531.766 126.705 531.85 126.606C531.949 126.49 532.05 126.378 532.147 126.257C532.233 126.152 532.316 126.048 532.398 125.945C532.49 125.826 532.586 125.705 532.678 125.586C532.758 125.478 532.839 125.37 532.917 125.258C533.007 125.134 533.092 125.013 533.177 124.891C533.255 124.779 533.329 124.668 533.4 124.553C533.483 124.427 533.566 124.301 533.643 124.172C533.714 124.057 533.781 123.943 533.852 123.828C533.929 123.7 534.005 123.571 534.075 123.44C534.139 123.322 534.204 123.204 534.264 123.088C534.334 122.957 534.404 122.826 534.467 122.692C534.525 122.571 534.582 122.451 534.64 122.33C534.703 122.197 534.762 122.065 534.818 121.928C534.869 121.805 534.92 121.682 534.972 121.559C535.028 121.423 535.08 121.289 535.129 121.149C535.176 121.029 535.22 120.903 535.26 120.779C535.305 120.642 535.35 120.506 535.395 120.369C535.435 120.245 535.468 120.119 535.508 119.995C535.546 119.856 535.579 119.718 535.613 119.581C535.641 119.457 535.674 119.331 535.698 119.209C535.725 119.069 535.752 118.929 535.779 118.789C535.801 118.662 535.824 118.54 535.841 118.415C535.864 118.277 535.879 118.137 535.895 117.996C535.907 117.874 535.924 117.749 535.934 117.622C535.945 117.484 535.949 117.343 535.956 117.206C535.961 117.081 535.969 116.961 535.97 116.838C535.97 116.699 535.969 116.56 535.962 116.418C535.958 116.297 535.955 116.176 535.949 116.05C535.937 115.911 535.925 115.771 535.909 115.634C535.896 115.517 535.885 115.394 535.868 115.279C535.849 115.137 535.817 115.001 535.793 114.861C535.769 114.743 535.752 114.629 535.727 114.511C535.693 114.371 535.653 114.232 535.614 114.094C535.583 113.985 535.554 113.87 535.522 113.761C535.476 113.62 535.419 113.479 535.368 113.34C535.327 113.235 535.291 113.129 535.25 113.024C535.186 112.88 535.122 112.736 535.049 112.596C535.005 112.498 534.962 112.401 534.909 112.307C534.827 112.148 534.732 111.996 534.636 111.843C534.59 111.764 534.548 111.682 534.497 111.605C534.345 111.377 534.189 111.151 534.012 110.929L538.808 117.03C538.984 117.253 539.14 117.478 539.292 117.706C539.343 117.784 539.385 117.866 539.431 117.945C539.527 118.098 539.618 118.252 539.704 118.409C539.752 118.504 539.796 118.602 539.844 118.698C539.913 118.84 539.986 118.98 540.045 119.126C540.091 119.228 540.122 119.337 540.163 119.441C540.214 119.58 540.271 119.722 540.317 119.863C540.355 119.974 540.382 120.085 540.409 120.195C540.448 120.334 540.488 120.472 540.522 120.613C540.551 120.728 540.569 120.843 540.588 120.962C540.616 121.1 540.644 121.238 540.663 121.381C540.683 121.5 540.691 121.619 540.704 121.736C540.72 121.873 540.732 122.013 540.744 122.152C540.752 122.271 540.751 122.394 540.757 122.52C540.762 122.657 540.765 122.8 540.765 122.939C540.764 123.062 540.759 123.187 540.751 123.308C540.747 123.449 540.74 123.585 540.73 123.724C540.719 123.851 540.707 123.973 540.69 124.098C540.674 124.239 540.657 124.375 540.637 124.517C540.619 124.642 540.596 124.764 540.574 124.89C540.547 125.03 540.525 125.168 540.493 125.311C540.465 125.435 540.437 125.559 540.408 125.683C540.374 125.82 540.341 125.958 540.303 126.097C540.27 126.223 540.23 126.347 540.195 126.468C540.15 126.605 540.109 126.74 540.06 126.879C540.02 127.003 539.975 127.128 539.929 127.249C539.877 127.384 539.828 127.523 539.774 127.652C539.723 127.775 539.672 127.898 539.62 128.021C539.562 128.153 539.501 128.292 539.443 128.423C539.385 128.544 539.327 128.664 539.269 128.785C539.206 128.919 539.136 129.05 539.066 129.181C539.002 129.299 538.939 129.421 538.875 129.539C538.805 129.67 538.728 129.799 538.652 129.928C538.581 130.043 538.516 130.161 538.445 130.276C538.368 130.405 538.285 130.531 538.202 130.657C538.128 130.768 538.057 130.883 537.979 130.996C537.896 131.122 537.806 131.245 537.716 131.369C537.636 131.477 537.558 131.589 537.476 131.693C537.384 131.812 537.292 131.931 537.195 132.052C537.113 132.155 537.028 132.265 536.939 132.366C536.84 132.482 536.742 132.598 536.641 132.71C536.552 132.811 536.463 132.912 536.374 133.012C536.269 133.126 536.166 133.233 536.06 133.347C535.969 133.443 535.879 133.539 535.785 133.63C535.678 133.739 535.564 133.846 535.454 133.95C535.361 134.042 535.268 134.133 535.168 134.222C535.054 134.329 534.936 134.426 534.824 134.526C534.727 134.608 534.632 134.695 534.53 134.779C534.412 134.876 534.289 134.975 534.168 135.068C534.069 135.145 533.972 135.227 533.875 135.298C533.746 135.395 533.618 135.485 533.487 135.577C533.39 135.648 533.293 135.718 533.195 135.785C533.058 135.879 532.918 135.963 532.784 136.051C532.688 136.11 532.598 136.172 532.502 136.232C532.348 136.323 532.191 136.409 532.036 136.5C531.957 136.546 531.877 136.593 531.796 136.635C531.574 136.75 531.35 136.861 531.129 136.964C531.11 136.973 531.092 136.981 531.078 136.987C530.836 137.095 530.594 137.202 530.35 137.294C530.271 137.329 530.186 137.35 530.11 137.378C529.952 137.437 529.799 137.494 529.637 137.544C529.628 137.548 529.623 137.55 529.614 137.554C529.355 137.636 529.094 137.713 528.836 137.772C526.47 138.339 524.058 138.074 521.923 136.617C521.727 136.865 521.529 137.098 521.325 137.328C521.299 137.356 521.274 137.389 521.248 137.418C521.054 137.632 520.858 137.831 520.655 138.026C520.62 138.059 520.586 138.096 520.546 138.131C520.346 138.32 520.142 138.5 519.94 138.673C519.902 138.701 519.871 138.731 519.833 138.759C519.621 138.932 519.41 139.098 519.194 139.25C519.17 139.26 519.151 139.28 519.13 139.295C518.914 139.447 518.693 139.589 518.468 139.723C518.449 139.731 518.438 139.742 518.421 139.755C518.196 139.888 517.972 140.01 517.739 140.125C517.702 140.141 517.664 140.158 517.629 140.179C517.41 140.288 517.182 140.389 516.959 140.477C516.918 140.495 516.88 140.512 516.838 140.53C516.611 140.62 516.386 140.704 516.157 140.778C516.143 140.784 516.134 140.788 516.12 140.794C516.097 140.804 516.076 140.808 516.051 140.814C515.815 140.885 515.584 140.954 515.347 141.01C511.057 142.036 506.579 140.344 504.018 137.076L499.223 130.975C501.786 134.236 506.267 135.932 510.552 134.908L510.558 134.91Z" fill="#302CF8" stroke="#302CF8" stroke-width="0.509019" stroke-linecap="round" stroke-linejoin="round"/>
<path d="M521.03 99.5921C525.605 101.714 530.522 105.044 536.717 106.975C538.889 107.653 541.102 107.644 543.215 107.134C543.533 107.059 543.843 106.966 544.152 106.873C544.293 106.827 544.434 106.781 544.573 106.731C544.694 106.688 544.816 106.651 544.935 106.604C545.083 106.549 545.225 106.491 545.371 106.432C545.487 106.38 545.603 106.34 545.719 106.288C545.863 106.224 546.012 106.158 546.154 106.089C546.266 106.04 546.378 105.99 546.485 105.931C546.637 105.858 546.784 105.776 546.931 105.694C547.034 105.637 547.134 105.587 547.237 105.53C547.398 105.442 547.556 105.344 547.71 105.253C547.799 105.203 547.883 105.154 547.97 105.099C548.167 104.978 548.36 104.847 548.553 104.717C548.595 104.687 548.639 104.662 548.682 104.632C548.917 104.472 549.143 104.304 549.372 104.13C549.438 104.078 549.505 104.027 549.571 103.975C549.727 103.85 549.885 103.73 550.039 103.6C550.124 103.529 550.203 103.455 550.288 103.383C550.421 103.269 550.554 103.154 550.682 103.041C550.77 102.963 550.856 102.88 550.941 102.798C551.058 102.685 551.182 102.574 551.296 102.456C551.385 102.367 551.469 102.279 551.552 102.192C551.662 102.076 551.774 101.965 551.88 101.851C551.966 101.757 552.048 101.665 552.13 101.573C552.233 101.455 552.334 101.343 552.432 101.227C552.512 101.13 552.592 101.034 552.676 100.935C552.77 100.821 552.867 100.7 552.954 100.583C553.031 100.482 553.109 100.381 553.182 100.281C553.269 100.164 553.357 100.048 553.442 99.9262C553.513 99.8223 553.583 99.7185 553.654 99.6146C553.735 99.4952 553.815 99.3758 553.894 99.2518C553.958 99.1453 554.029 99.0414 554.093 98.935C554.167 98.813 554.241 98.691 554.31 98.5711C554.374 98.4646 554.432 98.3556 554.489 98.2465C554.556 98.122 554.619 97.9995 554.686 97.8749C554.743 97.7659 554.796 97.6589 554.847 97.5473C554.909 97.4248 554.965 97.2997 555.021 97.1746C555.071 97.063 555.117 96.9534 555.163 96.8439C555.215 96.7209 555.264 96.5932 555.315 96.4702C555.356 96.3627 555.395 96.2506 555.437 96.1431C555.481 96.0175 555.521 95.8939 555.561 95.7704C555.595 95.6603 555.63 95.5502 555.66 95.4422C555.695 95.3208 555.728 95.1947 555.761 95.0686C555.791 94.9605 555.815 94.8499 555.838 94.7393C555.866 94.6153 555.89 94.4933 555.912 94.3667C555.93 94.2582 555.949 94.1496 555.968 94.0411C555.985 93.9165 556.002 93.792 556.016 93.6742C556.03 93.5677 556.044 93.4612 556.047 93.3542C556.054 93.2338 556.06 93.1087 556.068 92.9883C556.073 92.886 556.075 92.779 556.078 92.672C556.079 92.549 556.07 92.4301 556.067 92.3092C556.06 92.2064 556.06 92.1061 556.053 92.0033C556.045 91.8844 556.025 91.765 556.013 91.6482C556.001 91.5474 555.992 91.4513 555.971 91.3546C555.952 91.2352 555.923 91.12 555.896 90.998C555.876 90.9014 555.857 90.8094 555.832 90.7148C555.822 90.6802 555.805 90.6429 555.8 90.6062L552.69 86.6411C556.217 82.4331 555.887 78.1181 553.492 75.0605L558.287 81.1622C560.611 84.1232 560.981 88.2645 557.797 92.3423L559.475 94.4763C559.615 94.6536 559.741 94.8371 559.858 95.0247C559.897 95.0857 559.93 95.1487 559.966 95.2164C560.04 95.3451 560.116 95.4671 560.181 95.5999C560.216 95.679 560.251 95.758 560.286 95.8371C560.34 95.9581 560.392 96.0744 560.441 96.1974C560.473 96.2832 560.497 96.3731 560.524 96.4609C560.565 96.5767 560.6 96.6946 560.636 96.8124C560.661 96.907 560.68 96.999 560.701 97.0956C560.725 97.2129 560.754 97.3282 560.776 97.4522C560.792 97.5509 560.803 97.6517 560.817 97.7458C560.832 97.8672 560.85 97.982 560.858 98.1009C560.865 98.2037 560.869 98.3019 560.871 98.4068C560.875 98.5277 560.883 98.6466 560.882 98.7696C560.884 98.8745 560.875 98.979 560.872 99.0859C560.865 99.2064 560.863 99.3294 560.851 99.4518C560.842 99.5562 560.83 99.6674 560.821 99.7718C560.808 99.8942 560.791 100.019 560.772 100.139C560.753 100.247 560.735 100.356 560.716 100.464C560.692 100.586 560.671 100.713 560.642 100.837C560.619 100.948 560.589 101.056 560.566 101.166C560.533 101.292 560.502 101.412 560.464 101.54C560.434 101.648 560.4 101.758 560.365 101.868C560.325 101.992 560.286 102.115 560.241 102.241C560.202 102.353 560.161 102.46 560.121 102.572C560.072 102.7 560.026 102.821 559.97 102.946C559.924 103.056 559.878 103.165 559.827 103.277C559.771 103.402 559.714 103.522 559.653 103.65C559.6 103.757 559.55 103.868 559.492 103.977C559.43 104.1 559.363 104.224 559.295 104.349C559.238 104.458 559.179 104.562 559.117 104.673C559.047 104.793 558.973 104.915 558.899 105.037C558.835 105.144 558.771 105.25 558.703 105.359C558.624 105.483 558.548 105.6 558.463 105.721C558.392 105.825 558.321 105.929 558.25 106.033C558.165 106.155 558.078 106.271 557.99 106.388C557.913 106.49 557.842 106.593 557.762 106.69C557.67 106.809 557.576 106.923 557.482 107.037C557.403 107.134 557.325 107.235 557.241 107.334C557.142 107.45 557.037 107.564 556.938 107.68C556.852 107.774 556.772 107.871 556.688 107.958C556.583 108.072 556.473 108.188 556.361 108.299C556.277 108.386 556.189 108.476 556.105 108.563C555.988 108.676 555.867 108.791 555.75 108.905C555.664 108.987 555.578 109.07 555.49 109.148C555.364 109.265 555.229 109.375 555.097 109.49C555.011 109.562 554.933 109.635 554.847 109.707C554.693 109.836 554.535 109.957 554.379 110.082C554.313 110.134 554.249 110.19 554.183 110.242C553.959 110.414 553.728 110.583 553.492 110.743C553.455 110.771 553.41 110.797 553.368 110.827C553.175 110.957 552.978 111.089 552.778 111.217C552.691 111.272 552.607 111.321 552.518 111.371C552.359 111.464 552.206 111.56 552.045 111.648C551.942 111.705 551.842 111.755 551.739 111.812C551.59 111.89 551.443 111.972 551.293 112.05C551.184 112.104 551.072 112.153 550.967 112.206C550.818 112.272 550.678 112.345 550.527 112.407C550.416 112.456 550.297 112.503 550.184 112.548C550.039 112.612 549.891 112.667 549.743 112.722C549.624 112.769 549.507 112.805 549.386 112.847C549.275 112.885 549.161 112.93 549.048 112.964C549.02 112.976 548.988 112.979 548.963 112.985C548.651 113.085 548.339 113.173 548.026 113.245C545.911 113.751 543.698 113.76 541.527 113.087C535.328 111.157 530.416 107.826 525.836 105.706L521.041 99.604L521.03 99.5921Z" fill="#302CF8"/>
<path d="M505.917 59.6808C497.738 61.6447 490.082 73.5586 496.205 80.7302C500.205 85.4194 504.956 88.2879 508.934 91.7615C504.359 89.6394 499.437 86.312 493.243 84.3806C491.07 83.703 488.857 83.7118 486.744 84.2218C476.902 86.5795 469.176 99.7277 477.285 104.713C470.016 113.386 479.118 122.498 488.96 120.14C491.075 119.635 493.225 118.595 495.252 116.915C501.071 112.084 505.081 106.893 509.595 102.335C506.413 107.209 501.87 112.653 498.573 119.059C493.497 128.919 502.382 136.868 510.563 134.909C512.929 134.342 515.238 132.943 517.132 130.524C519.267 131.982 521.679 132.247 524.045 131.68C532.226 129.72 539.887 117.804 533.762 110.628C529.762 105.939 525.011 103.07 521.033 99.5968C525.608 101.719 530.525 105.048 536.724 106.978C538.897 107.655 541.11 107.647 543.223 107.136C553.069 104.777 560.795 91.6286 552.686 86.6432C559.955 77.9703 550.853 68.8586 541.007 71.2183C538.892 71.7238 536.741 72.7631 534.714 74.4438C528.898 79.2679 524.884 84.4609 520.377 89.0209C523.563 84.1457 528.101 78.703 531.398 72.2969C536.475 62.4373 527.589 54.4884 519.408 56.4477C517.042 57.0146 514.734 58.4136 512.835 60.8339C510.7 59.3765 508.292 59.1098 505.921 59.6788L505.917 59.6808Z" fill="#00FF00" stroke="#302CF8" stroke-width="1.01804" stroke-linecap="round" stroke-linejoin="round"/>
<path d="M537 162.267C520.787 159.151 502.736 173.245 500.117 196.429C496.916 224.722 526.308 250.484 527.857 251.84C530.139 251.221 573.504 239.429 590.37 213.758C604.185 192.728 598.321 174.045 582.113 170.927C575.035 169.566 565.991 171.174 555.745 176.847C550.803 168.259 544.08 163.622 537.004 162.265L537 162.267Z" fill="#DA00F9" stroke="#302CF8" stroke-width="1.52706" stroke-linejoin="round"/>
<path d="M527.852 251.842C530.134 251.223 573.499 239.431 590.365 213.759C599.888 199.267 600.063 185.887 593.944 177.945L602.769 189.392C608.886 197.329 608.711 210.708 599.19 225.206C592.6 235.231 581.972 243.141 571.322 249.094C570.47 249.573 569.618 250.035 568.77 250.484C567.07 251.385 565.379 252.242 563.713 253.044C562.46 253.645 561.224 254.222 560.007 254.769C556.359 256.412 552.898 257.811 549.808 258.967C549.119 259.223 548.454 259.469 547.808 259.706C547.486 259.821 547.164 259.936 546.851 260.047C546.226 260.27 545.619 260.484 545.038 260.681C544.457 260.878 543.902 261.069 543.367 261.245C541.771 261.776 540.405 262.2 539.328 262.522C538.97 262.631 538.64 262.728 538.349 262.812C537.466 263.071 536.894 263.225 536.68 263.281C535.996 262.683 529.908 257.345 523.582 249.139L514.757 237.692C521.084 245.899 527.171 251.236 527.855 251.835L527.852 251.842Z" fill="#B500F9" stroke="#302CF8" stroke-width="1.52706" stroke-linejoin="round"/>
<path d="M430.918 219.453C443.272 244.443 466.142 260.231 494.864 256.25" stroke="#302CF8" stroke-width="2.54509" stroke-linecap="round" stroke-linejoin="round"/>
<path d="M454.256 197.995C445.544 201.717 438.404 207.258 431.88 211.015C437.752 205.403 444.604 200.553 450.658 193.194C462.602 178.673 444.165 156.325 430.364 167.11C420.146 152.879 396.17 169.144 403.556 186.438C407.277 195.151 412.818 202.291 416.575 208.815C410.963 202.943 406.113 196.091 398.755 190.037C384.233 178.093 361.886 196.53 372.672 210.335C358.442 220.554 374.707 244.529 392.001 237.144C400.713 233.422 407.854 227.882 414.378 224.124C408.505 229.737 401.654 234.586 395.6 241.945C383.655 256.467 402.093 278.814 415.893 268.03C426.111 282.26 450.085 265.99 442.702 248.701C438.98 239.989 433.439 232.848 429.682 226.324C435.294 232.196 440.144 239.048 447.503 245.102C462.025 257.047 484.372 238.609 473.585 224.804C487.816 214.586 471.551 190.61 454.256 197.995Z" fill="#302CF8" stroke="#302CF8" stroke-width="1.52706" stroke-linecap="round" stroke-linejoin="round"/>
<path d="M454.207 191.718C445.494 195.44 438.354 200.98 431.83 204.738C437.702 199.125 444.554 194.276 450.608 186.917C462.553 172.395 444.115 150.048 430.314 160.832C420.096 146.602 396.12 162.867 403.506 180.161C407.227 188.873 412.768 196.014 416.526 202.538C410.913 196.666 406.063 189.814 398.705 183.76C384.183 171.815 361.836 190.253 372.622 204.058C358.392 214.276 374.657 238.252 391.951 230.867C400.663 227.145 407.804 221.604 414.328 217.847C408.456 223.459 401.604 228.309 395.55 235.668C383.605 250.189 402.043 272.537 415.843 261.752C426.062 275.983 450.035 259.713 442.652 242.423C438.93 233.711 433.39 226.571 429.632 220.047C435.244 225.919 440.094 232.771 447.453 238.825C461.975 250.769 484.322 232.332 473.535 218.527C487.766 208.308 471.496 184.335 454.207 191.718Z" fill="#00FF00" stroke="#302CF8" stroke-width="1.52706" stroke-linecap="round" stroke-linejoin="round"/>
<path d="M361.458 299.001L403.917 424.328L520.199 426.853L492.892 312.031L361.458 299.001Z" fill="#302CF8" stroke="#00FF00" stroke-width="1.52706" stroke-linejoin="round"/>
<path d="M604.482 241.66L628.336 359.102L520.199 426.853L492.892 312.032L604.482 241.66Z" fill="#302CF8" stroke="#00FF00" stroke-width="1.52706" stroke-linejoin="round"/>
<path d="M281.565 259.037L424.569 274.774L492.892 312.032L361.462 299L281.565 259.037Z" fill="#302CF8" stroke="#00FF00" stroke-width="1.52706" stroke-linejoin="round"/>
<path d="M355.043 298.366L492.892 312.032L520.199 426.854" stroke="#00FF00" stroke-width="1.52706" stroke-linejoin="round"/>
<path d="M660.812 155.837L538.402 235.518L492.892 312.032L604.483 241.66L660.812 155.837Z" fill="#302CF8" stroke="#00FF00" stroke-width="1.52706" stroke-linejoin="round"/>
<path d="M492.892 312.032L609.543 238.47" stroke="#00FF00" stroke-width="1.52706" stroke-linejoin="round"/>
<g clip-path="url(#clip2_3951_2199)">
<path d="M343.245 116.503L347.208 124.381C353.095 136.261 379.351 134.884 405.864 121.303C432.372 107.717 449.092 87.0768 443.21 75.1912L439.247 67.3132L343.245 116.503Z" fill="#00FF00"/>
<mask id="mask0_3951_2199" style="mask-type:luminance" maskUnits="userSpaceOnUse" x="343" y="67" width="102" height="66">
<path d="M343.245 116.503L347.208 124.381C353.095 136.261 379.351 134.884 405.864 121.303C432.372 107.717 449.092 87.0768 443.21 75.1912L439.247 67.3132L343.245 116.503Z" fill="white"/>
</mask>
<g mask="url(#mask0_3951_2199)">
<path d="M343.244 111.701L363.729 153.052" stroke="black" stroke-width="1.62831" stroke-linejoin="round"/>
<path d="M346.657 109.952L367.138 151.308" stroke="black" stroke-width="1.62831" stroke-linejoin="round"/>
<path d="M350.067 108.208L370.543 149.56" stroke="black" stroke-width="1.62831" stroke-linejoin="round"/>
<path d="M353.472 106.459L373.957 147.81" stroke="black" stroke-width="1.62831" stroke-linejoin="round"/>
<path d="M356.882 104.715L377.366 146.065" stroke="black" stroke-width="1.62831" stroke-linejoin="round"/>
<path d="M360.295 102.965L380.775 144.321" stroke="black" stroke-width="1.62831" stroke-linejoin="round"/>
<path d="M363.701 101.217L384.182 142.573" stroke="black" stroke-width="1.62831" stroke-linejoin="round"/>
<path d="M367.11 99.4724L387.595 140.823" stroke="black" stroke-width="1.62831" stroke-linejoin="round"/>
<path d="M370.519 97.7283L391.004 139.079" stroke="black" stroke-width="1.62831" stroke-linejoin="round"/>
<path d="M373.928 95.9742L394.409 137.33" stroke="black" stroke-width="1.62831" stroke-linejoin="round"/>
<path d="M377.338 94.23L397.819 135.586" stroke="black" stroke-width="1.62831" stroke-linejoin="round"/>
<path d="M380.748 92.4861L401.232 133.837" stroke="black" stroke-width="1.62831" stroke-linejoin="round"/>
<path d="M384.152 90.7381L404.637 132.089" stroke="black" stroke-width="1.62831" stroke-linejoin="round"/>
<path d="M387.566 88.9878L408.047 130.344" stroke="black" stroke-width="1.62831" stroke-linejoin="round"/>
<path d="M390.976 87.2437L411.457 128.6" stroke="black" stroke-width="1.62831" stroke-linejoin="round"/>
<path d="M394.386 85.4988L414.865 126.846" stroke="black" stroke-width="1.62831" stroke-linejoin="round"/>
<path d="M397.791 83.7508L418.275 125.102" stroke="black" stroke-width="1.62831" stroke-linejoin="round"/>
<path d="M401.204 82.0015L421.685 123.357" stroke="black" stroke-width="1.62831" stroke-linejoin="round"/>
<path d="M404.614 80.2574L425.09 121.61" stroke="black" stroke-width="1.62831" stroke-linejoin="round"/>
<path d="M408.018 78.5086L428.503 119.859" stroke="black" stroke-width="1.62831" stroke-linejoin="round"/>
<path d="M411.428 76.7644L431.913 118.115" stroke="black" stroke-width="1.62831" stroke-linejoin="round"/>
<path d="M414.842 75.0152L435.323 116.371" stroke="black" stroke-width="1.62831" stroke-linejoin="round"/>
<path d="M418.247 73.2671L438.728 114.623" stroke="black" stroke-width="1.62831" stroke-linejoin="round"/>
<path d="M421.657 71.5223L442.142 112.873" stroke="black" stroke-width="1.62831" stroke-linejoin="round"/>
<path d="M425.07 69.773L445.551 111.129" stroke="black" stroke-width="1.62831" stroke-linejoin="round"/>
<path d="M428.475 68.0249L448.956 109.381" stroke="black" stroke-width="1.62831" stroke-linejoin="round"/>
<path d="M431.886 66.2801L452.37 107.631" stroke="black" stroke-width="1.62831" stroke-linejoin="round"/>
<path d="M435.294 64.5359L455.778 105.887" stroke="black" stroke-width="1.62831" stroke-linejoin="round"/>
</g>
<path d="M343.245 116.503L347.208 124.381C353.095 136.261 379.351 134.884 405.864 121.303C432.372 107.717 449.092 87.0768 443.21 75.1912L439.247 67.3132L343.245 116.503Z" stroke="black" stroke-width="1.62831" stroke-linejoin="round"/>
<path d="M439.246 67.3132C445.133 79.1936 428.408 99.8393 401.901 113.425C375.393 127.01 349.131 128.383 343.245 116.503C337.359 104.622 354.083 83.9765 380.591 70.3911C407.098 56.8057 433.364 55.4276 439.246 67.3132Z" fill="#00FF00" stroke="black" stroke-width="1.62831" stroke-linejoin="round"/>
<path d="M434.424 69.6492C429.323 59.7556 405.858 61.7009 382.013 73.9942C358.167 86.2874 342.972 104.273 348.072 114.167C353.173 124.061 376.638 122.115 400.483 109.822C424.329 97.5289 439.525 79.5428 434.424 69.6492Z" fill="#302CF8" stroke="#151597" stroke-width="2.24089" stroke-linejoin="round"/>
<mask id="path-59-outside-1_3951_2199" maskUnits="userSpaceOnUse" x="372.703" y="69.2794" width="41.8387" height="41.8387" fill="black">
<rect fill="white" x="372.703" y="69.2794" width="41.8387" height="41.8387"/>
<path d="M387.586 108.593L378.407 82.8614L390.093 76.7471C393.112 75.1678 395.814 74.6307 398.198 75.1359C400.594 75.6073 402.401 77.0083 403.62 79.3389C403.841 79.7606 404.052 80.2442 404.252 80.7895C404.949 82.7152 405.118 84.6337 404.761 86.5451C404.427 88.4449 403.58 90.2309 402.221 91.903C400.873 93.5413 399.089 94.9411 396.87 96.1024L393.873 97.6702L396.143 104.116L387.586 108.593ZM393.501 90.2313C394.589 89.6623 395.319 88.8701 395.693 87.8548C396.054 86.8173 395.968 85.788 395.434 84.767C395.039 84.0123 394.459 83.5523 393.694 83.3871C392.94 83.1881 392.119 83.3208 391.231 83.7854L389.267 84.8131L391.57 91.2417L393.501 90.2313Z"/>
</mask>
<path d="M387.586 108.593L378.407 82.8614L390.093 76.7471C393.112 75.1678 395.814 74.6307 398.198 75.1359C400.594 75.6073 402.401 77.0083 403.62 79.3389C403.841 79.7606 404.052 80.2442 404.252 80.7895C404.949 82.7152 405.118 84.6337 404.761 86.5451C404.427 88.4449 403.58 90.2309 402.221 91.903C400.873 93.5413 399.089 94.9411 396.87 96.1024L393.873 97.6702L396.143 104.116L387.586 108.593ZM393.501 90.2313C394.589 89.6623 395.319 88.8701 395.693 87.8548C396.054 86.8173 395.968 85.788 395.434 84.767C395.039 84.0123 394.459 83.5523 393.694 83.3871C392.94 83.1881 392.119 83.3208 391.231 83.7854L389.267 84.8131L391.57 91.2417L393.501 90.2313Z" fill="#00FF00"/>
<path d="M387.586 108.593L386.572 108.955L386.988 110.121L388.085 109.547L387.586 108.593ZM378.407 82.8614L377.908 81.9073L377.078 82.3414L377.393 83.2232L378.407 82.8614ZM398.198 75.1359L397.975 76.1893L397.983 76.1909L397.99 76.1924L398.198 75.1359ZM404.252 80.7895L405.265 80.4233L405.263 80.418L404.252 80.7895ZM404.761 86.5451L403.703 86.3474L403.701 86.3582L404.761 86.5451ZM402.221 91.903L403.053 92.5872L403.057 92.582L402.221 91.903ZM393.873 97.6702L393.374 96.7161L392.548 97.1484L392.857 98.0278L393.873 97.6702ZM396.143 104.116L396.642 105.07L397.468 104.638L397.158 103.759L396.143 104.116ZM395.693 87.8548L396.703 88.2265L396.706 88.218L396.709 88.2094L395.693 87.8548ZM393.694 83.3871L393.42 84.4283L393.443 84.4345L393.467 84.4396L393.694 83.3871ZM389.267 84.8131L388.767 83.859L387.937 84.2937L388.253 85.1763L389.267 84.8131ZM391.57 91.2417L390.556 91.6048L390.973 92.769L392.069 92.1957L391.57 91.2417ZM388.6 108.231L379.421 82.4996L377.393 83.2232L386.572 108.955L388.6 108.231ZM378.906 83.8155L390.592 77.7012L389.594 75.7931L377.908 81.9073L378.906 83.8155ZM390.592 77.7012C393.476 76.1923 395.917 75.7532 397.975 76.1893L398.422 74.0825C395.71 73.5081 392.747 74.1432 389.594 75.7931L390.592 77.7012ZM397.99 76.1924C400.038 76.5953 401.585 77.771 402.666 79.8381L404.575 78.8397C403.217 76.2455 401.149 74.6192 398.406 74.0794L397.99 76.1924ZM402.666 79.8381C402.861 80.2107 403.054 80.6503 403.242 81.1611L405.263 80.418C405.05 79.838 404.821 79.3105 404.575 78.8397L402.666 79.8381ZM403.24 81.1558C403.874 82.9109 404.023 84.6349 403.703 86.3474L405.82 86.7429C406.214 84.6326 406.023 82.5195 405.265 80.4233L403.24 81.1558ZM403.701 86.3582C403.402 88.0572 402.642 89.6772 401.385 91.224L403.057 92.582C404.517 90.7846 405.452 88.8327 405.822 86.732L403.701 86.3582ZM401.39 91.2188C400.148 92.7276 398.485 94.042 396.37 95.1483L397.369 97.0565C399.693 95.8403 401.598 94.355 403.053 92.5872L401.39 91.2188ZM396.37 95.1483L393.374 96.7161L394.372 98.6243L397.369 97.0565L396.37 95.1483ZM392.857 98.0278L395.127 104.474L397.158 103.759L394.889 97.3125L392.857 98.0278ZM395.644 103.162L387.087 107.639L388.085 109.547L396.642 105.07L395.644 103.162ZM394 91.1854C395.29 90.5104 396.225 89.5267 396.703 88.2265L394.682 87.483C394.413 88.2135 393.887 88.8142 393.002 89.2772L394 91.1854ZM396.709 88.2094C397.174 86.8758 397.053 85.5381 396.388 84.2678L394.48 85.2661C394.884 86.0379 394.935 86.7587 394.676 87.5002L396.709 88.2094ZM396.388 84.2678C395.86 83.2584 395.029 82.5738 393.922 82.3346L393.467 84.4396C393.89 84.5309 394.218 84.7662 394.48 85.2661L396.388 84.2678ZM393.969 82.346C392.888 82.0606 391.788 82.2788 390.732 82.8313L391.73 84.7394C392.45 84.3629 392.992 84.3155 393.42 84.4283L393.969 82.346ZM390.732 82.8313L388.767 83.859L389.766 85.7672L391.73 84.7394L390.732 82.8313ZM388.253 85.1763L390.556 91.6048L392.583 90.8785L390.28 84.4499L388.253 85.1763ZM392.069 92.1957L394 91.1854L393.002 89.2772L391.071 90.2876L392.069 92.1957Z" fill="black" mask="url(#path-59-outside-1_3951_2199)"/>
</g>
</g>
</g>
<rect x="1" y="1.5" width="623" height="328" rx="29" stroke="#0C0D0F" stroke-width="2"/>
<defs>
<clipPath id="clip0_3951_2199">
<rect y="0.5" width="625" height="330" rx="30" fill="white"/>
</clipPath>
<clipPath id="clip1_3951_2199">
<rect width="474.126" height="462.713" fill="white" transform="translate(264.074 25.0234)"/>
</clipPath>
<clipPath id="clip2_3951_2199">
<rect width="106.934" height="81.3633" fill="white" transform="translate(327 112.493) rotate(-53.913)"/>
</clipPath>
</defs>
</svg>
