<svg width="361" height="306" viewBox="0 0 361 306" fill="none" xmlns="http://www.w3.org/2000/svg">
<g clip-path="url(#clip0_3312_13183)">
<path d="M208.049 199.9L97.463 274.499L228.892 287.531L340.483 217.159L208.049 199.9Z" fill="#99B9FF" stroke="#302CF8" stroke-width="1.52706" stroke-linejoin="round"/>
<path d="M208.049 199.9L242.774 104.244L374.596 124.666L340.483 217.16L208.049 199.9Z" fill="#99B9FF" stroke="#302CF8" stroke-width="1.52706" stroke-linejoin="round"/>
<path d="M208.049 199.9L142.34 122.851L28.3117 205.987L97.463 274.499L208.049 199.9Z" fill="#99B9FF" stroke="#302CF8" stroke-width="1.52706" stroke-linejoin="round"/>
<path d="M236.747 62.0261L231.951 55.9243C232.031 56.0282 232.115 56.13 232.204 56.2298C236.204 60.919 240.955 63.7874 244.933 67.2611L249.728 73.3628C245.75 69.8892 240.999 67.0207 236.999 62.3315C236.915 62.2297 236.831 62.1279 236.747 62.0261Z" fill="#302CF8"/>
<path d="M272.188 53.9002C268.887 60.3083 264.348 65.751 261.167 70.6242L256.372 64.5225C259.558 59.6472 264.096 54.2045 267.393 47.7984C269.808 43.1046 269.063 38.8459 266.732 35.8824L271.522 41.9862C273.849 44.9518 274.598 49.2084 272.184 53.9022L272.188 53.9002Z" fill="#302CF8"/>
<path d="M224.96 95.6396C225.266 95.5647 225.568 95.4805 225.876 95.3828C226.042 95.3311 226.211 95.2727 226.38 95.2143C226.452 95.1879 226.521 95.1683 226.589 95.144C226.837 95.0505 227.083 94.9523 227.327 94.8494C227.373 94.8288 227.415 94.8102 227.462 94.7895C227.662 94.7006 227.866 94.6096 228.065 94.5047C228.148 94.4675 228.233 94.4189 228.319 94.375C228.482 94.2913 228.644 94.2029 228.803 94.1099C228.896 94.0571 228.985 94.0065 229.077 93.9491C229.231 93.8582 229.388 93.7605 229.543 93.6582C229.635 93.6008 229.726 93.5434 229.816 93.4814C229.978 93.3703 230.145 93.2571 230.31 93.1393C230.385 93.0834 230.463 93.0323 230.543 92.9744C230.781 92.7961 231.022 92.6111 231.252 92.4142C237.071 87.5834 241.08 82.3924 245.594 77.835L250.389 83.9367C245.877 88.4988 241.866 93.6851 236.047 98.5159C235.81 98.7102 235.576 98.8978 235.338 99.0761C235.263 99.1319 235.182 99.1898 235.105 99.241C234.94 99.3588 234.78 99.4746 234.611 99.5831C234.521 99.6452 234.43 99.7025 234.338 99.7599C234.181 99.8576 234.029 99.9532 233.872 100.051C233.778 100.104 233.687 100.161 233.593 100.214C233.434 100.307 233.271 100.39 233.107 100.474C233.021 100.518 232.941 100.565 232.853 100.604C232.653 100.704 232.455 100.798 232.25 100.889C232.203 100.909 232.157 100.93 232.115 100.949C231.869 101.058 231.62 101.152 231.377 101.243C231.307 101.274 231.236 101.289 231.164 101.316C231.03 101.364 230.891 101.415 230.754 101.459C230.726 101.471 230.694 101.474 230.664 101.482C230.357 101.58 230.054 101.664 229.748 101.739C224.684 102.953 219.813 101.13 217.271 97.8925L212.476 91.7907C215.018 95.0282 219.889 96.8516 224.953 95.6371L224.96 95.6396Z" fill="#302CF8"/>
<path d="M246.558 110.41C246.795 110.355 247.026 110.286 247.262 110.214C247.295 110.2 247.331 110.195 247.366 110.185C247.595 110.111 247.82 110.028 248.047 109.938C248.089 109.919 248.126 109.903 248.168 109.884C248.393 109.79 248.617 109.69 248.838 109.586C248.875 109.57 248.912 109.553 248.948 109.532C249.174 109.415 249.405 109.295 249.628 109.157C249.646 109.149 249.658 109.138 249.675 109.125C249.9 108.992 250.118 108.845 250.337 108.697C250.36 108.687 250.379 108.668 250.4 108.653C250.617 108.501 250.832 108.333 251.04 108.162C251.078 108.134 251.109 108.104 251.147 108.076C251.355 107.905 251.552 107.723 251.752 107.534C251.788 107.501 251.822 107.464 251.857 107.431C252.055 107.237 252.256 107.037 252.45 106.822C252.476 106.794 252.503 106.766 252.527 106.733C252.731 106.503 252.929 106.27 253.125 106.021C255.26 107.479 257.672 107.743 260.038 107.177C260.301 107.116 260.557 107.041 260.816 106.959C260.982 106.907 261.149 106.844 261.316 106.781C261.393 106.753 261.471 106.729 261.553 106.698C261.794 106.602 262.038 106.499 262.284 106.39C262.294 106.386 262.308 106.38 262.322 106.373C262.554 106.27 262.781 106.153 263.005 106.031C263.087 105.989 263.164 105.938 263.241 105.898C263.398 105.812 263.554 105.725 263.711 105.628C263.803 105.57 263.897 105.506 263.993 105.447C264.132 105.357 264.272 105.273 264.404 105.181C264.503 105.114 264.599 105.044 264.696 104.973C264.828 104.881 264.955 104.791 265.085 104.694C265.184 104.617 265.278 104.541 265.378 104.464C265.501 104.365 265.621 104.272 265.744 104.173C265.841 104.091 265.936 104.004 266.033 103.922C266.15 103.82 266.266 103.718 266.382 103.616C266.477 103.529 266.57 103.438 266.668 103.344C266.778 103.24 266.892 103.133 266.999 103.024C267.092 102.933 267.181 102.832 267.274 102.741C267.382 102.632 267.487 102.518 267.588 102.406C267.677 102.305 267.766 102.205 267.85 102.106C267.949 101.99 268.05 101.878 268.146 101.757C268.233 101.652 268.315 101.548 268.397 101.445C268.489 101.326 268.586 101.205 268.678 101.086C268.758 100.978 268.838 100.87 268.916 100.758C269.006 100.634 269.092 100.513 269.177 100.391C269.255 100.278 269.328 100.168 269.4 100.053C269.483 99.9265 269.566 99.8004 269.643 99.6717C269.714 99.5565 269.781 99.4433 269.852 99.328C269.928 99.1993 270.005 99.0706 270.075 98.9394C270.139 98.8215 270.204 98.7037 270.264 98.5879C270.334 98.4567 270.403 98.3254 270.466 98.1915C270.524 98.0711 270.582 97.9507 270.64 97.8303C270.703 97.6964 270.761 97.5646 270.818 97.4282C270.869 97.3052 270.92 97.1822 270.971 97.0591C271.028 96.9227 271.079 96.7883 271.129 96.6493C271.175 96.5284 271.22 96.4028 271.26 96.2793C271.305 96.1423 271.35 96.0053 271.395 95.8684C271.434 95.7449 271.468 95.6187 271.507 95.4952C271.546 95.3557 271.579 95.2182 271.613 95.0807C271.641 94.9567 271.674 94.8306 271.698 94.7086C271.725 94.5686 271.752 94.4285 271.779 94.2884C271.8 94.1618 271.824 94.0398 271.841 93.9153C271.863 93.7773 271.879 93.6367 271.894 93.4961C271.907 93.3736 271.924 93.2491 271.934 93.1219C271.945 92.9834 271.949 92.8423 271.955 92.7059C271.961 92.5808 271.969 92.4604 271.97 92.3374C271.969 92.1984 271.969 92.0593 271.962 91.9177C271.958 91.7968 271.954 91.6758 271.949 91.5503C271.937 91.4107 271.925 91.2712 271.908 91.1337C271.895 91.0169 271.885 90.8934 271.868 90.7786C271.849 90.6365 271.816 90.5006 271.793 90.3605C271.769 90.2432 271.751 90.1285 271.727 90.0111C271.692 89.8706 271.653 89.732 271.614 89.5935C271.582 89.485 271.553 89.3697 271.522 89.2612C271.476 89.1201 271.418 88.9785 271.368 88.8395C271.327 88.7351 271.291 88.6286 271.25 88.5242C271.186 88.38 271.122 88.2358 271.048 88.0958C271.005 87.9981 270.962 87.9004 270.909 87.8068C270.827 87.6482 270.732 87.4957 270.636 87.3433C270.589 87.2637 270.548 87.182 270.496 87.1045C270.345 86.8766 270.189 86.6507 270.012 86.4285L274.807 92.5302C274.984 92.7524 275.14 92.9783 275.292 93.2062C275.343 93.2837 275.385 93.3654 275.431 93.445C275.527 93.5975 275.618 93.752 275.704 93.9086C275.752 94.0042 275.795 94.1019 275.844 94.1975C275.912 94.3396 275.986 94.4797 276.045 94.626C276.091 94.7283 276.122 94.8368 276.163 94.9412C276.214 95.0803 276.271 95.2219 276.317 95.363C276.355 95.4741 276.382 95.5847 276.409 95.6953C276.448 95.8338 276.487 95.9723 276.522 96.1129C276.551 96.2281 276.569 96.3429 276.588 96.4623C276.616 96.6003 276.644 96.7382 276.663 96.8804C276.682 96.9997 276.691 97.1186 276.703 97.2354C276.72 97.3729 276.732 97.5125 276.744 97.652C276.752 97.7709 276.751 97.8939 276.757 98.0195C276.762 98.1564 276.764 98.3001 276.765 98.4391C276.764 98.5621 276.758 98.6872 276.751 98.8076C276.746 98.9487 276.74 99.0852 276.729 99.2237C276.719 99.3508 276.707 99.4733 276.69 99.5979C276.674 99.7384 276.656 99.8744 276.636 100.017C276.619 100.142 276.595 100.264 276.574 100.39C276.547 100.53 276.525 100.668 276.493 100.81C276.465 100.934 276.436 101.058 276.408 101.182C276.374 101.32 276.341 101.457 276.302 101.597C276.269 101.723 276.23 101.847 276.194 101.968C276.149 102.105 276.109 102.24 276.059 102.379C276.02 102.502 275.975 102.628 275.929 102.749C275.877 102.883 275.827 103.022 275.774 103.152C275.722 103.275 275.671 103.398 275.62 103.521C275.562 103.653 275.501 103.791 275.442 103.923C275.384 104.044 275.327 104.164 275.269 104.284C275.206 104.418 275.136 104.55 275.066 104.681C275.002 104.799 274.939 104.921 274.874 105.039C274.805 105.17 274.728 105.299 274.652 105.428C274.58 105.543 274.516 105.661 274.444 105.776C274.368 105.905 274.285 106.031 274.201 106.157C274.128 106.268 274.057 106.383 273.979 106.495C273.895 106.622 273.806 106.745 273.716 106.869C273.636 106.977 273.557 107.089 273.475 107.193C273.383 107.312 273.291 107.43 273.195 107.551C273.112 107.655 273.028 107.765 272.939 107.866C272.84 107.982 272.741 108.098 272.641 108.21C272.552 108.311 272.463 108.411 272.374 108.512C272.268 108.626 272.166 108.733 272.06 108.847C271.969 108.943 271.878 109.039 271.785 109.13C271.678 109.239 271.564 109.346 271.454 109.45C271.361 109.542 271.268 109.633 271.168 109.722C271.054 109.828 270.936 109.926 270.824 110.025C270.727 110.108 270.632 110.194 270.53 110.279C270.412 110.376 270.288 110.475 270.168 110.568C270.069 110.645 269.972 110.727 269.875 110.798C269.745 110.895 269.618 110.985 269.486 111.077C269.39 111.147 269.293 111.218 269.194 111.284C269.058 111.378 268.917 111.463 268.783 111.551C268.687 111.61 268.598 111.672 268.502 111.731C268.347 111.822 268.191 111.909 268.036 112C267.957 112.046 267.877 112.093 267.795 112.135C267.574 112.25 267.35 112.36 267.129 112.464C267.11 112.473 267.091 112.481 267.077 112.487C266.836 112.595 266.594 112.702 266.35 112.793C266.271 112.829 266.186 112.85 266.109 112.878C265.952 112.937 265.799 112.994 265.637 113.044C265.628 113.048 265.623 113.05 265.614 113.054C265.355 113.136 265.094 113.213 264.836 113.272C262.47 113.838 260.057 113.574 257.922 112.116C257.726 112.365 257.529 112.598 257.325 112.828C257.298 112.856 257.274 112.889 257.248 112.917C257.053 113.132 256.858 113.33 256.655 113.526C256.619 113.559 256.586 113.596 256.545 113.631C256.345 113.82 256.141 114 255.94 114.173C255.902 114.201 255.871 114.231 255.833 114.259C255.62 114.432 255.41 114.598 255.193 114.75C255.17 114.76 255.151 114.78 255.13 114.795C254.913 114.947 254.693 115.089 254.468 115.222C254.449 115.231 254.437 115.242 254.421 115.255C254.196 115.388 253.972 115.51 253.739 115.625C253.701 115.641 253.664 115.658 253.629 115.679C253.41 115.787 253.182 115.889 252.959 115.977C252.917 115.995 252.88 116.012 252.838 116.03C252.611 116.12 252.386 116.203 252.157 116.277C252.143 116.284 252.134 116.288 252.12 116.294C252.097 116.304 252.076 116.308 252.051 116.313C251.815 116.385 251.584 116.454 251.347 116.509C247.057 117.536 242.579 115.844 240.018 112.576L235.223 106.474C237.786 109.736 242.266 111.432 246.552 110.408L246.558 110.41Z" fill="#302CF8" stroke="#302CF8" stroke-width="0.509019" stroke-linecap="round" stroke-linejoin="round"/>
<path d="M257.031 75.0919C261.606 77.214 266.522 80.5435 272.717 82.4749C274.89 83.1525 277.103 83.1437 279.215 82.6336C279.533 82.5592 279.843 82.4662 280.152 82.3731C280.294 82.3272 280.435 82.2812 280.574 82.2305C280.694 82.1881 280.817 82.1504 280.935 82.1034C281.083 82.0486 281.225 81.9912 281.371 81.9318C281.487 81.8801 281.603 81.8398 281.72 81.7881C281.864 81.724 282.013 81.6579 282.155 81.5891C282.266 81.5395 282.378 81.4899 282.485 81.431C282.637 81.3581 282.784 81.2759 282.931 81.1938C283.034 81.1369 283.135 81.0868 283.237 81.0299C283.399 80.9416 283.556 80.8439 283.71 80.7529C283.799 80.7023 283.883 80.6537 283.97 80.5984C284.167 80.4774 284.36 80.3472 284.553 80.217C284.595 80.187 284.64 80.1617 284.682 80.1317C284.917 79.9715 285.144 79.804 285.372 79.6299C285.439 79.5782 285.505 79.5265 285.571 79.4748C285.727 79.3497 285.885 79.2293 286.039 79.0996C286.124 79.0283 286.203 78.9544 286.288 78.883C286.421 78.7683 286.554 78.6536 286.682 78.5409C286.77 78.4629 286.856 78.3802 286.942 78.2975C287.058 78.1843 287.182 78.0737 287.297 77.9559C287.385 77.8665 287.469 77.7791 287.552 77.6918C287.663 77.576 287.775 77.4649 287.88 77.3512C287.966 77.2571 288.048 77.1651 288.13 77.0731C288.233 76.9548 288.334 76.8431 288.433 76.7268C288.512 76.6302 288.592 76.5336 288.676 76.4348C288.77 76.3206 288.867 76.1997 288.954 76.0829C289.032 75.9816 289.109 75.8803 289.182 75.781C289.269 75.6642 289.357 75.5474 289.442 75.426C289.513 75.3221 289.584 75.2182 289.654 75.1144C289.735 74.995 289.816 74.8756 289.894 74.7515C289.958 74.6451 290.029 74.5412 290.093 74.4347C290.167 74.3127 290.241 74.1908 290.31 74.0709C290.374 73.9644 290.432 73.8554 290.489 73.7463C290.556 73.6217 290.619 73.4993 290.686 73.3747C290.743 73.2656 290.796 73.1587 290.847 73.047C290.909 72.9245 290.965 72.7995 291.021 72.6744C291.072 72.5628 291.118 72.4532 291.164 72.3436C291.215 72.2206 291.264 72.093 291.315 71.97C291.356 71.8625 291.396 71.7503 291.437 71.6428C291.481 71.5172 291.521 71.3937 291.561 71.2702C291.596 71.1601 291.63 71.05 291.66 70.942C291.695 70.8205 291.729 70.6944 291.762 70.5683C291.792 70.4603 291.815 70.3497 291.838 70.2391C291.867 70.1151 291.89 69.9931 291.912 69.8665C291.931 69.7579 291.949 69.6494 291.968 69.5409C291.985 69.4163 292.002 69.2917 292.016 69.1739C292.03 69.0674 292.044 68.961 292.047 68.854C292.055 68.7336 292.06 68.6085 292.068 68.4881C292.073 68.3857 292.075 68.2788 292.078 68.1718C292.079 68.0488 292.071 67.9299 292.067 67.809C292.06 67.7061 292.06 67.6059 292.054 67.503C292.045 67.3841 292.026 67.2647 292.013 67.1479C292.001 67.0472 291.992 66.951 291.971 66.8544C291.952 66.735 291.923 66.6197 291.897 66.4978C291.876 66.4011 291.857 66.3091 291.832 66.2145C291.822 66.1799 291.806 66.1427 291.8 66.106L288.69 62.1409C292.218 57.9328 291.887 53.6178 289.492 50.5602L294.287 56.662C296.612 59.6229 296.982 63.7643 293.797 67.8421L295.476 69.9761C295.616 70.1533 295.742 70.3368 295.859 70.5244C295.897 70.5854 295.93 70.6485 295.966 70.7162C296.04 70.8449 296.116 70.9668 296.181 71.0997C296.216 71.1787 296.251 71.2578 296.286 71.3369C296.34 71.4578 296.392 71.5741 296.441 71.6971C296.474 71.7829 296.497 71.8728 296.525 71.9607C296.565 72.0765 296.601 72.1943 296.636 72.3121C296.662 72.4067 296.68 72.4987 296.701 72.5954C296.725 72.7127 296.754 72.8279 296.776 72.952C296.792 73.0507 296.803 73.1515 296.817 73.2455C296.832 73.367 296.85 73.4817 296.858 73.6006C296.865 73.7035 296.869 73.8016 296.871 73.9066C296.875 74.0275 296.883 74.1464 296.882 74.2694C296.884 74.3743 296.875 74.4787 296.873 74.5857C296.865 74.7061 296.864 74.8291 296.851 74.9516C296.842 75.056 296.83 75.1671 296.821 75.2715C296.808 75.394 296.791 75.5186 296.772 75.6385C296.754 75.747 296.735 75.8555 296.716 75.9641C296.693 76.086 296.671 76.2127 296.642 76.3367C296.619 76.4473 296.589 76.5553 296.566 76.6659C296.533 76.792 296.502 76.9114 296.465 77.0396C296.435 77.1476 296.4 77.2577 296.365 77.3678C296.326 77.4913 296.286 77.6148 296.241 77.7404C296.202 77.8526 296.161 77.9601 296.122 78.0722C296.072 78.1999 296.026 78.3208 295.97 78.4459C295.924 78.5554 295.878 78.665 295.827 78.7767C295.772 78.9017 295.714 79.0221 295.653 79.1493C295.601 79.2563 295.55 79.3679 295.493 79.477C295.43 79.5995 295.363 79.724 295.296 79.8486C295.238 79.9576 295.179 80.062 295.117 80.1731C295.048 80.293 294.974 80.415 294.9 80.537C294.836 80.6434 294.772 80.7499 294.703 80.8584C294.624 80.9825 294.548 81.0998 294.463 81.2213C294.392 81.3251 294.321 81.429 294.251 81.5329C294.165 81.6544 294.078 81.7712 293.991 81.888C293.913 81.9893 293.842 82.0931 293.763 82.1898C293.671 82.3087 293.577 82.4229 293.483 82.5371C293.403 82.6337 293.325 82.735 293.241 82.8337C293.142 82.95 293.037 83.0637 292.938 83.18C292.852 83.2741 292.772 83.3707 292.689 83.4581C292.583 83.5718 292.473 83.6875 292.361 83.7987C292.277 83.886 292.189 83.9754 292.105 84.0628C291.988 84.1759 291.867 84.2912 291.75 84.4044C291.664 84.4871 291.579 84.5698 291.491 84.6478C291.365 84.7651 291.23 84.8752 291.097 84.9899C291.012 85.0613 290.933 85.1352 290.848 85.2065C290.694 85.3362 290.536 85.4566 290.379 85.5817C290.313 85.6334 290.249 85.6897 290.183 85.7414C289.959 85.9135 289.728 86.083 289.493 86.2432C289.455 86.2712 289.41 86.2965 289.368 86.3265C289.175 86.4567 288.978 86.589 288.778 86.7167C288.692 86.772 288.607 86.8205 288.518 86.8712C288.359 86.9642 288.207 87.0598 288.045 87.1482C287.943 87.2051 287.842 87.2552 287.739 87.312C287.59 87.3896 287.443 87.4717 287.293 87.5493C287.184 87.6035 287.072 87.6531 286.967 87.7053C286.818 87.7715 286.678 87.8449 286.528 87.9064C286.416 87.956 286.298 88.003 286.184 88.048C286.04 88.1121 285.891 88.1669 285.743 88.2217C285.625 88.2687 285.507 88.3043 285.386 88.3467C285.275 88.385 285.162 88.4299 285.048 88.4635C285.02 88.4759 284.988 88.479 284.963 88.4847C284.651 88.5844 284.339 88.6728 284.026 88.7452C281.911 89.2506 279.698 89.2594 277.527 88.5865C271.328 86.6571 266.416 83.3256 261.837 81.2055L257.041 75.1037L257.031 75.0919Z" fill="#302CF8"/>
<path d="M241.917 35.1803C233.738 37.1442 226.082 49.0581 232.205 56.2297C236.205 60.9189 240.956 63.7874 244.934 67.261C240.359 65.1389 235.437 61.8115 229.243 59.88C227.07 59.2024 224.857 59.2112 222.744 59.7213C212.902 62.079 205.176 75.2271 213.285 80.2125C206.016 88.8854 215.118 97.9972 224.96 95.6395C227.075 95.134 229.225 94.0947 231.252 92.414C237.071 87.5832 241.081 82.3922 245.595 77.8348C242.413 82.708 237.87 88.1528 234.573 94.5589C229.497 104.418 238.382 112.367 246.563 110.408C248.929 109.841 251.238 108.442 253.132 106.024C255.267 107.481 257.679 107.746 260.045 107.179C268.226 105.22 275.887 93.3038 269.762 86.1276C265.762 81.4383 261.011 78.5699 257.033 75.0963C261.608 77.2184 266.525 80.5479 272.724 82.4772C274.897 83.1548 277.11 83.146 279.223 82.6359C289.069 80.2762 296.795 67.1281 288.686 62.1427C295.955 53.4698 286.853 44.358 277.007 46.7178C274.892 47.2232 272.741 48.2625 270.714 49.9433C264.898 54.7673 260.884 59.9604 256.377 64.5203C259.563 59.6451 264.101 54.2024 267.398 47.7963C272.475 37.9368 263.589 29.9879 255.408 31.9471C253.042 32.5141 250.734 33.9131 248.835 36.3334C246.7 34.8759 244.292 34.6092 241.921 35.1782L241.917 35.1803Z" fill="#00FF00" stroke="#302CF8" stroke-width="1.01804" stroke-linecap="round" stroke-linejoin="round"/>
<path d="M273 137.766C256.787 134.65 238.737 148.744 236.118 171.927C232.917 200.221 262.309 225.983 263.858 227.338C266.14 226.72 309.505 214.928 326.37 189.256C340.185 168.227 334.322 149.544 318.113 146.426C311.036 145.065 301.991 146.672 291.746 152.346C286.804 143.758 280.08 139.12 273.005 137.764L273 137.766Z" fill="#DA00F9" stroke="#302CF8" stroke-width="1.52706" stroke-linejoin="round"/>
<path d="M263.853 227.341C266.135 226.722 309.5 214.93 326.366 189.258C335.889 174.766 336.064 161.386 329.944 153.444L338.769 164.891C344.887 172.828 344.712 186.207 335.19 200.705C328.6 210.73 317.973 218.64 307.322 224.593C306.471 225.072 305.618 225.534 304.771 225.983C303.071 226.884 301.38 227.741 299.714 228.542C298.461 229.144 297.224 229.721 296.008 230.268C292.36 231.911 288.899 233.31 285.809 234.466C285.12 234.722 284.455 234.968 283.808 235.205C283.486 235.32 283.164 235.435 282.852 235.546C282.226 235.769 281.62 235.983 281.039 236.18C280.458 236.376 279.902 236.568 279.368 236.744C277.771 237.275 276.405 237.698 275.329 238.021C274.971 238.13 274.64 238.227 274.349 238.311C273.467 238.57 272.895 238.724 272.681 238.78C271.997 238.182 265.909 232.844 259.583 224.638L250.758 213.191C257.084 221.397 263.172 226.735 263.856 227.334L263.853 227.341Z" fill="#B500F9" stroke="#302CF8" stroke-width="1.52706" stroke-linejoin="round"/>
<path d="M166.917 194.953C179.272 219.942 202.141 235.73 230.864 231.749" stroke="#302CF8" stroke-width="2.54509" stroke-linecap="round" stroke-linejoin="round"/>
<path d="M190.257 173.495C181.545 177.217 174.404 182.758 167.88 186.515C173.752 180.903 180.604 176.053 186.658 168.694C198.603 154.172 180.165 131.825 166.364 142.61C156.146 128.379 132.17 144.644 139.556 161.938C143.277 170.651 148.818 177.791 152.576 184.315C146.963 178.443 142.114 171.591 134.755 165.537C120.233 153.592 97.8857 172.03 108.672 185.835C94.4419 196.054 110.707 220.029 128.001 212.644C136.713 208.922 143.854 203.382 150.378 199.624C144.506 205.236 137.654 210.086 131.6 217.445C119.655 231.967 138.093 254.314 151.893 243.529C162.112 257.76 186.085 241.49 178.702 224.201C174.98 215.489 169.44 208.348 165.682 201.824C171.294 207.696 176.144 214.548 183.503 220.602C198.025 232.547 220.372 214.109 209.585 200.304C223.816 190.086 207.551 166.11 190.257 173.495Z" fill="#302CF8" stroke="#302CF8" stroke-width="1.52706" stroke-linecap="round" stroke-linejoin="round"/>
<path d="M190.207 167.217C181.495 170.939 174.354 176.48 167.83 180.237C173.702 174.625 180.554 169.775 186.608 162.416C198.553 147.894 180.115 125.547 166.315 136.332C156.097 122.101 132.121 138.366 139.506 155.66C143.228 164.373 148.768 171.513 152.526 178.037C146.914 172.165 142.064 165.313 134.705 159.259C120.183 147.314 97.8359 165.752 108.623 179.557C94.3921 189.775 110.657 213.751 127.951 206.366C136.664 202.644 143.804 197.103 150.328 193.346C144.456 198.958 137.604 203.808 131.55 211.167C119.605 225.689 138.043 248.036 151.844 237.251C162.062 251.482 186.036 235.212 178.652 217.923C174.931 209.21 169.39 202.07 165.632 195.546C171.245 201.418 176.095 208.27 183.453 214.324C197.975 226.269 220.322 207.831 209.536 194.026C223.766 183.808 207.497 159.834 190.207 167.217Z" fill="#00FF00" stroke="#302CF8" stroke-width="1.52706" stroke-linecap="round" stroke-linejoin="round"/>
<path d="M97.4587 274.501L139.918 399.828L256.199 402.353L228.893 287.531L97.4587 274.501Z" fill="#302CF8" stroke="#00FF00" stroke-width="1.52706" stroke-linejoin="round"/>
<path d="M340.483 217.159L364.337 334.602L256.199 402.352L228.892 287.531L340.483 217.159Z" fill="#302CF8" stroke="#00FF00" stroke-width="1.52706" stroke-linejoin="round"/>
<path d="M17.5659 234.537L160.569 250.274L228.892 287.532L97.4629 274.499L17.5659 234.537Z" fill="#302CF8" stroke="#00FF00" stroke-width="1.52706" stroke-linejoin="round"/>
<path d="M91.0432 273.865L228.893 287.531L256.199 402.353" stroke="#00FF00" stroke-width="1.52706" stroke-linejoin="round"/>
<path d="M396.812 131.337L274.402 211.018L228.892 287.531L340.483 217.16L396.812 131.337Z" fill="#302CF8" stroke="#00FF00" stroke-width="1.52706" stroke-linejoin="round"/>
<path d="M228.892 287.531L345.543 213.969" stroke="#00FF00" stroke-width="1.52706" stroke-linejoin="round"/>
<g clip-path="url(#clip1_3312_13183)">
<path d="M79.245 92.0017L83.2079 99.8796C89.0943 111.76 115.351 110.383 141.864 96.8017C168.371 83.2163 185.092 62.5757 179.209 50.6902L175.246 42.8122L79.245 92.0017Z" fill="#00FF00"/>
<mask id="mask0_3312_13183" style="mask-type:luminance" maskUnits="userSpaceOnUse" x="79" y="42" width="102" height="66">
<path d="M79.245 92.0017L83.2079 99.8796C89.0943 111.76 115.351 110.383 141.864 96.8017C168.371 83.2163 185.092 62.5757 179.209 50.6902L175.246 42.8122L79.245 92.0017Z" fill="white"/>
</mask>
<g mask="url(#mask0_3312_13183)">
<path d="M79.2437 87.1996L99.7283 128.55" stroke="black" stroke-width="1.62831" stroke-linejoin="round"/>
<path d="M82.6568 85.4503L103.138 126.806" stroke="black" stroke-width="1.62831" stroke-linejoin="round"/>
<path d="M86.067 83.706L106.543 125.058" stroke="black" stroke-width="1.62831" stroke-linejoin="round"/>
<path d="M89.4717 81.9577L109.956 123.309" stroke="black" stroke-width="1.62831" stroke-linejoin="round"/>
<path d="M92.8814 80.2134L113.366 121.564" stroke="black" stroke-width="1.62831" stroke-linejoin="round"/>
<path d="M96.2948 78.4637L116.776 119.82" stroke="black" stroke-width="1.62831" stroke-linejoin="round"/>
<path d="M99.7 76.7155L120.181 118.071" stroke="black" stroke-width="1.62831" stroke-linejoin="round"/>
<path d="M103.11 74.9712L123.594 116.322" stroke="black" stroke-width="1.62831" stroke-linejoin="round"/>
<path d="M106.519 73.2266L127.004 114.577" stroke="black" stroke-width="1.62831" stroke-linejoin="round"/>
<path d="M109.928 71.4733L130.409 112.829" stroke="black" stroke-width="1.62831" stroke-linejoin="round"/>
<path d="M113.338 69.729L133.819 111.085" stroke="black" stroke-width="1.62831" stroke-linejoin="round"/>
<path d="M116.748 67.9843L137.232 109.335" stroke="black" stroke-width="1.62831" stroke-linejoin="round"/>
<path d="M120.152 66.2364L140.637 107.587" stroke="black" stroke-width="1.62831" stroke-linejoin="round"/>
<path d="M123.566 64.4867L144.047 105.843" stroke="black" stroke-width="1.62831" stroke-linejoin="round"/>
<path d="M126.976 62.7424L147.457 104.098" stroke="black" stroke-width="1.62831" stroke-linejoin="round"/>
<path d="M130.386 60.9978L150.865 102.345" stroke="black" stroke-width="1.62831" stroke-linejoin="round"/>
<path d="M133.79 59.2499L154.275 100.601" stroke="black" stroke-width="1.62831" stroke-linejoin="round"/>
<path d="M137.204 57.5002L157.685 98.8561" stroke="black" stroke-width="1.62831" stroke-linejoin="round"/>
<path d="M140.614 55.7556L161.09 97.1078" stroke="black" stroke-width="1.62831" stroke-linejoin="round"/>
<path d="M144.019 54.0075L164.503 95.3584" stroke="black" stroke-width="1.62831" stroke-linejoin="round"/>
<path d="M147.428 52.2633L167.913 93.6141" stroke="black" stroke-width="1.62831" stroke-linejoin="round"/>
<path d="M150.842 50.5133L171.323 91.8693" stroke="black" stroke-width="1.62831" stroke-linejoin="round"/>
<path d="M154.246 48.7654L174.727 90.1213" stroke="black" stroke-width="1.62831" stroke-linejoin="round"/>
<path d="M157.657 47.021L178.141 88.3719" stroke="black" stroke-width="1.62831" stroke-linejoin="round"/>
<path d="M161.07 45.2714L181.551 86.6273" stroke="black" stroke-width="1.62831" stroke-linejoin="round"/>
<path d="M164.475 43.5234L184.956 84.8793" stroke="black" stroke-width="1.62831" stroke-linejoin="round"/>
<path d="M167.885 41.7787L188.369 83.1296" stroke="black" stroke-width="1.62831" stroke-linejoin="round"/>
<path d="M171.294 40.0342L191.778 81.385" stroke="black" stroke-width="1.62831" stroke-linejoin="round"/>
</g>
<path d="M79.245 92.0017L83.2079 99.8796C89.0943 111.76 115.351 110.383 141.864 96.8017C168.371 83.2163 185.092 62.5757 179.209 50.6902L175.246 42.8122L79.245 92.0017Z" stroke="black" stroke-width="1.62831" stroke-linejoin="round"/>
<path d="M175.246 42.8123C181.132 54.6927 164.408 75.3385 137.901 88.9239C111.393 102.509 85.1312 103.882 79.2448 92.0018C73.3584 80.1213 90.0826 59.4756 116.59 45.8902C143.098 32.3048 169.363 30.9267 175.246 42.8123Z" fill="#00FF00" stroke="black" stroke-width="1.62831" stroke-linejoin="round"/>
<path d="M170.424 45.1486C165.323 35.2549 141.858 37.2002 118.013 49.4935C94.1673 61.7867 78.9717 79.7728 84.0722 89.6664C89.1728 99.56 112.638 97.6147 136.483 85.3215C160.329 73.0282 175.525 55.0422 170.424 45.1486Z" fill="#302CF8" stroke="#151597" stroke-width="2.24089" stroke-linejoin="round"/>
<mask id="path-54-outside-1_3312_13183" maskUnits="userSpaceOnUse" x="108.703" y="44.7791" width="41.8387" height="41.8387" fill="black">
<rect fill="white" x="108.703" y="44.7791" width="41.8387" height="41.8387"/>
<path d="M123.586 84.0928L114.406 58.3612L126.093 52.2469C129.112 50.6675 131.813 50.1304 134.198 50.6356C136.593 51.107 138.401 52.508 139.62 54.8387C139.841 55.2604 140.051 55.7439 140.252 56.2893C140.948 58.2149 141.118 60.1335 140.761 62.0449C140.426 63.9447 139.58 65.7307 138.221 67.4028C136.873 69.0411 135.089 70.4409 132.869 71.6022L129.873 73.17L132.143 79.6159L123.586 84.0928ZM129.501 65.7311C130.588 65.162 131.319 64.3699 131.692 63.3545C132.054 62.317 131.968 61.2878 131.434 60.2667C131.039 59.512 130.459 59.0521 129.694 58.8869C128.94 58.6878 128.119 58.8206 127.231 59.2851L125.266 60.3129L127.57 66.7414L129.501 65.7311Z"/>
</mask>
<path d="M123.586 84.0928L114.406 58.3612L126.093 52.2469C129.112 50.6675 131.813 50.1304 134.198 50.6356C136.593 51.107 138.401 52.508 139.62 54.8387C139.841 55.2604 140.051 55.7439 140.252 56.2893C140.948 58.2149 141.118 60.1335 140.761 62.0449C140.426 63.9447 139.58 65.7307 138.221 67.4028C136.873 69.0411 135.089 70.4409 132.869 71.6022L129.873 73.17L132.143 79.6159L123.586 84.0928ZM129.501 65.7311C130.588 65.162 131.319 64.3699 131.692 63.3545C132.054 62.317 131.968 61.2878 131.434 60.2667C131.039 59.512 130.459 59.0521 129.694 58.8869C128.94 58.6878 128.119 58.8206 127.231 59.2851L125.266 60.3129L127.57 66.7414L129.501 65.7311Z" fill="#00FF00"/>
<path d="M123.586 84.0928L122.572 84.4546L122.988 85.6209L124.085 85.0468L123.586 84.0928ZM114.406 58.3612L113.907 57.4071L113.078 57.8411L113.392 58.723L114.406 58.3612ZM134.198 50.6356L133.975 51.689L133.983 51.6906L133.99 51.6921L134.198 50.6356ZM140.252 56.2893L141.265 55.923L141.263 55.9177L140.252 56.2893ZM140.761 62.0449L139.703 61.8472L139.701 61.858L140.761 62.0449ZM138.221 67.4028L139.052 68.087L139.057 68.0818L138.221 67.4028ZM129.873 73.17L129.374 72.2159L128.547 72.6481L128.857 73.5276L129.873 73.17ZM132.143 79.6159L132.642 80.57L133.468 80.1377L133.158 79.2583L132.143 79.6159ZM131.692 63.3545L132.703 63.7263L132.706 63.7178L132.709 63.7092L131.692 63.3545ZM129.694 58.8869L129.419 59.928L129.443 59.9342L129.467 59.9394L129.694 58.8869ZM125.266 60.3129L124.767 59.3588L123.936 59.7934L124.253 60.6761L125.266 60.3129ZM127.57 66.7414L126.556 67.1046L126.973 68.2688L128.069 67.6955L127.57 66.7414ZM124.6 83.731L115.421 57.9994L113.392 58.723L122.572 84.4546L124.6 83.731ZM114.906 59.3153L126.592 53.201L125.594 51.2928L113.907 57.4071L114.906 59.3153ZM126.592 53.201C129.476 51.6921 131.917 51.253 133.975 51.689L134.421 49.5822C131.71 49.0078 128.747 49.643 125.594 51.2928L126.592 53.201ZM133.99 51.6921C136.038 52.0951 137.585 53.2708 138.666 55.3378L140.574 54.3395C139.217 51.7452 137.149 50.1189 134.406 49.5791L133.99 51.6921ZM138.666 55.3378C138.861 55.7105 139.053 56.1501 139.241 56.6609L141.263 55.9177C141.049 55.3378 140.821 54.8103 140.574 54.3395L138.666 55.3378ZM139.239 56.6555C139.874 58.4106 140.023 60.1347 139.703 61.8472L141.82 62.2426C142.214 60.1323 142.023 58.0193 141.265 55.923L139.239 56.6555ZM139.701 61.858C139.401 63.5569 138.642 65.1769 137.385 66.7237L139.057 68.0818C140.517 66.2844 141.451 64.3324 141.822 62.2318L139.701 61.858ZM137.389 66.7186C136.148 68.2274 134.485 69.5417 132.37 70.6481L133.368 72.5563C135.693 71.34 137.598 69.8548 139.052 68.0869L137.389 66.7186ZM132.37 70.6481L129.374 72.2159L130.372 74.124L133.368 72.5563L132.37 70.6481ZM128.857 73.5276L131.127 79.9736L133.158 79.2583L130.888 72.8123L128.857 73.5276ZM131.643 78.6618L123.087 83.1387L124.085 85.0468L132.642 80.57L131.643 78.6618ZM130 66.6852C131.29 66.0101 132.225 65.0265 132.703 63.7263L130.682 62.9828C130.413 63.7132 129.886 64.314 129.001 64.777L130 66.6852ZM132.709 63.7092C133.174 62.3756 133.053 61.0378 132.388 59.7675L130.48 60.7659C130.884 61.5377 130.934 62.2585 130.676 62.9999L132.709 63.7092ZM132.388 59.7675C131.86 58.7581 131.029 58.0735 129.921 57.8344L129.467 59.9394C129.889 60.0306 130.218 60.266 130.48 60.7659L132.388 59.7675ZM129.969 57.8457C128.887 57.5604 127.788 57.7785 126.732 58.331L127.73 60.2392C128.45 59.8627 128.992 59.8153 129.419 59.928L129.969 57.8457ZM126.732 58.331L124.767 59.3588L125.766 61.267L127.73 60.2392L126.732 58.331ZM124.253 60.6761L126.556 67.1046L128.583 66.3782L126.28 59.9497L124.253 60.6761ZM128.069 67.6955L130 66.6852L129.001 64.777L127.07 65.7873L128.069 67.6955Z" fill="black" mask="url(#path-54-outside-1_3312_13183)"/>
</g>
</g>
<defs>
<clipPath id="clip0_3312_13183">
<rect width="474.126" height="462.713" fill="white" transform="translate(0.074707 0.523071)"/>
</clipPath>
<clipPath id="clip1_3312_13183">
<rect width="106.934" height="81.3633" fill="white" transform="translate(63 87.9926) rotate(-53.913)"/>
</clipPath>
</defs>
</svg>
