<svg width="384" height="302" viewBox="0 0 384 302" fill="none" xmlns="http://www.w3.org/2000/svg">
<g clip-path="url(#clip0_3312_13050)">
<path d="M139.116 239.965L103.774 275.307C103.747 275.335 103.709 275.351 103.67 275.351L16.1436 275.018C16.0123 275.018 15.9467 274.859 16.0397 274.761L51.1193 239.681C51.1466 239.654 51.1849 239.637 51.2232 239.637L139.007 239.708C139.138 239.708 139.204 239.867 139.111 239.965H139.116Z" fill="#5479F7"/>
<mask id="mask0_3312_13050" style="mask-type:alpha" maskUnits="userSpaceOnUse" x="15" y="239" width="125" height="37">
<path d="M139.116 239.965L103.774 275.307C103.747 275.335 103.709 275.351 103.67 275.351L16.1436 275.018C16.0123 275.018 15.9467 274.859 16.0397 274.761L51.1193 239.681C51.1466 239.654 51.1849 239.637 51.2232 239.637L139.007 239.708C139.138 239.708 139.204 239.867 139.111 239.965H139.116Z" fill="#5479F7"/>
</mask>
<g mask="url(#mask0_3312_13050)">
<ellipse opacity="0.4" cx="35.6157" cy="258.5" rx="31.5" ry="7.5" fill="black"/>
</g>
<path d="M103.67 276.177L16.1433 275.843C15.7496 275.843 15.3996 275.608 15.252 275.242C15.1044 274.881 15.1864 274.465 15.4653 274.186L50.5449 239.107C50.7308 238.921 50.9769 238.822 51.2284 238.822L139.018 238.893C139.411 238.893 139.761 239.128 139.915 239.489C140.068 239.856 139.98 240.266 139.707 240.545L104.365 275.887C104.184 276.067 103.933 276.171 103.681 276.171L103.67 276.177ZM17.762 274.208L103.397 274.536L137.399 240.534L51.5128 240.463L17.7675 274.208H17.762Z" fill="black"/>
<path d="M139.198 239.746V311.826L104.091 316.954C103.96 347.086 103.73 316.993 103.73 316.807V275.357C103.73 275.357 138.695 239.774 139.198 239.746Z" fill="#1838E0"/>
<path d="M103.943 337.835C103.812 337.835 103.675 337.807 103.549 337.758C103.161 337.6 102.91 337.222 102.91 336.801V275.357C102.91 275.143 102.992 274.935 103.145 274.782C103.232 274.695 111.987 265.781 120.693 256.983C138.525 238.959 138.7 238.948 139.16 238.926C139.384 238.915 139.602 238.997 139.767 239.15C139.931 239.304 140.024 239.522 140.024 239.746V301.831C140.024 302.05 139.936 302.258 139.783 302.411L104.676 337.534C104.479 337.731 104.217 337.835 103.949 337.835H103.943ZM104.55 275.69V335.336L138.378 301.487V241.6C133.565 246.254 116.438 263.589 104.55 275.69Z" fill="black"/>
<path d="M103.73 317.015L15.9353 316.686L16.0119 275.099L103.73 275.357C103.73 275.357 103.73 317.135 103.73 317.015Z" fill="white"/>
<path d="M103.73 317.835L15.9352 317.507C15.4813 317.507 15.115 317.135 15.1204 316.687L15.197 275.1C15.197 274.881 15.2845 274.673 15.4376 274.52C15.5907 274.367 15.7985 274.279 16.0172 274.279L103.735 274.536C104.189 274.536 104.556 274.903 104.556 275.357V317.015C104.556 317.234 104.468 317.441 104.315 317.594C104.162 317.748 103.954 317.835 103.735 317.835H103.73ZM16.7555 315.866L102.91 316.189V276.171L16.8266 275.92L16.7555 315.866Z" fill="black"/>
<path d="M259.038 158.78L223.729 194.089L125.927 193.756C125.823 193.756 125.774 193.63 125.845 193.559L161.028 158.375L258.901 158.446C259.076 158.446 259.158 158.654 259.038 158.774V158.78Z" fill="#5479F7"/>
<path d="M223.728 194.915L125.926 194.581C125.544 194.581 125.21 194.352 125.062 194.002C124.92 193.652 124.997 193.253 125.265 192.985L160.448 157.801C160.601 157.648 160.809 157.561 161.028 157.561L258.901 157.632C259.311 157.632 259.677 157.878 259.836 158.255C259.995 158.632 259.907 159.07 259.617 159.36L224.308 194.669C224.155 194.822 223.947 194.91 223.728 194.91V194.915ZM127.622 192.941L223.389 193.269L257.392 159.267L161.367 159.196L127.622 192.941Z" fill="black"/>
<path d="M259.196 158.479V291.563L223.996 326.785C223.898 326.883 223.728 326.812 223.728 326.675V194.095C223.728 194.095 258.693 158.512 259.196 158.484V158.479Z" fill="#1838E0"/>
<path d="M223.887 327.654C223.761 327.654 223.635 327.632 223.509 327.577C223.143 327.424 222.908 327.069 222.908 326.675V194.094C222.908 193.881 222.99 193.673 223.143 193.52C223.231 193.433 231.985 184.519 240.691 175.721C258.523 157.697 258.693 157.686 259.158 157.664C259.382 157.659 259.601 157.735 259.765 157.888C259.929 158.041 260.022 158.26 260.022 158.484V291.568C260.022 291.787 259.934 291.995 259.781 292.148L224.581 327.37C224.395 327.556 224.144 327.654 223.892 327.654H223.887ZM224.548 194.428V325.073L258.376 291.224V160.333C253.564 164.986 236.437 182.326 224.548 194.423V194.428Z" fill="black"/>
<path d="M223.728 327.014L125.801 326.686C126.009 326.894 125.877 193.832 125.877 193.832L223.734 194.089C223.734 194.089 223.734 327.135 223.734 327.014H223.728Z" fill="white"/>
<path d="M223.728 327.835L125.801 327.507C125.402 327.507 125.063 327.222 124.997 326.828C124.981 326.735 124.981 326.643 124.997 326.555C125.15 323.897 125.106 238.717 125.063 193.838C125.063 193.619 125.15 193.411 125.303 193.258C125.456 193.105 125.664 193.017 125.883 193.017L223.739 193.274C224.193 193.274 224.56 193.641 224.56 194.095V327.02C224.56 327.239 224.472 327.446 224.319 327.599C224.166 327.753 223.958 327.84 223.739 327.84L223.728 327.835ZM126.643 325.866L222.903 326.189V194.904L126.692 194.647C126.692 199.951 126.725 230.082 126.73 260.218C126.73 276.82 126.73 293.422 126.714 305.885C126.709 312.113 126.692 317.308 126.676 320.95C126.67 322.771 126.659 324.204 126.648 325.182C126.648 325.439 126.648 325.664 126.637 325.861L126.643 325.866Z" fill="black"/>
<path d="M193.308 221.792C193.1 221.792 192.887 221.71 192.728 221.551C192.406 221.229 192.406 220.709 192.728 220.392L201.642 211.478C201.964 211.156 202.484 211.156 202.801 211.478C203.118 211.801 203.124 212.321 202.801 212.638L193.888 221.551C193.729 221.71 193.516 221.792 193.308 221.792Z" fill="#CADDFF"/>
<path d="M383.011 44.8682L347.368 80.5111L250.862 80.1775C250.72 80.1775 250.649 80.0025 250.747 79.9041L285.86 44.7971L383.016 44.8682H383.011Z" fill="#5479F7"/>
<path d="M347.368 81.3313L250.862 80.9977C250.463 80.9977 250.108 80.7571 249.96 80.3907C249.807 80.0243 249.894 79.6033 250.173 79.3244L285.28 44.2174C285.433 44.0643 285.641 43.9768 285.86 43.9768L383.016 44.0479C383.35 44.0479 383.645 44.2502 383.771 44.5565C383.897 44.8627 383.826 45.2127 383.591 45.4478L347.948 81.0907C347.795 81.2438 347.587 81.3313 347.368 81.3313ZM252.454 79.3627L347.035 79.6908L381.037 45.6884L286.199 45.6173L252.454 79.3627Z" fill="black"/>
<path d="M383.012 44.9009V291.967L347.91 327.091C347.773 327.228 347.544 327.129 347.544 326.938V80.5109C347.544 80.5109 382.509 44.9282 383.012 44.9009Z" fill="#1838E0"/>
<path d="M347.762 327.971C347.631 327.971 347.494 327.944 347.363 327.889C346.975 327.731 346.723 327.353 346.723 326.932V80.511C346.723 80.2978 346.805 80.09 346.958 79.9368C347.046 79.8494 355.801 70.9359 364.506 62.1373C382.339 44.1135 382.508 44.1026 382.973 44.0807C383.192 44.0752 383.416 44.1518 383.58 44.3049C383.744 44.458 383.837 44.6768 383.837 44.901V291.968C383.837 292.186 383.75 292.394 383.596 292.547L348.495 327.671C348.298 327.867 348.036 327.977 347.762 327.977V327.971ZM348.364 80.8446V325.472L382.191 291.623V46.7548C377.379 51.4083 360.252 68.7486 348.364 80.8446Z" fill="black"/>
<path d="M348.031 327.157L251.115 326.829C251.323 327.036 251.192 80.2542 251.192 80.2542L348.031 80.5112C348.031 80.5112 348.031 327.277 348.031 327.157Z" fill="white"/>
<path d="M347.543 327.977L250.627 327.649C250.234 327.649 249.895 327.364 249.824 326.971C249.807 326.883 249.807 326.801 249.824 326.719C250.02 322.629 249.889 82.6874 249.889 80.254C249.889 80.0352 249.977 79.8274 250.13 79.6743C250.283 79.5212 250.491 79.4337 250.709 79.4337L347.549 79.6907C348.003 79.6907 348.369 80.0571 348.369 80.511V327.157C348.369 327.375 348.282 327.583 348.129 327.736C347.975 327.889 347.768 327.977 347.549 327.977H347.543ZM251.464 326.008L346.723 326.331V81.3312L251.524 81.0797C251.524 88.5768 251.557 146.039 251.563 203.511C251.563 234.325 251.563 265.145 251.546 288.265C251.541 299.826 251.524 309.461 251.508 316.209C251.502 319.583 251.491 322.235 251.48 324.05C251.48 324.904 251.47 325.538 251.459 326.014L251.464 326.008Z" fill="black"/>
<path d="M304.155 138H294.275L296.795 119.92H296.355L289.435 124.52L290.715 115.2L299.475 109.2H308.195L304.155 138Z" fill="#302CF8"/>
<path d="M291.864 312.305C291.657 312.305 291.443 312.223 291.285 312.064C290.962 311.742 290.962 311.222 291.285 310.905L319.348 282.841C319.671 282.519 320.191 282.519 320.508 282.841C320.825 283.164 320.83 283.683 320.508 284.001L292.444 312.064C292.285 312.223 292.072 312.305 291.864 312.305Z" fill="#CADDFF"/>
<path d="M290.875 291.175C290.667 291.175 290.454 291.093 290.295 290.934C289.972 290.612 289.972 290.092 290.295 289.775L299.208 280.862C299.531 280.539 300.051 280.539 300.368 280.862C300.69 281.184 300.69 281.704 300.368 282.021L291.454 290.934C291.296 291.093 291.082 291.175 290.875 291.175Z" fill="#CADDFF"/>
<path d="M162.875 252L163.715 246L176.875 236.8C178.155 235.867 179.035 235.133 179.515 234.6C180.022 234.067 180.275 233.453 180.275 232.76C180.275 232.173 180.075 231.707 179.675 231.36C179.275 230.987 178.729 230.8 178.035 230.8C177.075 230.8 176.249 231.147 175.555 231.84C174.862 232.507 174.422 233.493 174.235 234.8H165.435C165.622 232.507 166.355 230.453 167.635 228.64C168.915 226.8 170.582 225.373 172.635 224.36C174.689 223.32 176.942 222.8 179.395 222.8C181.395 222.8 183.169 223.147 184.715 223.84C186.262 224.533 187.462 225.493 188.315 226.72C189.169 227.947 189.595 229.36 189.595 230.96C189.595 232.96 189.009 234.733 187.835 236.28C186.689 237.8 185.142 239.187 183.195 240.44L177.115 244.4L177.035 244.8H186.915L185.875 252H162.875Z" fill="#302CF8"/>
<path d="M55.1255 309.3C53.5455 309.3 52.1355 308.99 50.8955 308.37C49.6555 307.73 48.6955 306.85 48.0155 305.73C47.3355 304.59 46.9955 303.3 46.9955 301.86C46.9955 301.66 47.0155 301.34 47.0555 300.9H53.8955C53.8755 301 53.8655 301.16 53.8655 301.38C53.8655 302.02 54.0455 302.55 54.4055 302.97C54.7855 303.39 55.2755 303.6 55.8755 303.6C56.5755 303.6 57.1555 303.34 57.6155 302.82C58.0955 302.3 58.3355 301.66 58.3355 300.9C58.3355 300.36 58.1655 299.93 57.8255 299.61C57.5055 299.27 57.0855 299.1 56.5655 299.1C56.2655 299.1 55.9655 299.13 55.6655 299.19C55.3655 299.25 55.1255 299.33 54.9455 299.43L54.0755 295.65L57.3455 293.1L57.3755 292.8H49.7255L50.4755 287.4H66.5255L65.9255 291.6L61.2755 295.35C62.5355 295.71 63.5355 296.42 64.2755 297.48C65.0355 298.52 65.4155 299.72 65.4155 301.08C65.4155 301.28 65.3955 301.6 65.3555 302.04C65.1555 303.44 64.5855 304.69 63.6455 305.79C62.7055 306.89 61.4855 307.75 59.9855 308.37C58.5055 308.99 56.8855 309.3 55.1255 309.3Z" fill="#302CF8"/>
</g>
<g clip-path="url(#clip1_3312_13050)">
<path d="M159.347 72.1938L162.572 78.4833C167.362 87.9684 188.728 86.8693 210.302 76.026C231.872 65.1798 245.478 48.7008 240.691 39.2117L237.466 32.9221L159.347 72.1938Z" fill="#00FF00"/>
<mask id="mask1_3312_13050" style="mask-type:luminance" maskUnits="userSpaceOnUse" x="159" y="32" width="83" height="53">
<path d="M159.347 72.1938L162.572 78.4833C167.362 87.9684 188.728 86.8693 210.302 76.026C231.872 65.1798 245.478 48.7008 240.691 39.2117L237.466 32.9221L159.347 72.1938Z" fill="white"/>
</mask>
<g mask="url(#mask1_3312_13050)">
<path d="M159.346 68.3597L176.015 101.373" stroke="black" stroke-width="1.3" stroke-linejoin="round"/>
<path d="M162.124 66.963L178.79 99.9806" stroke="black" stroke-width="1.3" stroke-linejoin="round"/>
<path d="M164.899 65.5704L181.561 98.585" stroke="black" stroke-width="1.3" stroke-linejoin="round"/>
<path d="M167.669 64.1746L184.338 97.1881" stroke="black" stroke-width="1.3" stroke-linejoin="round"/>
<path d="M170.444 62.7819L187.113 95.7954" stroke="black" stroke-width="1.3" stroke-linejoin="round"/>
<path d="M173.222 61.3852L189.887 94.4027" stroke="black" stroke-width="1.3" stroke-linejoin="round"/>
<path d="M175.993 59.9893L192.658 93.0068" stroke="black" stroke-width="1.3" stroke-linejoin="round"/>
<path d="M178.767 58.5968L195.436 91.6102" stroke="black" stroke-width="1.3" stroke-linejoin="round"/>
<path d="M181.542 57.2038L198.211 90.2173" stroke="black" stroke-width="1.3" stroke-linejoin="round"/>
<path d="M184.315 55.8042L200.981 88.8217" stroke="black" stroke-width="1.3" stroke-linejoin="round"/>
<path d="M187.09 54.4115L203.756 87.429" stroke="black" stroke-width="1.3" stroke-linejoin="round"/>
<path d="M189.865 53.0187L206.534 86.0322" stroke="black" stroke-width="1.3" stroke-linejoin="round"/>
<path d="M192.635 51.623L209.304 84.6365" stroke="black" stroke-width="1.3" stroke-linejoin="round"/>
<path d="M195.413 50.2262L212.079 83.2438" stroke="black" stroke-width="1.3" stroke-linejoin="round"/>
<path d="M198.188 48.8336L214.854 81.8512" stroke="black" stroke-width="1.3" stroke-linejoin="round"/>
<path d="M200.962 47.4408L217.627 80.4513" stroke="black" stroke-width="1.3" stroke-linejoin="round"/>
<path d="M203.733 46.0452L220.402 79.0587" stroke="black" stroke-width="1.3" stroke-linejoin="round"/>
<path d="M206.51 44.6484L223.176 77.666" stroke="black" stroke-width="1.3" stroke-linejoin="round"/>
<path d="M209.285 43.2556L225.947 76.2702" stroke="black" stroke-width="1.3" stroke-linejoin="round"/>
<path d="M212.056 41.8599L228.725 74.8734" stroke="black" stroke-width="1.3" stroke-linejoin="round"/>
<path d="M214.83 40.4674L231.499 73.4808" stroke="black" stroke-width="1.3" stroke-linejoin="round"/>
<path d="M217.608 39.0703L234.274 72.0879" stroke="black" stroke-width="1.3" stroke-linejoin="round"/>
<path d="M220.378 37.6746L237.044 70.6922" stroke="black" stroke-width="1.3" stroke-linejoin="round"/>
<path d="M223.153 36.2821L239.822 69.2956" stroke="black" stroke-width="1.3" stroke-linejoin="round"/>
<path d="M225.931 34.8851L242.597 67.9027" stroke="black" stroke-width="1.3" stroke-linejoin="round"/>
<path d="M228.702 33.4895L245.367 66.5071" stroke="black" stroke-width="1.3" stroke-linejoin="round"/>
<path d="M231.476 32.0968L248.145 65.1102" stroke="black" stroke-width="1.3" stroke-linejoin="round"/>
<path d="M234.251 30.7041L250.92 63.7175" stroke="black" stroke-width="1.3" stroke-linejoin="round"/>
</g>
<path d="M159.347 72.1938L162.572 78.4833C167.362 87.9684 188.728 86.8693 210.302 76.026C231.872 65.1798 245.478 48.7008 240.691 39.2117L237.466 32.9221L159.347 72.1938Z" stroke="black" stroke-width="1.3" stroke-linejoin="round"/>
<path d="M237.466 32.922C242.256 42.4071 228.647 58.8901 207.077 69.7363C185.507 80.5826 164.137 81.6787 159.347 72.1937C154.557 62.7086 168.166 46.2256 189.736 35.3794C211.306 24.5331 232.679 23.4329 237.466 32.922Z" fill="#00FF00" stroke="black" stroke-width="1.3" stroke-linejoin="round"/>
<path d="M233.542 34.7874C229.392 26.8886 210.297 28.4417 190.894 38.2563C171.49 48.0709 159.125 62.4305 163.275 70.3293C167.426 78.2282 186.52 76.6751 205.924 66.8604C225.327 57.0458 237.692 42.6862 233.542 34.7874Z" fill="#302CF8" stroke="#151597" stroke-width="1.78907" stroke-linejoin="round"/>
<mask id="path-60-outside-1_3312_13050" maskUnits="userSpaceOnUse" x="182.753" y="34.2433" width="33.6126" height="32.5236" fill="black">
<rect fill="white" x="182.753" y="34.2433" width="33.6126" height="32.5236"/>
<path d="M195.021 65.109L187.645 44.7931L197.081 39.9498C199.518 38.6987 201.698 38.2713 203.621 38.6676C205.553 39.0372 207.01 40.1419 207.991 41.9815C208.168 42.3144 208.338 42.6961 208.499 43.1267C209.058 44.6471 209.193 46.1624 208.903 47.6727C208.63 49.1738 207.945 50.5856 206.847 51.908C205.758 53.2038 204.317 54.3116 202.525 55.2315L200.105 56.4734L201.929 61.5627L195.021 65.109ZM199.814 50.5975C200.692 50.1468 201.282 49.5202 201.585 48.7177C201.878 47.8977 201.81 47.0847 201.38 46.2788C201.062 45.6831 200.595 45.3204 199.978 45.1908C199.37 45.0345 198.707 45.1403 197.99 45.5082L196.404 46.3224L198.255 51.3979L199.814 50.5975Z"/>
</mask>
<path d="M195.021 65.109L187.645 44.7931L197.081 39.9498C199.518 38.6987 201.698 38.2713 203.621 38.6676C205.553 39.0372 207.01 40.1419 207.991 41.9815C208.168 42.3144 208.338 42.6961 208.499 43.1267C209.058 44.6471 209.193 46.1624 208.903 47.6727C208.63 49.1738 207.945 50.5856 206.847 51.908C205.758 53.2038 204.317 54.3116 202.525 55.2315L200.105 56.4734L201.929 61.5627L195.021 65.109ZM199.814 50.5975C200.692 50.1468 201.282 49.5202 201.585 48.7177C201.878 47.8977 201.81 47.0847 201.38 46.2788C201.062 45.6831 200.595 45.3204 199.978 45.1908C199.37 45.0345 198.707 45.1403 197.99 45.5082L196.404 46.3224L198.255 51.3979L199.814 50.5975Z" fill="#00FF00"/>
<path d="M195.021 65.109L194.202 65.3959L194.536 66.3168L195.422 65.8621L195.021 65.109ZM187.645 44.7931L187.244 44.04L186.574 44.3839L186.827 45.0801L187.645 44.7931ZM203.621 38.6676L203.44 39.5001L203.452 39.5024L203.621 38.6676ZM208.499 43.1267L209.316 42.8362L209.315 42.832L208.499 43.1267ZM208.903 47.6727L208.049 47.5177L208.048 47.5263L208.903 47.6727ZM206.847 51.908L207.517 52.4476L207.521 52.4435L206.847 51.908ZM200.105 56.4734L199.704 55.7203L199.037 56.0627L199.286 56.7571L200.105 56.4734ZM201.929 61.5627L202.331 62.3158L202.998 61.9734L202.749 61.279L201.929 61.5627ZM201.585 48.7177L202.4 49.0102L202.402 49.0035L202.405 48.9967L201.585 48.7177ZM199.978 45.1908L199.755 46.0136L199.774 46.0184L199.794 46.0225L199.978 45.1908ZM196.404 46.3224L196.003 45.5693L195.332 45.9136L195.586 46.6104L196.404 46.3224ZM198.255 51.3979L197.437 51.6859L197.772 52.6051L198.656 52.151L198.255 51.3979ZM195.839 64.822L188.464 44.5062L186.827 45.0801L194.202 65.3959L195.839 64.822ZM188.047 45.5462L197.482 40.7029L196.679 39.1967L187.244 44.04L188.047 45.5462ZM197.482 40.7029C199.811 39.5076 201.78 39.1579 203.44 39.5L203.803 37.8352C201.616 37.3846 199.225 37.8897 196.679 39.1967L197.482 40.7029ZM203.452 39.5024C205.104 39.8184 206.35 40.7454 207.22 42.3769L208.761 41.5861C207.669 39.5384 206.003 38.2561 203.79 37.8328L203.452 39.5024ZM207.22 42.3769C207.377 42.6711 207.532 43.0181 207.683 43.4214L209.315 42.832C209.143 42.3742 208.959 41.9577 208.761 41.5861L207.22 42.3769ZM207.681 43.4172C208.191 44.8029 208.309 46.1646 208.049 47.5178L209.757 47.8277C210.077 46.1602 209.925 44.4912 209.316 42.8362L207.681 43.4172ZM208.048 47.5263C207.804 48.8687 207.19 50.1493 206.174 51.3726L207.521 52.4435C208.701 51.0219 209.457 49.479 209.758 47.8191L208.048 47.5263ZM206.177 51.3685C205.174 52.5618 203.83 53.602 202.123 54.4784L202.926 55.9846C204.803 55.0212 206.341 53.8457 207.517 52.4475L206.177 51.3685ZM202.123 54.4784L199.704 55.7203L200.507 57.2265L202.926 55.9846L202.123 54.4784ZM199.286 56.7571L201.109 61.8464L202.749 61.279L200.925 56.1897L199.286 56.7571ZM201.528 60.8096L194.619 64.3559L195.422 65.8621L202.331 62.3158L201.528 60.8096ZM200.216 51.3506C201.257 50.8159 202.012 50.0378 202.4 49.0102L200.77 48.4252C200.552 49.0025 200.127 49.4777 199.412 49.8444L200.216 51.3506ZM202.405 48.9967C202.782 47.9427 202.685 46.8861 202.15 45.8834L200.61 46.6742C200.935 47.2834 200.975 47.8527 200.765 48.4387L202.405 48.9967ZM202.15 45.8834C201.725 45.0866 201.056 44.5468 200.163 44.3591L199.794 46.0225C200.134 46.0941 200.399 46.2796 200.61 46.6742L202.15 45.8834ZM200.201 44.368C199.329 44.1439 198.441 44.3175 197.589 44.7551L198.392 46.2613C198.973 45.9631 199.411 45.925 199.755 46.0136L200.201 44.368ZM197.589 44.7551L196.003 45.5693L196.806 47.0755L198.392 46.2613L197.589 44.7551ZM195.586 46.6104L197.437 51.6859L199.073 51.1098L197.223 46.0343L195.586 46.6104ZM198.656 52.151L200.216 51.3506L199.412 49.8444L197.853 50.6448L198.656 52.151Z" fill="black" mask="url(#path-60-outside-1_3312_13050)"/>
</g>
<g clip-path="url(#clip2_3312_13050)">
<path d="M4.82552 199.613L1.75095 205.493C-2.92606 214.306 9.7149 229.606 29.9916 239.671C50.2683 249.732 70.4967 250.748 75.1786 241.935L78.2531 236.055L4.82552 199.613Z" fill="#00FF00"/>
<mask id="mask2_3312_13050" style="mask-type:luminance" maskUnits="userSpaceOnUse" x="0" y="199" width="79" height="49">
<path d="M4.82552 199.613L1.75095 205.493C-2.92606 214.306 9.7149 229.606 29.9916 239.671C50.2683 249.732 70.4967 250.748 75.1786 241.935L78.2531 236.055L4.82552 199.613Z" fill="white"/>
</mask>
<g mask="url(#mask2_3312_13050)">
<path d="M7.78415 197.492L-8.49609 228.163" stroke="black" stroke-width="1.3" stroke-linejoin="round"/>
<path d="M10.3952 198.787L-5.88989 229.459" stroke="black" stroke-width="1.3" stroke-linejoin="round"/>
<path d="M13.0016 200.083L-3.28345 230.749" stroke="black" stroke-width="1.3" stroke-linejoin="round"/>
<path d="M15.6079 201.374L-0.672363 232.045" stroke="black" stroke-width="1.3" stroke-linejoin="round"/>
<path d="M18.2143 202.669L1.93408 233.341" stroke="black" stroke-width="1.3" stroke-linejoin="round"/>
<path d="M20.8256 203.965L4.54053 234.636" stroke="black" stroke-width="1.3" stroke-linejoin="round"/>
<path d="M23.4323 205.256L7.14722 235.927" stroke="black" stroke-width="1.3" stroke-linejoin="round"/>
<path d="M26.0383 206.551L9.75806 237.223" stroke="black" stroke-width="1.3" stroke-linejoin="round"/>
<path d="M28.645 207.847L12.3647 238.518" stroke="black" stroke-width="1.3" stroke-linejoin="round"/>
<path d="M31.256 209.138L14.9709 239.809" stroke="black" stroke-width="1.3" stroke-linejoin="round"/>
<path d="M33.8625 210.433L17.5774 241.105" stroke="black" stroke-width="1.3" stroke-linejoin="round"/>
<path d="M36.469 211.729L20.1887 242.4" stroke="black" stroke-width="1.3" stroke-linejoin="round"/>
<path d="M39.0752 213.019L22.7949 243.691" stroke="black" stroke-width="1.3" stroke-linejoin="round"/>
<path d="M41.6864 214.315L25.4014 244.987" stroke="black" stroke-width="1.3" stroke-linejoin="round"/>
<path d="M44.2926 215.611L28.0076 246.282" stroke="black" stroke-width="1.3" stroke-linejoin="round"/>
<path d="M46.8991 216.906L30.6189 247.573" stroke="black" stroke-width="1.3" stroke-linejoin="round"/>
<path d="M49.5056 218.197L33.2253 248.869" stroke="black" stroke-width="1.3" stroke-linejoin="round"/>
<path d="M52.1166 219.493L35.8315 250.164" stroke="black" stroke-width="1.3" stroke-linejoin="round"/>
<path d="M54.7231 220.788L38.438 251.455" stroke="black" stroke-width="1.3" stroke-linejoin="round"/>
<path d="M57.3296 222.079L41.0493 252.75" stroke="black" stroke-width="1.3" stroke-linejoin="round"/>
<path d="M59.9358 223.375L43.6555 254.046" stroke="black" stroke-width="1.3" stroke-linejoin="round"/>
<path d="M62.5473 224.67L46.2622 255.342" stroke="black" stroke-width="1.3" stroke-linejoin="round"/>
<path d="M65.1535 225.961L48.8684 256.632" stroke="black" stroke-width="1.3" stroke-linejoin="round"/>
<path d="M67.7597 227.257L51.4795 257.928" stroke="black" stroke-width="1.3" stroke-linejoin="round"/>
<path d="M70.3712 228.552L54.0862 259.224" stroke="black" stroke-width="1.3" stroke-linejoin="round"/>
<path d="M72.9775 229.843L56.6924 260.515" stroke="black" stroke-width="1.3" stroke-linejoin="round"/>
<path d="M75.584 231.139L59.3037 261.81" stroke="black" stroke-width="1.3" stroke-linejoin="round"/>
<path d="M78.1902 232.434L61.9099 263.106" stroke="black" stroke-width="1.3" stroke-linejoin="round"/>
</g>
<path d="M4.82552 199.613L1.75095 205.493C-2.92606 214.306 9.7149 229.606 29.9916 239.671C50.2683 249.732 70.4967 250.748 75.1786 241.935L78.2531 236.055L4.82552 199.613Z" stroke="black" stroke-width="1.3" stroke-linejoin="round"/>
<path d="M78.2533 236.055C73.5763 244.868 53.343 243.852 33.0663 233.791C12.7896 223.731 0.148647 208.426 4.82566 199.613C9.50267 190.8 29.7359 191.816 50.0126 201.877C70.2893 211.937 82.9351 227.242 78.2533 236.055Z" fill="#00FF00" stroke="black" stroke-width="1.3" stroke-linejoin="round"/>
<path d="M74.6478 234.165C78.4535 226.706 66.7158 213.348 48.431 204.329C30.1463 195.311 12.2384 194.047 8.43275 201.506C4.62709 208.966 16.3647 222.323 34.6495 231.342C52.9343 240.36 70.8422 241.624 74.6478 234.165Z" fill="#302CF8" stroke="#151597" stroke-width="1.78907" stroke-linejoin="round"/>
<mask id="path-95-outside-2_3312_13050" maskUnits="userSpaceOnUse" x="27.5481" y="201.834" width="33.2634" height="32.3691" fill="black">
<rect fill="white" x="27.5481" y="201.834" width="33.2634" height="32.3691"/>
<path d="M29.5263 223.128L41.9507 205.152L51.4221 209.753C53.8686 210.942 55.4881 212.418 56.2805 214.181C57.0999 215.936 57.0381 217.751 56.0951 219.627C55.9245 219.967 55.7089 220.329 55.4484 220.714C54.5231 222.065 53.3548 223.076 51.9435 223.747C50.5502 224.426 48.9903 224.724 47.2638 224.642C45.5642 224.55 43.815 224.067 42.0161 223.193L39.5875 222.013L36.4611 226.497L29.5263 223.128ZM44.2519 218.276C45.1334 218.704 45.9922 218.799 46.8283 218.56C47.6734 218.304 48.3025 217.765 48.7156 216.943C49.0209 216.335 49.0475 215.748 48.7954 215.181C48.5702 214.604 48.0978 214.141 47.3783 213.792L45.7862 213.018L42.6868 217.516L44.2519 218.276Z"/>
</mask>
<path d="M29.5263 223.128L41.9507 205.152L51.4221 209.753C53.8686 210.942 55.4881 212.418 56.2805 214.181C57.0999 215.936 57.0381 217.751 56.0951 219.627C55.9245 219.967 55.7089 220.329 55.4484 220.714C54.5231 222.065 53.3548 223.076 51.9435 223.747C50.5502 224.426 48.9903 224.724 47.2638 224.642C45.5642 224.55 43.815 224.067 42.0161 223.193L39.5875 222.013L36.4611 226.497L29.5263 223.128ZM44.2519 218.276C45.1334 218.704 45.9922 218.799 46.8283 218.56C47.6734 218.304 48.3025 217.765 48.7156 216.943C49.0209 216.335 49.0475 215.748 48.7954 215.181C48.5702 214.604 48.0978 214.141 47.3783 213.792L45.7862 213.018L42.6868 217.516L44.2519 218.276Z" fill="#00FF00"/>
<path d="M29.5263 223.128L28.8141 222.649L28.2509 223.464L29.1402 223.896L29.5263 223.128ZM41.9507 205.152L42.3367 204.384L41.6643 204.057L41.2385 204.673L41.9507 205.152ZM56.2805 214.181L55.4902 214.534L55.4954 214.545L56.2805 214.181ZM55.4484 220.714L56.1627 221.19L56.1652 221.186L55.4484 220.714ZM51.9435 223.747L51.5745 222.977L51.5666 222.98L51.9435 223.747ZM47.2638 224.642L47.2095 225.495L47.2149 225.496L47.2638 224.642ZM39.5875 222.013L39.9735 221.245L39.3039 220.919L38.8774 221.531L39.5875 222.013ZM36.4611 226.497L36.0751 227.265L36.7447 227.59L37.1713 226.979L36.4611 226.497ZM46.8283 218.56L47.0615 219.382L47.0685 219.38L47.0755 219.378L46.8283 218.56ZM48.7954 215.181L47.9889 215.495L47.996 215.512L48.0038 215.53L48.7954 215.181ZM45.7862 213.018L46.1722 212.25L45.4989 211.923L45.0734 212.54L45.7862 213.018ZM42.6868 217.516L41.9741 217.038L41.4128 217.852L42.3008 218.284L42.6868 217.516ZM30.2384 223.606L42.6628 205.631L41.2385 204.673L28.8141 222.649L30.2384 223.606ZM41.5646 205.92L51.036 210.521L51.8081 208.985L42.3367 204.384L41.5646 205.92ZM51.036 210.521C53.3734 211.657 54.8064 213.012 55.4903 214.534L57.0707 213.829C56.1698 211.824 54.3638 210.227 51.8081 208.985L51.036 210.521ZM55.4954 214.545C56.1959 216.045 56.1582 217.588 55.3219 219.252L56.8684 220.003C57.918 217.914 58.0039 215.826 57.0656 213.817L55.4954 214.545ZM55.3219 219.252C55.1711 219.552 54.9756 219.882 54.7316 220.242L56.1652 221.186C56.4422 220.777 56.6779 220.382 56.8684 220.003L55.3219 219.252ZM54.7341 220.238C53.8908 221.47 52.839 222.376 51.5745 222.977L52.3124 224.517C53.8706 223.777 55.1554 222.661 56.1627 221.19L54.7341 220.238ZM51.5666 222.98C50.3205 223.588 48.9098 223.864 47.3126 223.787L47.2149 225.496C49.0707 225.585 50.7798 225.264 52.3204 224.513L51.5666 222.98ZM47.318 223.788C45.7528 223.703 44.1159 223.257 42.4021 222.424L41.63 223.961C43.5141 224.876 45.3756 225.396 47.2095 225.495L47.318 223.788ZM42.4021 222.424L39.9735 221.245L39.2015 222.781L41.63 223.961L42.4021 222.424ZM38.8774 221.531L35.751 226.015L37.1713 226.979L40.2976 222.494L38.8774 221.531ZM36.8472 225.729L29.9123 222.36L29.1402 223.896L36.0751 227.265L36.8472 225.729ZM43.8659 219.044C44.9116 219.552 45.9908 219.687 47.0615 219.382L46.5951 217.739C45.9936 217.911 45.3552 217.856 44.6379 217.508L43.8659 219.044ZM47.0755 219.378C48.1617 219.048 48.9748 218.341 49.4888 217.318L47.9423 216.567C47.6301 217.188 47.185 217.56 46.581 217.743L47.0755 219.378ZM49.4888 217.318C49.8972 216.506 49.9519 215.652 49.5869 214.831L48.0038 215.53C48.1431 215.843 48.1446 216.165 47.9423 216.567L49.4888 217.318ZM49.6018 214.867C49.279 214.04 48.6202 213.439 47.7643 213.024L46.9922 214.56C47.5755 214.843 47.8614 215.168 47.9889 215.495L49.6018 214.867ZM47.7643 213.024L46.1722 212.25L45.4002 213.786L46.9922 214.56L47.7643 213.024ZM45.0734 212.54L41.9741 217.038L43.3996 217.993L46.499 213.496L45.0734 212.54ZM42.3008 218.284L43.8659 219.044L44.6379 217.508L43.0729 216.747L42.3008 218.284Z" fill="black" mask="url(#path-95-outside-2_3312_13050)"/>
</g>
<path d="M101.547 93L107.139 139.144L154.17 144.631L107.139 150.117L101.547 196.261L95.9544 150.117L48.9231 144.631L95.9544 139.144L101.547 93Z" fill="white" stroke="#222221" stroke-width="1.5" stroke-miterlimit="10"/>
<defs>
<clipPath id="clip0_3312_13050">
<rect width="368.716" height="284" fill="white" transform="translate(15.1155 43.9768)"/>
</clipPath>
<clipPath id="clip1_3312_13050">
<rect width="85.9467" height="65.7769" fill="white" transform="matrix(0.596337 -0.802734 0.813415 0.581684 146.128 68.9929)"/>
</clipPath>
<clipPath id="clip2_3312_13050">
<rect width="81.5385" height="61" fill="white" transform="translate(0 188)"/>
</clipPath>
</defs>
</svg>
