<svg width="625" height="331" viewBox="0 0 625 331" fill="none" xmlns="http://www.w3.org/2000/svg">
<g clip-path="url(#clip0_4012_3740)">
<rect y="0.976562" width="625" height="330" rx="30" fill="#00FF00"/>
<g clip-path="url(#clip1_4012_3740)">
<path d="M360.116 268.965L324.774 304.307C324.747 304.334 324.709 304.351 324.67 304.351L237.144 304.017C237.012 304.017 236.947 303.859 237.04 303.76L272.119 268.68C272.147 268.653 272.185 268.637 272.223 268.637L360.007 268.708C360.138 268.708 360.204 268.866 360.111 268.965H360.116Z" fill="#5479F7"/>
<mask id="mask0_4012_3740" style="mask-type:alpha" maskUnits="userSpaceOnUse" x="236" y="268" width="125" height="37">
<path d="M360.116 268.965L324.774 304.307C324.747 304.334 324.709 304.351 324.67 304.351L237.144 304.017C237.012 304.017 236.947 303.859 237.04 303.76L272.119 268.68C272.147 268.653 272.185 268.637 272.223 268.637L360.007 268.708C360.138 268.708 360.204 268.866 360.111 268.965H360.116Z" fill="#5479F7"/>
</mask>
<g mask="url(#mask0_4012_3740)">
<ellipse opacity="0.4" cx="256.615" cy="287.5" rx="31.5" ry="7.5" fill="black"/>
</g>
<path d="M324.67 305.177L237.143 304.843C236.75 304.843 236.4 304.608 236.252 304.242C236.104 303.881 236.186 303.465 236.465 303.186L271.545 268.107C271.731 267.921 271.977 267.822 272.228 267.822L360.018 267.893C360.411 267.893 360.761 268.128 360.915 268.489C361.068 268.856 360.98 269.266 360.707 269.545L325.365 304.887C325.184 305.067 324.933 305.171 324.681 305.171L324.67 305.177ZM238.762 303.208L324.397 303.536L358.399 269.534L272.513 269.463L238.767 303.208H238.762Z" fill="black"/>
<path d="M360.197 268.746V340.825L325.09 345.954C324.959 376.085 324.729 345.992 324.729 345.806V304.356C324.729 304.356 359.694 268.773 360.197 268.746Z" fill="#1838E0"/>
<path d="M324.943 366.834C324.811 366.834 324.675 366.807 324.549 366.758C324.161 366.599 323.909 366.222 323.909 365.801V304.356C323.909 304.143 323.991 303.935 324.144 303.782C324.232 303.694 332.987 294.781 341.692 285.982C359.525 267.959 359.7 267.948 360.159 267.926C360.383 267.915 360.602 267.997 360.766 268.15C360.93 268.303 361.023 268.522 361.023 268.746V330.831C361.023 331.049 360.936 331.257 360.782 331.41L325.675 366.534C325.479 366.73 325.216 366.834 324.948 366.834H324.943ZM325.55 304.69V364.335L359.377 330.486V270.6C354.565 275.253 337.438 292.588 325.55 304.69Z" fill="black"/>
<path d="M324.729 346.015L236.935 345.687L237.011 304.1L324.729 304.357C324.729 304.357 324.729 346.135 324.729 346.015Z" fill="white"/>
<path d="M324.73 346.835L236.935 346.507C236.481 346.507 236.115 346.135 236.12 345.687L236.197 304.1C236.197 303.881 236.284 303.673 236.437 303.52C236.59 303.367 236.798 303.279 237.017 303.279L324.735 303.536C325.189 303.536 325.555 303.903 325.555 304.357V346.015C325.555 346.233 325.468 346.441 325.315 346.594C325.162 346.747 324.954 346.835 324.735 346.835H324.73ZM237.755 344.866L323.909 345.189V305.171L237.826 304.92L237.755 344.866Z" fill="black"/>
<path d="M480.038 187.78L444.729 223.089L346.927 222.755C346.823 222.755 346.774 222.63 346.845 222.559L382.028 187.375L479.901 187.446C480.076 187.446 480.158 187.654 480.038 187.774V187.78Z" fill="#5479F7"/>
<path d="M444.728 223.915L346.926 223.581C346.544 223.581 346.21 223.352 346.062 223.002C345.92 222.652 345.997 222.253 346.265 221.985L381.448 186.801C381.601 186.648 381.809 186.561 382.028 186.561L479.901 186.632C480.311 186.632 480.677 186.878 480.836 187.255C480.995 187.632 480.907 188.07 480.617 188.36L445.308 223.669C445.155 223.822 444.947 223.91 444.728 223.91V223.915ZM348.622 221.941L444.389 222.269L478.392 188.267L382.367 188.196L348.622 221.941Z" fill="black"/>
<path d="M480.196 187.479V320.563L444.996 355.785C444.898 355.884 444.729 355.812 444.729 355.676V223.095C444.729 223.095 479.693 187.512 480.196 187.485V187.479Z" fill="#1838E0"/>
<path d="M444.887 356.654C444.761 356.654 444.636 356.632 444.51 356.578C444.143 356.425 443.908 356.069 443.908 355.675V223.095C443.908 222.881 443.99 222.674 444.143 222.52C444.231 222.433 452.986 213.52 461.691 204.721C479.524 186.697 479.693 186.686 480.158 186.664C480.382 186.659 480.601 186.735 480.765 186.889C480.929 187.042 481.022 187.26 481.022 187.485V320.568C481.022 320.787 480.935 320.995 480.781 321.148L445.582 356.37C445.396 356.556 445.144 356.654 444.893 356.654H444.887ZM445.549 223.428V354.073L479.376 320.224V189.333C474.564 193.986 457.437 211.327 445.549 223.423V223.428Z" fill="black"/>
<path d="M444.728 356.014L346.801 355.686C347.009 355.894 346.877 222.832 346.877 222.832L444.734 223.089C444.734 223.089 444.734 356.135 444.734 356.014H444.728Z" fill="white"/>
<path d="M444.728 356.835L346.801 356.507C346.401 356.507 346.062 356.222 345.997 355.829C345.98 355.736 345.98 355.643 345.997 355.555C346.15 352.898 346.106 267.717 346.062 222.838C346.062 222.619 346.15 222.411 346.303 222.258C346.456 222.105 346.664 222.018 346.883 222.018L444.739 222.275C445.193 222.275 445.559 222.641 445.559 223.095V356.02C445.559 356.239 445.472 356.447 445.319 356.6C445.166 356.753 444.958 356.84 444.739 356.84L444.728 356.835ZM347.643 354.866L443.902 355.189V223.904L347.692 223.647C347.692 228.951 347.725 259.082 347.73 289.218C347.73 305.82 347.73 322.422 347.714 334.885C347.708 341.113 347.692 346.308 347.675 349.95C347.67 351.771 347.659 353.204 347.648 354.183C347.648 354.44 347.648 354.664 347.637 354.861L347.643 354.866Z" fill="black"/>
<path d="M414.308 250.792C414.1 250.792 413.887 250.71 413.728 250.551C413.406 250.228 413.406 249.709 413.728 249.392L422.642 240.478C422.964 240.156 423.484 240.156 423.801 240.478C424.118 240.801 424.124 241.32 423.801 241.638L414.888 250.551C414.729 250.71 414.516 250.792 414.308 250.792Z" fill="#CADDFF"/>
<path d="M604.011 73.868L568.369 109.511L471.863 109.177C471.72 109.177 471.649 109.002 471.748 108.904L506.86 73.7969L604.017 73.868H604.011Z" fill="#5479F7"/>
<path d="M568.369 110.331L471.863 109.997C471.464 109.997 471.108 109.757 470.96 109.39C470.807 109.024 470.895 108.603 471.174 108.324L506.281 73.2172C506.434 73.0641 506.642 72.9766 506.86 72.9766L604.017 73.0477C604.351 73.0477 604.646 73.25 604.772 73.5562C604.897 73.8624 604.826 74.2124 604.591 74.4476L568.948 110.09C568.795 110.244 568.587 110.331 568.369 110.331ZM473.454 108.362L568.035 108.691L602.037 74.6882L507.199 74.6171L473.454 108.362Z" fill="black"/>
<path d="M604.012 73.9004V320.967L568.91 356.09C568.774 356.227 568.544 356.129 568.544 355.937V109.51C568.544 109.51 603.509 73.9277 604.012 73.9004Z" fill="#1838E0"/>
<path d="M568.763 356.971C568.631 356.971 568.495 356.944 568.363 356.889C567.975 356.73 567.724 356.353 567.724 355.932V109.511C567.724 109.297 567.806 109.09 567.959 108.936C568.046 108.849 576.801 99.9355 585.507 91.1369C603.339 73.1132 603.509 73.1022 603.974 73.0804C604.192 73.0749 604.416 73.1514 604.58 73.3046C604.745 73.4577 604.838 73.6764 604.838 73.9006V320.967C604.838 321.186 604.75 321.394 604.597 321.547L569.495 356.67C569.299 356.867 569.036 356.976 568.763 356.976V356.971ZM569.364 109.844V354.472L603.192 320.623V75.7544C598.379 80.408 581.252 97.7482 569.364 109.844Z" fill="black"/>
<path d="M569.031 356.156L472.115 355.828C472.323 356.036 472.192 109.254 472.192 109.254L569.031 109.511C569.031 109.511 569.031 356.277 569.031 356.156Z" fill="white"/>
<path d="M568.544 356.977L471.628 356.649C471.234 356.649 470.895 356.364 470.824 355.97C470.807 355.883 470.807 355.801 470.824 355.719C471.021 351.629 470.889 111.687 470.889 109.254C470.889 109.035 470.977 108.827 471.13 108.674C471.283 108.521 471.491 108.434 471.71 108.434L568.549 108.691C569.003 108.691 569.369 109.057 569.369 109.511V356.156C569.369 356.375 569.282 356.583 569.129 356.736C568.976 356.889 568.768 356.977 568.549 356.977H568.544ZM472.464 355.008L567.723 355.331V110.331L472.525 110.08C472.525 117.577 472.557 175.038 472.563 232.511C472.563 263.325 472.563 294.145 472.546 317.265C472.541 328.825 472.525 338.461 472.508 345.209C472.503 348.583 472.492 351.235 472.481 353.05C472.481 353.903 472.47 354.538 472.459 355.014L472.464 355.008Z" fill="black"/>
<path d="M525.155 167H515.275L517.795 148.92H517.355L510.435 153.52L511.715 144.2L520.475 138.2H529.195L525.155 167Z" fill="#302CF8"/>
<path d="M512.865 341.305C512.657 341.305 512.444 341.223 512.285 341.065C511.962 340.742 511.962 340.222 512.285 339.905L540.349 311.842C540.671 311.519 541.191 311.519 541.508 311.842C541.825 312.164 541.831 312.684 541.508 313.001L513.444 341.065C513.286 341.223 513.072 341.305 512.865 341.305Z" fill="#CADDFF"/>
<path d="M511.874 320.174C511.667 320.174 511.453 320.092 511.295 319.934C510.972 319.611 510.972 319.092 511.295 318.775L520.208 309.861C520.531 309.538 521.05 309.538 521.367 309.861C521.69 310.184 521.69 310.703 521.367 311.02L512.454 319.934C512.295 320.092 512.082 320.174 511.874 320.174Z" fill="#CADDFF"/>
<path d="M383.875 281L384.715 275L397.875 265.8C399.155 264.867 400.035 264.133 400.515 263.6C401.022 263.067 401.275 262.453 401.275 261.76C401.275 261.173 401.075 260.707 400.675 260.36C400.275 259.987 399.729 259.8 399.035 259.8C398.075 259.8 397.249 260.147 396.555 260.84C395.862 261.507 395.422 262.493 395.235 263.8H386.435C386.622 261.507 387.355 259.453 388.635 257.64C389.915 255.8 391.582 254.373 393.635 253.36C395.689 252.32 397.942 251.8 400.395 251.8C402.395 251.8 404.169 252.147 405.715 252.84C407.262 253.533 408.462 254.493 409.315 255.72C410.169 256.947 410.595 258.36 410.595 259.96C410.595 261.96 410.009 263.733 408.835 265.28C407.689 266.8 406.142 268.187 404.195 269.44L398.115 273.4L398.035 273.8H407.915L406.875 281H383.875Z" fill="#302CF8"/>
<path d="M276.125 338.3C274.545 338.3 273.135 337.99 271.895 337.37C270.655 336.73 269.695 335.85 269.015 334.73C268.335 333.59 267.995 332.3 267.995 330.86C267.995 330.66 268.015 330.34 268.055 329.9H274.895C274.875 330 274.865 330.16 274.865 330.38C274.865 331.02 275.045 331.55 275.405 331.97C275.785 332.39 276.275 332.6 276.875 332.6C277.575 332.6 278.155 332.34 278.615 331.82C279.095 331.3 279.335 330.66 279.335 329.9C279.335 329.36 279.165 328.93 278.825 328.61C278.505 328.27 278.085 328.1 277.565 328.1C277.265 328.1 276.965 328.13 276.665 328.19C276.365 328.25 276.125 328.33 275.945 328.43L275.075 324.65L278.345 322.1L278.375 321.8H270.725L271.475 316.4H287.525L286.925 320.6L282.275 324.35C283.535 324.71 284.535 325.42 285.275 326.48C286.035 327.52 286.415 328.72 286.415 330.08C286.415 330.28 286.395 330.6 286.355 331.04C286.155 332.44 285.585 333.69 284.645 334.79C283.705 335.89 282.485 336.75 280.985 337.37C279.505 337.99 277.885 338.3 276.125 338.3Z" fill="#302CF8"/>
</g>
<g clip-path="url(#clip2_4012_3740)">
<path d="M380.347 101.193L383.571 107.482C388.361 116.967 409.727 115.868 431.301 105.025C452.871 94.1787 466.477 77.6998 461.69 68.2107L458.466 61.9211L380.347 101.193Z" fill="#00FF00"/>
<mask id="mask1_4012_3740" style="mask-type:luminance" maskUnits="userSpaceOnUse" x="380" y="61" width="83" height="53">
<path d="M380.347 101.193L383.571 107.482C388.361 116.967 409.727 115.868 431.301 105.025C452.871 94.1787 466.477 77.6998 461.69 68.2107L458.466 61.9211L380.347 101.193Z" fill="white"/>
</mask>
<g mask="url(#mask1_4012_3740)">
<path d="M380.346 97.3585L397.015 130.372" stroke="black" stroke-width="1.3" stroke-linejoin="round"/>
<path d="M383.123 95.9619L399.789 128.979" stroke="black" stroke-width="1.3" stroke-linejoin="round"/>
<path d="M385.899 94.5693L402.56 127.584" stroke="black" stroke-width="1.3" stroke-linejoin="round"/>
<path d="M388.669 93.174L405.338 126.187" stroke="black" stroke-width="1.3" stroke-linejoin="round"/>
<path d="M391.443 91.7804L408.112 124.794" stroke="black" stroke-width="1.3" stroke-linejoin="round"/>
<path d="M394.221 90.3838L410.887 123.401" stroke="black" stroke-width="1.3" stroke-linejoin="round"/>
<path d="M396.991 88.9882L413.657 122.006" stroke="black" stroke-width="1.3" stroke-linejoin="round"/>
<path d="M399.767 87.5958L416.436 120.609" stroke="black" stroke-width="1.3" stroke-linejoin="round"/>
<path d="M402.541 86.2023L419.21 119.216" stroke="black" stroke-width="1.3" stroke-linejoin="round"/>
<path d="M405.315 84.8027L421.98 117.82" stroke="black" stroke-width="1.3" stroke-linejoin="round"/>
<path d="M408.089 83.4101L424.755 116.428" stroke="black" stroke-width="1.3" stroke-linejoin="round"/>
<path d="M410.864 82.0177L427.533 115.031" stroke="black" stroke-width="1.3" stroke-linejoin="round"/>
<path d="M413.634 80.6222L430.303 113.636" stroke="black" stroke-width="1.3" stroke-linejoin="round"/>
<path d="M416.412 79.2255L433.078 112.243" stroke="black" stroke-width="1.3" stroke-linejoin="round"/>
<path d="M419.187 77.832L435.853 110.85" stroke="black" stroke-width="1.3" stroke-linejoin="round"/>
<path d="M421.962 76.4396L438.627 109.45" stroke="black" stroke-width="1.3" stroke-linejoin="round"/>
<path d="M424.732 75.0441L441.401 108.058" stroke="black" stroke-width="1.3" stroke-linejoin="round"/>
<path d="M427.51 73.6474L444.176 106.665" stroke="black" stroke-width="1.3" stroke-linejoin="round"/>
<path d="M430.284 72.2548L446.946 105.269" stroke="black" stroke-width="1.3" stroke-linejoin="round"/>
<path d="M433.055 70.8585L449.724 103.872" stroke="black" stroke-width="1.3" stroke-linejoin="round"/>
<path d="M435.83 69.466L452.499 102.479" stroke="black" stroke-width="1.3" stroke-linejoin="round"/>
<path d="M438.608 68.0693L455.273 101.087" stroke="black" stroke-width="1.3" stroke-linejoin="round"/>
<path d="M441.378 66.6738L458.044 99.6914" stroke="black" stroke-width="1.3" stroke-linejoin="round"/>
<path d="M444.152 65.2814L460.821 98.2949" stroke="black" stroke-width="1.3" stroke-linejoin="round"/>
<path d="M446.93 63.8838L463.596 96.9013" stroke="black" stroke-width="1.3" stroke-linejoin="round"/>
<path d="M449.7 62.4882L466.366 95.5058" stroke="black" stroke-width="1.3" stroke-linejoin="round"/>
<path d="M452.476 61.0958L469.145 94.1093" stroke="black" stroke-width="1.3" stroke-linejoin="round"/>
<path d="M455.25 59.7033L471.919 92.7167" stroke="black" stroke-width="1.3" stroke-linejoin="round"/>
</g>
<path d="M380.347 101.193L383.571 107.482C388.361 116.967 409.727 115.868 431.301 105.025C452.871 94.1787 466.477 77.6998 461.69 68.2107L458.466 61.9211L380.347 101.193Z" stroke="black" stroke-width="1.3" stroke-linejoin="round"/>
<path d="M458.466 61.9212C463.256 71.4062 449.647 87.8892 428.077 98.7355C406.507 109.582 385.137 110.678 380.347 101.193C375.557 91.7078 389.166 75.2247 410.736 64.3785C432.306 53.5323 453.679 52.432 458.466 61.9212Z" fill="#00FF00" stroke="black" stroke-width="1.3" stroke-linejoin="round"/>
<path d="M454.542 63.7869C450.391 55.888 431.297 57.4411 411.893 67.2557C392.49 77.0704 380.124 91.43 384.275 99.3288C388.425 107.228 407.52 105.675 426.923 95.8599C446.327 86.0453 458.692 71.6857 454.542 63.7869Z" fill="#302CF8" stroke="#151597" stroke-width="1.78907" stroke-linejoin="round"/>
<mask id="path-62-outside-1_4012_3740" maskUnits="userSpaceOnUse" x="403.753" y="63.2425" width="33.6126" height="32.5236" fill="black">
<rect fill="white" x="403.753" y="63.2425" width="33.6126" height="32.5236"/>
<path d="M416.021 94.1082L408.645 73.7923L418.081 68.949C420.518 67.6979 422.698 67.2705 424.621 67.6668C426.553 68.0364 428.01 69.1411 428.991 70.9807C429.168 71.3136 429.338 71.6954 429.499 72.1259C430.058 73.6463 430.193 75.1616 429.903 76.6719C429.63 78.173 428.945 79.5848 427.847 80.9072C426.758 82.203 425.317 83.3108 423.525 84.2307L421.105 85.4726L422.929 90.5619L416.021 94.1082ZM420.814 79.5967C421.692 79.146 422.282 78.5194 422.585 77.7169C422.878 76.8969 422.81 76.0839 422.38 75.278C422.062 74.6823 421.595 74.3196 420.978 74.19C420.37 74.0337 419.707 74.1395 418.99 74.5074L417.404 75.3216L419.255 80.3971L420.814 79.5967Z"/>
</mask>
<path d="M416.021 94.1082L408.645 73.7923L418.081 68.949C420.518 67.6979 422.698 67.2705 424.621 67.6668C426.553 68.0364 428.01 69.1411 428.991 70.9807C429.168 71.3136 429.338 71.6954 429.499 72.1259C430.058 73.6463 430.193 75.1616 429.903 76.6719C429.63 78.173 428.945 79.5848 427.847 80.9072C426.758 82.203 425.317 83.3108 423.525 84.2307L421.105 85.4726L422.929 90.5619L416.021 94.1082ZM420.814 79.5967C421.692 79.146 422.282 78.5194 422.585 77.7169C422.878 76.8969 422.81 76.0839 422.38 75.278C422.062 74.6823 421.595 74.3196 420.978 74.19C420.37 74.0337 419.707 74.1395 418.99 74.5074L417.404 75.3216L419.255 80.3971L420.814 79.5967Z" fill="#00FF00"/>
<path d="M416.021 94.1082L415.202 94.3951L415.536 95.316L416.422 94.8613L416.021 94.1082ZM408.645 73.7923L408.244 73.0392L407.574 73.3831L407.827 74.0793L408.645 73.7923ZM424.621 67.6668L424.44 68.4993L424.452 68.5017L424.621 67.6668ZM429.499 72.1259L430.316 71.8354L430.315 71.8312L429.499 72.1259ZM429.903 76.6719L429.049 76.517L429.048 76.5255L429.903 76.6719ZM427.847 80.9072L428.517 81.4468L428.521 81.4427L427.847 80.9072ZM421.105 85.4726L420.704 84.7195L420.037 85.0619L420.286 85.7563L421.105 85.4726ZM422.929 90.5619L423.331 91.315L423.998 90.9726L423.749 90.2782L422.929 90.5619ZM422.585 77.7169L423.4 78.0094L423.402 78.0027L423.405 77.9959L422.585 77.7169ZM420.978 74.19L420.755 75.0128L420.774 75.0177L420.794 75.0217L420.978 74.19ZM417.404 75.3216L417.003 74.5685L416.332 74.9128L416.586 75.6096L417.404 75.3216ZM419.255 80.3971L418.437 80.6851L418.772 81.6043L419.656 81.1502L419.255 80.3971ZM416.839 93.8212L409.464 73.5054L407.827 74.0793L415.202 94.3951L416.839 93.8212ZM409.047 74.5454L418.482 69.7021L417.679 68.1959L408.244 73.0392L409.047 74.5454ZM418.482 69.7021C420.811 68.5068 422.78 68.1571 424.44 68.4992L424.803 66.8344C422.616 66.3838 420.225 66.889 417.679 68.1959L418.482 69.7021ZM424.452 68.5017C426.104 68.8176 427.35 69.7446 428.22 71.3761L429.761 70.5853C428.669 68.5376 427.003 67.2553 424.79 66.832L424.452 68.5017ZM428.22 71.3761C428.377 71.6703 428.532 72.0173 428.683 72.4206L430.315 71.8312C430.143 71.3734 429.959 70.957 429.761 70.5853L428.22 71.3761ZM428.681 72.4164C429.191 73.8021 429.309 75.1638 429.049 76.517L430.757 76.8269C431.077 75.1594 430.925 73.4905 430.316 71.8354L428.681 72.4164ZM429.048 76.5255C428.804 77.8679 428.19 79.1485 427.174 80.3718L428.521 81.4427C429.701 80.0212 430.457 78.4782 430.758 76.8183L429.048 76.5255ZM427.177 80.3677C426.174 81.561 424.83 82.6012 423.123 83.4776L423.926 84.9838C425.803 84.0204 427.341 82.8449 428.517 81.4468L427.177 80.3677ZM423.123 83.4776L420.704 84.7195L421.507 86.2257L423.926 84.9838L423.123 83.4776ZM420.286 85.7563L422.109 90.8456L423.749 90.2782L421.925 85.1889L420.286 85.7563ZM422.528 89.8088L415.619 93.3551L416.422 94.8613L423.331 91.315L422.528 89.8088ZM421.216 80.3498C422.257 79.8151 423.012 79.037 423.4 78.0094L421.77 77.4244C421.552 78.0017 421.127 78.4769 420.412 78.8437L421.216 80.3498ZM423.405 77.9959C423.782 76.9419 423.685 75.8853 423.15 74.8826L421.61 75.6734C421.935 76.2826 421.975 76.8519 421.765 77.4379L423.405 77.9959ZM423.15 74.8826C422.725 74.0858 422.056 73.546 421.163 73.3583L420.794 75.0217C421.134 75.0933 421.399 75.2788 421.61 75.6734L423.15 74.8826ZM421.201 73.3672C420.329 73.1431 419.441 73.3167 418.589 73.7543L419.392 75.2605C419.973 74.9623 420.411 74.9242 420.755 75.0128L421.201 73.3672ZM418.589 73.7543L417.003 74.5685L417.806 76.0747L419.392 75.2605L418.589 73.7543ZM416.586 75.6096L418.437 80.6851L420.073 80.109L418.223 75.0335L416.586 75.6096ZM419.656 81.1502L421.216 80.3498L420.412 78.8437L418.853 79.644L419.656 81.1502Z" fill="black" mask="url(#path-62-outside-1_4012_3740)"/>
</g>
<g clip-path="url(#clip3_4012_3740)">
<path d="M225.826 228.613L222.751 234.493C218.074 243.306 230.715 258.606 250.992 268.672C271.268 278.733 291.497 279.748 296.179 270.935L299.253 265.055L225.826 228.613Z" fill="#00FF00"/>
<mask id="mask2_4012_3740" style="mask-type:luminance" maskUnits="userSpaceOnUse" x="221" y="228" width="79" height="49">
<path d="M225.826 228.613L222.751 234.493C218.074 243.306 230.715 258.606 250.992 268.672C271.268 278.733 291.497 279.748 296.179 270.935L299.253 265.055L225.826 228.613Z" fill="white"/>
</mask>
<g mask="url(#mask2_4012_3740)">
<path d="M228.784 226.492L212.504 257.164" stroke="black" stroke-width="1.3" stroke-linejoin="round"/>
<path d="M231.395 227.788L215.11 258.46" stroke="black" stroke-width="1.3" stroke-linejoin="round"/>
<path d="M234.002 229.083L217.717 259.75" stroke="black" stroke-width="1.3" stroke-linejoin="round"/>
<path d="M236.608 230.374L220.328 261.045" stroke="black" stroke-width="1.3" stroke-linejoin="round"/>
<path d="M239.215 231.67L222.935 262.341" stroke="black" stroke-width="1.3" stroke-linejoin="round"/>
<path d="M241.825 232.965L225.54 263.636" stroke="black" stroke-width="1.3" stroke-linejoin="round"/>
<path d="M244.433 234.256L228.147 264.927" stroke="black" stroke-width="1.3" stroke-linejoin="round"/>
<path d="M247.038 235.552L230.758 266.223" stroke="black" stroke-width="1.3" stroke-linejoin="round"/>
<path d="M249.645 236.848L233.364 267.519" stroke="black" stroke-width="1.3" stroke-linejoin="round"/>
<path d="M252.256 238.139L235.971 268.81" stroke="black" stroke-width="1.3" stroke-linejoin="round"/>
<path d="M254.862 239.434L238.577 270.105" stroke="black" stroke-width="1.3" stroke-linejoin="round"/>
<path d="M257.469 240.729L241.188 271.401" stroke="black" stroke-width="1.3" stroke-linejoin="round"/>
<path d="M260.075 242.021L243.795 272.692" stroke="black" stroke-width="1.3" stroke-linejoin="round"/>
<path d="M262.686 243.315L246.401 273.987" stroke="black" stroke-width="1.3" stroke-linejoin="round"/>
<path d="M265.293 244.611L249.008 275.283" stroke="black" stroke-width="1.3" stroke-linejoin="round"/>
<path d="M267.899 245.907L251.619 276.574" stroke="black" stroke-width="1.3" stroke-linejoin="round"/>
<path d="M270.506 247.198L254.226 277.87" stroke="black" stroke-width="1.3" stroke-linejoin="round"/>
<path d="M273.117 248.493L256.832 279.165" stroke="black" stroke-width="1.3" stroke-linejoin="round"/>
<path d="M275.724 249.789L259.438 280.456" stroke="black" stroke-width="1.3" stroke-linejoin="round"/>
<path d="M278.329 251.08L262.049 281.752" stroke="black" stroke-width="1.3" stroke-linejoin="round"/>
<path d="M280.936 252.375L264.655 283.046" stroke="black" stroke-width="1.3" stroke-linejoin="round"/>
<path d="M283.547 253.671L267.262 284.342" stroke="black" stroke-width="1.3" stroke-linejoin="round"/>
<path d="M286.153 254.962L269.868 285.633" stroke="black" stroke-width="1.3" stroke-linejoin="round"/>
<path d="M288.76 256.257L272.479 286.928" stroke="black" stroke-width="1.3" stroke-linejoin="round"/>
<path d="M291.371 257.553L275.086 288.224" stroke="black" stroke-width="1.3" stroke-linejoin="round"/>
<path d="M293.977 258.844L277.692 289.515" stroke="black" stroke-width="1.3" stroke-linejoin="round"/>
<path d="M296.584 260.14L280.304 290.811" stroke="black" stroke-width="1.3" stroke-linejoin="round"/>
<path d="M299.19 261.435L282.91 292.106" stroke="black" stroke-width="1.3" stroke-linejoin="round"/>
</g>
<path d="M225.826 228.613L222.751 234.493C218.074 243.306 230.715 258.606 250.992 268.672C271.268 278.733 291.497 279.748 296.179 270.935L299.253 265.055L225.826 228.613Z" stroke="black" stroke-width="1.3" stroke-linejoin="round"/>
<path d="M299.254 265.056C294.577 273.868 274.343 272.853 254.067 262.792C233.79 252.731 221.149 237.426 225.826 228.613C230.503 219.801 250.736 220.816 271.013 230.877C291.29 240.938 303.936 256.243 299.254 265.056Z" fill="#00FF00" stroke="black" stroke-width="1.3" stroke-linejoin="round"/>
<path d="M295.648 263.165C299.453 255.706 287.716 242.348 269.431 233.33C251.146 224.311 233.238 223.047 229.433 230.506C225.627 237.966 237.365 251.324 255.65 260.342C273.934 269.361 291.842 270.625 295.648 263.165Z" fill="#302CF8" stroke="#151597" stroke-width="1.78907" stroke-linejoin="round"/>
<mask id="path-97-outside-2_4012_3740" maskUnits="userSpaceOnUse" x="248.548" y="230.834" width="33.2634" height="32.3691" fill="black">
<rect fill="white" x="248.548" y="230.834" width="33.2634" height="32.3691"/>
<path d="M250.526 252.128L262.951 234.152L272.422 238.753C274.869 239.942 276.488 241.418 277.281 243.181C278.1 244.936 278.038 246.751 277.095 248.627C276.925 248.967 276.709 249.329 276.449 249.714C275.523 251.065 274.355 252.076 272.944 252.747C271.55 253.426 269.99 253.724 268.264 253.641C266.564 253.549 264.815 253.066 263.016 252.193L260.588 251.013L257.461 255.497L250.526 252.128ZM265.252 247.276C266.134 247.704 266.992 247.799 267.829 247.56C268.674 247.304 269.303 246.765 269.716 245.943C270.021 245.335 270.048 244.748 269.796 244.18C269.57 243.604 269.098 243.141 268.379 242.792L266.786 242.018L263.687 246.515L265.252 247.276Z"/>
</mask>
<path d="M250.526 252.128L262.951 234.152L272.422 238.753C274.869 239.942 276.488 241.418 277.281 243.181C278.1 244.936 278.038 246.751 277.095 248.627C276.925 248.967 276.709 249.329 276.449 249.714C275.523 251.065 274.355 252.076 272.944 252.747C271.55 253.426 269.99 253.724 268.264 253.641C266.564 253.549 264.815 253.066 263.016 252.193L260.588 251.013L257.461 255.497L250.526 252.128ZM265.252 247.276C266.134 247.704 266.992 247.799 267.829 247.56C268.674 247.304 269.303 246.765 269.716 245.943C270.021 245.335 270.048 244.748 269.796 244.18C269.57 243.604 269.098 243.141 268.379 242.792L266.786 242.018L263.687 246.515L265.252 247.276Z" fill="#00FF00"/>
<path d="M250.526 252.128L249.814 251.649L249.251 252.464L250.14 252.896L250.526 252.128ZM262.951 234.152L263.337 233.384L262.665 233.057L262.239 233.673L262.951 234.152ZM277.281 243.181L276.49 243.534L276.496 243.545L277.281 243.181ZM276.449 249.714L277.163 250.189L277.165 250.186L276.449 249.714ZM272.944 252.747L272.575 251.976L272.567 251.98L272.944 252.747ZM268.264 253.641L268.21 254.495L268.215 254.496L268.264 253.641ZM260.588 251.013L260.974 250.245L260.304 249.919L259.878 250.531L260.588 251.013ZM257.461 255.497L257.075 256.265L257.745 256.59L258.172 255.978L257.461 255.497ZM267.829 247.56L268.062 248.382L268.069 248.38L268.076 248.378L267.829 247.56ZM269.796 244.18L268.989 244.494L268.996 244.512L269.004 244.53L269.796 244.18ZM266.786 242.018L267.172 241.25L266.499 240.923L266.074 241.54L266.786 242.018ZM263.687 246.515L262.974 246.038L262.413 246.852L263.301 247.284L263.687 246.515ZM251.239 252.606L263.663 234.63L262.239 233.673L249.814 251.649L251.239 252.606ZM262.565 234.92L272.036 239.521L272.808 237.985L263.337 233.384L262.565 234.92ZM272.036 239.521C274.374 240.657 275.807 242.012 276.491 243.534L278.071 242.829C277.17 240.824 275.364 239.227 272.808 237.985L272.036 239.521ZM276.496 243.545C277.196 245.045 277.158 246.587 276.322 248.252L277.869 249.003C278.918 246.914 279.004 244.826 278.066 242.817L276.496 243.545ZM276.322 248.252C276.171 248.552 275.976 248.882 275.732 249.242L277.165 250.186C277.442 249.776 277.678 249.382 277.869 249.003L276.322 248.252ZM275.734 249.238C274.891 250.47 273.839 251.376 272.575 251.976L273.313 253.517C274.871 252.777 276.156 251.66 277.163 250.189L275.734 249.238ZM272.567 251.98C271.321 252.588 269.91 252.864 268.313 252.787L268.215 254.496C270.071 254.585 271.78 254.264 273.321 253.513L272.567 251.98ZM268.318 252.788C266.753 252.703 265.116 252.257 263.402 251.424L262.63 252.961C264.514 253.876 266.376 254.396 268.21 254.495L268.318 252.788ZM263.402 251.424L260.974 250.245L260.202 251.781L262.63 252.961L263.402 251.424ZM259.878 250.531L256.751 255.015L258.172 255.978L261.298 251.494L259.878 250.531ZM257.847 254.729L250.913 251.359L250.14 252.896L257.075 256.265L257.847 254.729ZM264.866 248.044C265.912 248.552 266.991 248.687 268.062 248.382L267.595 246.739C266.994 246.91 266.355 246.856 265.638 246.508L264.866 248.044ZM268.076 248.378C269.162 248.048 269.975 247.341 270.489 246.318L268.943 245.567C268.63 246.188 268.185 246.56 267.581 246.743L268.076 248.378ZM270.489 246.318C270.897 245.506 270.952 244.652 270.587 243.831L269.004 244.53C269.143 244.843 269.145 245.164 268.943 245.567L270.489 246.318ZM270.602 243.866C270.279 243.04 269.62 242.439 268.765 242.023L267.992 243.56C268.576 243.843 268.862 244.168 268.989 244.494L270.602 243.866ZM268.765 242.023L267.172 241.25L266.4 242.786L267.992 243.56L268.765 242.023ZM266.074 241.54L262.974 246.038L264.4 246.993L267.499 242.496L266.074 241.54ZM263.301 247.284L264.866 248.044L265.638 246.508L264.073 245.747L263.301 247.284Z" fill="black" mask="url(#path-97-outside-2_4012_3740)"/>
</g>
<path d="M322.546 122L328.139 168.144L375.17 173.631L328.139 179.117L322.546 225.261L316.954 179.117L269.923 173.631L316.954 168.144L322.546 122Z" fill="white" stroke="#222221" stroke-width="1.5" stroke-miterlimit="10"/>
<path d="M556.757 -3.31132L533.225 26.0082L556.757 55.3278L526.874 32.2397L496.991 55.3278L520.523 26.0082L496.991 -3.31132L526.874 19.7767L556.757 -3.31132Z" fill="white" stroke="#222221" stroke-width="1.5" stroke-miterlimit="10"/>
<rect x="30.5" y="31.4766" width="149" height="39" rx="11.5" fill="#1838E0"/>
<rect x="30.5" y="31.4766" width="149" height="39" rx="11.5" stroke="#0C0D0F"/>
<path d="M52.976 56.9766L50.416 52.5286H49.024V56.9766H47.2V45.8566H51.04C51.8933 45.8566 52.6133 46.0059 53.2 46.3046C53.7973 46.6032 54.24 47.0032 54.528 47.5046C54.8267 48.0059 54.976 48.5659 54.976 49.1846C54.976 49.9099 54.7627 50.5712 54.336 51.1686C53.92 51.7552 53.2747 52.1552 52.4 52.3686L55.152 56.9766H52.976ZM49.024 51.0726H51.04C51.7227 51.0726 52.2347 50.9019 52.576 50.5606C52.928 50.2192 53.104 49.7606 53.104 49.1846C53.104 48.6086 52.9333 48.1606 52.592 47.8406C52.2507 47.5099 51.7333 47.3446 51.04 47.3446H49.024V51.0726ZM56.7014 52.5286C56.7014 51.6432 56.8827 50.8592 57.2454 50.1766C57.6187 49.4939 58.12 48.9659 58.7494 48.5926C59.3894 48.2086 60.0934 48.0166 60.8614 48.0166C61.5547 48.0166 62.1574 48.1552 62.6694 48.4326C63.192 48.6992 63.608 49.0352 63.9174 49.4406V48.1606H65.7574V56.9766H63.9174V55.6646C63.608 56.0806 63.1867 56.4272 62.6534 56.7046C62.12 56.9819 61.512 57.1206 60.8294 57.1206C60.072 57.1206 59.3787 56.9286 58.7494 56.5446C58.12 56.1499 57.6187 55.6059 57.2454 54.9126C56.8827 54.2086 56.7014 53.4139 56.7014 52.5286ZM63.9174 52.5606C63.9174 51.9526 63.7894 51.4246 63.5334 50.9766C63.288 50.5286 62.9627 50.1872 62.5574 49.9526C62.152 49.7179 61.7147 49.6006 61.2454 49.6006C60.776 49.6006 60.3387 49.7179 59.9334 49.9526C59.528 50.1766 59.1974 50.5126 58.9414 50.9606C58.696 51.3979 58.5734 51.9206 58.5734 52.5286C58.5734 53.1366 58.696 53.6699 58.9414 54.1286C59.1974 54.5872 59.528 54.9392 59.9334 55.1846C60.3494 55.4192 60.7867 55.5366 61.2454 55.5366C61.7147 55.5366 62.152 55.4192 62.5574 55.1846C62.9627 54.9499 63.288 54.6086 63.5334 54.1606C63.7894 53.7019 63.9174 53.1686 63.9174 52.5606ZM72.6011 48.0166C73.2945 48.0166 73.9131 48.1606 74.4571 48.4486C75.0118 48.7366 75.4438 49.1632 75.7531 49.7286C76.0625 50.2939 76.2171 50.9766 76.2171 51.7766V56.9766H74.4091V52.0486C74.4091 51.2592 74.2118 50.6566 73.8171 50.2406C73.4225 49.8139 72.8838 49.6006 72.2011 49.6006C71.5185 49.6006 70.9745 49.8139 70.5691 50.2406C70.1745 50.6566 69.9771 51.2592 69.9771 52.0486V56.9766H68.1531V48.1606H69.9771V49.1686C70.2758 48.8059 70.6545 48.5232 71.1131 48.3206C71.5825 48.1179 72.0785 48.0166 72.6011 48.0166ZM82.0318 52.5766L86.0958 56.9766H83.6318L80.3678 53.1846V56.9766H78.5438V45.1366H80.3678V52.0166L83.5678 48.1606H86.0958L82.0318 52.5766ZM88.3311 46.9926C88.0005 46.9926 87.7231 46.8806 87.4991 46.6566C87.2751 46.4326 87.1631 46.1552 87.1631 45.8246C87.1631 45.4939 87.2751 45.2166 87.4991 44.9926C87.7231 44.7686 88.0005 44.6566 88.3311 44.6566C88.6511 44.6566 88.9231 44.7686 89.1471 44.9926C89.3711 45.2166 89.4831 45.4939 89.4831 45.8246C89.4831 46.1552 89.3711 46.4326 89.1471 46.6566C88.9231 46.8806 88.6511 46.9926 88.3311 46.9926ZM89.2271 48.1606V56.9766H87.4031V48.1606H89.2271ZM96.0699 48.0166C96.7632 48.0166 97.3819 48.1606 97.9259 48.4486C98.4805 48.7366 98.9125 49.1632 99.2219 49.7286C99.5312 50.2939 99.6859 50.9766 99.6859 51.7766V56.9766H97.8779V52.0486C97.8779 51.2592 97.6805 50.6566 97.2859 50.2406C96.8912 49.8139 96.3525 49.6006 95.6699 49.6006C94.9872 49.6006 94.4432 49.8139 94.0379 50.2406C93.6432 50.6566 93.4459 51.2592 93.4459 52.0486V56.9766H91.6219V48.1606H93.4459V49.1686C93.7445 48.8059 94.1232 48.5232 94.5819 48.3206C95.0512 48.1179 95.5472 48.0166 96.0699 48.0166ZM105.565 48.0166C106.247 48.0166 106.85 48.1552 107.373 48.4326C107.906 48.6992 108.322 49.0352 108.621 49.4406V48.1606H110.461V57.1206C110.461 57.9312 110.29 58.6512 109.949 59.2806C109.607 59.9206 109.111 60.4219 108.461 60.7846C107.821 61.1472 107.053 61.3286 106.157 61.3286C104.962 61.3286 103.97 61.0459 103.181 60.4806C102.391 59.9259 101.943 59.1686 101.837 58.2086H103.645C103.783 58.6672 104.077 59.0352 104.525 59.3126C104.983 59.6006 105.527 59.7446 106.157 59.7446C106.893 59.7446 107.485 59.5206 107.933 59.0726C108.391 58.6246 108.621 57.9739 108.621 57.1206V55.6486C108.311 56.0646 107.89 56.4166 107.357 56.7046C106.834 56.9819 106.237 57.1206 105.565 57.1206C104.797 57.1206 104.093 56.9286 103.453 56.5446C102.823 56.1499 102.322 55.6059 101.949 54.9126C101.586 54.2086 101.405 53.4139 101.405 52.5286C101.405 51.6432 101.586 50.8592 101.949 50.1766C102.322 49.4939 102.823 48.9659 103.453 48.5926C104.093 48.2086 104.797 48.0166 105.565 48.0166ZM108.621 52.5606C108.621 51.9526 108.493 51.4246 108.237 50.9766C107.991 50.5286 107.666 50.1872 107.261 49.9526C106.855 49.7179 106.418 49.6006 105.949 49.6006C105.479 49.6006 105.042 49.7179 104.637 49.9526C104.231 50.1766 103.901 50.5126 103.645 50.9606C103.399 51.3979 103.277 51.9206 103.277 52.5286C103.277 53.1366 103.399 53.6699 103.645 54.1286C103.901 54.5872 104.231 54.9392 104.637 55.1846C105.053 55.4192 105.49 55.5366 105.949 55.5366C106.418 55.5366 106.855 55.4192 107.261 55.1846C107.666 54.9499 107.991 54.6086 108.237 54.1606C108.493 53.7019 108.621 53.1686 108.621 52.5606ZM125.621 58.9926L123.669 56.8806C123.189 57.0192 122.661 57.0886 122.085 57.0886C121.05 57.0886 120.095 56.8486 119.221 56.3686C118.357 55.8779 117.669 55.2006 117.157 54.3366C116.655 53.4619 116.405 52.4806 116.405 51.3926C116.405 50.3046 116.655 49.3286 117.157 48.4646C117.669 47.6006 118.357 46.9286 119.221 46.4486C120.095 45.9579 121.05 45.7126 122.085 45.7126C123.13 45.7126 124.085 45.9579 124.949 46.4486C125.823 46.9286 126.511 47.6006 127.013 48.4646C127.514 49.3286 127.765 50.3046 127.765 51.3926C127.765 52.4166 127.541 53.3446 127.093 54.1766C126.655 54.9979 126.047 55.6592 125.269 56.1606L127.941 58.9926H125.621ZM118.277 51.3926C118.277 52.2139 118.437 52.9392 118.757 53.5686C119.087 54.1872 119.541 54.6672 120.117 55.0086C120.693 55.3392 121.349 55.5046 122.085 55.5046C122.821 55.5046 123.477 55.3392 124.053 55.0086C124.629 54.6672 125.077 54.1872 125.397 53.5686C125.727 52.9392 125.893 52.2139 125.893 51.3926C125.893 50.5712 125.727 49.8512 125.397 49.2326C125.077 48.6139 124.629 48.1392 124.053 47.8086C123.477 47.4779 122.821 47.3126 122.085 47.3126C121.349 47.3126 120.693 47.4779 120.117 47.8086C119.541 48.1392 119.087 48.6139 118.757 49.2326C118.437 49.8512 118.277 50.5712 118.277 51.3926ZM137.59 48.1606V56.9766H135.766V55.9366C135.478 56.2992 135.1 56.5872 134.63 56.8006C134.172 57.0032 133.681 57.1046 133.158 57.1046C132.465 57.1046 131.841 56.9606 131.286 56.6726C130.742 56.3846 130.31 55.9579 129.99 55.3926C129.681 54.8272 129.526 54.1446 129.526 53.3446V48.1606H131.334V53.0726C131.334 53.8619 131.532 54.4699 131.926 54.8966C132.321 55.3126 132.86 55.5206 133.542 55.5206C134.225 55.5206 134.764 55.3126 135.158 54.8966C135.564 54.4699 135.766 53.8619 135.766 53.0726V48.1606H137.59ZM148.077 52.3526C148.077 52.6832 148.056 52.9819 148.013 53.2486H141.277C141.33 53.9526 141.592 54.5179 142.061 54.9446C142.53 55.3712 143.106 55.5846 143.789 55.5846C144.77 55.5846 145.464 55.1739 145.869 54.3526H147.837C147.57 55.1632 147.085 55.8299 146.381 56.3526C145.688 56.8646 144.824 57.1206 143.789 57.1206C142.946 57.1206 142.189 56.9339 141.517 56.5606C140.856 56.1766 140.333 55.6432 139.949 54.9606C139.576 54.2672 139.389 53.4672 139.389 52.5606C139.389 51.6539 139.57 50.8592 139.933 50.1766C140.306 49.4832 140.824 48.9499 141.485 48.5766C142.157 48.2032 142.925 48.0166 143.789 48.0166C144.621 48.0166 145.362 48.1979 146.013 48.5606C146.664 48.9232 147.17 49.4352 147.533 50.0966C147.896 50.7472 148.077 51.4992 148.077 52.3526ZM146.173 51.7766C146.162 51.1046 145.922 50.5659 145.453 50.1606C144.984 49.7552 144.402 49.5526 143.709 49.5526C143.08 49.5526 142.541 49.7552 142.093 50.1606C141.645 50.5552 141.378 51.0939 141.293 51.7766H146.173ZM153.072 57.1206C152.379 57.1206 151.755 56.9979 151.2 56.7526C150.656 56.4966 150.224 56.1552 149.904 55.7286C149.584 55.2912 149.413 54.8059 149.392 54.2726H151.28C151.312 54.6459 151.488 54.9606 151.808 55.2166C152.139 55.4619 152.549 55.5846 153.04 55.5846C153.552 55.5846 153.947 55.4886 154.224 55.2966C154.512 55.0939 154.656 54.8379 154.656 54.5286C154.656 54.1979 154.496 53.9526 154.176 53.7926C153.867 53.6326 153.371 53.4566 152.688 53.2646C152.027 53.0832 151.488 52.9072 151.072 52.7366C150.656 52.5659 150.293 52.3046 149.984 51.9526C149.685 51.6006 149.536 51.1366 149.536 50.5606C149.536 50.0912 149.675 49.6646 149.952 49.2806C150.229 48.8859 150.624 48.5766 151.136 48.3526C151.659 48.1286 152.256 48.0166 152.928 48.0166C153.931 48.0166 154.736 48.2726 155.344 48.7846C155.963 49.2859 156.293 49.9739 156.336 50.8486H154.512C154.48 50.4539 154.32 50.1392 154.032 49.9046C153.744 49.6699 153.355 49.5526 152.864 49.5526C152.384 49.5526 152.016 49.6432 151.76 49.8246C151.504 50.0059 151.376 50.2459 151.376 50.5446C151.376 50.7792 151.461 50.9766 151.632 51.1366C151.803 51.2966 152.011 51.4246 152.256 51.5206C152.501 51.6059 152.864 51.7179 153.344 51.8566C153.984 52.0272 154.507 52.2032 154.912 52.3846C155.328 52.5552 155.685 52.8112 155.984 53.1526C156.283 53.4939 156.437 53.9472 156.448 54.5126C156.448 55.0139 156.309 55.4619 156.032 55.8566C155.755 56.2512 155.36 56.5606 154.848 56.7846C154.347 57.0086 153.755 57.1206 153.072 57.1206ZM160.547 49.6486V54.5286C160.547 54.8592 160.621 55.0992 160.771 55.2486C160.931 55.3872 161.197 55.4566 161.571 55.4566H162.691V56.9766H161.251C160.429 56.9766 159.8 56.7846 159.363 56.4006C158.925 56.0166 158.707 55.3926 158.707 54.5286V49.6486H157.667V48.1606H158.707V45.9686H160.547V48.1606H162.691V49.6486H160.547Z" fill="white"/>
<path d="M37.336 92.2466V93.5486H34.746V101.977H33.15V93.5486H30.546V92.2466H37.336ZM42.9423 94.1366C43.5303 94.1366 44.053 94.2626 44.5103 94.5146C44.977 94.7666 45.341 95.1399 45.6023 95.6346C45.873 96.1292 46.0083 96.7266 46.0083 97.4266V101.977H44.4263V97.6646C44.4263 96.9739 44.2537 96.4466 43.9083 96.0826C43.563 95.7092 43.0917 95.5226 42.4943 95.5226C41.897 95.5226 41.421 95.7092 41.0663 96.0826C40.721 96.4466 40.5483 96.9739 40.5483 97.6646V101.977H38.9523V91.6166H40.5483V95.1586C40.819 94.8319 41.1597 94.5799 41.5703 94.4026C41.9903 94.2252 42.4477 94.1366 42.9423 94.1366ZM55.1141 97.9306C55.1141 98.2199 55.0955 98.4812 55.0581 98.7146H49.1641C49.2108 99.3306 49.4395 99.8252 49.8501 100.199C50.2608 100.572 50.7648 100.759 51.3621 100.759C52.2208 100.759 52.8275 100.399 53.1821 99.6806H54.9041C54.6708 100.39 54.2461 100.973 53.6301 101.431C53.0235 101.879 52.2675 102.103 51.3621 102.103C50.6248 102.103 49.9621 101.939 49.3741 101.613C48.7955 101.277 48.3381 100.81 48.0021 100.213C47.6755 99.6059 47.5121 98.9059 47.5121 98.1126C47.5121 97.3192 47.6708 96.6239 47.9881 96.0266C48.3148 95.4199 48.7675 94.9532 49.3461 94.6266C49.9341 94.2999 50.6061 94.1366 51.3621 94.1366C52.0901 94.1366 52.7388 94.2952 53.3081 94.6126C53.8775 94.9299 54.3208 95.3779 54.6381 95.9566C54.9555 96.5259 55.1141 97.1839 55.1141 97.9306ZM53.4481 97.4266C53.4388 96.8386 53.2288 96.3672 52.8181 96.0126C52.4075 95.6579 51.8988 95.4806 51.2921 95.4806C50.7415 95.4806 50.2701 95.6579 49.8781 96.0126C49.4861 96.3579 49.2528 96.8292 49.1781 97.4266H53.4481ZM69.6595 94.1366C70.2662 94.1366 70.8075 94.2626 71.2835 94.5146C71.7688 94.7666 72.1468 95.1399 72.4175 95.6346C72.6975 96.1292 72.8375 96.7266 72.8375 97.4266V101.977H71.2555V97.6646C71.2555 96.9739 71.0828 96.4466 70.7375 96.0826C70.3922 95.7092 69.9208 95.5226 69.3235 95.5226C68.7262 95.5226 68.2502 95.7092 67.8955 96.0826C67.5502 96.4466 67.3775 96.9739 67.3775 97.6646V101.977H65.7955V97.6646C65.7955 96.9739 65.6228 96.4466 65.2775 96.0826C64.9322 95.7092 64.4608 95.5226 63.8635 95.5226C63.2662 95.5226 62.7902 95.7092 62.4355 96.0826C62.0902 96.4466 61.9175 96.9739 61.9175 97.6646V101.977H60.3215V94.2626H61.9175V95.1446C62.1788 94.8272 62.5102 94.5799 62.9115 94.4026C63.3128 94.2252 63.7422 94.1366 64.1995 94.1366C64.8155 94.1366 65.3662 94.2672 65.8515 94.5286C66.3368 94.7899 66.7102 95.1679 66.9715 95.6626C67.2048 95.1959 67.5688 94.8272 68.0635 94.5566C68.5582 94.2766 69.0902 94.1366 69.6595 94.1366ZM78.2144 102.103C77.4864 102.103 76.8284 101.939 76.2404 101.613C75.6524 101.277 75.1904 100.81 74.8544 100.213C74.5184 99.6059 74.3504 98.9059 74.3504 98.1126C74.3504 97.3286 74.523 96.6332 74.8684 96.0266C75.2137 95.4199 75.685 94.9532 76.2824 94.6266C76.8797 94.2999 77.547 94.1366 78.2844 94.1366C79.0217 94.1366 79.689 94.2999 80.2864 94.6266C80.8837 94.9532 81.355 95.4199 81.7004 96.0266C82.0457 96.6332 82.2184 97.3286 82.2184 98.1126C82.2184 98.8966 82.041 99.5919 81.6864 100.199C81.3317 100.805 80.8464 101.277 80.2304 101.613C79.6237 101.939 78.9517 102.103 78.2144 102.103ZM78.2144 100.717C78.625 100.717 79.0077 100.619 79.3624 100.423C79.7264 100.227 80.0204 99.9326 80.2444 99.5406C80.4684 99.1486 80.5804 98.6726 80.5804 98.1126C80.5804 97.5526 80.473 97.0812 80.2584 96.6986C80.0437 96.3066 79.759 96.0126 79.4044 95.8166C79.0497 95.6206 78.667 95.5226 78.2564 95.5226C77.8457 95.5226 77.463 95.6206 77.1084 95.8166C76.763 96.0126 76.4877 96.3066 76.2824 96.6986C76.077 97.0812 75.9744 97.5526 75.9744 98.1126C75.9744 98.9432 76.1844 99.5872 76.6044 100.045C77.0337 100.493 77.5704 100.717 78.2144 100.717ZM85.3921 95.3826C85.6254 94.9906 85.9334 94.6872 86.3161 94.4726C86.7081 94.2486 87.1701 94.1366 87.7021 94.1366V95.7886H87.2961C86.6708 95.7886 86.1948 95.9472 85.8681 96.2646C85.5508 96.5819 85.3921 97.1326 85.3921 97.9166V101.977H83.7961V94.2626H85.3921V95.3826ZM96.2391 97.9306C96.2391 98.2199 96.2205 98.4812 96.1831 98.7146H90.2891C90.3358 99.3306 90.5645 99.8252 90.9751 100.199C91.3858 100.572 91.8898 100.759 92.4871 100.759C93.3458 100.759 93.9525 100.399 94.3071 99.6806H96.0291C95.7958 100.39 95.3711 100.973 94.7551 101.431C94.1485 101.879 93.3925 102.103 92.4871 102.103C91.7498 102.103 91.0871 101.939 90.4991 101.613C89.9205 101.277 89.4631 100.81 89.1271 100.213C88.8005 99.6059 88.6371 98.9059 88.6371 98.1126C88.6371 97.3192 88.7958 96.6239 89.1131 96.0266C89.4398 95.4199 89.8925 94.9532 90.4711 94.6266C91.0591 94.2999 91.7311 94.1366 92.4871 94.1366C93.2151 94.1366 93.8638 94.2952 94.4331 94.6126C95.0025 94.9299 95.4458 95.3779 95.7631 95.9566C96.0805 96.5259 96.2391 97.1839 96.2391 97.9306ZM94.5731 97.4266C94.5638 96.8386 94.3538 96.3672 93.9431 96.0126C93.5325 95.6579 93.0238 95.4806 92.4171 95.4806C91.8665 95.4806 91.3951 95.6579 91.0031 96.0126C90.6111 96.3579 90.3778 96.8292 90.3031 97.4266H94.5731ZM100.914 98.0846C100.914 97.3099 101.073 96.6239 101.39 96.0266C101.717 95.4292 102.156 94.9672 102.706 94.6406C103.266 94.3046 103.887 94.1366 104.568 94.1366C105.166 94.1366 105.693 94.2579 106.15 94.5006C106.617 94.7432 106.976 95.0372 107.228 95.3826V94.2626H108.838V105.645H107.228V100.857C106.976 101.202 106.612 101.496 106.136 101.739C105.66 101.981 105.119 102.103 104.512 102.103C103.85 102.103 103.243 101.935 102.692 101.599C102.151 101.253 101.717 100.777 101.39 100.171C101.073 99.5546 100.914 98.8592 100.914 98.0846ZM107.228 98.1126C107.228 97.5806 107.116 97.1186 106.892 96.7266C106.678 96.3346 106.393 96.0359 106.038 95.8306C105.684 95.6252 105.301 95.5226 104.89 95.5226C104.48 95.5226 104.097 95.6252 103.742 95.8306C103.388 96.0266 103.098 96.3206 102.874 96.7126C102.66 97.0952 102.552 97.5526 102.552 98.0846C102.552 98.6166 102.66 99.0832 102.874 99.4846C103.098 99.8859 103.388 100.194 103.742 100.409C104.106 100.614 104.489 100.717 104.89 100.717C105.301 100.717 105.684 100.614 106.038 100.409C106.393 100.203 106.678 99.9046 106.892 99.5126C107.116 99.1112 107.228 98.6446 107.228 98.1126ZM117.921 94.2626V101.977H116.325V101.067C116.073 101.384 115.741 101.636 115.331 101.823C114.929 102 114.5 102.089 114.043 102.089C113.436 102.089 112.89 101.963 112.405 101.711C111.929 101.459 111.551 101.085 111.271 100.591C111 100.096 110.865 99.4986 110.865 98.7986V94.2626H112.447V98.5606C112.447 99.2512 112.619 99.7832 112.965 100.157C113.31 100.521 113.781 100.703 114.379 100.703C114.976 100.703 115.447 100.521 115.793 100.157C116.147 99.7832 116.325 99.2512 116.325 98.5606V94.2626H117.921ZM127.097 97.9306C127.097 98.2199 127.078 98.4812 127.041 98.7146H121.147C121.193 99.3306 121.422 99.8252 121.833 100.199C122.243 100.572 122.747 100.759 123.345 100.759C124.203 100.759 124.81 100.399 125.165 99.6806H126.887C126.653 100.39 126.229 100.973 125.613 101.431C125.006 101.879 124.25 102.103 123.345 102.103C122.607 102.103 121.945 101.939 121.357 101.613C120.778 101.277 120.321 100.81 119.985 100.213C119.658 99.6059 119.495 98.9059 119.495 98.1126C119.495 97.3192 119.653 96.6239 119.971 96.0266C120.297 95.4199 120.75 94.9532 121.329 94.6266C121.917 94.2999 122.589 94.1366 123.345 94.1366C124.073 94.1366 124.721 94.2952 125.291 94.6126C125.86 94.9299 126.303 95.3779 126.621 95.9566C126.938 96.5259 127.097 97.1839 127.097 97.9306ZM125.431 97.4266C125.421 96.8386 125.211 96.3672 124.801 96.0126C124.39 95.6579 123.881 95.4806 123.275 95.4806C122.724 95.4806 122.253 95.6579 121.861 96.0126C121.469 96.3579 121.235 96.8292 121.161 97.4266H125.431ZM131.467 102.103C130.861 102.103 130.315 101.995 129.829 101.781C129.353 101.557 128.975 101.258 128.695 100.885C128.415 100.502 128.266 100.077 128.247 99.6106H129.899C129.927 99.9372 130.081 100.213 130.361 100.437C130.651 100.651 131.01 100.759 131.439 100.759C131.887 100.759 132.233 100.675 132.475 100.507C132.727 100.329 132.853 100.105 132.853 99.8346C132.853 99.5452 132.713 99.3306 132.433 99.1906C132.163 99.0506 131.729 98.8966 131.131 98.7286C130.553 98.5699 130.081 98.4159 129.717 98.2666C129.353 98.1172 129.036 97.8886 128.765 97.5806C128.504 97.2726 128.373 96.8666 128.373 96.3626C128.373 95.9519 128.495 95.5786 128.737 95.2426C128.98 94.8972 129.325 94.6266 129.773 94.4306C130.231 94.2346 130.753 94.1366 131.341 94.1366C132.219 94.1366 132.923 94.3606 133.455 94.8086C133.997 95.2472 134.286 95.8492 134.323 96.6146H132.727C132.699 96.2692 132.559 95.9939 132.307 95.7886C132.055 95.5832 131.715 95.4806 131.285 95.4806C130.865 95.4806 130.543 95.5599 130.319 95.7186C130.095 95.8772 129.983 96.0872 129.983 96.3486C129.983 96.5539 130.058 96.7266 130.207 96.8666C130.357 97.0066 130.539 97.1186 130.753 97.2026C130.968 97.2772 131.285 97.3752 131.705 97.4966C132.265 97.6459 132.723 97.7999 133.077 97.9586C133.441 98.1079 133.754 98.3319 134.015 98.6306C134.277 98.9292 134.412 99.3259 134.421 99.8206C134.421 100.259 134.3 100.651 134.057 100.997C133.815 101.342 133.469 101.613 133.021 101.809C132.583 102.005 132.065 102.103 131.467 102.103ZM138.008 95.5646V99.8346C138.008 100.124 138.073 100.334 138.204 100.465C138.344 100.586 138.577 100.647 138.904 100.647H139.884V101.977H138.624C137.905 101.977 137.354 101.809 136.972 101.473C136.589 101.137 136.398 100.591 136.398 99.8346V95.5646H135.488V94.2626H136.398V92.3446H138.008V94.2626H139.884V95.5646H138.008ZM144.155 102.103C143.548 102.103 143.002 101.995 142.517 101.781C142.041 101.557 141.663 101.258 141.383 100.885C141.103 100.502 140.953 100.077 140.935 99.6106H142.587C142.615 99.9372 142.769 100.213 143.049 100.437C143.338 100.651 143.697 100.759 144.127 100.759C144.575 100.759 144.92 100.675 145.163 100.507C145.415 100.329 145.541 100.105 145.541 99.8346C145.541 99.5452 145.401 99.3306 145.121 99.1906C144.85 99.0506 144.416 98.8966 143.819 98.7286C143.24 98.5699 142.769 98.4159 142.405 98.2666C142.041 98.1172 141.723 97.8886 141.453 97.5806C141.191 97.2726 141.061 96.8666 141.061 96.3626C141.061 95.9519 141.182 95.5786 141.425 95.2426C141.667 94.8972 142.013 94.6266 142.461 94.4306C142.918 94.2346 143.441 94.1366 144.029 94.1366C144.906 94.1366 145.611 94.3606 146.143 94.8086C146.684 95.2472 146.973 95.8492 147.011 96.6146H145.415C145.387 96.2692 145.247 95.9939 144.995 95.7886C144.743 95.5832 144.402 95.4806 143.973 95.4806C143.553 95.4806 143.231 95.5599 143.007 95.7186C142.783 95.8772 142.671 96.0872 142.671 96.3486C142.671 96.5539 142.745 96.7266 142.895 96.8666C143.044 97.0066 143.226 97.1186 143.441 97.2026C143.655 97.2772 143.973 97.3752 144.393 97.4966C144.953 97.6459 145.41 97.7999 145.765 97.9586C146.129 98.1079 146.441 98.3319 146.703 98.6306C146.964 98.9292 147.099 99.3259 147.109 99.8206C147.109 100.259 146.987 100.651 146.745 100.997C146.502 101.342 146.157 101.613 145.709 101.809C145.27 102.005 144.752 102.103 144.155 102.103ZM159.414 94.2626L154.682 105.603H153.03L154.598 101.851L151.56 94.2626H153.338L155.508 100.143L157.762 94.2626H159.414ZM163.964 102.103C163.236 102.103 162.578 101.939 161.99 101.613C161.402 101.277 160.94 100.81 160.604 100.213C160.268 99.6059 160.1 98.9059 160.1 98.1126C160.1 97.3286 160.273 96.6332 160.618 96.0266C160.964 95.4199 161.435 94.9532 162.032 94.6266C162.63 94.2999 163.297 94.1366 164.034 94.1366C164.772 94.1366 165.439 94.2999 166.036 94.6266C166.634 94.9532 167.105 95.4199 167.45 96.0266C167.796 96.6332 167.968 97.3286 167.968 98.1126C167.968 98.8966 167.791 99.5919 167.436 100.199C167.082 100.805 166.596 101.277 165.98 101.613C165.374 101.939 164.702 102.103 163.964 102.103ZM163.964 100.717C164.375 100.717 164.758 100.619 165.112 100.423C165.476 100.227 165.77 99.9326 165.994 99.5406C166.218 99.1486 166.33 98.6726 166.33 98.1126C166.33 97.5526 166.223 97.0812 166.008 96.6986C165.794 96.3066 165.509 96.0126 165.154 95.8166C164.8 95.6206 164.417 95.5226 164.006 95.5226C163.596 95.5226 163.213 95.6206 162.858 95.8166C162.513 96.0126 162.238 96.3066 162.032 96.6986C161.827 97.0812 161.724 97.5526 161.724 98.1126C161.724 98.9432 161.934 99.5872 162.354 100.045C162.784 100.493 163.32 100.717 163.964 100.717ZM176.532 94.2626V101.977H174.936V101.067C174.684 101.384 174.353 101.636 173.942 101.823C173.541 102 173.111 102.089 172.654 102.089C172.047 102.089 171.501 101.963 171.016 101.711C170.54 101.459 170.162 101.085 169.882 100.591C169.611 100.096 169.476 99.4986 169.476 98.7986V94.2626H171.058V98.5606C171.058 99.2512 171.231 99.7832 171.576 100.157C171.921 100.521 172.393 100.703 172.99 100.703C173.587 100.703 174.059 100.521 174.404 100.157C174.759 99.7832 174.936 99.2512 174.936 98.5606V94.2626H176.532ZM181.743 98.1126C181.743 97.3192 181.901 96.6239 182.219 96.0266C182.545 95.4199 182.993 94.9532 183.563 94.6266C184.132 94.2999 184.785 94.1366 185.523 94.1366C186.456 94.1366 187.226 94.3606 187.833 94.8086C188.449 95.2472 188.864 95.8772 189.079 96.6986H187.357C187.217 96.3159 186.993 96.0172 186.685 95.8026C186.377 95.5879 185.989 95.4806 185.523 95.4806C184.869 95.4806 184.347 95.7139 183.955 96.1806C183.572 96.6379 183.381 97.2819 183.381 98.1126C183.381 98.9432 183.572 99.5919 183.955 100.059C184.347 100.525 184.869 100.759 185.523 100.759C186.447 100.759 187.058 100.353 187.357 99.5406H189.079C188.855 100.325 188.435 100.95 187.819 101.417C187.203 101.874 186.437 102.103 185.523 102.103C184.785 102.103 184.132 101.939 183.563 101.613C182.993 101.277 182.545 100.81 182.219 100.213C181.901 99.6059 181.743 98.9059 181.743 98.1126ZM194.015 102.103C193.287 102.103 192.629 101.939 192.041 101.613C191.453 101.277 190.991 100.81 190.655 100.213C190.319 99.6059 190.151 98.9059 190.151 98.1126C190.151 97.3286 190.324 96.6332 190.669 96.0266C191.014 95.4199 191.486 94.9532 192.083 94.6266C192.68 94.2999 193.348 94.1366 194.085 94.1366C194.822 94.1366 195.49 94.2999 196.087 94.6266C196.684 94.9532 197.156 95.4199 197.501 96.0266C197.846 96.6332 198.019 97.3286 198.019 98.1126C198.019 98.8966 197.842 99.5919 197.487 100.199C197.132 100.805 196.647 101.277 196.031 101.613C195.424 101.939 194.752 102.103 194.015 102.103ZM194.015 100.717C194.426 100.717 194.808 100.619 195.163 100.423C195.527 100.227 195.821 99.9326 196.045 99.5406C196.269 99.1486 196.381 98.6726 196.381 98.1126C196.381 97.5526 196.274 97.0812 196.059 96.6986C195.844 96.3066 195.56 96.0126 195.205 95.8166C194.85 95.6206 194.468 95.5226 194.057 95.5226C193.646 95.5226 193.264 95.6206 192.909 95.8166C192.564 96.0126 192.288 96.3066 192.083 96.6986C191.878 97.0812 191.775 97.5526 191.775 98.1126C191.775 98.9432 191.985 99.5872 192.405 100.045C192.834 100.493 193.371 100.717 194.015 100.717ZM208.935 94.1366C209.542 94.1366 210.083 94.2626 210.559 94.5146C211.044 94.7666 211.422 95.1399 211.693 95.6346C211.973 96.1292 212.113 96.7266 212.113 97.4266V101.977H210.531V97.6646C210.531 96.9739 210.358 96.4466 210.013 96.0826C209.668 95.7092 209.196 95.5226 208.599 95.5226C208.002 95.5226 207.526 95.7092 207.171 96.0826C206.826 96.4466 206.653 96.9739 206.653 97.6646V101.977H205.071V97.6646C205.071 96.9739 204.898 96.4466 204.553 96.0826C204.208 95.7092 203.736 95.5226 203.139 95.5226C202.542 95.5226 202.066 95.7092 201.711 96.0826C201.366 96.4466 201.193 96.9739 201.193 97.6646V101.977H199.597V94.2626H201.193V95.1446C201.454 94.8272 201.786 94.5799 202.187 94.4026C202.588 94.2252 203.018 94.1366 203.475 94.1366C204.091 94.1366 204.642 94.2672 205.127 94.5286C205.612 94.7899 205.986 95.1679 206.247 95.6626C206.48 95.1959 206.844 94.8272 207.339 94.5566C207.834 94.2766 208.366 94.1366 208.935 94.1366ZM215.74 95.3966C216.01 95.0419 216.379 94.7432 216.846 94.5006C217.312 94.2579 217.84 94.1366 218.428 94.1366C219.1 94.1366 219.711 94.3046 220.262 94.6406C220.822 94.9672 221.26 95.4292 221.578 96.0266C221.895 96.6239 222.054 97.3099 222.054 98.0846C222.054 98.8592 221.895 99.5546 221.578 100.171C221.26 100.777 220.822 101.253 220.262 101.599C219.711 101.935 219.1 102.103 218.428 102.103C217.84 102.103 217.317 101.986 216.86 101.753C216.402 101.51 216.029 101.211 215.74 100.857V105.645H214.144V94.2626H215.74V95.3966ZM220.43 98.0846C220.43 97.5526 220.318 97.0952 220.094 96.7126C219.879 96.3206 219.59 96.0266 219.226 95.8306C218.871 95.6252 218.488 95.5226 218.078 95.5226C217.676 95.5226 217.294 95.6252 216.93 95.8306C216.575 96.0359 216.286 96.3346 216.062 96.7266C215.847 97.1186 215.74 97.5806 215.74 98.1126C215.74 98.6446 215.847 99.1112 216.062 99.5126C216.286 99.9046 216.575 100.203 216.93 100.409C217.294 100.614 217.676 100.717 218.078 100.717C218.488 100.717 218.871 100.614 219.226 100.409C219.59 100.194 219.879 99.8859 220.094 99.4846C220.318 99.0832 220.43 98.6166 220.43 98.0846ZM225.228 91.6166V101.977H223.632V91.6166H225.228ZM234.393 97.9306C234.393 98.2199 234.375 98.4812 234.337 98.7146H228.443C228.49 99.3306 228.719 99.8252 229.129 100.199C229.54 100.572 230.044 100.759 230.641 100.759C231.5 100.759 232.107 100.399 232.461 99.6806H234.183C233.95 100.39 233.525 100.973 232.909 101.431C232.303 101.879 231.547 102.103 230.641 102.103C229.904 102.103 229.241 101.939 228.653 101.613C228.075 101.277 227.617 100.81 227.281 100.213C226.955 99.6059 226.791 98.9059 226.791 98.1126C226.791 97.3192 226.95 96.6239 227.267 96.0266C227.594 95.4199 228.047 94.9532 228.625 94.6266C229.213 94.2999 229.885 94.1366 230.641 94.1366C231.369 94.1366 232.018 94.2952 232.587 94.6126C233.157 94.9299 233.6 95.3779 233.917 95.9566C234.235 96.5259 234.393 97.1839 234.393 97.9306ZM232.727 97.4266C232.718 96.8386 232.508 96.3672 232.097 96.0126C231.687 95.6579 231.178 95.4806 230.571 95.4806C230.021 95.4806 229.549 95.6579 229.157 96.0126C228.765 96.3579 228.532 96.8292 228.457 97.4266H232.727ZM237.826 95.5646V99.8346C237.826 100.124 237.891 100.334 238.022 100.465C238.162 100.586 238.395 100.647 238.722 100.647H239.702V101.977H238.442C237.723 101.977 237.173 101.809 236.79 101.473C236.407 101.137 236.216 100.591 236.216 99.8346V95.5646H235.306V94.2626H236.216V92.3446H237.826V94.2626H239.702V95.5646H237.826ZM248.243 97.9306C248.243 98.2199 248.224 98.4812 248.187 98.7146H242.293C242.34 99.3306 242.568 99.8252 242.979 100.199C243.39 100.572 243.894 100.759 244.491 100.759C245.35 100.759 245.956 100.399 246.311 99.6806H248.033C247.8 100.39 247.375 100.973 246.759 101.431C246.152 101.879 245.396 102.103 244.491 102.103C243.754 102.103 243.091 101.939 242.503 101.613C241.924 101.277 241.467 100.81 241.131 100.213C240.804 99.6059 240.641 98.9059 240.641 98.1126C240.641 97.3192 240.8 96.6239 241.117 96.0266C241.444 95.4199 241.896 94.9532 242.475 94.6266C243.063 94.2999 243.735 94.1366 244.491 94.1366C245.219 94.1366 245.868 94.2952 246.437 94.6126C247.006 94.9299 247.45 95.3779 247.767 95.9566C248.084 96.5259 248.243 97.1839 248.243 97.9306ZM246.577 97.4266C246.568 96.8386 246.358 96.3672 245.947 96.0126C245.536 95.6579 245.028 95.4806 244.421 95.4806C243.87 95.4806 243.399 95.6579 243.007 96.0126C242.615 96.3579 242.382 96.8292 242.307 97.4266H246.577ZM255.312 95.5646V99.8346C255.312 100.124 255.378 100.334 255.508 100.465C255.648 100.586 255.882 100.647 256.208 100.647H257.188V101.977H255.928C255.21 101.977 254.659 101.809 254.276 101.473C253.894 101.137 253.702 100.591 253.702 99.8346V95.5646H252.792V94.2626H253.702V92.3446H255.312V94.2626H257.188V95.5646H255.312ZM262.005 102.103C261.277 102.103 260.619 101.939 260.031 101.613C259.443 101.277 258.981 100.81 258.645 100.213C258.309 99.6059 258.141 98.9059 258.141 98.1126C258.141 97.3286 258.314 96.6332 258.659 96.0266C259.005 95.4199 259.476 94.9532 260.073 94.6266C260.671 94.2999 261.338 94.1366 262.075 94.1366C262.813 94.1366 263.48 94.2999 264.077 94.6266C264.675 94.9532 265.146 95.4199 265.491 96.0266C265.837 96.6332 266.009 97.3286 266.009 98.1126C266.009 98.8966 265.832 99.5919 265.477 100.199C265.123 100.805 264.637 101.277 264.021 101.613C263.415 101.939 262.743 102.103 262.005 102.103ZM262.005 100.717C262.416 100.717 262.799 100.619 263.153 100.423C263.517 100.227 263.811 99.9326 264.035 99.5406C264.259 99.1486 264.371 98.6726 264.371 98.1126C264.371 97.5526 264.264 97.0812 264.049 96.6986C263.835 96.3066 263.55 96.0126 263.195 95.8166C262.841 95.6206 262.458 95.5226 262.047 95.5226C261.637 95.5226 261.254 95.6206 260.899 95.8166C260.554 96.0126 260.279 96.3066 260.073 96.6986C259.868 97.0812 259.765 97.5526 259.765 98.1126C259.765 98.9432 259.975 99.5872 260.395 100.045C260.825 100.493 261.361 100.717 262.005 100.717ZM32.912 116.565V120.835C32.912 121.124 32.9773 121.334 33.108 121.465C33.248 121.586 33.4813 121.647 33.808 121.647H34.788V122.977H33.528C32.8093 122.977 32.2587 122.809 31.876 122.473C31.4933 122.137 31.302 121.591 31.302 120.835V116.565H30.392V115.263H31.302V113.345H32.912V115.263H34.788V116.565H32.912ZM35.727 119.085C35.727 118.31 35.8857 117.624 36.203 117.027C36.5297 116.429 36.9683 115.967 37.519 115.641C38.079 115.305 38.695 115.137 39.367 115.137C39.9737 115.137 40.501 115.258 40.949 115.501C41.4063 115.734 41.7703 116.028 42.041 116.383V115.263H43.651V122.977H42.041V121.829C41.7703 122.193 41.4017 122.496 40.935 122.739C40.4683 122.981 39.9363 123.103 39.339 123.103C38.6763 123.103 38.0697 122.935 37.519 122.599C36.9683 122.253 36.5297 121.777 36.203 121.171C35.8857 120.555 35.727 119.859 35.727 119.085ZM42.041 119.113C42.041 118.581 41.929 118.119 41.705 117.727C41.4903 117.335 41.2057 117.036 40.851 116.831C40.4963 116.625 40.1137 116.523 39.703 116.523C39.2923 116.523 38.9097 116.625 38.555 116.831C38.2003 117.027 37.911 117.321 37.687 117.713C37.4723 118.095 37.365 118.553 37.365 119.085C37.365 119.617 37.4723 120.083 37.687 120.485C37.911 120.886 38.2003 121.194 38.555 121.409C38.919 121.614 39.3017 121.717 39.703 121.717C40.1137 121.717 40.4963 121.614 40.851 121.409C41.2057 121.203 41.4903 120.905 41.705 120.513C41.929 120.111 42.041 119.645 42.041 119.113ZM48.7993 119.127L52.3553 122.977H50.1993L47.3433 119.659V122.977H45.7473V112.617H47.3433V118.637L50.1433 115.263H52.3553L48.7993 119.127ZM60.5692 118.931C60.5692 119.22 60.5506 119.481 60.5132 119.715H54.6192C54.6659 120.331 54.8946 120.825 55.3052 121.199C55.7159 121.572 56.2199 121.759 56.8172 121.759C57.6759 121.759 58.2826 121.399 58.6372 120.681H60.3592C60.1259 121.39 59.7012 121.973 59.0852 122.431C58.4786 122.879 57.7226 123.103 56.8172 123.103C56.0799 123.103 55.4172 122.939 54.8292 122.613C54.2506 122.277 53.7932 121.81 53.4572 121.213C53.1306 120.606 52.9672 119.906 52.9672 119.113C52.9672 118.319 53.1259 117.624 53.4432 117.027C53.7699 116.42 54.2226 115.953 54.8012 115.627C55.3892 115.3 56.0612 115.137 56.8172 115.137C57.5452 115.137 58.1939 115.295 58.7632 115.613C59.3326 115.93 59.7759 116.378 60.0932 116.957C60.4106 117.526 60.5692 118.184 60.5692 118.931ZM58.9032 118.427C58.8939 117.839 58.6839 117.367 58.2732 117.013C57.8626 116.658 57.3539 116.481 56.7472 116.481C56.1966 116.481 55.7252 116.658 55.3332 117.013C54.9412 117.358 54.7079 117.829 54.6332 118.427H58.9032ZM69.0106 116.565H67.5826V122.977H65.9726V116.565H65.0626V115.263H65.9726V114.717C65.9726 113.83 66.2059 113.186 66.6726 112.785C67.1486 112.374 67.8906 112.169 68.8986 112.169V113.499C68.4132 113.499 68.0726 113.592 67.8766 113.779C67.6806 113.956 67.5826 114.269 67.5826 114.717V115.263H69.0106V116.565ZM71.237 114.241C70.9477 114.241 70.705 114.143 70.509 113.947C70.313 113.751 70.215 113.508 70.215 113.219C70.215 112.929 70.313 112.687 70.509 112.491C70.705 112.295 70.9477 112.197 71.237 112.197C71.517 112.197 71.755 112.295 71.951 112.491C72.147 112.687 72.245 112.929 72.245 113.219C72.245 113.508 72.147 113.751 71.951 113.947C71.755 114.143 71.517 114.241 71.237 114.241ZM72.021 115.263V122.977H70.425V115.263H72.021ZM75.7124 116.383C75.9457 115.991 76.2537 115.687 76.6364 115.473C77.0284 115.249 77.4904 115.137 78.0224 115.137V116.789H77.6164C76.9911 116.789 76.5151 116.947 76.1884 117.265C75.8711 117.582 75.7124 118.133 75.7124 118.917V122.977H74.1164V115.263H75.7124V116.383ZM82.2895 123.103C81.6828 123.103 81.1368 122.995 80.6515 122.781C80.1755 122.557 79.7975 122.258 79.5175 121.885C79.2375 121.502 79.0881 121.077 79.0695 120.611H80.7215C80.7495 120.937 80.9035 121.213 81.1835 121.437C81.4728 121.651 81.8321 121.759 82.2615 121.759C82.7095 121.759 83.0548 121.675 83.2975 121.507C83.5495 121.329 83.6755 121.105 83.6755 120.835C83.6755 120.545 83.5355 120.331 83.2555 120.191C82.9848 120.051 82.5508 119.897 81.9535 119.729C81.3748 119.57 80.9035 119.416 80.5395 119.267C80.1755 119.117 79.8581 118.889 79.5875 118.581C79.3261 118.273 79.1955 117.867 79.1955 117.363C79.1955 116.952 79.3168 116.579 79.5595 116.243C79.8021 115.897 80.1475 115.627 80.5955 115.431C81.0528 115.235 81.5755 115.137 82.1635 115.137C83.0408 115.137 83.7455 115.361 84.2775 115.809C84.8188 116.247 85.1081 116.849 85.1455 117.615H83.5495C83.5215 117.269 83.3815 116.994 83.1295 116.789C82.8775 116.583 82.5368 116.481 82.1075 116.481C81.6875 116.481 81.3655 116.56 81.1415 116.719C80.9175 116.877 80.8055 117.087 80.8055 117.349C80.8055 117.554 80.8801 117.727 81.0295 117.867C81.1788 118.007 81.3608 118.119 81.5755 118.203C81.7901 118.277 82.1075 118.375 82.5275 118.497C83.0875 118.646 83.5448 118.8 83.8995 118.959C84.2635 119.108 84.5761 119.332 84.8375 119.631C85.0988 119.929 85.2341 120.326 85.2435 120.821C85.2435 121.259 85.1221 121.651 84.8795 121.997C84.6368 122.342 84.2915 122.613 83.8435 122.809C83.4048 123.005 82.8868 123.103 82.2895 123.103ZM88.83 116.565V120.835C88.83 121.124 88.8953 121.334 89.026 121.465C89.166 121.586 89.3993 121.647 89.726 121.647H90.706V122.977H89.446C88.7273 122.977 88.1766 122.809 87.794 122.473C87.4113 122.137 87.22 121.591 87.22 120.835V116.565H86.31V115.263H87.22V113.345H88.83V115.263H90.706V116.565H88.83ZM97.4097 116.397C97.6803 116.042 98.049 115.743 98.5157 115.501C98.9823 115.258 99.5097 115.137 100.098 115.137C100.77 115.137 101.381 115.305 101.932 115.641C102.492 115.967 102.93 116.429 103.248 117.027C103.565 117.624 103.724 118.31 103.724 119.085C103.724 119.859 103.565 120.555 103.248 121.171C102.93 121.777 102.492 122.253 101.932 122.599C101.381 122.935 100.77 123.103 100.098 123.103C99.5097 123.103 98.987 122.986 98.5297 122.753C98.0723 122.51 97.699 122.211 97.4097 121.857V126.645H95.8137V115.263H97.4097V116.397ZM102.1 119.085C102.1 118.553 101.988 118.095 101.764 117.713C101.549 117.321 101.26 117.027 100.896 116.831C100.541 116.625 100.158 116.523 99.7477 116.523C99.3463 116.523 98.9637 116.625 98.5997 116.831C98.245 117.036 97.9557 117.335 97.7317 117.727C97.517 118.119 97.4097 118.581 97.4097 119.113C97.4097 119.645 97.517 120.111 97.7317 120.513C97.9557 120.905 98.245 121.203 98.5997 121.409C98.9637 121.614 99.3463 121.717 99.7477 121.717C100.158 121.717 100.541 121.614 100.896 121.409C101.26 121.194 101.549 120.886 101.764 120.485C101.988 120.083 102.1 119.617 102.1 119.085ZM106.898 112.617V122.977H105.302V112.617H106.898ZM108.461 119.085C108.461 118.31 108.62 117.624 108.937 117.027C109.264 116.429 109.703 115.967 110.253 115.641C110.813 115.305 111.429 115.137 112.101 115.137C112.708 115.137 113.235 115.258 113.683 115.501C114.141 115.734 114.505 116.028 114.775 116.383V115.263H116.385V122.977H114.775V121.829C114.505 122.193 114.136 122.496 113.669 122.739C113.203 122.981 112.671 123.103 112.073 123.103C111.411 123.103 110.804 122.935 110.253 122.599C109.703 122.253 109.264 121.777 108.937 121.171C108.62 120.555 108.461 119.859 108.461 119.085ZM114.775 119.113C114.775 118.581 114.663 118.119 114.439 117.727C114.225 117.335 113.94 117.036 113.585 116.831C113.231 116.625 112.848 116.523 112.437 116.523C112.027 116.523 111.644 116.625 111.289 116.831C110.935 117.027 110.645 117.321 110.421 117.713C110.207 118.095 110.099 118.553 110.099 119.085C110.099 119.617 110.207 120.083 110.421 120.485C110.645 120.886 110.935 121.194 111.289 121.409C111.653 121.614 112.036 121.717 112.437 121.717C112.848 121.717 113.231 121.614 113.585 121.409C113.94 121.203 114.225 120.905 114.439 120.513C114.663 120.111 114.775 119.645 114.775 119.113ZM117.95 119.113C117.95 118.319 118.108 117.624 118.426 117.027C118.752 116.42 119.2 115.953 119.77 115.627C120.339 115.3 120.992 115.137 121.73 115.137C122.663 115.137 123.433 115.361 124.04 115.809C124.656 116.247 125.071 116.877 125.286 117.699H123.564C123.424 117.316 123.2 117.017 122.892 116.803C122.584 116.588 122.196 116.481 121.73 116.481C121.076 116.481 120.554 116.714 120.162 117.181C119.779 117.638 119.588 118.282 119.588 119.113C119.588 119.943 119.779 120.592 120.162 121.059C120.554 121.525 121.076 121.759 121.73 121.759C122.654 121.759 123.265 121.353 123.564 120.541H125.286C125.062 121.325 124.642 121.95 124.026 122.417C123.41 122.874 122.644 123.103 121.73 123.103C120.992 123.103 120.339 122.939 119.77 122.613C119.2 122.277 118.752 121.81 118.426 121.213C118.108 120.606 117.95 119.906 117.95 119.113ZM133.946 118.931C133.946 119.22 133.928 119.481 133.89 119.715H127.996C128.043 120.331 128.272 120.825 128.682 121.199C129.093 121.572 129.597 121.759 130.194 121.759C131.053 121.759 131.66 121.399 132.014 120.681H133.736C133.503 121.39 133.078 121.973 132.462 122.431C131.856 122.879 131.1 123.103 130.194 123.103C129.457 123.103 128.794 122.939 128.206 122.613C127.628 122.277 127.17 121.81 126.834 121.213C126.508 120.606 126.344 119.906 126.344 119.113C126.344 118.319 126.503 117.624 126.82 117.027C127.147 116.42 127.6 115.953 128.178 115.627C128.766 115.3 129.438 115.137 130.194 115.137C130.922 115.137 131.571 115.295 132.14 115.613C132.71 115.93 133.153 116.378 133.47 116.957C133.788 117.526 133.946 118.184 133.946 118.931ZM132.28 118.427C132.271 117.839 132.061 117.367 131.65 117.013C131.24 116.658 130.731 116.481 130.124 116.481C129.574 116.481 129.102 116.658 128.71 117.013C128.318 117.358 128.085 117.829 128.01 118.427H132.28ZM137.267 121.059L135.573 124.923H134.537L135.531 121.059H137.267ZM144.16 116.565V120.835C144.16 121.124 144.225 121.334 144.356 121.465C144.496 121.586 144.729 121.647 145.056 121.647H146.036V122.977H144.776C144.057 122.977 143.507 122.809 143.124 122.473C142.741 122.137 142.55 121.591 142.55 120.835V116.565H141.64V115.263H142.55V113.345H144.16V115.263H146.036V116.565H144.16ZM151.497 115.137C152.085 115.137 152.608 115.263 153.065 115.515C153.532 115.767 153.896 116.14 154.157 116.635C154.428 117.129 154.563 117.727 154.563 118.427V122.977H152.981V118.665C152.981 117.974 152.808 117.447 152.463 117.083C152.118 116.709 151.646 116.523 151.049 116.523C150.452 116.523 149.976 116.709 149.621 117.083C149.276 117.447 149.103 117.974 149.103 118.665V122.977H147.507V112.617H149.103V116.159C149.374 115.832 149.714 115.58 150.125 115.403C150.545 115.225 151.002 115.137 151.497 115.137ZM163.669 118.931C163.669 119.22 163.65 119.481 163.613 119.715H157.719C157.765 120.331 157.994 120.825 158.405 121.199C158.815 121.572 159.319 121.759 159.917 121.759C160.775 121.759 161.382 121.399 161.737 120.681H163.459C163.225 121.39 162.801 121.973 162.185 122.431C161.578 122.879 160.822 123.103 159.917 123.103C159.179 123.103 158.517 122.939 157.929 122.613C157.35 122.277 156.893 121.81 156.557 121.213C156.23 120.606 156.067 119.906 156.067 119.113C156.067 118.319 156.225 117.624 156.543 117.027C156.869 116.42 157.322 115.953 157.901 115.627C158.489 115.3 159.161 115.137 159.917 115.137C160.645 115.137 161.293 115.295 161.863 115.613C162.432 115.93 162.875 116.378 163.193 116.957C163.51 117.526 163.669 118.184 163.669 118.931ZM162.003 118.427C161.993 117.839 161.783 117.367 161.373 117.013C160.962 116.658 160.453 116.481 159.847 116.481C159.296 116.481 158.825 116.658 158.433 117.013C158.041 117.358 157.807 117.829 157.733 118.427H162.003ZM178.214 115.137C178.821 115.137 179.362 115.263 179.838 115.515C180.324 115.767 180.702 116.14 180.972 116.635C181.252 117.129 181.392 117.727 181.392 118.427V122.977H179.81V118.665C179.81 117.974 179.638 117.447 179.292 117.083C178.947 116.709 178.476 116.523 177.878 116.523C177.281 116.523 176.805 116.709 176.45 117.083C176.105 117.447 175.932 117.974 175.932 118.665V122.977H174.35V118.665C174.35 117.974 174.178 117.447 173.832 117.083C173.487 116.709 173.016 116.523 172.418 116.523C171.821 116.523 171.345 116.709 170.99 117.083C170.645 117.447 170.472 117.974 170.472 118.665V122.977H168.876V115.263H170.472V116.145C170.734 115.827 171.065 115.58 171.466 115.403C171.868 115.225 172.297 115.137 172.754 115.137C173.37 115.137 173.921 115.267 174.406 115.529C174.892 115.79 175.265 116.168 175.526 116.663C175.76 116.196 176.124 115.827 176.618 115.557C177.113 115.277 177.645 115.137 178.214 115.137ZM186.769 123.103C186.041 123.103 185.383 122.939 184.795 122.613C184.207 122.277 183.745 121.81 183.409 121.213C183.073 120.606 182.905 119.906 182.905 119.113C182.905 118.329 183.078 117.633 183.423 117.027C183.768 116.42 184.24 115.953 184.837 115.627C185.434 115.3 186.102 115.137 186.839 115.137C187.576 115.137 188.244 115.3 188.841 115.627C189.438 115.953 189.91 116.42 190.255 117.027C190.6 117.633 190.773 118.329 190.773 119.113C190.773 119.897 190.596 120.592 190.241 121.199C189.886 121.805 189.401 122.277 188.785 122.613C188.178 122.939 187.506 123.103 186.769 123.103ZM186.769 121.717C187.18 121.717 187.562 121.619 187.917 121.423C188.281 121.227 188.575 120.933 188.799 120.541C189.023 120.149 189.135 119.673 189.135 119.113C189.135 118.553 189.028 118.081 188.813 117.699C188.598 117.307 188.314 117.013 187.959 116.817C187.604 116.621 187.222 116.523 186.811 116.523C186.4 116.523 186.018 116.621 185.663 116.817C185.318 117.013 185.042 117.307 184.837 117.699C184.632 118.081 184.529 118.553 184.529 119.113C184.529 119.943 184.739 120.587 185.159 121.045C185.588 121.493 186.125 121.717 186.769 121.717ZM193.947 116.383C194.18 115.991 194.488 115.687 194.871 115.473C195.263 115.249 195.725 115.137 196.257 115.137V116.789H195.851C195.225 116.789 194.749 116.947 194.423 117.265C194.105 117.582 193.947 118.133 193.947 118.917V122.977H192.351V115.263H193.947V116.383ZM204.794 118.931C204.794 119.22 204.775 119.481 204.738 119.715H198.844C198.89 120.331 199.119 120.825 199.53 121.199C199.94 121.572 200.444 121.759 201.042 121.759C201.9 121.759 202.507 121.399 202.862 120.681H204.584C204.35 121.39 203.926 121.973 203.31 122.431C202.703 122.879 201.947 123.103 201.042 123.103C200.304 123.103 199.642 122.939 199.054 122.613C198.475 122.277 198.018 121.81 197.682 121.213C197.355 120.606 197.192 119.906 197.192 119.113C197.192 118.319 197.35 117.624 197.668 117.027C197.994 116.42 198.447 115.953 199.026 115.627C199.614 115.3 200.286 115.137 201.042 115.137C201.77 115.137 202.418 115.295 202.988 115.613C203.557 115.93 204 116.378 204.318 116.957C204.635 117.526 204.794 118.184 204.794 118.931ZM203.128 118.427C203.118 117.839 202.908 117.367 202.498 117.013C202.087 116.658 201.578 116.481 200.972 116.481C200.421 116.481 199.95 116.658 199.558 117.013C199.166 117.358 198.932 117.829 198.858 118.427H203.128ZM211.597 116.383C211.831 115.991 212.139 115.687 212.521 115.473C212.913 115.249 213.375 115.137 213.907 115.137V116.789H213.501C212.876 116.789 212.4 116.947 212.073 117.265C211.756 117.582 211.597 118.133 211.597 118.917V122.977H210.001V115.263H211.597V116.383ZM222.444 118.931C222.444 119.22 222.426 119.481 222.388 119.715H216.494C216.541 120.331 216.77 120.825 217.18 121.199C217.591 121.572 218.095 121.759 218.692 121.759C219.551 121.759 220.158 121.399 220.512 120.681H222.234C222.001 121.39 221.576 121.973 220.96 122.431C220.354 122.879 219.598 123.103 218.692 123.103C217.955 123.103 217.292 122.939 216.704 122.613C216.126 122.277 215.668 121.81 215.332 121.213C215.006 120.606 214.842 119.906 214.842 119.113C214.842 118.319 215.001 117.624 215.318 117.027C215.645 116.42 216.098 115.953 216.676 115.627C217.264 115.3 217.936 115.137 218.692 115.137C219.42 115.137 220.069 115.295 220.638 115.613C221.208 115.93 221.651 116.378 221.968 116.957C222.286 117.526 222.444 118.184 222.444 118.931ZM220.778 118.427C220.769 117.839 220.559 117.367 220.148 117.013C219.738 116.658 219.229 116.481 218.622 116.481C218.072 116.481 217.6 116.658 217.208 117.013C216.816 117.358 216.583 117.829 216.508 118.427H220.778ZM234.375 115.263L231.981 122.977H230.301L228.747 117.279L227.193 122.977H225.513L223.105 115.263H224.729L226.339 121.465L227.977 115.263H229.643L231.211 121.437L232.807 115.263H234.375ZM235.036 119.085C235.036 118.31 235.194 117.624 235.512 117.027C235.838 116.429 236.277 115.967 236.828 115.641C237.388 115.305 238.004 115.137 238.676 115.137C239.282 115.137 239.81 115.258 240.258 115.501C240.715 115.734 241.079 116.028 241.35 116.383V115.263H242.96V122.977H241.35V121.829C241.079 122.193 240.71 122.496 240.244 122.739C239.777 122.981 239.245 123.103 238.648 123.103C237.985 123.103 237.378 122.935 236.828 122.599C236.277 122.253 235.838 121.777 235.512 121.171C235.194 120.555 235.036 119.859 235.036 119.085ZM241.35 119.113C241.35 118.581 241.238 118.119 241.014 117.727C240.799 117.335 240.514 117.036 240.16 116.831C239.805 116.625 239.422 116.523 239.012 116.523C238.601 116.523 238.218 116.625 237.864 116.831C237.509 117.027 237.22 117.321 236.996 117.713C236.781 118.095 236.674 118.553 236.674 119.085C236.674 119.617 236.781 120.083 236.996 120.485C237.22 120.886 237.509 121.194 237.864 121.409C238.228 121.614 238.61 121.717 239.012 121.717C239.422 121.717 239.805 121.614 240.16 121.409C240.514 121.203 240.799 120.905 241.014 120.513C241.238 120.111 241.35 119.645 241.35 119.113ZM246.652 116.383C246.885 115.991 247.193 115.687 247.576 115.473C247.968 115.249 248.43 115.137 248.962 115.137V116.789H248.556C247.931 116.789 247.455 116.947 247.128 117.265C246.811 117.582 246.652 118.133 246.652 118.917V122.977H245.056V115.263H246.652V116.383ZM249.897 119.085C249.897 118.31 250.056 117.624 250.373 117.027C250.7 116.429 251.138 115.967 251.689 115.641C252.249 115.305 252.87 115.137 253.551 115.137C254.055 115.137 254.55 115.249 255.035 115.473C255.53 115.687 255.922 115.977 256.211 116.341V112.617H257.821V122.977H256.211V121.815C255.95 122.188 255.586 122.496 255.119 122.739C254.662 122.981 254.134 123.103 253.537 123.103C252.865 123.103 252.249 122.935 251.689 122.599C251.138 122.253 250.7 121.777 250.373 121.171C250.056 120.555 249.897 119.859 249.897 119.085ZM256.211 119.113C256.211 118.581 256.099 118.119 255.875 117.727C255.66 117.335 255.376 117.036 255.021 116.831C254.666 116.625 254.284 116.523 253.873 116.523C253.462 116.523 253.08 116.625 252.725 116.831C252.37 117.027 252.081 117.321 251.857 117.713C251.642 118.095 251.535 118.553 251.535 119.085C251.535 119.617 251.642 120.083 251.857 120.485C252.081 120.886 252.37 121.194 252.725 121.409C253.089 121.614 253.472 121.717 253.873 121.717C254.284 121.717 254.666 121.614 255.021 121.409C255.376 121.203 255.66 120.905 255.875 120.513C256.099 120.111 256.211 119.645 256.211 119.113ZM262.717 123.103C262.111 123.103 261.565 122.995 261.079 122.781C260.603 122.557 260.225 122.258 259.945 121.885C259.665 121.502 259.516 121.077 259.497 120.611H261.149C261.177 120.937 261.331 121.213 261.611 121.437C261.901 121.651 262.26 121.759 262.689 121.759C263.137 121.759 263.483 121.675 263.725 121.507C263.977 121.329 264.103 121.105 264.103 120.835C264.103 120.545 263.963 120.331 263.683 120.191C263.413 120.051 262.979 119.897 262.381 119.729C261.803 119.57 261.331 119.416 260.967 119.267C260.603 119.117 260.286 118.889 260.015 118.581C259.754 118.273 259.623 117.867 259.623 117.363C259.623 116.952 259.745 116.579 259.987 116.243C260.23 115.897 260.575 115.627 261.023 115.431C261.481 115.235 262.003 115.137 262.591 115.137C263.469 115.137 264.173 115.361 264.705 115.809C265.247 116.247 265.536 116.849 265.573 117.615H263.977C263.949 117.269 263.809 116.994 263.557 116.789C263.305 116.583 262.965 116.481 262.535 116.481C262.115 116.481 261.793 116.56 261.569 116.719C261.345 116.877 261.233 117.087 261.233 117.349C261.233 117.554 261.308 117.727 261.457 117.867C261.607 118.007 261.789 118.119 262.003 118.203C262.218 118.277 262.535 118.375 262.955 118.497C263.515 118.646 263.973 118.8 264.327 118.959C264.691 119.108 265.004 119.332 265.265 119.631C265.527 119.929 265.662 120.326 265.671 120.821C265.671 121.259 265.55 121.651 265.307 121.997C265.065 122.342 264.719 122.613 264.271 122.809C263.833 123.005 263.315 123.103 262.717 123.103ZM277.976 115.263L273.244 126.603H271.592L273.16 122.851L270.122 115.263H271.9L274.07 121.143L276.324 115.263H277.976ZM282.527 123.103C281.799 123.103 281.141 122.939 280.553 122.613C279.965 122.277 279.503 121.81 279.167 121.213C278.831 120.606 278.663 119.906 278.663 119.113C278.663 118.329 278.836 117.633 279.181 117.027C279.526 116.42 279.998 115.953 280.595 115.627C281.192 115.3 281.86 115.137 282.597 115.137C283.334 115.137 284.002 115.3 284.599 115.627C285.196 115.953 285.668 116.42 286.013 117.027C286.358 117.633 286.531 118.329 286.531 119.113C286.531 119.897 286.354 120.592 285.999 121.199C285.644 121.805 285.159 122.277 284.543 122.613C283.936 122.939 283.264 123.103 282.527 123.103ZM282.527 121.717C282.938 121.717 283.32 121.619 283.675 121.423C284.039 121.227 284.333 120.933 284.557 120.541C284.781 120.149 284.893 119.673 284.893 119.113C284.893 118.553 284.786 118.081 284.571 117.699C284.356 117.307 284.072 117.013 283.717 116.817C283.362 116.621 282.98 116.523 282.569 116.523C282.158 116.523 281.776 116.621 281.421 116.817C281.076 117.013 280.8 117.307 280.595 117.699C280.39 118.081 280.287 118.553 280.287 119.113C280.287 119.943 280.497 120.587 280.917 121.045C281.346 121.493 281.883 121.717 282.527 121.717ZM295.095 115.263V122.977H293.499V122.067C293.247 122.384 292.915 122.636 292.505 122.823C292.103 123 291.674 123.089 291.217 123.089C290.61 123.089 290.064 122.963 289.579 122.711C289.103 122.459 288.725 122.085 288.445 121.591C288.174 121.096 288.039 120.499 288.039 119.799V115.263H289.621V119.561C289.621 120.251 289.793 120.783 290.139 121.157C290.484 121.521 290.955 121.703 291.553 121.703C292.15 121.703 292.621 121.521 292.967 121.157C293.321 120.783 293.499 120.251 293.499 119.561V115.263H295.095ZM41.41 136.263L39.016 143.977H37.336L35.782 138.279L34.228 143.977H32.548L30.14 136.263H31.764L33.374 142.465L35.012 136.263H36.678L38.246 142.437L39.842 136.263H41.41ZM43.4147 135.241C43.1254 135.241 42.8827 135.143 42.6867 134.947C42.4907 134.751 42.3927 134.508 42.3927 134.219C42.3927 133.929 42.4907 133.687 42.6867 133.491C42.8827 133.295 43.1254 133.197 43.4147 133.197C43.6947 133.197 43.9327 133.295 44.1287 133.491C44.3247 133.687 44.4227 133.929 44.4227 134.219C44.4227 134.508 44.3247 134.751 44.1287 134.947C43.9327 135.143 43.6947 135.241 43.4147 135.241ZM44.1987 136.263V143.977H42.6027V136.263H44.1987ZM47.8901 133.617V143.977H46.2941V133.617H47.8901ZM51.5815 133.617V143.977H49.9855V133.617H51.5815ZM58.9097 137.383C59.143 136.991 59.451 136.687 59.8337 136.473C60.2257 136.249 60.6877 136.137 61.2197 136.137V137.789H60.8137C60.1883 137.789 59.7123 137.947 59.3857 138.265C59.0683 138.582 58.9097 139.133 58.9097 139.917V143.977H57.3137V136.263H58.9097V137.383ZM69.7567 139.931C69.7567 140.22 69.7381 140.481 69.7007 140.715H63.8067C63.8534 141.331 64.0821 141.825 64.4927 142.199C64.9034 142.572 65.4074 142.759 66.0047 142.759C66.8634 142.759 67.4701 142.399 67.8247 141.681H69.5467C69.3134 142.39 68.8887 142.973 68.2727 143.431C67.6661 143.879 66.9101 144.103 66.0047 144.103C65.2674 144.103 64.6047 143.939 64.0167 143.613C63.4381 143.277 62.9807 142.81 62.6447 142.213C62.3181 141.606 62.1547 140.906 62.1547 140.113C62.1547 139.319 62.3134 138.624 62.6307 138.027C62.9574 137.42 63.4101 136.953 63.9887 136.627C64.5767 136.3 65.2487 136.137 66.0047 136.137C66.7327 136.137 67.3814 136.295 67.9507 136.613C68.5201 136.93 68.9634 137.378 69.2807 137.957C69.5981 138.526 69.7567 139.184 69.7567 139.931ZM68.0907 139.427C68.0814 138.839 67.8714 138.367 67.4607 138.013C67.0501 137.658 66.5414 137.481 65.9347 137.481C65.3841 137.481 64.9127 137.658 64.5207 138.013C64.1287 138.358 63.8954 138.829 63.8207 139.427H68.0907ZM70.7953 140.113C70.7953 139.319 70.954 138.624 71.2713 138.027C71.598 137.42 72.046 136.953 72.6153 136.627C73.1847 136.3 73.838 136.137 74.5753 136.137C75.5087 136.137 76.2787 136.361 76.8853 136.809C77.5013 137.247 77.9167 137.877 78.1313 138.699H76.4093C76.2693 138.316 76.0453 138.017 75.7373 137.803C75.4293 137.588 75.042 137.481 74.5753 137.481C73.922 137.481 73.3993 137.714 73.0073 138.181C72.6247 138.638 72.4333 139.282 72.4333 140.113C72.4333 140.943 72.6247 141.592 73.0073 142.059C73.3993 142.525 73.922 142.759 74.5753 142.759C75.4993 142.759 76.1107 142.353 76.4093 141.541H78.1313C77.9073 142.325 77.4873 142.95 76.8713 143.417C76.2553 143.874 75.49 144.103 74.5753 144.103C73.838 144.103 73.1847 143.939 72.6153 143.613C72.046 143.277 71.598 142.81 71.2713 142.213C70.954 141.606 70.7953 140.906 70.7953 140.113ZM86.7919 139.931C86.7919 140.22 86.7732 140.481 86.7359 140.715H80.8419C80.8885 141.331 81.1172 141.825 81.5279 142.199C81.9385 142.572 82.4425 142.759 83.0399 142.759C83.8985 142.759 84.5052 142.399 84.8599 141.681H86.5819C86.3485 142.39 85.9239 142.973 85.3079 143.431C84.7012 143.879 83.9452 144.103 83.0399 144.103C82.3025 144.103 81.6399 143.939 81.0519 143.613C80.4732 143.277 80.0159 142.81 79.6799 142.213C79.3532 141.606 79.1899 140.906 79.1899 140.113C79.1899 139.319 79.3485 138.624 79.6659 138.027C79.9925 137.42 80.4452 136.953 81.0239 136.627C81.6119 136.3 82.2839 136.137 83.0399 136.137C83.7679 136.137 84.4165 136.295 84.9859 136.613C85.5552 136.93 85.9985 137.378 86.3159 137.957C86.6332 138.526 86.7919 139.184 86.7919 139.931ZM85.1259 139.427C85.1165 138.839 84.9065 138.367 84.4959 138.013C84.0852 137.658 83.5765 137.481 82.9699 137.481C82.4192 137.481 81.9479 137.658 81.5559 138.013C81.1639 138.358 80.9305 138.829 80.8559 139.427H85.1259ZM89.1745 135.241C88.8852 135.241 88.6425 135.143 88.4465 134.947C88.2505 134.751 88.1525 134.508 88.1525 134.219C88.1525 133.929 88.2505 133.687 88.4465 133.491C88.6425 133.295 88.8852 133.197 89.1745 133.197C89.4545 133.197 89.6925 133.295 89.8885 133.491C90.0845 133.687 90.1825 133.929 90.1825 134.219C90.1825 134.508 90.0845 134.751 89.8885 134.947C89.6925 135.143 89.4545 135.241 89.1745 135.241ZM89.9585 136.263V143.977H88.3625V136.263H89.9585ZM95.0359 142.549L97.2199 136.263H98.9139L95.9739 143.977H94.0699L91.1439 136.263H92.8519L95.0359 142.549ZM107.19 139.931C107.19 140.22 107.172 140.481 107.134 140.715H101.24C101.287 141.331 101.516 141.825 101.926 142.199C102.337 142.572 102.841 142.759 103.438 142.759C104.297 142.759 104.904 142.399 105.258 141.681H106.98C106.747 142.39 106.322 142.973 105.706 143.431C105.1 143.879 104.344 144.103 103.438 144.103C102.701 144.103 102.038 143.939 101.45 143.613C100.872 143.277 100.414 142.81 100.078 142.213C99.7516 141.606 99.5883 140.906 99.5883 140.113C99.5883 139.319 99.747 138.624 100.064 138.027C100.391 137.42 100.844 136.953 101.422 136.627C102.01 136.3 102.682 136.137 103.438 136.137C104.166 136.137 104.815 136.295 105.384 136.613C105.954 136.93 106.397 137.378 106.714 137.957C107.032 138.526 107.19 139.184 107.19 139.931ZM105.524 139.427C105.515 138.839 105.305 138.367 104.894 138.013C104.484 137.658 103.975 137.481 103.368 137.481C102.818 137.481 102.346 137.658 101.954 138.013C101.562 138.358 101.329 138.829 101.254 139.427H105.524ZM109.405 144.075C109.116 144.075 108.873 143.977 108.677 143.781C108.481 143.585 108.383 143.342 108.383 143.053C108.383 142.763 108.481 142.521 108.677 142.325C108.873 142.129 109.116 142.031 109.405 142.031C109.685 142.031 109.923 142.129 110.119 142.325C110.315 142.521 110.413 142.763 110.413 143.053C110.413 143.342 110.315 143.585 110.119 143.781C109.923 143.977 109.685 144.075 109.405 144.075Z" fill="black"/>
</g>
<rect x="1" y="1.97656" width="623" height="328" rx="29" stroke="#0C0D0F" stroke-width="2"/>
<defs>
<clipPath id="clip0_4012_3740">
<rect y="0.976562" width="625" height="330" rx="30" fill="white"/>
</clipPath>
<clipPath id="clip1_4012_3740">
<rect width="368.716" height="284" fill="white" transform="translate(236.115 72.9766)"/>
</clipPath>
<clipPath id="clip2_4012_3740">
<rect width="85.9467" height="65.7769" fill="white" transform="matrix(0.596337 -0.802734 0.813415 0.581684 367.128 97.9922)"/>
</clipPath>
<clipPath id="clip3_4012_3740">
<rect width="81.5385" height="61" fill="white" transform="translate(221 217)"/>
</clipPath>
</defs>
</svg>
