<svg width="24" height="24" viewBox="0 0 24 24" fill="none" xmlns="http://www.w3.org/2000/svg">
<path d="M17.7549 14C18.5349 14 19.2219 14.397 19.6249 15H13.4999C12.8369 15 12.201 15.2634 11.7321 15.7322C11.2633 16.2011 10.9999 16.837 10.9999 17.5L10.9999 21.5C10.9999 21.661 11.0149 21.82 11.0449 21.972C8.10591 21.786 5.90891 20.722 4.51491 18.765C4.18268 18.2991 4.00405 17.7412 4.00391 17.169V16.249C4.00391 15.6525 4.24085 15.0805 4.66262 14.6587C5.08439 14.237 5.65643 14 6.25291 14L17.7549 14ZM11.9999 2.005C12.6565 2.005 13.3067 2.13433 13.9133 2.38561C14.52 2.63688 15.0711 3.00518 15.5354 3.46947C15.9997 3.93376 16.368 4.48496 16.6193 5.09159C16.8706 5.69822 16.9999 6.3484 16.9999 7.005C16.9999 7.66161 16.8706 8.31179 16.6193 8.91842C16.368 9.52505 15.9997 10.0762 15.5354 10.5405C15.0711 11.0048 14.52 11.3731 13.9133 11.6244C13.3067 11.8757 12.6565 12.005 11.9999 12.005C10.6738 12.005 9.40205 11.4782 8.46437 10.5405C7.52669 9.60286 6.99991 8.33109 6.99991 7.005C6.99991 5.67892 7.52669 4.40715 8.46437 3.46947C9.40205 2.53179 10.6738 2.005 11.9999 2.005ZM11.9999 17.5C11.9999 17.1022 12.1579 16.7206 12.4392 16.4393C12.7205 16.158 13.1021 16 13.4999 16H21.4999C21.8977 16 22.2793 16.158 22.5606 16.4393C22.8419 16.7206 22.9999 17.1022 22.9999 17.5V21.5C22.9999 21.8978 22.8419 22.2794 22.5606 22.5607C22.2793 22.842 21.8977 23 21.4999 23L13.4999 23C13.1021 23 12.7205 22.842 12.4392 22.5607C12.1579 22.2794 11.9999 21.8978 11.9999 21.5L11.9999 17.5ZM21.9999 18C21.7347 18 21.4803 17.8946 21.2928 17.7071C21.1053 17.5196 20.9999 17.2652 20.9999 17H19.9999C19.9999 17.5304 20.2106 18.0391 20.5857 18.4142C20.9608 18.7893 21.4695 19 21.9999 19V18ZM21.9999 20C21.4695 20 20.9608 20.2107 20.5857 20.5858C20.2106 20.9609 19.9999 21.4696 19.9999 22H20.9999C20.9999 21.7348 21.1053 21.4804 21.2928 21.2929C21.4803 21.1054 21.7347 21 21.9999 21V20ZM13.9999 17C13.9999 17.2652 13.8945 17.5196 13.707 17.7071C13.5195 17.8946 13.2651 18 12.9999 18V19C13.5303 19 14.039 18.7893 14.4141 18.4142C14.7892 18.0391 14.9999 17.5304 14.9999 17H13.9999ZM14.9999 22C14.9999 21.4696 14.7892 20.9609 14.4141 20.5858C14.039 20.2107 13.5303 20 12.9999 20V21C13.2651 21 13.5195 21.1054 13.707 21.2929C13.8945 21.4804 13.9999 21.7348 13.9999 22H14.9999ZM19.2499 19.5C19.2499 19.0359 19.0655 18.5908 18.7373 18.2626C18.4092 17.9344 17.964 17.75 17.4999 17.75C17.0358 17.75 16.5907 17.9344 16.2625 18.2626C15.9343 18.5908 15.7499 19.0359 15.7499 19.5C15.7499 19.9641 15.9343 20.4093 16.2625 20.7374C16.5907 21.0656 17.0358 21.25 17.4999 21.25C17.964 21.25 18.4092 21.0656 18.7373 20.7374C19.0655 20.4093 19.2499 19.9641 19.2499 19.5Z" fill="#52C41A"/>
</svg>
