<svg width="20" height="20" viewBox="0 0 20 20" fill="none" xmlns="http://www.w3.org/2000/svg">
<path d="M14.107 9.28467H5.89268C5.79447 9.28467 5.71411 9.36502 5.71411 9.46324V10.5347C5.71411 10.6329 5.79447 10.7132 5.89268 10.7132H14.107C14.2052 10.7132 14.2855 10.6329 14.2855 10.5347V9.46324C14.2855 9.36502 14.2052 9.28467 14.107 9.28467Z" fill="#F5222D"/>
<path d="M10 0C4.47768 0 0 4.47768 0 10C0 15.5223 4.47768 20 10 20C15.5223 20 20 15.5223 20 10C20 4.47768 15.5223 0 10 0ZM10 18.3036C5.41518 18.3036 1.69643 14.5848 1.69643 10C1.69643 5.41518 5.41518 1.69643 10 1.69643C14.5848 1.69643 18.3036 5.41518 18.3036 10C18.3036 14.5848 14.5848 18.3036 10 18.3036Z" fill="#F5222D"/>
</svg>
