<svg width="22" height="22" viewBox="0 0 22 22" fill="none" xmlns="http://www.w3.org/2000/svg">
<path fill-rule="evenodd" clip-rule="evenodd" d="M11 22C17.0751 22 22 17.0751 22 11C22 4.92487 17.0751 0 11 0C4.92487 0 0 4.92487 0 11C0 17.0751 4.92487 22 11 22ZM18.375 9.17442V8.07997H14.0371V9.17442H15.523V13.6881H16.8891V9.17442H18.375ZM12.47 10.8121C12.7948 10.8813 13.0558 11.0438 13.2529 11.2994C13.4499 11.5497 13.5484 11.8373 13.5484 12.1622C13.5484 12.6309 13.3833 13.0037 13.0531 13.2806C12.7283 13.5522 12.2729 13.6881 11.6871 13.6881H9.07475V8.07997H11.5992C12.1691 8.07997 12.6138 8.21045 12.9333 8.47141C13.2582 8.73238 13.4206 9.08655 13.4206 9.53391C13.4206 9.86412 13.3327 10.1384 13.157 10.3568C12.9866 10.5751 12.7576 10.7269 12.47 10.8121ZM10.4408 10.3488H11.3356C11.5592 10.3488 11.7297 10.3008 11.8468 10.205C11.9693 10.1038 12.0306 9.95732 12.0306 9.76559C12.0306 9.57386 11.9693 9.4274 11.8468 9.32621C11.7297 9.22502 11.5592 9.17442 11.3356 9.17442H10.4408V10.3488ZM11.4474 12.5856C11.6764 12.5856 11.8522 12.535 11.9747 12.4338C12.1025 12.3273 12.1664 12.1755 12.1664 11.9785C12.1664 11.7814 12.0998 11.627 11.9667 11.5151C11.8389 11.4033 11.6604 11.3474 11.4314 11.3474H10.4408V12.5856H11.4474ZM5.08647 13.5442C5.41134 13.6773 5.77882 13.7439 6.18891 13.7439C6.60965 13.7439 6.97447 13.6667 7.28337 13.5122C7.59227 13.3578 7.8266 13.1501 7.98638 12.8891C8.15148 12.6281 8.23403 12.3379 8.23403 12.0183C8.23403 11.6828 8.15148 11.4085 7.98638 11.1955C7.82128 10.9825 7.62422 10.82 7.39521 10.7082C7.17153 10.5963 6.87861 10.4792 6.51645 10.3567C6.15429 10.2395 5.888 10.1303 5.71758 10.0291C5.54715 9.92795 5.46194 9.78681 5.46194 9.60573C5.46194 9.44063 5.51253 9.31548 5.61372 9.23026C5.71491 9.13972 5.84806 9.09446 6.01316 9.09446C6.20489 9.09446 6.362 9.14771 6.4845 9.25423C6.60699 9.35542 6.67356 9.49655 6.68421 9.67763H8.16213C8.1355 9.15038 7.93312 8.74029 7.55498 8.44737C7.17685 8.14912 6.67889 8 6.06109 8C5.45395 8 4.96131 8.14912 4.58318 8.44737C4.20504 8.74029 4.01598 9.14771 4.01598 9.66964C4.01598 10.0211 4.09853 10.3061 4.26363 10.5244C4.42873 10.7428 4.62578 10.9079 4.85479 11.0197C5.0838 11.1316 5.37939 11.2434 5.74154 11.3553C5.99186 11.4298 6.18359 11.4964 6.31673 11.555C6.4552 11.6136 6.56971 11.6881 6.66025 11.7787C6.75611 11.8692 6.80404 11.9837 6.80404 12.1222C6.80404 12.2873 6.74546 12.4178 6.62829 12.5136C6.51112 12.6042 6.35135 12.6494 6.14897 12.6494C5.95191 12.6494 5.79214 12.5962 5.66964 12.4897C5.54715 12.3778 5.47525 12.218 5.45395 12.0103H4C4.01065 12.3778 4.11184 12.692 4.30357 12.953C4.50063 13.214 4.76159 13.411 5.08647 13.5442Z" fill="black"/>
</svg>