<svg width="32" height="32" viewBox="0 0 32 32" fill="none" xmlns="http://www.w3.org/2000/svg">
<g clip-path="url(#clip0_3312_12689)">
<path fill-rule="evenodd" clip-rule="evenodd" d="M15.6667 30.3333C23.7668 30.3333 30.3333 23.7668 30.3333 15.6667C30.3333 7.56649 23.7668 1 15.6667 1C7.56649 1 1 7.56649 1 15.6667C1 23.7668 7.56649 30.3333 15.6667 30.3333ZM25.4999 13.2325V11.7732H19.7161V13.2325H21.6973V19.2507H23.5187V13.2325H25.4999ZM17.6265 15.4161C18.0597 15.5084 18.4077 15.725 18.6704 16.0659C18.9331 16.3996 19.0645 16.7831 19.0645 17.2162C19.0645 17.8411 18.8444 18.3382 18.4041 18.7075C17.9709 19.0696 17.3638 19.2507 16.5827 19.2507H13.0996V11.7732H16.4655C17.2253 11.7732 17.8183 11.9472 18.2443 12.2952C18.6775 12.6431 18.8941 13.1154 18.8941 13.7118C18.8941 14.1521 18.7769 14.5178 18.5426 14.809C18.3153 15.1001 18.01 15.3025 17.6265 15.4161ZM14.921 14.7983H16.114C16.4122 14.7983 16.6395 14.7344 16.7957 14.6066C16.959 14.4717 17.0407 14.2764 17.0407 14.0207C17.0407 13.7651 16.959 13.5698 16.7957 13.4349C16.6395 13.3 16.4122 13.2325 16.114 13.2325H14.921V14.7983ZM16.2631 17.7808C16.5685 17.7808 16.8028 17.7133 16.9661 17.5784C17.1366 17.4364 17.2218 17.234 17.2218 16.9712C17.2218 16.7085 17.133 16.5026 16.9555 16.3535C16.7851 16.2043 16.5472 16.1298 16.2418 16.1298H14.921V17.7808H16.2631ZM7.78188 19.0589C8.21504 19.2364 8.70502 19.3252 9.2518 19.3252C9.81279 19.3252 10.2992 19.2222 10.7111 19.0163C11.1229 18.8103 11.4354 18.5334 11.6484 18.1854C11.8686 17.8375 11.9786 17.4505 11.9786 17.0244C11.9786 16.577 11.8686 16.2113 11.6484 15.9273C11.4283 15.6432 11.1655 15.4267 10.8602 15.2775C10.562 15.1284 10.1714 14.9722 9.68852 14.8089C9.20564 14.6526 8.85059 14.5071 8.62335 14.3721C8.39612 14.2372 8.2825 14.049 8.2825 13.8076C8.2825 13.5875 8.34996 13.4206 8.48488 13.307C8.6198 13.1863 8.79733 13.1259 9.01746 13.1259C9.2731 13.1259 9.48259 13.1969 9.64591 13.3389C9.80924 13.4739 9.898 13.662 9.9122 13.9035H11.8828C11.8473 13.2005 11.5774 12.6537 11.0732 12.2631C10.5691 11.8655 9.9051 11.6666 9.08138 11.6666C8.27185 11.6666 7.615 11.8655 7.11082 12.2631C6.60664 12.6537 6.35456 13.1969 6.35456 13.8928C6.35456 14.3615 6.46462 14.7414 6.68476 15.0325C6.90489 15.3237 7.16763 15.5438 7.47298 15.6929C7.77832 15.8421 8.17244 15.9912 8.65531 16.1403C8.98906 16.2397 9.2447 16.3285 9.42223 16.4066C9.60686 16.4847 9.75953 16.5841 9.88025 16.7049C10.0081 16.8256 10.072 16.9782 10.072 17.1629C10.072 17.383 9.99387 17.557 9.83764 17.6848C9.68142 17.8055 9.46838 17.8659 9.19854 17.8659C8.9358 17.8659 8.72277 17.7949 8.55944 17.6528C8.39612 17.5037 8.30025 17.2907 8.27185 17.0137H6.33325C6.34745 17.5037 6.48237 17.9227 6.73801 18.2706C7.00075 18.6186 7.34871 18.8813 7.78188 19.0589Z" fill="black"/>
</g>
<defs>
<clipPath id="clip0_3312_12689">
<rect width="32" height="32" fill="white"/>
</clipPath>
</defs>
</svg>
