<svg viewBox="0 0 194 172" fill="none" xmlns="http://www.w3.org/2000/svg">
<g clip-path="url(#clip0_3312_12894)">
<path d="M79.2741 164.478C110.906 164.478 136.548 138.734 136.548 106.976C136.548 75.2192 110.906 49.4749 79.2741 49.4749C47.6425 49.4749 22 75.2192 22 106.976C22 138.734 47.6425 164.478 79.2741 164.478Z" fill="#00FF00"/>
<path d="M75.3579 117.465C77.567 117.465 79.3579 115.217 79.3579 112.445C79.3579 109.672 77.567 107.425 75.3579 107.425C73.1488 107.425 71.3579 109.672 71.3579 112.445C71.3579 115.217 73.1488 117.465 75.3579 117.465Z" fill="#302CF8"/>
<path d="M75.3998 91.2365C75.3998 90.7805 75.0316 90.4109 74.5775 90.4109C74.1233 90.4109 73.7551 90.7805 73.7551 91.2365V97.3062C73.7551 97.7621 74.1233 98.1318 74.5775 98.1318C75.0316 98.1318 75.3998 97.7621 75.3998 97.3062V91.2365Z" fill="black"/>
<path d="M105.94 104.601L99.1401 106.195L102.389 120.168L109.189 118.574L105.94 104.601Z" fill="#1838E0"/>
<path d="M109.793 116.429L100.895 118.515L113.06 170.833L121.958 168.748L109.793 116.429Z" fill="#1838E0"/>
<path d="M95.2183 110.348C112.952 110.348 127.327 95.9147 127.327 78.1109C127.327 60.3071 112.952 45.8743 95.2183 45.8743C77.4849 45.8743 63.1091 60.3071 63.1091 78.1109C63.1091 95.9147 77.4849 110.348 95.2183 110.348Z" fill="#1838E0"/>
<path d="M95.2186 104.752C109.874 104.752 121.754 92.8245 121.754 78.1111C121.754 63.3977 109.874 51.4702 95.2186 51.4702C80.5635 51.4702 68.6831 63.3977 68.6831 78.1111C68.6831 92.8245 80.5635 104.752 95.2186 104.752Z" fill="#8FFFFF"/>
<path d="M86.6752 94.615C93.4078 94.615 98.8656 89.1355 98.8656 82.3762C98.8656 75.6169 93.4078 70.1375 86.6752 70.1375C79.9427 70.1375 74.4849 75.6169 74.4849 82.3762C74.4849 89.1355 79.9427 94.615 86.6752 94.615Z" fill="black" stroke="black" stroke-width="0.761421" stroke-miterlimit="10"/>
<path d="M147.909 1.38086H128.363C116.298 1.38086 106.518 11.1613 106.518 23.226V23.4316C106.518 35.4964 116.298 45.2768 128.363 45.2768H147.909C159.974 45.2768 169.754 35.4964 169.754 23.4316V23.226C169.754 11.1613 159.974 1.38086 147.909 1.38086Z" fill="#8FFFFF"/>
<path d="M125.358 26.0001C127.015 26.0001 128.358 24.657 128.358 23.0001C128.358 21.3433 127.015 20.0001 125.358 20.0001C123.701 20.0001 122.358 21.3433 122.358 23.0001C122.358 24.657 123.701 26.0001 125.358 26.0001Z" fill="#151597"/>
<path d="M138.637 26C140.294 26 141.637 24.6569 141.637 23C141.637 21.3431 140.294 20 138.637 20C136.98 20 135.637 21.3431 135.637 23C135.637 24.6569 136.98 26 138.637 26Z" fill="#151597"/>
<path d="M151.924 26C153.581 26 154.924 24.6569 154.924 23C154.924 21.3431 153.581 20 151.924 20C150.267 20 148.924 21.3431 148.924 23C148.924 24.6569 150.267 26 151.924 26Z" fill="#151597"/>
</g>
<defs>
<clipPath id="clip0_3312_12894">
<rect width="194" height="172" fill="white"/>
</clipPath>
</defs>
</svg>
