<svg viewBox="0 0 48 48" fill="none" xmlns="http://www.w3.org/2000/svg">
<g clip-path="url(#clip0_3312_12762)">
<path d="M25.9088 1.59C25.5038 1.95 22.3538 8.20125 22.3538 8.20125L20.01 17.655L29.13 16.8187C29.13 16.8187 36.7163 2.71125 36.87 2.385C37.1438 1.7925 37.29 1.54875 36.2438 1.54875C35.1975 1.545 26.2875 1.2525 25.9088 1.59Z" fill="#1838E0"/>
<path d="M9.56632 1.395C9.33007 1.6125 18.3638 17.7 18.3638 17.7C18.3638 17.7 19.8788 17.895 23.2613 17.925C26.6438 17.955 28.3201 17.73 28.3201 17.73C28.3201 17.73 21.2963 1.55625 20.8763 1.395C20.6701 1.3125 17.8876 1.2825 15.1688 1.2525C12.4463 1.21875 9.79132 1.185 9.56632 1.395Z" fill="#00FF00"/>
<g filter="url(#filter0_d_3312_12762)">
<path d="M27.8535 44.4038C25.7253 46.5321 22.2747 46.5321 20.1465 44.4038L10.5962 34.8535C8.46794 32.7253 8.46794 29.2747 10.5962 27.1465L20.1465 17.5962C22.2747 15.4679 25.7253 15.4679 27.8535 17.5962L37.4038 27.1465C39.5321 29.2747 39.5321 32.7253 37.4038 34.8535L27.8535 44.4038Z" fill="url(#paint0_linear_3312_12762)"/>
<path d="M21.2072 43.3432L11.6568 33.7928C10.1144 32.2504 10.1144 29.7496 11.6568 28.2072L21.2072 18.6568C22.7496 17.1144 25.2504 17.1144 26.7928 18.6568L36.3432 28.2072C37.8856 29.7496 37.8856 32.2504 36.3432 33.7928L26.7928 43.3432C25.2504 44.8856 22.7496 44.8856 21.2072 43.3432Z" stroke="white" stroke-opacity="0.4" stroke-width="3"/>
</g>
<path d="M20.0557 33.5477C20.3788 33.2913 20.526 33.1725 20.4975 33.1915C21.4285 32.422 22.16 31.7903 22.692 31.2963C23.2335 30.8023 23.6895 30.2845 24.06 29.743C24.4305 29.2015 24.6158 28.6743 24.6158 28.1612C24.6158 27.7717 24.5255 27.4677 24.345 27.2492C24.1645 27.0307 23.8937 26.9215 23.5328 26.9215C23.1717 26.9215 22.8867 27.0592 22.6777 27.3348C22.4782 27.6008 22.3785 27.9808 22.3785 28.4748H20.0272C20.0462 27.6673 20.2172 26.9928 20.5403 26.4512C20.8727 25.9098 21.305 25.5108 21.837 25.2543C22.3785 24.9978 22.977 24.8695 23.6325 24.8695C24.763 24.8695 25.6132 25.1592 26.1832 25.7387C26.7627 26.3183 27.0525 27.0735 27.0525 28.0045C27.0525 29.021 26.7057 29.9662 26.0122 30.8402C25.3187 31.7047 24.4352 32.5503 23.3618 33.3768H27.2092V35.3575H20.0557V33.5477Z" fill="#1838E0"/>
<path fill-rule="evenodd" clip-rule="evenodd" d="M12.1892 36.4467L29.4465 19.1894L35.8105 25.5534L18.5532 42.8107L12.1892 36.4467Z" fill="url(#paint1_linear_3312_12762)" fill-opacity="0.32"/>
</g>
<defs>
<filter id="filter0_d_3312_12762" x="9" y="16" width="30" height="31.2" filterUnits="userSpaceOnUse" color-interpolation-filters="sRGB">
<feFlood flood-opacity="0" result="BackgroundImageFix"/>
<feColorMatrix in="SourceAlpha" type="matrix" values="0 0 0 0 0 0 0 0 0 0 0 0 0 0 0 0 0 0 127 0" result="hardAlpha"/>
<feOffset dy="1.2"/>
<feComposite in2="hardAlpha" operator="out"/>
<feColorMatrix type="matrix" values="0 0 0 0 0.117138 0 0 0 0 0.176258 0 0 0 0 0.202862 0 0 0 1 0"/>
<feBlend mode="normal" in2="BackgroundImageFix" result="effect1_dropShadow_3312_12762"/>
<feBlend mode="normal" in="SourceGraphic" in2="effect1_dropShadow_3312_12762" result="shape"/>
</filter>
<linearGradient id="paint0_linear_3312_12762" x1="23.9999" y1="48.2574" x2="23.9999" y2="13.7427" gradientUnits="userSpaceOnUse">
<stop stop-color="#8AA8B5"/>
<stop offset="1" stop-color="#DCE5E8"/>
</linearGradient>
<linearGradient id="paint1_linear_3312_12762" x1="32.3406" y1="16.9622" x2="9.24742" y2="43.8507" gradientUnits="userSpaceOnUse">
<stop offset="0.125287" stop-color="white" stop-opacity="0"/>
<stop offset="0.195" stop-color="white"/>
<stop offset="0.375692" stop-color="white"/>
<stop offset="0.495" stop-color="white"/>
<stop offset="0.929467" stop-color="white" stop-opacity="0"/>
</linearGradient>
<clipPath id="clip0_3312_12762">
<rect width="48" height="48" fill="white"/>
</clipPath>
</defs>
</svg>
