<svg width="20" height="21" viewBox="0 0 20 21" fill="none" xmlns="http://www.w3.org/2000/svg">
<g filter="url(#filter0_d_3312_12838)">
<path d="M12.569 18.9359C11.1502 20.3547 8.84982 20.3547 7.43099 18.9359L1.06412 12.569C-0.354706 11.1502 -0.354706 8.84982 1.06412 7.43099L7.43099 1.06412C8.84982 -0.354706 11.1502 -0.354706 12.569 1.06412L18.9359 7.43099C20.3547 8.84982 20.3547 11.1502 18.9359 12.569L12.569 18.9359Z" fill="url(#paint0_linear_3312_12838)"/>
<path d="M11.8619 18.2288C10.8336 19.2571 9.1664 19.2571 8.1381 18.2288L1.77122 11.8619C0.742925 10.8336 0.742926 9.1664 1.77122 8.1381L8.1381 1.77122C9.1664 0.742926 10.8336 0.742925 11.8619 1.77122L18.2288 8.1381C19.2571 9.1664 19.2571 10.8336 18.2288 11.8619L11.8619 18.2288Z" stroke="black" stroke-opacity="0.24" stroke-width="2"/>
</g>
<g filter="url(#filter1_d_3312_12838)">
<path d="M12.569 18.9359C11.1502 20.3547 8.84982 20.3547 7.43099 18.9359L1.06412 12.569C-0.354706 11.1502 -0.354706 8.84982 1.06412 7.43099L7.43099 1.06412C8.84982 -0.354706 11.1502 -0.354706 12.569 1.06412L18.9359 7.43099C20.3547 8.84982 20.3547 11.1502 18.9359 12.569L12.569 18.9359Z" fill="url(#paint1_linear_3312_12838)"/>
<path d="M11.8619 18.2288C10.8336 19.2571 9.1664 19.2571 8.1381 18.2288L1.77122 11.8619C0.742925 10.8336 0.742926 9.1664 1.77122 8.1381L8.1381 1.77122C9.1664 0.742926 10.8336 0.742925 11.8619 1.77122L18.2288 8.1381C19.2571 9.1664 19.2571 10.8336 18.2288 11.8619L11.8619 18.2288Z" stroke="black" stroke-opacity="0.24" stroke-width="2"/>
</g>
<mask id="path-5-outside-1_3312_12838" maskUnits="userSpaceOnUse" x="6" y="4" width="8" height="10" fill="black">
<rect fill="white" x="6" y="4" width="8" height="10"/>
<path d="M7.3705 11.6985C7.58583 11.5275 7.684 11.4483 7.665 11.461C8.28567 10.948 8.77333 10.5268 9.128 10.1975C9.489 9.86817 9.793 9.523 10.04 9.162C10.287 8.801 10.4105 8.4495 10.4105 8.1075C10.4105 7.84783 10.3503 7.64517 10.23 7.4995C10.1097 7.35383 9.92917 7.281 9.6885 7.281C9.44783 7.281 9.25783 7.37283 9.1185 7.5565C8.9855 7.73383 8.919 7.98717 8.919 8.3165H7.3515C7.36417 7.77817 7.47817 7.3285 7.6935 6.9675C7.91517 6.6065 8.20333 6.3405 8.558 6.1695C8.919 5.9985 9.318 5.913 9.755 5.913C10.5087 5.913 11.0755 6.10617 11.4555 6.4925C11.8418 6.87883 12.035 7.38233 12.035 8.003C12.035 8.68067 11.8038 9.31083 11.3415 9.8935C10.8792 10.4698 10.2902 11.0335 9.5745 11.5845H12.1395V12.905H7.3705V11.6985Z"/>
</mask>
<path d="M7.3705 11.6985C7.58583 11.5275 7.684 11.4483 7.665 11.461C8.28567 10.948 8.77333 10.5268 9.128 10.1975C9.489 9.86817 9.793 9.523 10.04 9.162C10.287 8.801 10.4105 8.4495 10.4105 8.1075C10.4105 7.84783 10.3503 7.64517 10.23 7.4995C10.1097 7.35383 9.92917 7.281 9.6885 7.281C9.44783 7.281 9.25783 7.37283 9.1185 7.5565C8.9855 7.73383 8.919 7.98717 8.919 8.3165H7.3515C7.36417 7.77817 7.47817 7.3285 7.6935 6.9675C7.91517 6.6065 8.20333 6.3405 8.558 6.1695C8.919 5.9985 9.318 5.913 9.755 5.913C10.5087 5.913 11.0755 6.10617 11.4555 6.4925C11.8418 6.87883 12.035 7.38233 12.035 8.003C12.035 8.68067 11.8038 9.31083 11.3415 9.8935C10.8792 10.4698 10.2902 11.0335 9.5745 11.5845H12.1395V12.905H7.3705V11.6985Z" fill="url(#paint2_angular_3312_12838)"/>
<path d="M7.3705 11.6985C7.58583 11.5275 7.684 11.4483 7.665 11.461C8.28567 10.948 8.77333 10.5268 9.128 10.1975C9.489 9.86817 9.793 9.523 10.04 9.162C10.287 8.801 10.4105 8.4495 10.4105 8.1075C10.4105 7.84783 10.3503 7.64517 10.23 7.4995C10.1097 7.35383 9.92917 7.281 9.6885 7.281C9.44783 7.281 9.25783 7.37283 9.1185 7.5565C8.9855 7.73383 8.919 7.98717 8.919 8.3165H7.3515C7.36417 7.77817 7.47817 7.3285 7.6935 6.9675C7.91517 6.6065 8.20333 6.3405 8.558 6.1695C8.919 5.9985 9.318 5.913 9.755 5.913C10.5087 5.913 11.0755 6.10617 11.4555 6.4925C11.8418 6.87883 12.035 7.38233 12.035 8.003C12.035 8.68067 11.8038 9.31083 11.3415 9.8935C10.8792 10.4698 10.2902 11.0335 9.5745 11.5845H12.1395V12.905H7.3705V11.6985Z" fill="url(#paint3_angular_3312_12838)" fill-opacity="0.5"/>
<path d="M7.3705 11.6985L6.74862 10.9154L6.3705 11.2157V11.6985H7.3705ZM7.665 11.461L7.02792 10.6902L8.2197 12.2931L7.665 11.461ZM9.128 10.1975L8.45401 9.4587L8.44755 9.46471L9.128 10.1975ZM10.04 9.162L9.21469 8.59732L10.04 9.162ZM10.23 7.4995L9.45904 8.13638L9.45904 8.13638L10.23 7.4995ZM9.1185 7.5565L8.3218 6.9521L8.3185 6.9565L9.1185 7.5565ZM8.919 8.3165V9.3165H9.919V8.3165H8.919ZM7.3515 8.3165L6.35178 8.29298L6.32769 9.3165H7.3515V8.3165ZM7.6935 6.9675L6.84126 6.44419L6.83468 6.45522L7.6935 6.9675ZM8.558 6.1695L8.1299 5.26574L8.1237 5.26873L8.558 6.1695ZM11.4555 6.4925L10.7425 7.19376L10.7484 7.19961L11.4555 6.4925ZM11.3415 9.8935L12.1215 10.5192L12.1249 10.5151L11.3415 9.8935ZM9.5745 11.5845L8.96445 10.7921L6.63644 12.5845H9.5745V11.5845ZM12.1395 11.5845H13.1395V10.5845H12.1395V11.5845ZM12.1395 12.905V13.905H13.1395V12.905H12.1395ZM7.3705 12.905H6.3705V13.905H7.3705V12.905ZM7.99238 12.4816C8.10028 12.3959 8.18116 12.3314 8.23338 12.2893C8.25786 12.2695 8.28209 12.2499 8.30047 12.2344C8.30544 12.2302 8.31278 12.224 8.32099 12.2169C8.32373 12.2145 8.34713 12.1943 8.37374 12.1677C8.38171 12.1597 8.39593 12.1452 8.41279 12.1264C8.42378 12.1141 8.46341 12.0697 8.50487 12.0061C8.5237 11.9772 8.56939 11.9048 8.60666 11.8027C8.62908 11.7413 8.73947 11.4371 8.59198 11.0789C8.39763 10.607 7.96816 10.4844 7.76483 10.4645C7.58391 10.4467 7.44458 10.4839 7.40407 10.4949C7.30263 10.5226 7.2288 10.5608 7.21528 10.5676C7.188 10.5814 7.16698 10.5937 7.15624 10.6C7.1341 10.6132 7.11711 10.6244 7.1103 10.6289L8.2197 12.2931C8.21407 12.2968 8.19805 12.3074 8.17664 12.3201C8.16626 12.3263 8.14555 12.3384 8.11851 12.352C8.10525 12.3588 8.03162 12.3968 7.93031 12.4245C7.88987 12.4355 7.75059 12.4727 7.56971 12.4549C7.36642 12.435 6.93697 12.3124 6.74264 11.8405C6.59516 11.4823 6.70554 11.1782 6.72794 11.1168C6.7652 11.0148 6.81085 10.9424 6.82964 10.9136C6.871 10.8502 6.91049 10.806 6.92127 10.7939C6.93792 10.7753 6.95187 10.7611 6.95953 10.7534C6.975 10.738 6.98747 10.7266 6.99224 10.7222C6.99831 10.7167 7.00309 10.7125 7.00567 10.7102C7.01076 10.7058 7.01407 10.703 7.01409 10.703C7.01442 10.7027 7.01182 10.7049 7.00468 10.7107C6.99804 10.7162 6.9892 10.7233 6.97787 10.7325C6.93192 10.7695 6.85605 10.8301 6.74862 10.9154L7.99238 12.4816ZM8.30208 12.2318C8.92926 11.7134 9.43355 11.2784 9.80845 10.9303L8.44755 9.46471C8.11312 9.77525 7.64207 10.1826 7.02792 10.6902L8.30208 12.2318ZM9.80196 10.9363C10.2134 10.5609 10.57 10.1583 10.8653 9.72668L9.21469 8.59732C9.01599 8.88772 8.76459 9.17542 8.45404 9.45873L9.80196 10.9363ZM10.8653 9.72668C11.1945 9.24562 11.4105 8.70062 11.4105 8.1075H9.4105C9.4105 8.19838 9.37954 8.35638 9.21469 8.59732L10.8653 9.72668ZM11.4105 8.1075C11.4105 7.70189 11.3164 7.24447 11.001 6.86262L9.45904 8.13638C9.44231 8.11613 9.42988 8.09649 9.42109 8.07952C9.41242 8.06279 9.4083 8.05063 9.40673 8.04535C9.40397 8.03606 9.4105 8.05295 9.4105 8.1075H11.4105ZM11.001 6.86262C10.6407 6.42653 10.139 6.281 9.6885 6.281V8.281C9.70995 8.281 9.68333 8.28442 9.63018 8.26297C9.5709 8.23906 9.50817 8.19585 9.45904 8.13638L11.001 6.86262ZM9.6885 6.281C9.15107 6.281 8.65971 6.5067 8.32181 6.95211L9.91519 8.16089C9.8984 8.18302 9.86067 8.22122 9.80067 8.25022C9.74208 8.27854 9.69766 8.281 9.6885 8.281V6.281ZM8.3185 6.9565C8.00622 7.37288 7.919 7.87106 7.919 8.3165H9.919C9.919 8.21661 9.92935 8.15914 9.93611 8.1334C9.94237 8.10952 9.94233 8.12472 9.9185 8.1565L8.3185 6.9565ZM8.919 7.3165H7.3515V9.3165H8.919V7.3165ZM8.35122 8.34002C8.36095 7.92665 8.44676 7.65675 8.55232 7.47978L6.83468 6.45522C6.50957 7.00025 6.36738 7.62969 6.35178 8.29298L8.35122 8.34002ZM8.54567 7.49076C8.67503 7.28009 8.82339 7.1517 8.9923 7.07027L8.1237 5.26873C7.58327 5.52929 7.1553 5.93291 6.84133 6.44424L8.54567 7.49076ZM8.98609 7.07324C9.20109 6.97139 9.45196 6.913 9.755 6.913V4.913C9.18404 4.913 8.63691 5.02561 8.12991 5.26576L8.98609 7.07324ZM9.755 6.913C10.3474 6.913 10.6142 7.06321 10.7426 7.19374L12.1684 5.79126C11.5368 5.14912 10.6699 4.913 9.755 4.913V6.913ZM10.7484 7.19961C10.9211 7.37235 11.035 7.60829 11.035 8.003H13.035C13.035 7.15638 12.7625 6.38531 12.1626 5.78539L10.7484 7.19961ZM11.035 8.003C11.035 8.4326 10.8948 8.84771 10.5581 9.27192L12.1249 10.5151C12.7129 9.77396 13.035 8.92873 13.035 8.003H11.035ZM10.5615 9.26776C10.1585 9.77005 9.63043 10.2794 8.96445 10.7921L10.1846 12.3769C10.9499 11.7876 11.5998 11.1696 12.1215 10.5192L10.5615 9.26776ZM9.5745 12.5845H12.1395V10.5845H9.5745V12.5845ZM11.1395 11.5845V12.905H13.1395V11.5845H11.1395ZM12.1395 11.905H7.3705V13.905H12.1395V11.905ZM8.3705 12.905V11.6985H6.3705V12.905H8.3705Z" fill="black" fill-opacity="0.16" mask="url(#path-5-outside-1_3312_12838)"/>
<path fill-rule="evenodd" clip-rule="evenodd" d="M2.12622 13.6312L13.6311 2.12627L17.8737 6.36891L6.36886 17.8738L2.12622 13.6312Z" fill="url(#paint4_linear_3312_12838)" fill-opacity="0.32"/>
<defs>
<filter id="filter0_d_3312_12838" x="0" y="0" width="20" height="21" filterUnits="userSpaceOnUse" color-interpolation-filters="sRGB">
<feFlood flood-opacity="0" result="BackgroundImageFix"/>
<feColorMatrix in="SourceAlpha" type="matrix" values="0 0 0 0 0 0 0 0 0 0 0 0 0 0 0 0 0 0 127 0" result="hardAlpha"/>
<feOffset dy="1"/>
<feComposite in2="hardAlpha" operator="out"/>
<feColorMatrix type="matrix" values="0 0 0 0 0.117138 0 0 0 0 0.176258 0 0 0 0 0.202862 0 0 0 1 0"/>
<feBlend mode="normal" in2="BackgroundImageFix" result="effect1_dropShadow_3312_12838"/>
<feBlend mode="normal" in="SourceGraphic" in2="effect1_dropShadow_3312_12838" result="shape"/>
</filter>
<filter id="filter1_d_3312_12838" x="0" y="0" width="20" height="21" filterUnits="userSpaceOnUse" color-interpolation-filters="sRGB">
<feFlood flood-opacity="0" result="BackgroundImageFix"/>
<feColorMatrix in="SourceAlpha" type="matrix" values="0 0 0 0 0 0 0 0 0 0 0 0 0 0 0 0 0 0 127 0" result="hardAlpha"/>
<feOffset dy="1"/>
<feComposite in2="hardAlpha" operator="out"/>
<feColorMatrix type="matrix" values="0 0 0 0 0.117138 0 0 0 0 0.176258 0 0 0 0 0.202862 0 0 0 1 0"/>
<feBlend mode="normal" in2="BackgroundImageFix" result="effect1_dropShadow_3312_12838"/>
<feBlend mode="normal" in="SourceGraphic" in2="effect1_dropShadow_3312_12838" result="shape"/>
</filter>
<linearGradient id="paint0_linear_3312_12838" x1="9.99996" y1="21.5049" x2="9.99996" y2="-1.50486" gradientUnits="userSpaceOnUse">
<stop stop-color="#8AA8B5"/>
<stop offset="1" stop-color="#DCE5E8"/>
</linearGradient>
<linearGradient id="paint1_linear_3312_12838" x1="9.99996" y1="21.5049" x2="9.99996" y2="-1.50486" gradientUnits="userSpaceOnUse">
<stop stop-color="#8AA8B5"/>
<stop offset="1" stop-color="#DCE5E8"/>
</linearGradient>
<radialGradient id="paint2_angular_3312_12838" cx="0" cy="0" r="1" gradientUnits="userSpaceOnUse" gradientTransform="translate(10 10) rotate(90) scale(7 3)">
<stop stop-color="white"/>
<stop offset="1" stop-color="#E0E0E0"/>
</radialGradient>
<radialGradient id="paint3_angular_3312_12838" cx="0" cy="0" r="1" gradientUnits="userSpaceOnUse" gradientTransform="translate(10 10) rotate(-180) scale(3 7)">
<stop stop-color="white"/>
<stop offset="1" stop-color="#E0E0E0"/>
</radialGradient>
<linearGradient id="paint4_linear_3312_12838" x1="15.5605" y1="0.641487" x2="0.16503" y2="18.5671" gradientUnits="userSpaceOnUse">
<stop offset="0.125287" stop-color="white" stop-opacity="0"/>
<stop offset="0.195" stop-color="white"/>
<stop offset="0.375692" stop-color="white"/>
<stop offset="0.495" stop-color="white"/>
<stop offset="0.929467" stop-color="white" stop-opacity="0"/>
</linearGradient>
</defs>
</svg>
