<svg width="32" height="36" viewBox="0 0 32 36" fill="none" xmlns="http://www.w3.org/2000/svg">
<path d="M14.0184 1.96268C14.5862 -0.0324464 17.4138 -0.0324421 17.9816 1.96268L19.8462 8.51416C20.1509 9.58465 21.2507 10.2197 22.3301 9.94835L28.9278 8.29006C30.9373 7.785 32.3514 10.2284 30.9125 11.7192L26.1672 16.635C25.3966 17.4334 25.3966 18.6986 26.1672 19.4969L30.9125 24.4128C32.3514 25.9035 30.9373 28.3469 28.9278 27.8419L22.3301 26.1836C21.2507 25.9122 20.1509 26.5473 19.8462 27.6177L17.9816 34.1692C17.4138 36.1644 14.5862 36.1643 14.0184 34.1692L12.1538 27.6177C11.8491 26.5473 10.7493 25.9122 9.66989 26.1836L3.07216 27.8419C1.06274 28.3469 -0.351412 25.9035 1.08755 24.4127L5.83276 19.4969C6.60336 18.6986 6.60336 17.4334 5.83276 16.635L1.08754 11.7192C-0.351416 10.2284 1.06274 7.785 3.07216 8.29006L9.66989 9.94835C10.7493 10.2197 11.8491 9.58465 12.1538 8.51416L14.0184 1.96268Z" fill="#00EC97"/>
</svg>