<svg viewBox="0 0 33 33" fill="none" xmlns="http://www.w3.org/2000/svg">
<g clip-path="url(#clip0_3312_12713)">
<path d="M16.5129 33.0257C25.6327 33.0257 33.0257 25.6327 33.0257 16.5129C33.0257 7.39306 25.6327 0 16.5129 0C7.39306 0 0 7.39306 0 16.5129C0 25.6327 7.39306 33.0257 16.5129 33.0257Z" fill="url(#paint0_linear_3312_12713)"/>
<path fill-rule="evenodd" clip-rule="evenodd" d="M7.45911 16.3328C12.2689 14.2237 15.484 12.8605 17.1045 12.1917C21.6828 10.2884 22.6345 9.95402 23.2518 9.9283C23.3804 9.9283 23.689 9.95402 23.8948 10.1083C24.0491 10.237 24.1006 10.417 24.1263 10.5456C24.152 10.6742 24.1777 10.9571 24.152 11.1886C23.8948 13.7864 22.8402 20.1395 22.2744 23.046C22.0429 24.2806 21.5799 24.6921 21.1427 24.7436C20.191 24.8207 19.4451 24.1006 18.5191 23.509C17.0787 22.5573 16.2557 21.9657 14.841 21.0398C13.2206 19.9595 14.2752 19.3679 15.2011 18.4162C15.4326 18.159 19.6766 14.3266 19.7537 13.9665C19.7537 13.915 19.7794 13.7607 19.6766 13.6836C19.5737 13.6064 19.4451 13.6321 19.3422 13.6578C19.1879 13.6836 16.873 15.2268 12.3718 18.2619C11.7031 18.7249 11.1115 18.9306 10.5713 18.9306C9.97976 18.9306 8.84804 18.5963 7.99925 18.3133C6.97041 17.979 6.14734 17.7989 6.2245 17.2331C6.27594 16.9501 6.68748 16.6415 7.45911 16.3328Z" fill="white"/>
</g>
<defs>
<linearGradient id="paint0_linear_3312_12713" x1="0" y1="16.5009" x2="33.0018" y2="16.5009" gradientUnits="userSpaceOnUse">
<stop stop-color="#2AABEE"/>
<stop offset="1" stop-color="#229ED9"/>
</linearGradient>
<clipPath id="clip0_3312_12713">
<rect width="33" height="33" fill="white"/>
</clipPath>
</defs>
</svg>
