<svg width="48" height="48" viewBox="0 0 48 48" fill="none" xmlns="http://www.w3.org/2000/svg">
<g clip-path="url(#clip0_3312_12757)">
<path d="M25.9088 1.59C25.5038 1.95 22.3538 8.20125 22.3538 8.20125L20.01 17.655L29.13 16.8188C29.13 16.8188 36.7163 2.71125 36.87 2.385C37.1438 1.7925 37.29 1.54875 36.2438 1.54875C35.1975 1.545 26.2875 1.2525 25.9088 1.59Z" fill="#1838E0"/>
<path d="M9.56632 1.395C9.33007 1.6125 18.3638 17.7 18.3638 17.7C18.3638 17.7 19.8788 17.895 23.2613 17.925C26.6438 17.955 28.3201 17.73 28.3201 17.73C28.3201 17.73 21.2963 1.55625 20.8763 1.395C20.6701 1.3125 17.8876 1.2825 15.1688 1.2525C12.4463 1.21875 9.79132 1.185 9.56632 1.395Z" fill="#00FF00"/>
<g filter="url(#filter0_d_3312_12757)">
<mask id="path-3-inside-1_3312_12757" fill="white">
<path d="M11.25 20.35C11.25 18.776 12.526 17.5 14.1 17.5L33.9 17.5C35.474 17.5 36.75 18.776 36.75 20.35V32.35C36.75 39.0603 30.8 44.5 24 44.5C17.2 44.5 11.25 39.0603 11.25 32.35V20.35Z"/>
</mask>
<path d="M11.25 20.35C11.25 18.776 12.526 17.5 14.1 17.5L33.9 17.5C35.474 17.5 36.75 18.776 36.75 20.35V32.35C36.75 39.0603 30.8 44.5 24 44.5C17.2 44.5 11.25 39.0603 11.25 32.35V20.35Z" fill="url(#paint0_linear_3312_12757)"/>
<path d="M33.75 20.35V32.35H39.75V20.35H33.75ZM14.25 32.35V20.35H8.25V32.35H14.25ZM24 41.5C18.6812 41.5 14.25 37.2331 14.25 32.35H8.25C8.25 40.8875 15.7188 47.5 24 47.5V41.5ZM33.75 32.35C33.75 37.2331 29.3188 41.5 24 41.5V47.5C32.2812 47.5 39.75 40.8875 39.75 32.35H33.75ZM14.1 20.5L33.9 20.5L33.9 14.5L14.1 14.5L14.1 20.5ZM14.25 20.35C14.25 20.4328 14.1828 20.5 14.1 20.5L14.1 14.5C10.8691 14.5 8.25 17.1191 8.25 20.35H14.25ZM39.75 20.35C39.75 17.1191 37.1309 14.5 33.9 14.5L33.9 20.5C33.8172 20.5 33.75 20.4328 33.75 20.35H39.75Z" fill="white" fill-opacity="0.4" mask="url(#path-3-inside-1_3312_12757)"/>
</g>
<path d="M20.2267 28.033C20.2647 27.0165 20.5972 26.2328 21.2242 25.6818C21.8512 25.1308 22.7015 24.8553 23.775 24.8553C24.4875 24.8553 25.0955 24.9788 25.599 25.2258C26.112 25.4728 26.4967 25.81 26.7532 26.2375C27.0192 26.665 27.1522 27.1448 27.1522 27.6768C27.1522 28.3038 26.9955 28.8168 26.682 29.2158C26.3685 29.6053 26.0027 29.8713 25.5847 30.0138V30.0708C26.1262 30.2513 26.5537 30.5505 26.8672 30.9685C27.1807 31.3865 27.3375 31.9232 27.3375 32.5788C27.3375 33.1678 27.1997 33.6903 26.9242 34.1463C26.6582 34.5928 26.264 34.9443 25.7415 35.2007C25.2285 35.4572 24.6157 35.5855 23.9032 35.5855C22.7632 35.5855 21.8512 35.3052 21.1672 34.7448C20.4927 34.1843 20.1365 33.3388 20.0985 32.2083H22.464C22.4735 32.6263 22.5922 32.9588 22.8202 33.2057C23.0482 33.4433 23.3807 33.562 23.8177 33.562C24.1882 33.562 24.4732 33.4575 24.6727 33.2485C24.8817 33.03 24.9862 32.745 24.9862 32.3935C24.9862 31.9375 24.839 31.6098 24.5445 31.4103C24.2595 31.2013 23.7987 31.0968 23.1622 31.0968H22.7062V29.116H23.1622C23.6467 29.116 24.0363 29.0353 24.3307 28.8737C24.6347 28.7028 24.7867 28.4035 24.7867 27.976C24.7867 27.634 24.6917 27.368 24.5017 27.178C24.3118 26.988 24.0505 26.893 23.718 26.893C23.357 26.893 23.0862 27.0023 22.9057 27.2208C22.7347 27.4393 22.635 27.71 22.6065 28.033H20.2267Z" fill="url(#paint1_angular_3312_12757)"/>
<path d="M20.2267 28.033C20.2647 27.0165 20.5972 26.2328 21.2242 25.6818C21.8512 25.1308 22.7015 24.8553 23.775 24.8553C24.4875 24.8553 25.0955 24.9788 25.599 25.2258C26.112 25.4728 26.4967 25.81 26.7532 26.2375C27.0192 26.665 27.1522 27.1448 27.1522 27.6768C27.1522 28.3038 26.9955 28.8168 26.682 29.2158C26.3685 29.6053 26.0027 29.8713 25.5847 30.0138V30.0708C26.1262 30.2513 26.5537 30.5505 26.8672 30.9685C27.1807 31.3865 27.3375 31.9232 27.3375 32.5788C27.3375 33.1678 27.1997 33.6903 26.9242 34.1463C26.6582 34.5928 26.264 34.9443 25.7415 35.2007C25.2285 35.4572 24.6157 35.5855 23.9032 35.5855C22.7632 35.5855 21.8512 35.3052 21.1672 34.7448C20.4927 34.1843 20.1365 33.3388 20.0985 32.2083H22.464C22.4735 32.6263 22.5922 32.9588 22.8202 33.2057C23.0482 33.4433 23.3807 33.562 23.8177 33.562C24.1882 33.562 24.4732 33.4575 24.6727 33.2485C24.8817 33.03 24.9862 32.745 24.9862 32.3935C24.9862 31.9375 24.839 31.6098 24.5445 31.4103C24.2595 31.2013 23.7987 31.0968 23.1622 31.0968H22.7062V29.116H23.1622C23.6467 29.116 24.0363 29.0353 24.3307 28.8737C24.6347 28.7028 24.7867 28.4035 24.7867 27.976C24.7867 27.634 24.6917 27.368 24.5017 27.178C24.3118 26.988 24.0505 26.893 23.718 26.893C23.357 26.893 23.0862 27.0023 22.9057 27.2208C22.7347 27.4393 22.635 27.71 22.6065 28.033H20.2267Z" fill="url(#paint2_angular_3312_12757)" fill-opacity="0.5"/>
<path fill-rule="evenodd" clip-rule="evenodd" d="M12.0674 36.5685L31.1359 17.5H33.9003C35.4743 17.5 36.7503 18.776 36.7503 20.35V24.6135L18.2291 43.1347C15.4449 41.75 13.2054 39.4096 12.0674 36.5685Z" fill="white" fill-opacity="0.32"/>
</g>
<defs>
<filter id="filter0_d_3312_12757" x="11.25" y="17.5" width="25.5" height="28.2" filterUnits="userSpaceOnUse" color-interpolation-filters="sRGB">
<feFlood flood-opacity="0" result="BackgroundImageFix"/>
<feColorMatrix in="SourceAlpha" type="matrix" values="0 0 0 0 0 0 0 0 0 0 0 0 0 0 0 0 0 0 127 0" result="hardAlpha"/>
<feOffset dy="1.2"/>
<feComposite in2="hardAlpha" operator="out"/>
<feColorMatrix type="matrix" values="0 0 0 0 0.24 0 0 0 0 0.118652 0 0 0 0 0 0 0 0 1 0"/>
<feBlend mode="normal" in2="BackgroundImageFix" result="effect1_dropShadow_3312_12757"/>
<feBlend mode="normal" in="SourceGraphic" in2="effect1_dropShadow_3312_12757" result="shape"/>
</filter>
<linearGradient id="paint0_linear_3312_12757" x1="23.9999" y1="49.9458" x2="23.9998" y2="17.8375" gradientUnits="userSpaceOnUse">
<stop stop-color="#875C0A"/>
<stop offset="1" stop-color="#C59D68"/>
</linearGradient>
<radialGradient id="paint1_angular_3312_12757" cx="0" cy="0" r="1" gradientUnits="userSpaceOnUse" gradientTransform="translate(24 31) rotate(90) scale(10.5 4.5)">
<stop stop-color="white"/>
<stop offset="1" stop-color="#E0E0E0"/>
</radialGradient>
<radialGradient id="paint2_angular_3312_12757" cx="0" cy="0" r="1" gradientUnits="userSpaceOnUse" gradientTransform="translate(24 31) rotate(-180) scale(4.5 10.5)">
<stop stop-color="white"/>
<stop offset="1" stop-color="#E0E0E0"/>
</radialGradient>
<clipPath id="clip0_3312_12757">
<rect width="48" height="48" fill="white"/>
</clipPath>
</defs>
</svg>
