<svg viewBox="0 0 33 33" fill="none" xmlns="http://www.w3.org/2000/svg">
<g clip-path="url(#clip0_3312_12739)">
<path d="M16.5004 33.0008C25.6133 33.0008 33.0008 25.6133 33.0008 16.5004C33.0008 7.38749 25.6133 0 16.5004 0C7.38749 0 0 7.38749 0 16.5004C0 25.6133 7.38749 33.0008 16.5004 33.0008Z" fill="black"/>
<path d="M14.2043 13.7192V12.8186C13.8955 12.7764 13.5818 12.7499 13.2614 12.7499C9.40412 12.7499 6.26611 15.8879 6.26611 19.7452C6.26611 22.1117 7.44897 24.206 9.25264 25.4724C8.088 24.2225 7.37365 22.548 7.37365 20.7095C7.37365 16.9077 10.4231 13.8069 14.2043 13.7183V13.7192Z" fill="#25F4EE"/>
<path d="M14.369 23.9055C16.0899 23.9055 17.4938 22.5364 17.5575 20.8312L17.5633 5.59975H20.3462C20.2883 5.28686 20.2568 4.96486 20.2568 4.63541H16.4558L16.45 19.8669C16.3862 21.5729 14.9824 22.9412 13.2615 22.9412C12.7267 22.9412 12.2226 22.8071 11.7798 22.5745C12.3609 23.379 13.3037 23.9063 14.3698 23.9063L14.369 23.9055Z" fill="#25F4EE"/>
<path d="M25.5445 10.7691V9.92227C24.4834 9.92227 23.4942 9.6069 22.6648 9.06638C23.4031 9.91399 24.4064 10.5257 25.5445 10.7691Z" fill="#25F4EE"/>
<path d="M22.6647 9.06554C21.856 8.1368 21.3643 6.92415 21.3643 5.59892H20.3462C20.6144 7.04665 21.4736 8.28911 22.6647 9.06554Z" fill="#FE2C55"/>
<path d="M13.2615 16.5509C11.5001 16.5509 10.0664 17.9837 10.0664 19.746C10.0664 20.9728 10.7625 22.0389 11.779 22.5736C11.3999 22.0488 11.1739 21.4057 11.1739 20.7104C11.1739 18.9489 12.6076 17.5152 14.3691 17.5152C14.6977 17.5152 15.0131 17.5699 15.3119 17.6626V13.7829C15.0031 13.7407 14.6894 13.7142 14.3691 13.7142C14.3136 13.7142 14.259 13.7175 14.2035 13.7183V16.6983C13.9055 16.6047 13.5893 16.5509 13.2607 16.5509H13.2615Z" fill="#FE2C55"/>
<path d="M25.5445 10.7691V13.7233C23.5736 13.7233 21.7476 13.0926 20.2568 12.0231V19.7469C20.2568 23.6042 17.1188 26.7422 13.2615 26.7422C11.7707 26.7422 10.3884 26.272 9.25269 25.4741C10.5307 26.8457 12.351 27.7065 14.3699 27.7065C18.2272 27.7065 21.3652 24.5685 21.3652 20.7112V12.9874C22.856 14.0577 24.682 14.6876 26.6529 14.6876V10.8866C26.2729 10.8866 25.9021 10.8452 25.5453 10.7691H25.5445Z" fill="#FE2C55"/>
<path d="M20.2567 19.746V12.0223C21.7475 13.0926 23.5735 13.7225 25.5444 13.7225V10.7682C24.4062 10.5249 23.403 9.91316 22.6646 9.06554C21.4735 8.28911 20.6143 7.04665 20.3461 5.59892H17.5632L17.5574 20.8304C17.4936 22.5364 16.0898 23.9047 14.3689 23.9047C13.3027 23.9047 12.3599 23.3782 11.7788 22.5728C10.7615 22.0372 10.0662 20.9719 10.0662 19.7452C10.0662 17.9837 11.4999 16.5501 13.2613 16.5501C13.59 16.5501 13.9053 16.6047 14.2041 16.6974V13.7175C10.423 13.8061 7.37354 16.9068 7.37354 20.7087C7.37354 22.548 8.08789 24.2217 9.25253 25.4716C10.389 26.2695 11.7706 26.7397 13.2613 26.7397C17.1187 26.7397 20.2567 23.6017 20.2567 19.7444V19.746Z" fill="white"/>
</g>
<defs>
<clipPath id="clip0_3312_12739">
<rect width="33" height="33" fill="white"/>
</clipPath>
</defs>
</svg>
