<svg width="32" height="64" viewBox="0 0 32 64" fill="none" xmlns="http://www.w3.org/2000/svg">
<path d="M28.374 40.9813C27.7003 39.3854 26.7226 37.9359 25.4954 36.7134C24.2719 35.4874 22.8227 34.5098 21.2275 33.8348C21.2133 33.8277 21.199 33.8241 21.1847 33.817C23.4097 32.2098 24.8561 29.592 24.8561 26.6384C24.8561 21.7455 20.8918 17.7812 15.999 17.7812C11.1061 17.7812 7.14183 21.7455 7.14183 26.6384C7.14183 29.592 8.58826 32.2098 10.8133 33.8205C10.799 33.8277 10.7847 33.8313 10.7704 33.8384C9.1704 34.5134 7.73469 35.4813 6.50254 36.717C5.27651 37.9404 4.29899 39.3897 3.62397 40.9848C2.96084 42.5464 2.60319 44.2207 2.5704 45.917C2.56945 45.9551 2.57613 45.993 2.59007 46.0285C2.604 46.064 2.62489 46.0963 2.65152 46.1236C2.67814 46.1509 2.70996 46.1726 2.7451 46.1874C2.78024 46.2022 2.81799 46.2098 2.85612 46.2098H4.99897C5.15612 46.2098 5.28112 46.0848 5.28469 45.9313C5.35612 43.1741 6.46326 40.592 8.4204 38.6348C10.4454 36.6098 13.1347 35.4955 15.999 35.4955C18.8633 35.4955 21.5525 36.6098 23.5775 38.6348C25.5347 40.592 26.6418 43.1741 26.7133 45.9313C26.7168 46.0884 26.8418 46.2098 26.999 46.2098H29.1418C29.18 46.2098 29.2177 46.2022 29.2528 46.1874C29.288 46.1726 29.3198 46.1509 29.3464 46.1236C29.3731 46.0963 29.3939 46.064 29.4079 46.0285C29.4218 45.993 29.4285 45.9551 29.4275 45.917C29.3918 44.2098 29.0383 42.5491 28.374 40.9813ZM15.999 32.7813C14.3597 32.7813 12.8168 32.142 11.6561 30.9813C10.4954 29.8205 9.85612 28.2777 9.85612 26.6384C9.85612 24.9991 10.4954 23.4563 11.6561 22.2955C12.8168 21.1348 14.3597 20.4955 15.999 20.4955C17.6383 20.4955 19.1811 21.1348 20.3418 22.2955C21.5025 23.4563 22.1418 24.9991 22.1418 26.6384C22.1418 28.2777 21.5025 29.8205 20.3418 30.9813C19.1811 32.142 17.6383 32.7813 15.999 32.7813Z" fill="white"/>
</svg>
