<svg viewBox="0 0 33 24" fill="none" xmlns="http://www.w3.org/2000/svg">
<g clip-path="url(#clip0_3312_12725)">
<path d="M32.3104 3.6181C31.9309 2.19388 30.8128 1.07237 29.3929 0.691742C26.8194 0 16.5 -1.90735e-06 16.5 -1.90735e-06C16.5 -1.90735e-06 6.18062 0 3.60711 0.691742C2.1873 1.07237 1.06904 2.19388 0.689574 3.6181C0 6.19939 0 11.5851 0 11.5851C0 11.5851 0 16.9707 0.689574 19.5523C1.06904 20.9763 2.1873 22.0978 3.60711 22.4786C6.18062 23.1702 16.5 23.1702 16.5 23.1702C16.5 23.1702 26.8194 23.1702 29.3929 22.4786C30.8128 22.0978 31.9309 20.9763 32.3104 19.5523C33 16.9707 33 11.5851 33 11.5851C33 11.5851 33 6.19939 32.3104 3.6181Z" fill="#ED1D24"/>
<path d="M13.125 16.4749L21.75 11.5853L13.125 6.69529V16.4749Z" fill="white"/>
</g>
<defs>
<clipPath id="clip0_3312_12725">
<rect width="33" height="23.1702" fill="white"/>
</clipPath>
</defs>
</svg>
